#N struct 1003-bars float x float color;
#N canvas 9 16 934 956 12;
#X declare -path ./abs;
#X obj 15 531 oscparse;
#X obj 15 432 netreceive -u -b 5003;
#X obj 215 456 route mouth;
#X obj 15 555 list trim;
#X obj 215 480 clip 0.002 0.02;
#X obj 215 504 else/rescale 0.002 0.02 0 127;
#X obj 655 432 r \$0-osc;
#X obj 15 579 send \$0-osc;
#X obj 215 432 r \$0-osc;
#N canvas -1755 25 1920 1037 guts 1;
#X obj 609 117 i;
#X obj 609 88 t f b;
#X obj 589 198 i;
#X obj 589 169 t f b;
#X obj 629 60 t f f;
#X obj 1056 62 text define -k \$0-scales;
#A set none 0 0 0 0 0 0 0 \; love 0 2 4 5 7 9 11 \; hate 0 1 3 5 7 8 10 \; desire 0 2 4 5 7 9 11 \; sadness 0 2 3 5 7 8 10 \; joy 0 2 4 5 7 9 10 \; admiration 0 2 4 6 7 9 11 \;;
#X obj 609 141 t f f;
#X obj 942 155 array define -k -yrange 0 11 \$0-scale 7;
#A 0 0 0 0 0 0 0 0;
#X obj 905 97 list split 1;
#X obj 905 49 r \$0-emotion-1;
#X obj 905 73 text get \$0-scales;
#X obj 589 227 s \$0-emotion-3;
#X obj 641 170 s \$0-emotion-2;
#X obj 661 89 s \$0-emotion-1;
#X obj 945 121 array set \$0-scale;
#X obj 354 687 r~ \$0-voice;
#X obj 201 42 text define -k \$0-emotionIndexes;
#A set none 0 0 0 \; love 1 -1 1 \; hate -1 -1 1 \; admiration 0 0 1 \; desire 1 0 -1 \; joy 1 0 1 \; sadness -1 0 -2 \;;
#X obj 81 12 r \$0-emotion-1;
#X obj 81 76 text get \$0-emotionIndexes;
#X obj 81 100 list split 1;
#X obj 121 129 unpack f f f;
#X obj 51 183 +;
#X obj 91 183 i;
#X obj 161 183 +;
#X obj 201 183 i;
#X obj 281 183 +;
#X obj 321 183 i;
#X msg 321 124 0;
#X text 350 121 reset;
#X obj 32 554 metro;
#X obj 84 477 /;
#X obj 84 501 / 4;
#X obj 84 525 t f f;
#X obj 116 554 s \$0-duracion;
#X obj 32 598 i;
#X obj 72 598 + 1;
#X msg 84 381 2 \$1;
#X obj 84 405 pow;
#X obj 84 429 * 40;
#X obj 12 501 loadbang;
#X msg 12 525 1;
#X obj 84 327 / 18;
#X obj 803 695 text define -k \$0-passionName;
#A set Other \; Love \; Hate \; Desire \; Admiration \; Joy \; Sadness \;;
#X obj 803 759 text get \$0-passionName;
#X obj 321 95 r \$0-reset;
#X text 321 75 GUI: Reset;
#N canvas 104 75 1353 933 voice-processing 0;
#X obj 569 816 else/plate.rev~;
#X obj 569 850 +~;
#N canvas 0 231 893 553 fear 0;
#X obj 101 382 audiolab/pp.fft-timbre~ 512 4;
#A saved empty_slot \; empty_slot \; empty_slot \; empty_slot \; empty_slot \; empty_slot \; empty_slot \; empty_slot \; empty_slot \; empty_slot \; empty_slot \; empty_slot \; empty_slot \; empty_slot \; empty_slot \; empty_slot \; empty_slot \; empty_slot \; empty_slot \; empty_slot \; empty_slot \;;
#X obj 101 325 else/highpass~ 300 0.4;
#X obj 274 311 loadbang;
#X obj 101 453 else/lowpass~ 4000 0.4;
#X obj 101 354 else/highpass~ 1000 0.4;
#X msg 274 339 curve-1 330 \, breakpoint-1 47 \, curve-2 533 \, breakpoint-2 26 \, rotate -78 \, shift 375 \, gain 20 \, dry/wet 90;
#X obj 101 424 else/highshelf~ 3000 0.4 9;
#X obj 709 236 switch~;
#X obj 711 432 line~;
#X obj 711 384 pow 2;
#X obj 711 455 sqrt~;
#X obj 677 117 sel 0;
#X msg 677 207 0;
#X msg 697 153 stop;
#X obj 424 472 *~;
#X obj 424 501 outlet~;
#X msg 711 408 \$1 100;
#X obj 677 182 delay 100;
#X obj 711 336 == 1;
#X obj 677 93 == 1;
#X obj 711 312 r \$0-faceEmotion-s;
#X obj 677 69 r \$0-faceEmotion-s;
#X obj 46 36 r \$0-sampleSize;
#X obj 12 185 phasor~;
#X obj 46 60 t f f;
#X msg 12 85 44100 \$1;
#X obj 12 109 /;
#X obj 60 214 *~;
#X obj 175 89 + 69;
#X obj 175 113 mtof;
#X obj 175 137 / 440;
#X obj 274 210 * -100;
#X obj 12 156 *~ 0.8;
#X obj 101 268 audiolab/pp.fft-pitchshift~;
#A saved empty_slot \; empty_slot \; empty_slot \; empty_slot \; empty_slot \; empty_slot \; empty_slot \; empty_slot \; empty_slot \; empty_slot \; empty_slot \; empty_slot \; empty_slot \; empty_slot \; empty_slot \; empty_slot \; empty_slot \; empty_slot \; empty_slot \; empty_slot \; empty_slot \;;
#X msg 274 239 transposition \$1;
#X obj 242 12 loadbang;
#X msg 242 36 -6;
#X obj 242 60 t f f;
#X obj 101 239 tabread4~ \$0-voz;
#X obj 711 360 * 0.5;
#X connect 0 0 6 0;
#X connect 1 0 4 0;
#X connect 2 0 5 0;
#X connect 3 0 14 0;
#X connect 4 0 0 0;
#X connect 5 0 0 1;
#X connect 6 0 3 0;
#X connect 8 0 10 0;
#X connect 9 0 16 0;
#X connect 10 0 14 1;
#X connect 11 0 17 0;
#X connect 11 1 13 0;
#X connect 11 1 7 0;
#X connect 12 0 7 0;
#X connect 13 0 17 0;
#X connect 14 0 15 0;
#X connect 16 0 8 0;
#X connect 17 0 12 0;
#X connect 18 0 39 0;
#X connect 19 0 11 0;
#X connect 20 0 18 0;
#X connect 21 0 19 0;
#X connect 22 0 24 0;
#X connect 23 0 27 0;
#X connect 24 0 25 0;
#X connect 24 1 27 1;
#X connect 25 0 26 0;
#X connect 26 0 32 0;
#X connect 27 0 38 0;
#X connect 28 0 29 0;
#X connect 29 0 30 0;
#X connect 30 0 32 1;
#X connect 31 0 34 0;
#X connect 32 0 23 0;
#X connect 33 0 1 0;
#X connect 34 0 33 2;
#X connect 35 0 36 0;
#X connect 36 0 37 0;
#X connect 37 0 28 0;
#X connect 37 1 31 0;
#X connect 38 0 33 0;
#X connect 39 0 9 0;
#X restore 33 472 pd fear;
#N canvas 278 181 755 552 sadness 0;
#X obj 38 339 delread4~ \$0-vibrato;
#X obj 183 200 *~ 2;
#X obj 183 224 -~ 1;
#X obj 345 156 loadbang;
#X msg 345 180 1;
#X obj 345 204 metro 100;
#X obj 345 228 t b b;
#X obj 434 218 t f f;
#X obj 345 330 pack f f;
#X obj 345 280 + 100;
#X obj 345 304 dbtorms;
#X obj 345 354 line~;
#X obj 38 373 *~;
#X obj 38 240 osc~ 5;
#X obj 111 242 osc~ 0.9;
#X obj 38 96 loadbang;
#X msg 38 120 1;
#X obj 38 216 line~;
#X obj 38 143 metro 500;
#X msg 38 192 \$1 500;
#X obj 183 171 phasor~ 0.5;
#X obj 183 254 else/lowpass~ 0.5 0.4;
#X obj 38 33 inlet~;
#X obj 38 310 +~ 90;
#X obj 650 456 switch~;
#X obj 458 385 line~;
#X obj 458 337 pow 2;
#X obj 458 408 sqrt~;
#X obj 618 337 sel 0;
#X msg 618 427 0;
#X msg 638 373 stop;
#X obj 38 427 *~;
#X obj 38 466 outlet~;
#X obj 38 57 delwrite~ \$0-vibrato 120;
#X msg 458 361 \$1 100;
#X obj 618 402 delay 100;
#X obj 458 313 == 6;
#X obj 618 313 == 6;
#X obj 38 269 *~ 2;
#X obj 183 281 *~ 60;
#X obj 111 266 *~ 5;
#X obj 458 288 r \$0-faceEmotion-s;
#X obj 618 289 r \$0-faceEmotion-s;
#X obj 38 168 rand.f 5 8;
#X obj 434 194 rand.f 10 200;
#X obj 345 256 else/rand.f -15 0;
#X connect 0 0 12 0;
#X connect 1 0 2 0;
#X connect 2 0 21 0;
#X connect 3 0 4 0;
#X connect 4 0 5 0;
#X connect 5 0 6 0;
#X connect 6 0 45 0;
#X connect 6 1 44 0;
#X connect 7 0 5 1;
#X connect 7 1 8 1;
#X connect 8 0 11 0;
#X connect 9 0 10 0;
#X connect 10 0 8 0;
#X connect 11 0 12 1;
#X connect 12 0 31 0;
#X connect 13 0 38 0;
#X connect 14 0 40 0;
#X connect 15 0 16 0;
#X connect 16 0 18 0;
#X connect 17 0 13 0;
#X connect 18 0 43 0;
#X connect 19 0 17 0;
#X connect 20 0 1 0;
#X connect 21 0 39 0;
#X connect 22 0 33 0;
#X connect 23 0 0 0;
#X connect 25 0 27 0;
#X connect 26 0 34 0;
#X connect 27 0 31 1;
#X connect 28 0 35 0;
#X connect 28 1 30 0;
#X connect 28 1 24 0;
#X connect 29 0 24 0;
#X connect 30 0 35 0;
#X connect 31 0 32 0;
#X connect 34 0 25 0;
#X connect 35 0 29 0;
#X connect 36 0 26 0;
#X connect 37 0 28 0;
#X connect 38 0 23 0;
#X connect 39 0 23 0;
#X connect 40 0 23 0;
#X connect 41 0 36 0;
#X connect 42 0 37 0;
#X connect 43 0 19 0;
#X connect 44 0 7 0;
#X connect 45 0 9 0;
#X restore 423 472 pd sadness;
#N canvas 299 144 786 589 disgust 0;
#N canvas 352 24 545 673 fft-analysis 0;
#X obj 92 534 *~;
#X obj 53 534 *~;
#X obj 330 325 *~;
#X obj 298 325 *~;
#X obj 298 351 +~;
#X obj 53 176 *~;
#X obj 53 151 inlet~;
#X obj 53 199 rfft~;
#X obj 53 603 *~;
#X obj 144 238 *~;
#X obj 298 297 rfft~;
#X obj 53 568 rifft~;
#X obj 53 636 outlet~;
#X obj 110 238 *~;
#X obj 110 261 +~;
#X text 379 355 modulus;
#X obj 110 443 *~;
#X obj 357 459 block~ 1024 4;
#X obj 110 391 clip~;
#X obj 86 177 tabreceive~ \$0-hann;
#X obj 356 499 loadbang;
#X obj 143 342 r squelch;
#X obj 142 365 expr 0.01*$f1*$f1;
#X obj 110 287 +~ 1e-20;
#X obj 110 503 *~ 0.00065;
#X obj 86 603 tabreceive~ \$0-hann;
#X obj 298 268 *~;
#X obj 298 239 inlet~;
#X obj 331 269 tabreceive~ \$0-hann;
#X text 379 372 of control;
#X text 377 389 amplitude;
#X text 187 242 reciprocal;
#X text 190 261 modulus of;
#X text 186 281 filter input;
#X text 187 300 amplitude;
#X text 114 152 filter input;
#X text 363 239 control source;
#X text 360 296 Fourier transform;
#X text 43 19 Internal workings of the timbre stamping algorithm. First the "filter input" is treated as in the compressor patch \, multiplying each channel amplitude by one over its modulus (but limited by the "squelch" parameter.) It is then multiplied by the modulus of the channel amplitude for the control source (which is Fourier analyzed in parallel with the filter input.);
#X text 148 440 multiply the two amplitude;
#X text 146 457 factors (for compression;
#X text 148 473 and to apply new timbre);
#X obj 110 314 rsqrt~;
#X obj 298 374 sqrt~;
#X msg 356 523 \; window-size 1024 \; squelch 100 \;;
#X connect 0 0 11 1;
#X connect 1 0 11 0;
#X connect 2 0 4 1;
#X connect 3 0 4 0;
#X connect 4 0 43 0;
#X connect 5 0 7 0;
#X connect 6 0 5 0;
#X connect 7 0 13 0;
#X connect 7 0 13 1;
#X connect 7 0 1 0;
#X connect 7 1 9 0;
#X connect 7 1 9 1;
#X connect 7 1 0 0;
#X connect 8 0 12 0;
#X connect 9 0 14 1;
#X connect 10 0 3 0;
#X connect 10 0 3 1;
#X connect 10 1 2 0;
#X connect 10 1 2 1;
#X connect 11 0 8 0;
#X connect 13 0 14 0;
#X connect 14 0 23 0;
#X connect 16 0 24 0;
#X connect 18 0 16 0;
#X connect 19 0 5 1;
#X connect 20 0 44 0;
#X connect 21 0 22 0;
#X connect 22 0 18 2;
#X connect 23 0 42 0;
#X connect 24 0 0 1;
#X connect 24 0 1 1;
#X connect 25 0 8 1;
#X connect 26 0 10 0;
#X connect 27 0 26 0;
#X connect 28 0 26 1;
#X connect 42 0 18 0;
#X connect 43 0 16 1;
#X restore 89 283 pd fft-analysis;
#N canvas 163 152 567 523 hann-window 0;
#N canvas 0 0 450 300 (subpatch) 0;
#X array \$0-hann 1024 float 0;
#X coords 0 1 1023 0 300 100 1;
#X restore 110 394 graph;
#X obj 327 184 osc~;
#X obj 327 209 *~ -0.5;
#X obj 327 233 +~ 0.5;
#X obj 310 276 tabwrite~ \$0-hann;
#X obj 86 113 r window-size;
#X obj 157 237 /;
#X obj 175 205 samplerate~;
#X obj 157 315 s window-sec;
#X obj 67 251 swap;
#X obj 67 275 /;
#X obj 67 299 s window-hz;
#X obj 168 265 * 1000;
#X obj 168 292 s window-msec;
#X obj 86 148 t f b f;
#X msg 175 155 resize \$1;
#X obj 175 179 s \$0-hann;
#X obj 279 122 r window-hz;
#X msg 352 154 0;
#X obj 279 150 t f b;
#X text 56 20 calculate Hann window table (variable window size) and constants window-hz (fundamental frequency of analysis) \, window-sec and window-msec (analysis window size in seconds and msec)., f 56;
#X connect 1 0 2 0;
#X connect 2 0 3 0;
#X connect 3 0 4 0;
#X connect 5 0 14 0;
#X connect 6 0 8 0;
#X connect 6 0 12 0;
#X connect 7 0 6 1;
#X connect 7 0 9 1;
#X connect 9 0 10 0;
#X connect 9 1 10 1;
#X connect 10 0 11 0;
#X connect 12 0 13 0;
#X connect 14 0 6 0;
#X connect 14 0 9 0;
#X connect 14 1 7 0;
#X connect 14 2 15 0;
#X connect 15 0 16 0;
#X connect 17 0 19 0;
#X connect 18 0 1 1;
#X connect 19 0 1 0;
#X connect 19 1 4 0;
#X connect 19 1 18 0;
#X restore 28 384 pd hann-window;
#X obj 174 410 *~;
#X obj 507 372 switch~;
#X obj 629 410 line~;
#X obj 629 362 pow 2;
#X obj 629 434 sqrt~;
#X obj 475 253 sel 0;
#X msg 475 343 0;
#X msg 495 289 stop;
#X msg 629 386 \$1 100;
#X obj 475 318 delay 100;
#X obj 629 338 == 3;
#X obj 475 229 == 3;
#X obj 174 468 outlet~;
#X obj 629 314 r \$0-faceEmotion-s;
#X obj 475 205 r \$0-faceEmotion-s;
#X obj 79 244 else/pulse~ 10;
#X obj 237 34 r \$0-sampleSize;
#X obj 104 134 phasor~;
#X obj 237 58 t f f;
#X text 461 31 samples a Hz;
#X msg 102 34 44100 \$1;
#X obj 102 58 /;
#X obj 150 165 *~;
#X floatatom 345 58 5 0 0 0 - - - 0;
#X obj 345 81 + 69;
#X obj 345 105 mtof;
#X obj 345 129 / 440;
#X obj 258 122 * -100;
#X floatatom 345 153 5 0 0 0 - - - 0;
#X obj 102 105 *~ 0.8;
#X obj 191 190 tabread4~ \$0-voz;
#X obj 477 95 loadbang;
#X msg 477 119 -2;
#X obj 89 307 *~ 1;
#X obj 261 303 *~ 0.4;
#X connect 0 0 35 0;
#X connect 2 0 14 0;
#X connect 4 0 6 0;
#X connect 5 0 10 0;
#X connect 6 0 2 1;
#X connect 7 0 11 0;
#X connect 7 1 9 0;
#X connect 7 1 3 0;
#X connect 8 0 3 0;
#X connect 9 0 11 0;
#X connect 10 0 4 0;
#X connect 11 0 8 0;
#X connect 12 0 5 0;
#X connect 13 0 7 0;
#X connect 15 0 12 0;
#X connect 16 0 13 0;
#X connect 17 0 0 0;
#X connect 18 0 20 0;
#X connect 19 0 24 0;
#X connect 20 0 22 0;
#X connect 20 1 24 1;
#X connect 22 0 23 0;
#X connect 23 0 31 0;
#X connect 24 0 32 0;
#X connect 25 0 26 0;
#X connect 25 0 29 0;
#X connect 26 0 27 0;
#X connect 27 0 28 0;
#X connect 28 0 30 0;
#X connect 28 0 31 1;
#X connect 31 0 19 0;
#X connect 32 0 0 1;
#X connect 32 0 36 0;
#X connect 33 0 34 0;
#X connect 34 0 25 0;
#X connect 35 0 2 0;
#X connect 36 0 2 0;
#X restore 173 472 pd disgust;
#N canvas 266 372 1014 323 anger 0;
#X obj 84 129 else/drive~ 60;
#X obj 84 153 hip~ 100;
#X obj 25 27 inlet~;
#X obj 431 243 switch~;
#X obj 239 172 line~;
#X obj 239 124 pow 2;
#X obj 239 196 sqrt~;
#X obj 399 124 sel 0;
#X msg 399 214 0;
#X msg 419 160 stop;
#X obj 84 215 *~;
#X obj 84 239 outlet~;
#X obj 84 80 -~ 0.02;
#X msg 239 148 \$1 100;
#X obj 399 189 delay 100;
#X obj 239 70 == 2;
#X obj 399 100 == 2;
#X obj 24 176 *~ 0.05;
#X obj 239 46 r \$0-faceEmotion-s;
#X obj 399 76 r \$0-faceEmotion-s;
#X obj 85 105 else/eq~ 2000 100 10;
#X obj 25 51 else/pitch.shift~ -300;
#X obj 239 94 * 0.3;
#X obj 84 176 *~ 0.2;
#X connect 0 0 1 0;
#X connect 1 0 23 0;
#X connect 2 0 21 0;
#X connect 4 0 6 0;
#X connect 5 0 13 0;
#X connect 6 0 10 1;
#X connect 7 0 14 0;
#X connect 7 1 9 0;
#X connect 7 1 3 0;
#X connect 8 0 3 0;
#X connect 9 0 14 0;
#X connect 10 0 11 0;
#X connect 12 0 20 0;
#X connect 13 0 4 0;
#X connect 14 0 8 0;
#X connect 15 0 22 0;
#X connect 16 0 7 0;
#X connect 17 0 10 0;
#X connect 18 0 15 0;
#X connect 19 0 16 0;
#X connect 20 0 0 0;
#X connect 21 0 12 0;
#X connect 21 0 17 0;
#X connect 22 0 5 0;
#X connect 23 0 10 0;
#X restore 103 472 pd anger;
#N canvas 341 395 677 292 happiness 0;
#X obj 12 70 audiolab/pp.fft-pitchshift~;
#A saved empty_slot \; empty_slot \; empty_slot \; empty_slot \; empty_slot \; empty_slot \; empty_slot \; empty_slot \; empty_slot \; empty_slot \; empty_slot \; empty_slot \; empty_slot \; empty_slot \; empty_slot \; empty_slot \; empty_slot \; empty_slot \; empty_slot \; empty_slot \; empty_slot \;;
#X obj 185 12 loadbang;
#X obj 12 41 inlet~;
#X obj 526 194 switch~;
#X obj 344 124 line~;
#X obj 344 76 pow 2;
#X obj 344 147 sqrt~;
#X obj 494 75 sel 0;
#X msg 494 165 0;
#X msg 514 111 stop;
#X obj 12 164 *~;
#X obj 12 188 outlet~;
#X msg 344 100 \$1 100;
#X obj 494 140 delay 100;
#X obj 344 52 == 5;
#X obj 494 51 == 5;
#X obj 344 27 r \$0-faceEmotion-s;
#X obj 494 27 r \$0-faceEmotion-s;
#X msg 185 41 transposition 700;
#X connect 0 0 10 0;
#X connect 1 0 18 0;
#X connect 2 0 0 0;
#X connect 4 0 6 0;
#X connect 5 0 12 0;
#X connect 6 0 10 1;
#X connect 7 0 13 0;
#X connect 7 1 9 0;
#X connect 7 1 3 0;
#X connect 8 0 3 0;
#X connect 9 0 13 0;
#X connect 10 0 11 0;
#X connect 12 0 4 0;
#X connect 13 0 8 0;
#X connect 14 0 5 0;
#X connect 15 0 7 0;
#X connect 16 0 14 0;
#X connect 17 0 15 0;
#X connect 18 0 0 2;
#X restore 333 472 pd happiness;
#X obj 646 416 soundfiler;
#X obj 646 440 s \$0-sampleSize;
#X obj 676 464 v \$0-sampleSize;
#X obj 594 760 loadbang;
#X obj 569 879 s~ \$0-voice;
#N canvas 131 165 848 806 surprise 0;
#X obj 560 725 switch~;
#X obj 358 617 line~;
#X obj 358 569 pow 2;
#X obj 358 640 sqrt~;
#X obj 528 606 sel 0;
#X msg 528 696 0;
#X msg 548 642 stop;
#X obj 340 669 *~;
#X obj 340 743 outlet~;
#X msg 358 593 \$1 100;
#X obj 528 671 delay 100;
#X obj 358 520 r \$0-faceEmotion-s;
#X obj 528 558 r \$0-faceEmotion-s;
#X obj 358 545 == 4;
#X obj 528 582 == 4;
#X obj 215 146 r \$0-sampleSize;
#X obj 183 299 phasor~;
#X obj 215 170 t f f;
#X msg 181 199 44100 \$1;
#X obj 181 223 /;
#X obj 229 330 *~;
#X floatatom 344 140 5 0 0 0 - - - 0;
#X obj 304 203 + 69;
#X obj 304 227 mtof;
#X obj 304 251 / 440;
#X obj 376 368 * -100;
#X obj 181 270 *~ 0.8;
#X obj 14 485 audiolab/pp.fft-pitchshift~;
#A saved empty_slot \; empty_slot \; empty_slot \; empty_slot \; empty_slot \; empty_slot \; empty_slot \; empty_slot \; empty_slot \; empty_slot \; empty_slot \; empty_slot \; empty_slot \; empty_slot \; empty_slot \; empty_slot \; empty_slot \; empty_slot \; empty_slot \; empty_slot \; empty_slot \;;
#X msg 376 416 transposition \$1;
#X obj 440 84 random 100;
#X obj 440 318 sig~;
#X obj 558 126 sel 1;
#X obj 558 150 random 100;
#X obj 558 174 < 50;
#X obj 558 198 sel 1;
#X msg 558 270 1;
#X obj 558 318 sig~;
#X obj 558 294 * -8820;
#X obj 558 222 t b b;
#X obj 590 246 delay 200;
#X msg 590 270 0;
#X obj 229 631 line~;
#X obj 14 650 *~;
#X obj 229 554 change -1;
#X obj 604 355 sel 1;
#X obj 229 578 select 0 1;
#X obj 229 506 env~;
#X obj 229 530 > 76;
#X msg 674 408 0 10;
#X obj 604 437 line 0 1;
#X obj 674 384 delay 150;
#X msg 604 408 0 \, 1 150;
#X obj 440 294 * -8820;
#X obj 440 60 metro 200;
#X obj 440 107 < 10;
#X obj 344 87 loadbang;
#X obj 440 12 loadbang;
#X msg 440 36 1;
#X obj 344 163 t f f;
#X obj 376 392 + 100;
#X obj 604 466 * 500;
#X msg 290 600 1 10;
#X msg 229 602 0.25 100;
#X obj 229 369 tabread4~ \$0-voz;
#X msg 344 112 2;
#X obj 341 693 *~ 0.5;
#X connect 1 0 3 0;
#X connect 2 0 9 0;
#X connect 3 0 7 1;
#X connect 4 0 10 0;
#X connect 4 1 6 0;
#X connect 4 1 0 0;
#X connect 5 0 0 0;
#X connect 6 0 10 0;
#X connect 7 0 65 0;
#X connect 9 0 1 0;
#X connect 10 0 5 0;
#X connect 11 0 13 0;
#X connect 12 0 14 0;
#X connect 13 0 2 0;
#X connect 14 0 4 0;
#X connect 15 0 17 0;
#X connect 16 0 20 0;
#X connect 17 0 18 0;
#X connect 17 1 20 1;
#X connect 18 0 19 0;
#X connect 19 0 26 0;
#X connect 20 0 63 0;
#X connect 21 0 58 0;
#X connect 22 0 23 0;
#X connect 23 0 24 0;
#X connect 24 0 26 1;
#X connect 25 0 59 0;
#X connect 26 0 16 0;
#X connect 27 0 42 0;
#X connect 28 0 27 2;
#X connect 29 0 54 0;
#X connect 30 0 63 0;
#X connect 31 0 32 0;
#X connect 32 0 33 0;
#X connect 33 0 34 0;
#X connect 34 0 38 0;
#X connect 35 0 37 0;
#X connect 36 0 63 0;
#X connect 37 0 36 0;
#X connect 38 0 35 0;
#X connect 38 1 39 0;
#X connect 39 0 40 0;
#X connect 40 0 37 0;
#X connect 41 0 42 1;
#X connect 42 0 7 0;
#X connect 43 0 44 0;
#X connect 43 0 45 0;
#X connect 44 0 51 0;
#X connect 44 0 50 0;
#X connect 45 0 62 0;
#X connect 45 1 61 0;
#X connect 46 0 47 0;
#X connect 47 0 43 0;
#X connect 48 0 49 0;
#X connect 49 0 60 0;
#X connect 50 0 48 0;
#X connect 51 0 49 0;
#X connect 52 0 30 0;
#X connect 53 0 29 0;
#X connect 54 0 31 0;
#X connect 54 0 52 0;
#X connect 55 0 64 0;
#X connect 56 0 57 0;
#X connect 57 0 53 0;
#X connect 58 0 22 0;
#X connect 58 1 25 0;
#X connect 59 0 28 0;
#X connect 60 0 27 1;
#X connect 61 0 41 0;
#X connect 62 0 41 0;
#X connect 63 0 46 0;
#X connect 63 0 27 0;
#X connect 64 0 21 0;
#X connect 65 0 8 0;
#X restore 253 472 pd surprise;
#X text 923 359 1 = fear \; 2 = hate \; 3 = disgust \; 4 = surprise \; 5 = hapiness \; 6 = sadness \;;
#X obj 1124 358 r \$0-mouth-s;
#X text 1124 338 GUI: Mouth;
#X obj 1124 382 > 0;
#X obj 1124 459 +;
#X obj 1164 459 i;
#X obj 1124 406 * 2;
#X obj 1124 430 - 1;
#X obj 1164 518 / 15;
#X obj 1124 483 clip 0 15;
#X msg 595 785 wet 0.7 \, size 0.6 \, damp 0.5 \, pre 0 \, cutoff 0.25;
#X obj 1164 542 s \$0-mouthAcum-r;
#X obj 424 12 r \$0-open;
#X obj 646 363 pack s \$0;
#X msg 646 392 read -resize \$1 \$2-voz;
#X obj 776 416 array define \$0-voz;
#X obj 80 741 *~;
#X obj 155 699 sig~ 1;
#X obj 155 723 -~;
#X obj 604 546 env~;
#X obj 604 704 line~;
#X obj 604 617 select 1 0;
#X obj 81 651 else/plate.rev~;
#X obj 106 595 loadbang;
#X obj 654 646 delay 100;
#X msg 654 675 0 100;
#X obj 164 220 text define \$0-audioFiles;
#X obj 118 103 loadbang;
#X msg 164 191 read ../scene3-latest.txt;
#X obj 141 259 text size \$0-audioFiles;
#X obj 118 162 t b b b;
#X msg 42 235 1;
#X obj 102 288 random;
#X obj 42 259 metro 10000;
#X obj 102 312 text get \$0-audioFiles;
#X obj 447 123 openpanel 2;
#X obj 424 41 bng 19 250 50 0 empty empty empty 17 7 0 10 #dfdfdf #000000 #000000;
#X obj 413 184 until;
#X obj 426 284 list store;
#X obj 447 151 t b b l;
#X obj 413 209 f;
#X obj 451 210 + 1;
#X msg 470 184 0, f 2;
#X msg 413 257 get \$1 1;
#X obj 413 233 t f f;
#X obj 426 313 text set \$0-audioFiles;
#X msg 950 84 clear;
#X obj 950 108 s \$0-textAudioFiles;
#X obj 204 161 r \$0-textAudioFiles;
#X obj 424 65 t b b b;
#X obj 604 570 > 60;
#X msg 604 675 1 1;
#X obj 604 594 change -1;
#X obj 32 567 else/ffdelay~ 4000;
#X msg 107 620 wet 0.5 \, size 0.8 \, damp 0.5 \, pre 0 \, cutoff 0.5;
#N canvas 78 78 513 448 mouth 0;
#X obj 252 90 / 127;
#X obj 252 217 mtof;
#X obj 131 166 + 100;
#X obj 131 190 dbtorms;
#X msg 131 70 1 \$1;
#X obj 131 94 -;
#X obj 62 233 *~;
#X obj 252 61 r \$0-mouth-s;
#X text 252 41 GUI: Mouth (every 150 ms);
#X obj 62 257 *~ 1;
#X obj 177 271 else/lowpass~ 4000 0.4;
#X obj 19 164 inlet~;
#X obj 177 353 outlet~;
#X obj 131 118 pow 4;
#X obj 252 241 else/f2s~ 50;
#X obj 131 214 else/f2s~ 50;
#X obj 131 142 * 0;
#X obj 252 193 + 70;
#X obj 252 169 * 65;
#X connect 0 0 4 0;
#X connect 0 0 18 0;
#X connect 1 0 14 0;
#X connect 2 0 3 0;
#X connect 3 0 15 0;
#X connect 4 0 5 0;
#X connect 5 0 13 0;
#X connect 6 0 9 0;
#X connect 7 0 0 0;
#X connect 9 0 10 0;
#X connect 10 0 12 0;
#X connect 11 0 6 0;
#X connect 13 0 16 0;
#X connect 14 0 10 1;
#X connect 15 0 6 1;
#X connect 16 0 2 0;
#X connect 17 0 1 0;
#X connect 18 0 17 0;
#X restore 246 772 pd mouth;
#X obj 424 443 tabplay~ \$0-voz;
#X obj 507 417 s \$0-voz;
#X obj 424 344 t b b a;
#X obj 452 412 bang;
#X text 266 522 threshhold \, ratio \, attack \, decay \, gain \, samples;
#N canvas 278 181 755 552 neutral 0;
#X obj 38 33 inlet~;
#X obj 650 456 switch~;
#X obj 458 385 line~;
#X obj 458 337 pow 2;
#X obj 458 408 sqrt~;
#X obj 618 337 sel 0;
#X msg 618 427 0;
#X msg 638 373 stop;
#X obj 38 427 *~;
#X obj 38 466 outlet~;
#X msg 458 361 \$1 100;
#X obj 618 402 delay 100;
#X obj 458 288 r \$0-faceEmotion-s;
#X obj 618 289 r \$0-faceEmotion-s;
#X obj 618 313 == 0;
#X obj 458 313 == 0;
#X connect 0 0 8 0;
#X connect 2 0 4 0;
#X connect 3 0 10 0;
#X connect 4 0 8 1;
#X connect 5 0 11 0;
#X connect 5 1 7 0;
#X connect 5 1 1 0;
#X connect 6 0 1 0;
#X connect 7 0 11 0;
#X connect 8 0 9 0;
#X connect 10 0 2 0;
#X connect 11 0 6 0;
#X connect 12 0 15 0;
#X connect 13 0 14 0;
#X connect 14 0 5 0;
#X connect 15 0 3 0;
#X restore 503 472 pd neutral;
#X obj 501 576 vsl 18 80 -100 0 0 0 empty empty empty 0 -9 0 10 #dcdcdc #000000 #000000 0 1;
#X msg 507 393 normalize 0.33;
#X obj 32 591 *~ 0.2;
#X obj 33 524 else/compress~ -33 5 1 50 6 32;
#X obj 841 468 r \$0-faceEmotion-s;
#X obj 884 525 text get \$0-faceEmotions;
#X obj 884 579 symbol;
#X msg 884 603 open ./audios/\$1.wav \, start;
#X obj 884 627 readsf~;
#X obj 841 492 sel 0;
#X obj 884 651 *~ 0.2;
#X msg 447 94 symbol C:/Users/Neurohumanities/Documents/recordings/escena3-miedo/, f 67;
#X connect 0 0 1 0;
#X connect 0 1 1 1;
#X connect 1 0 11 0;
#X connect 2 0 78 0;
#X connect 3 0 78 0;
#X connect 4 0 78 0;
#X connect 5 0 78 0;
#X connect 6 0 78 0;
#X connect 7 0 8 0;
#X connect 10 0 23 0;
#X connect 12 0 78 0;
#X connect 14 0 16 0;
#X connect 16 0 19 0;
#X connect 17 0 22 0;
#X connect 18 0 17 1;
#X connect 18 0 21 0;
#X connect 19 0 20 0;
#X connect 20 0 17 0;
#X connect 21 0 24 0;
#X connect 22 0 18 0;
#X connect 23 0 0 0;
#X connect 25 0 49 0;
#X connect 26 0 27 0;
#X connect 27 0 7 0;
#X connect 29 0 68 0;
#X connect 30 0 31 0;
#X connect 31 0 29 1;
#X connect 32 0 63 0;
#X connect 33 0 31 1;
#X connect 34 0 64 0;
#X connect 34 1 37 0;
#X connect 35 0 29 0;
#X connect 35 1 29 0;
#X connect 36 0 67 0;
#X connect 37 0 38 0;
#X connect 38 0 33 0;
#X connect 40 0 43 0;
#X connect 41 0 39 0;
#X connect 42 0 45 1;
#X connect 43 0 44 0;
#X connect 43 1 42 0;
#X connect 43 2 41 0;
#X connect 44 0 46 0;
#X connect 45 0 47 0;
#X connect 46 0 45 0;
#X connect 47 0 71 0;
#X connect 48 0 52 0;
#X connect 49 0 62 0;
#X connect 50 0 53 0;
#X connect 51 0 58 0;
#X connect 51 1 50 1;
#X connect 52 0 50 0;
#X connect 52 1 55 0;
#X connect 52 2 51 1;
#X connect 53 0 54 0;
#X connect 53 0 57 0;
#X connect 54 0 53 1;
#X connect 55 0 53 1;
#X connect 56 0 51 0;
#X connect 57 0 56 0;
#X connect 57 1 58 1;
#X connect 59 0 60 0;
#X connect 61 0 39 0;
#X connect 62 0 43 0;
#X connect 62 1 86 0;
#X connect 62 2 59 0;
#X connect 63 0 65 0;
#X connect 64 0 33 0;
#X connect 65 0 34 0;
#X connect 66 0 77 0;
#X connect 67 0 35 0;
#X connect 68 0 0 0;
#X connect 69 0 3 0;
#X connect 69 0 6 0;
#X connect 69 0 5 0;
#X connect 69 0 74 0;
#X connect 69 1 72 0;
#X connect 71 0 69 0;
#X connect 71 1 76 0;
#X connect 71 2 26 0;
#X connect 72 0 69 0;
#X connect 74 0 78 0;
#X connect 76 0 70 0;
#X connect 77 0 35 0;
#X connect 78 0 66 0;
#X connect 78 0 32 0;
#X connect 78 0 68 0;
#X connect 78 1 75 0;
#X connect 79 0 84 0;
#X connect 80 0 81 0;
#X connect 81 0 82 0;
#X connect 82 0 83 0;
#X connect 83 0 85 0;
#X connect 83 1 81 0;
#X connect 84 1 80 0;
#X connect 85 0 78 0;
#X connect 86 0 48 0;
#X restore 1091 223 pd voice-processing;
#X msg 803 783 label \$1;
#X obj 803 807 s \$0-emotion-1-r;
#X obj 803 735 r \$0-emotion-1;
#X obj 983 759 text get \$0-passionName;
#X msg 983 783 label \$1;
#X obj 1163 759 text get \$0-passionName;
#X msg 1163 783 label \$1;
#X obj 983 735 r \$0-emotion-2;
#X obj 1163 735 r \$0-emotion-3;
#X obj 983 807 s \$0-emotion-2-r;
#X obj 1163 807 s \$0-emotion-3-r;
#X obj 629 31 r \$0-emotion;
#X obj 469 31 r \$0-emotionRand-s;
#X text 776 63 0 = Other \; 1 = Love \; 2 = Hate \; 3 = Desire \; 4 = Admiration \; 5 = Joy \; 6 = Sadness \;;
#X obj 469 79 random 6;
#X obj 469 103 + 1;
#X obj 469 127 s \$0-emotion;
#X obj 469 55 metro 10000;
#X obj 599 288 text define -k \$0-faceEmotions;
#A set neutral \; fear \; anger \; disgust \; surprise \; happiness \; sadness \;;
#X obj 589 318 r \$0-faceEmotion-s;
#X msg 589 366 label Face:\$1;
#X obj 589 390 s \$0-faceEmotion-r;
#X obj 589 342 text get \$0-faceEmotions;
#X obj 459 366 random 6;
#X obj 459 390 + 1;
#X obj 459 342 metro 5000;
#X obj 459 318 r \$0-faceRand-s;
#X text 469 11 GUI: emotion random;
#X text 91 232 // To accumulated emotion indexes;
#X text 589 247 // To emotion memory;
#X text 84 283 // Arousal controls tempo from 10 to 160 bpm;
#X obj 971 413 declare -path ./abs;
#X text 1091 203 // Voice Processing;
#X obj 137 791 tgl 19 0 empty empty empty 0 -10 0 12 #fcfcfc #000000 #000000 0 1;
#X obj 137 839 tabwrite~ \$0-scope;
#X obj 137 815 metro 100;
#X msg 579 708 \$1 100;
#X obj 579 732 line~;
#X obj 521 649 -~;
#X obj 521 625 sig~ 1;
#X obj 314 688 *~;
#X obj 444 688 *~;
#X obj 354 751 *~;
#X obj 459 414 s \$0-faceEmotion-r;
#X text 458 434 // GUI: face emotion;
#X text 459 298 //GUI: face random;
#X obj 579 636 r \$0-mouthAcum-s;
#X msg 84 453 60000 \$1;
#X obj 649 695 r \$0-volumen-s;
#X obj 649 719 pow 2;
#X obj 649 743 * 2;
#X obj 649 767 else/f2s~ 100;
#X obj 444 786 *~;
#X obj 314 786 *~;
#X obj 314 820 else/drive~;
#X obj 314 854 dac~ 1;
#X obj 444 820 else/drive~;
#X obj 444 854 dac~ 2;
#X text 579 616 GUI: mouthAcum;
#X text 649 675 GUI: Volumen;
#X obj 137 738 loadbang;
#X msg 137 762 1;
#X text 91 252 18 emociones en 3 minutos;
#X obj 32 722 change -1;
#X obj 32 755 s \$0-clock;
#X obj 121 695 div 1;
#X obj 121 719 change -1;
#X obj 84 549 / 8;
#X obj 32 698 div 8;
#X obj 226 539 abs;
#X obj 226 563 clip 0 12;
#X obj 226 587 / 12;
#X obj 123 616 t b f;
#X obj 123 664 f;
#X obj 123 640 else/chance 0;
#X msg 812 222 0;
#X obj 812 198 r \$0-reset;
#X obj 768 183 loadbang;
#X obj 84 303 r \$0-arousal-s;
#X obj 226 515 r \$0-dominance-s;
#X obj 321 212 s \$0-arousal-r;
#X obj 201 212 s \$0-dominance-r;
#X obj 91 212 s \$0-valence-r;
#X obj 84 352 * 2;
#X floatatom 215 145 5 0 0 0 - - - 0;
#X obj 226 611 * 4;
#X obj 576 809 loadbang;
#X msg 576 833 dsp 1;
#X obj 576 857 s pd;
#X obj 579 684 + 0.25;
#X obj 579 660 * 0.5;
#X obj 354 712 *~;
#X msg 574 556 \$1 100;
#X obj 574 580 line~;
#X obj 574 508 r \$0-mouthVolume-s;
#X text 574 488 GUI: mouthVolume;
#X obj 574 532 pow 2;
#X obj 843 527 loadbang;
#X msg 843 551 0;
#X obj 843 575 s \$0-faceEmotion-r;
#X text 776 333 0 = neutral \; 1 = fear \; 2 = anger \; 3 = disgust \; 4 = surprise \; 5 = happiness \; 6 = sadness \;;
#X obj 1333 407 r \$0-fadeOut-s;
#X obj 1191 400 r \$0-volumen-s;
#X obj 1238 554 s \$0-volumen-r;
#X obj 1278 460 f;
#X msg 1273 497 \$1 \, 0 3000;
#X obj 1273 521 line;
#X obj 1007 578 loadbang;
#X msg 1007 602 0.7;
#X obj 1007 626 s \$0-volumen-r;
#X obj 1572 1032 else/plate.rev~;
#X obj 1654 980 loadbang;
#X obj 1572 1085 throw~ \$0-left;
#X obj 1684 1085 throw~ \$0-right;
#X obj 328 606 catch~ \$0-left;
#X obj 473 584 catch~ \$0-right;
#X obj 1572 993 hip~ 1;
#X obj 1572 1061 *~ 1.5;
#X obj 1684 1061 *~ 1.5;
#X msg 1654 1004 wet 1 \, cutoff 0.5 \, damp 0.5 \, pre 0 \, size 0.8;
#N canvas 78 78 523 457 scream 0;
#X obj 202 15 noise~;
#X obj 188 191 bng 19 250 50 0 empty empty empty 0 -10 0 12 #fcfcfc #000000 #000000;
#X obj 188 239 vline~;
#X obj 74 370 throw~ \$0-mono;
#X obj 237 131 *~ 0.5;
#X obj 203 37 pow~ 101;
#X obj 66 133 else/resonant~ 215 20;
#X obj 203 63 else/resonant~ 923 20;
#X obj 88 233 *~;
#X obj 188 263 pow~ 4;
#X obj 62 180 *~ 1;
#X obj 88 281 else/drive~;
#X obj 88 257 *~ 20;
#X obj 237 107 else/resonant~ 1423 20;
#X msg 188 215 1 500 \, 0 100 500;
#X obj 75 318 *~ 0.25;
#X connect 0 0 5 0;
#X connect 1 0 14 0;
#X connect 2 0 9 0;
#X connect 4 0 10 0;
#X connect 5 0 6 0;
#X connect 5 0 7 0;
#X connect 5 0 13 0;
#X connect 6 0 10 0;
#X connect 7 0 10 0;
#X connect 8 0 12 0;
#X connect 9 0 8 1;
#X connect 10 0 8 0;
#X connect 11 0 15 0;
#X connect 12 0 11 0;
#X connect 13 0 4 0;
#X connect 14 0 2 0;
#X connect 15 0 3 0;
#X restore 1404 978 pd scream;
#N canvas -1439 16 1169 996 aullido-de-viento 0;
#X obj 179 91 tgl 19 0 empty empty empty 0 -10 0 12 #fcfcfc #000000 #000000 0 1;
#X obj 179 115 metro 100;
#X obj 181 139 t b b;
#X obj 102 451 makenote;
#X obj 202 387 else/rand.i 1 127;
#X obj 179 322 t b b b b;
#X obj 102 539 pack f f f f f;
#X obj 102 562 clone -s 1 noiseVoice~ 20;
#X obj 102 505 poly 20 1;
#X obj 70 941 throw~ \$0-mono;
#X obj 407 562 else/lowpass~ 200 0.4;
#X obj 70 896 *~ 1;
#X obj 270 115 else/rand.i 100 5000;
#X obj 315 494 else/rand.i 1000 4000;
#X obj 271 467 else/rand.i 1000 4000;
#X obj 401 800 throw~ \$0-reverb;
#X obj 403 767 *~ 1;
#X obj 103 621 clip~ -1 1;
#X obj 179 43 loadbang;
#X msg 179 67 1;
#X obj 181 283 else/chance;
#X obj 467 58 r \$0-fearIndexInt;
#X obj 467 106 -;
#X obj 467 134 * 1500;
#X obj 255 211 r \$0-fearIndexInt;
#X obj 275 632 clip~ 0 1;
#X obj 504 598 r \$0-fearIndexInt;
#X msg 504 646 \$1 1000;
#X obj 504 670 line~;
#X obj 281 701 *~;
#X obj 103 665 *~;
#X obj 103 689 +~;
#X obj 207 612 sig~ 1;
#X obj 207 636 -~;
#X obj 296 311 r \$0-fearIndexInt;
#X obj 296 359 + 48;
#X obj 296 335 * 24;
#X obj 270 597 *~ 1;
#X obj 275 656 *~ 0.5;
#X obj 521 453 else/pink~;
#X obj 712 364 r \$0-fearIndexInt;
#X obj 712 388 / 2;
#X msg 712 412 \$1 1000;
#X obj 712 436 line~;
#X obj 697 523 *~;
#X obj 519 487 *~;
#X obj 623 434 sig~ 1;
#X obj 623 458 -~;
#X obj 692 492 noise~;
#X obj 467 158 + 500;
#X text 548 781 intensidad de volumen;
#X obj 255 259 + 70;
#X obj 255 235 * 20;
#X obj 99 357 else/rand.f 30 60;
#X obj 549 834 - 100;
#X obj 549 858 outlet;
#X obj 549 810 env~ 4096;
#X obj 134 899 outlet~;
#X msg 467 82 3 \$1;
#X obj 505 622 / 3;
#X obj 550 733 hip~ 200;
#X obj 267 49 r \$0-howls-tgl-s;
#X obj 203 227 bng 19 250 50 0 empty empty empty 0 -10 0 12 #fcfcfc #000000 #000000;
#X obj 317 948 pipe;
#X obj 217 770 pack f f;
#X obj 217 794 unpack f f;
#X obj 222 856 list prepend;
#X obj 222 885 route 1;
#X obj 233 914 select 1;
#X obj 316 792 > 32;
#X msg 542 979 1;
#X msg 564 1018 0;
#X obj 475 1042 t b b;
#X obj 475 1019 spigot 1;
#X obj 473 936 t b b;
#X obj 388 867 * 1;
#X floatatom 388 891 5 0 0 0 - - - 0;
#X msg 217 818 1;
#X obj 229 968 bng 19 250 50 0 empty empty empty 0 -10 0 12 #fcfcfc #000000 #000000;
#X obj 707 898 loadbang;
#X msg 707 922 1;
#X obj 543 954 delay 4000;
#X obj 707 970 bng 19 250 50 0 empty empty empty 0 -10 0 12 #fcfcfc #000000 #000000;
#X obj 707 946 metro 4000;
#X msg 906 860 disconnect;
#X obj 876 889 netsend -u -b;
#X obj 893 810 loadbang;
#X text 979 890 send as UDP \, binary;
#X msg 897 833 connect 10.12.181.191 5001;
#X floatatom 876 913 5 0 0 0 - - - 0;
#X text 1034 855 blancos y negros;
#X obj 738 619 t b b;
#X obj 768 745 oscformat /TriggerSB;
#X obj 876 704 oscformat /BeatDuration;
#X msg 712 700 1;
#X msg 792 703 0;
#X obj 793 672 t b b;
#X obj 792 648 delay 50;
#N canvas -786 227 553 405 test 0;
#X obj 247 48 tgl 19 0 empty empty empty 0 -10 0 12 #fcfcfc #000000 #000000 0 1;
#X obj 113 169 t b b;
#X msg 113 217 1;
#X msg 155 217 0;
#X obj 247 130 t b b;
#X obj 113 251 oscformat /TriggerSB;
#X obj 279 241 oscformat /BeatDuration;
#X obj 279 295 outlet;
#X obj 155 193 delay 50;
#X obj 247 101 bng 19 250 50 0 empty empty empty 0 -10 0 12 #fcfcfc #000000 #000000;
#X text 319 217 Duracion del pulso en segundos;
#X text 23 297 Envia 1 y luego 0 despues de 50 ms;
#X obj 247 72 metro 2000;
#X msg 278 217 2;
#X connect 0 0 12 0;
#X connect 1 0 2 0;
#X connect 1 1 8 0;
#X connect 2 0 5 0;
#X connect 3 0 5 0;
#X connect 4 0 1 0;
#X connect 4 1 13 0;
#X connect 5 0 7 0;
#X connect 6 0 7 0;
#X connect 8 0 3 0;
#X connect 9 0 4 0;
#X connect 12 0 9 0;
#X connect 13 0 6 0;
#X restore 1055 756 pd test;
#X text 923 913 Secondary Beat;
#X msg 910 662 0.5;
#X obj 883 558 bng 19 250 50 0 empty empty empty 0 -10 0 12 #fcfcfc #000000 #000000;
#X obj 883 582 t b b;
#X connect 0 0 1 0;
#X connect 1 0 2 0;
#X connect 2 0 20 0;
#X connect 2 1 12 0;
#X connect 3 0 8 0;
#X connect 3 0 64 0;
#X connect 3 1 8 1;
#X connect 3 1 64 1;
#X connect 4 0 3 1;
#X connect 5 0 53 0;
#X connect 5 1 4 0;
#X connect 5 3 13 0;
#X connect 5 3 14 0;
#X connect 6 0 7 0;
#X connect 7 0 17 0;
#X connect 7 0 37 0;
#X connect 8 0 6 0;
#X connect 8 1 6 1;
#X connect 8 2 6 2;
#X connect 10 0 7 1;
#X connect 11 0 9 0;
#X connect 12 0 1 1;
#X connect 13 0 6 4;
#X connect 14 0 6 3;
#X connect 14 0 3 2;
#X connect 14 0 75 0;
#X connect 16 0 15 0;
#X connect 17 0 30 0;
#X connect 18 0 19 0;
#X connect 19 0 0 0;
#X connect 20 0 5 0;
#X connect 20 0 62 0;
#X connect 21 0 58 0;
#X connect 22 0 23 0;
#X connect 23 0 49 0;
#X connect 24 0 52 0;
#X connect 25 0 38 0;
#X connect 26 0 59 0;
#X connect 27 0 28 0;
#X connect 28 0 33 1;
#X connect 28 0 29 1;
#X connect 29 0 31 1;
#X connect 30 0 31 0;
#X connect 31 0 16 0;
#X connect 31 0 11 0;
#X connect 31 0 57 0;
#X connect 31 0 60 0;
#X connect 32 0 33 0;
#X connect 33 0 30 1;
#X connect 34 0 36 0;
#X connect 35 0 53 2;
#X connect 36 0 35 0;
#X connect 37 0 25 0;
#X connect 38 0 29 0;
#X connect 39 0 45 0;
#X connect 40 0 41 0;
#X connect 41 0 42 0;
#X connect 42 0 43 0;
#X connect 43 0 47 1;
#X connect 43 0 44 1;
#X connect 44 0 10 0;
#X connect 45 0 10 0;
#X connect 46 0 47 0;
#X connect 47 0 45 1;
#X connect 48 0 44 0;
#X connect 49 0 12 2;
#X connect 51 0 20 1;
#X connect 52 0 51 0;
#X connect 53 0 3 0;
#X connect 54 0 55 0;
#X connect 56 0 54 0;
#X connect 58 0 22 0;
#X connect 59 0 27 0;
#X connect 60 0 56 0;
#X connect 61 0 1 0;
#X connect 63 0 74 0;
#X connect 64 0 65 0;
#X connect 65 0 77 0;
#X connect 65 1 69 0;
#X connect 66 0 67 0;
#X connect 67 0 68 0;
#X connect 68 0 63 0;
#X connect 68 0 78 0;
#X connect 69 0 66 1;
#X connect 70 0 73 1;
#X connect 71 0 73 1;
#X connect 72 0 101 0;
#X connect 72 1 71 0;
#X connect 73 0 72 0;
#X connect 74 0 73 0;
#X connect 74 1 81 0;
#X connect 75 0 63 1;
#X connect 75 0 76 0;
#X connect 77 0 66 0;
#X connect 79 0 80 0;
#X connect 80 0 83 0;
#X connect 81 0 70 0;
#X connect 83 0 70 0;
#X connect 83 0 82 0;
#X connect 84 0 85 0;
#X connect 85 0 89 0;
#X connect 86 0 88 0;
#X connect 88 0 85 0;
#X connect 91 0 94 0;
#X connect 91 1 97 0;
#X connect 92 0 85 0;
#X connect 93 0 85 0;
#X connect 94 0 92 0;
#X connect 95 0 92 0;
#X connect 96 0 95 0;
#X connect 96 1 100 0;
#X connect 97 0 96 0;
#X connect 98 0 85 0;
#X connect 100 0 93 0;
#X connect 101 0 102 0;
#X connect 102 0 91 0;
#X connect 102 1 100 0;
#X restore 1404 950 pd aullido-de-viento;
#X obj 1572 951 catch~ \$0-reverb;
#N canvas 130 130 523 520 stinger 0;
#X obj 48 175 noise~;
#X obj 85 254 *~;
#X obj 131 107 bng 19 250 50 0 empty empty empty 0 -10 0 12 #fcfcfc #000000 #000000;
#X obj 123 191 vline~;
#X obj 170 310 vline~;
#X obj 195 381 *~;
#X msg 123 164 1 \, 0 100;
#X obj 123 215 *~;
#X obj 47 200 *~ 4;
#X obj 331 351 osc~ 40;
#X obj 250 258 delay 250;
#X msg 167 258 1 \, 0 10;
#X msg 250 282 1 \, 0 100;
#X obj 195 405 *~ 4;
#X connect 0 0 8 0;
#X connect 2 0 6 0;
#X connect 2 0 11 0;
#X connect 2 0 10 0;
#X connect 3 0 7 0;
#X connect 3 0 7 1;
#X connect 4 0 5 0;
#X connect 5 0 13 0;
#X connect 6 0 3 0;
#X connect 7 0 1 1;
#X connect 8 0 1 0;
#X connect 9 0 5 1;
#X connect 10 0 12 0;
#X connect 11 0 4 0;
#X connect 12 0 4 0;
#X restore 1404 1003 pd stinger;
#N canvas 208 208 487 503 insectos 0;
#X obj 244 422 throw~ \$0-left;
#X obj 29 333 clone insectos~ 20;
#X obj 259 168 loadbang;
#X msg 259 216 10 \$1;
#X obj 259 240 pow;
#X floatatom 259 264 5 0 0 0 - - - 0;
#X msg 259 287 all \$1;
#X obj 29 165 loadbang;
#X msg 29 213 10 \$1;
#X obj 29 237 pow;
#X floatatom 29 261 5 0 0 0 - - - 0;
#X msg 29 284 all \$1;
#X msg 29 188 5;
#X obj 280 346 *~ 1;
#X obj 245 315 clone insectos~ 10;
#X obj 54 427 throw~ \$0-right;
#X obj 68 376 *~ 1;
#X msg 259 191 5;
#X connect 1 0 16 0;
#X connect 2 0 17 0;
#X connect 3 0 4 0;
#X connect 4 0 5 0;
#X connect 5 0 6 0;
#X connect 6 0 14 0;
#X connect 7 0 12 0;
#X connect 8 0 9 0;
#X connect 9 0 10 0;
#X connect 10 0 11 0;
#X connect 11 0 1 0;
#X connect 12 0 8 0;
#X connect 14 0 13 0;
#X connect 17 0 3 0;
#X restore 1404 1028 pd insectos;
#N canvas 9 16 934 956 strings 0;
#X obj 184 -15 tgl 19 0 empty empty empty 0 -10 0 12 #fcfcfc #000000 #000000 0 1;
#X obj 184 9 metro 100;
#X obj 184 33 t b b;
#X obj 107 345 makenote;
#X obj 230 311 else/rand.i 250 2000;
#X obj 162 149 t b b b b;
#X obj 107 433 pack f f f f f;
#X obj 412 432 else/pink~;
#X obj 107 399 poly 20 1;
#X obj 106 456 clone -s 1 strings~ 20;
#X obj 276 361 else/rand.i 1000 4000;
#X obj 320 388 else/rand.i 1000 4000;
#X obj 106 502 *~ 0.5;
#X obj 105 528 throw~ \$0-reverb;
#X obj 184 -68 loadbang;
#X msg 184 -44 1;
#X obj 164 111 else/chance;
#X obj 431 -156 r \$0-fearIndexInt;
#X obj 287 47 r \$0-fearIndexInt;
#X obj 310 179 r \$0-fearIndexInt;
#X obj 310 227 + 48;
#X obj 106 251 else/rand.f 20 60;
#X obj 603 343 r \$0-fearIndexInt;
#X msg 603 391 \$1 1000;
#X obj 603 415 line~;
#X obj 588 502 *~;
#X obj 410 466 *~;
#X obj 514 413 sig~ 1;
#X obj 514 437 -~;
#X obj 583 471 noise~;
#X obj 287 95 + 70;
#X obj 287 71 * 20;
#X obj 40 528 outlet~;
#X obj 603 367 / 3;
#X obj 232 -32 r \$0-strings-tgl-s;
#X obj 140 772 pipe;
#X obj 59 599 pack f f;
#X obj 59 623 unpack f f;
#X obj 59 685 list prepend;
#X obj 59 714 route 1;
#X obj 70 743 select 1;
#X obj 140 652 > 32;
#X msg 366 839 1;
#X msg 388 878 0;
#X obj 299 902 t b b;
#X obj 299 879 spigot 1;
#X obj 297 796 t b b;
#X obj 366 814 delay 1000;
#X obj 242 708 * 1;
#X obj 207 281 else/rand.i 32 127;
#X msg 59 647 1;
#X obj 287 119 min 100;
#X msg 431 -101 2 \$1;
#X obj 431 -76 pow;
#X obj 431 -51 * -500;
#X obj 271 11 else/rand.i 100 2000;
#X floatatom 431 -1 5 0 0 0 - - - 0;
#X obj 410 710 r \$0-fearIndexInt;
#X floatatom 310 251 5 0 0 0 - - - 0;
#X obj 310 203 * 12;
#X obj 460 196 r \$0-fearIndexInt;
#X obj 460 220 * 12;
#X obj 460 244 + 20;
#X obj 431 -131 - 1;
#X obj 431 -26 + 2100;
#X obj 410 734 select 1 2 3;
#X msg 410 758 1000;
#X msg 459 772 24;
#X msg 1079 817 disconnect;
#X obj 1049 846 netsend -u -b;
#X obj 1066 767 loadbang;
#X text 1152 847 send as UDP \, binary;
#X msg 1069 790 connect 10.12.181.191 5000;
#X floatatom 1049 870 5 0 0 0 - - - 0;
#X text 1227 757 colores;
#X obj 1042 552 bng 19 250 50 0 empty empty empty 0 -10 0 12 #000000 #ffffff #000000;
#X obj 671 619 t b b;
#X obj 809 704 oscformat /BeatDuration;
#X msg 645 700 1;
#X msg 725 703 0;
#X obj 726 672 t b b;
#X obj 725 648 delay 50;
#X obj 789 601 t b b;
#X obj 701 745 oscformat /TriggerPB;
#X text 1092 868 Primary Beat;
#N canvas -786 227 553 405 test 0;
#X obj 247 18 tgl 19 0 empty empty empty 0 -10 0 12 #fcfcfc #000000 #000000 0 1;
#X obj 113 169 t b b;
#X msg 113 217 1;
#X msg 155 217 0;
#X obj 247 100 t b b;
#X obj 113 251 oscformat /TriggerSB;
#X obj 279 241 oscformat /BeatDuration;
#X obj 279 295 outlet;
#X obj 155 193 delay 50;
#X obj 247 71 bng 19 250 50 0 empty empty empty 0 -10 0 12 #fcfcfc #000000 #000000;
#X text 23 297 Envia 1 y luego 0 despues de 50 ms;
#X text 319 217 Duracion del pulso en BPM;
#X msg 283 146 60000 \$1;
#X obj 283 170 /;
#X obj 249 42 metro 100;
#X msg 300 129 100;
#X obj 283 194 * 2;
#X connect 0 0 14 0;
#X connect 1 0 2 0;
#X connect 1 1 8 0;
#X connect 2 0 5 0;
#X connect 3 0 5 0;
#X connect 4 0 1 0;
#X connect 4 1 15 0;
#X connect 5 0 7 0;
#X connect 6 0 7 0;
#X connect 8 0 3 0;
#X connect 9 0 4 0;
#X connect 12 0 13 0;
#X connect 13 0 16 0;
#X connect 14 0 9 0;
#X connect 15 0 12 0;
#X connect 16 0 6 0;
#X restore 1028 680 pd test;
#X obj 811 661 f;
#X obj 847 477 r \$0-fearIndexInt;
#X obj 847 501 * 120;
#X obj 847 525 max 60;
#X connect 0 0 1 0;
#X connect 1 0 2 0;
#X connect 2 0 16 0;
#X connect 2 1 55 0;
#X connect 3 0 8 0;
#X connect 3 0 36 0;
#X connect 3 1 8 1;
#X connect 3 1 36 1;
#X connect 5 0 21 0;
#X connect 5 1 49 0;
#X connect 5 2 4 0;
#X connect 5 3 10 0;
#X connect 5 3 11 0;
#X connect 6 0 9 0;
#X connect 7 0 26 0;
#X connect 8 0 6 0;
#X connect 8 1 6 1;
#X connect 8 2 6 2;
#X connect 9 0 12 0;
#X connect 9 0 32 0;
#X connect 10 0 6 3;
#X connect 10 0 3 2;
#X connect 10 0 48 0;
#X connect 11 0 6 4;
#X connect 12 0 13 0;
#X connect 14 0 15 0;
#X connect 15 0 0 0;
#X connect 16 0 5 0;
#X connect 17 0 63 0;
#X connect 18 0 31 0;
#X connect 19 0 59 0;
#X connect 20 0 21 2;
#X connect 20 0 58 0;
#X connect 21 0 3 0;
#X connect 22 0 33 0;
#X connect 23 0 24 0;
#X connect 24 0 28 1;
#X connect 24 0 25 1;
#X connect 25 0 9 1;
#X connect 26 0 9 1;
#X connect 27 0 28 0;
#X connect 28 0 26 1;
#X connect 29 0 25 0;
#X connect 30 0 51 0;
#X connect 31 0 30 0;
#X connect 33 0 23 0;
#X connect 34 0 1 0;
#X connect 35 0 46 0;
#X connect 36 0 37 0;
#X connect 37 0 50 0;
#X connect 37 1 41 0;
#X connect 38 0 39 0;
#X connect 39 0 40 0;
#X connect 40 0 35 0;
#X connect 41 0 38 1;
#X connect 42 0 45 1;
#X connect 43 0 45 1;
#X connect 44 0 75 0;
#X connect 44 1 43 0;
#X connect 45 0 44 0;
#X connect 46 0 45 0;
#X connect 46 1 47 0;
#X connect 47 0 42 0;
#X connect 48 0 35 1;
#X connect 49 0 3 1;
#X connect 50 0 38 0;
#X connect 51 0 16 1;
#X connect 52 0 53 0;
#X connect 53 0 54 0;
#X connect 54 0 64 0;
#X connect 55 0 1 1;
#X connect 57 0 65 0;
#X connect 59 0 20 0;
#X connect 60 0 61 0;
#X connect 61 0 62 0;
#X connect 62 0 21 1;
#X connect 63 0 52 0;
#X connect 64 0 55 2;
#X connect 64 0 56 0;
#X connect 65 0 66 0;
#X connect 65 1 66 0;
#X connect 65 2 67 0;
#X connect 66 0 47 1;
#X connect 67 0 47 1;
#X connect 68 0 69 0;
#X connect 69 0 73 0;
#X connect 70 0 72 0;
#X connect 72 0 69 0;
#X connect 75 0 82 0;
#X connect 76 0 78 0;
#X connect 76 1 81 0;
#X connect 77 0 69 0;
#X connect 78 0 83 0;
#X connect 79 0 83 0;
#X connect 80 0 79 0;
#X connect 80 1 86 0;
#X connect 81 0 80 0;
#X connect 82 0 76 0;
#X connect 83 0 69 0;
#X connect 85 0 69 0;
#X connect 86 0 77 0;
#X connect 87 0 88 0;
#X connect 88 0 89 0;
#X connect 89 0 86 1;
#X restore 1404 926 pd strings;
#X obj 1932 707 r \$0-fearIndex-s;
#X obj 1982 800 i;
#X obj 1982 752 * 2;
#N canvas 52 52 1413 800 electricidad 0;
#X obj 235 302 vline~;
#X obj 108 333 noise~;
#X obj 235 374 mtof~;
#X obj 213 503 *~;
#X obj 416 399 vline~;
#X obj 439 247 bng 19 250 50 0 empty empty empty 0 -10 0 12 #fcfcfc #000000 #000000;
#X obj 415 303 else/rand.f 0.5 1;
#X obj 439 271 t b b;
#X obj 415 347 pack f f;
#X obj 416 423 *~;
#X obj 108 428 else/highpass~ 1000 0.7;
#X msg 414 376 \$1 10 \, 0 \$2 10;
#X obj 579 284 else/rand.i 1000 5000;
#X obj 235 398 clip~ 20 20000;
#X obj 213 532 throw~ \$0-mono;
#X obj 104 390 *~ 2;
#X msg 234 275 0 \, 1 600;
#X obj 234 326 *~ 50;
#X obj 130 223 sig~ 10;
#X obj 130 247 pow~;
#X obj 109 357 pow~;
#X obj 224 155 sig~ 1;
#X obj 224 179 -~;
#X obj 198 228 +~ 2.5;
#X obj 197 205 *~ 2;
#X obj 235 350 +~ 60;
#X obj 857 327 vline~;
#X obj 730 358 noise~;
#X obj 857 399 mtof~;
#X obj 835 528 *~;
#X obj 1038 424 vline~;
#X obj 1061 272 bng 19 250 50 0 empty empty empty 0 -10 0 12 #fcfcfc #000000 #000000;
#X obj 1037 328 else/rand.f 0.5 1;
#X obj 1061 296 t b b;
#X obj 1037 372 pack f f;
#X obj 1038 448 *~;
#X obj 730 453 else/highpass~ 1000 0.7;
#X msg 1036 401 \$1 10 \, 0 \$2 10;
#X obj 1201 309 else/rand.i 1000 5000;
#X obj 857 423 clip~ 20 20000;
#X obj 835 557 throw~ \$0-mono;
#X obj 726 415 *~ 2;
#X msg 856 300 0 \, 1 600;
#X obj 856 351 *~ 50;
#X obj 752 248 sig~ 10;
#X obj 752 272 pow~;
#X obj 731 382 pow~;
#X obj 846 180 sig~ 1;
#X obj 846 204 -~;
#X obj 820 253 +~ 2.5;
#X obj 819 230 *~ 2;
#X obj 857 375 +~ 60;
#X obj 573 94 inlet;
#X obj 573 118 tgl 19 0 empty empty empty 0 -10 0 12 #fcfcfc #000000 #000000 0 1;
#X obj 573 142 sel 0 1;
#X connect 0 0 17 0;
#X connect 0 0 22 1;
#X connect 1 0 20 0;
#X connect 2 0 13 0;
#X connect 3 0 14 0;
#X connect 4 0 9 0;
#X connect 4 0 9 1;
#X connect 5 0 7 0;
#X connect 6 0 8 0;
#X connect 7 0 6 0;
#X connect 7 0 16 0;
#X connect 7 1 12 0;
#X connect 8 0 11 0;
#X connect 9 0 3 1;
#X connect 10 0 3 0;
#X connect 11 0 4 0;
#X connect 12 0 8 1;
#X connect 13 0 10 1;
#X connect 15 0 10 0;
#X connect 16 0 0 0;
#X connect 17 0 25 0;
#X connect 18 0 19 0;
#X connect 19 0 20 1;
#X connect 20 0 15 0;
#X connect 21 0 22 0;
#X connect 22 0 24 0;
#X connect 23 0 19 1;
#X connect 24 0 23 0;
#X connect 25 0 2 0;
#X connect 26 0 43 0;
#X connect 26 0 48 1;
#X connect 27 0 46 0;
#X connect 28 0 39 0;
#X connect 29 0 40 0;
#X connect 30 0 35 0;
#X connect 30 0 35 1;
#X connect 31 0 33 0;
#X connect 32 0 34 0;
#X connect 33 0 32 0;
#X connect 33 0 42 0;
#X connect 33 1 38 0;
#X connect 34 0 37 0;
#X connect 35 0 29 1;
#X connect 36 0 29 0;
#X connect 37 0 30 0;
#X connect 38 0 34 1;
#X connect 39 0 36 1;
#X connect 41 0 36 0;
#X connect 42 0 26 0;
#X connect 43 0 51 0;
#X connect 44 0 45 0;
#X connect 45 0 46 1;
#X connect 46 0 41 0;
#X connect 47 0 48 0;
#X connect 48 0 50 0;
#X connect 49 0 45 1;
#X connect 50 0 49 0;
#X connect 51 0 28 0;
#X connect 52 0 53 0;
#X connect 53 0 54 0;
#X connect 54 0 5 0;
#X connect 54 1 31 0;
#X restore 1404 1052 pd electricidad;
#X obj 1932 852 s \$0-fearIndexInt;
#N canvas 77 0 1920 997 shepard 0;
#X obj 55 53 cnv 15 413 179 empty empty empty 20 12 0 14 #e0e0e0 #404040 0;
#X obj 61 59 cnv 15 401 112 empty empty empty 20 12 0 14 #202020 #404040 0;
#N canvas 398 107 878 693 \$0-screen 0;
#X coords 0 -1 1 1 389 100 2 40 60;
#X restore 67 65 pd \$0-screen;
#X obj 61 178 cnv 15 401 48 empty empty empty 20 12 0 14 #9c9c9c #404040 0;
#X obj 193 184 bng 36 250 50 0 \$0-back \$0-setback < 8 18 0 30 #e0e0e0 #000000 #000000;
#X obj 293 184 bng 36 250 50 0 \$0-forward \$0-setforward > 8 18 0 30 #fcfcfc #000000 #000000;
#X obj 243 184 bng 36 250 50 0 \$0-pause \$0-setpause ▮▮ 7 17 0 20 #e0e0e0 #000000 #000000;
#X obj 633 83 r \$0-set;
#X obj 633 566 +;
#X obj 633 589 t f;
#X obj 701 289 s \$0-set;
#X obj 636 106 hsl 384 100 0 383 0 0 empty empty empty -2 -8 0 10 #fcfcfc #000000 #000000 0 1;
#X obj 634 107 cnv 15 387 98 empty empty empty 20 12 0 14 #fcfcfc #404040 0;
#X obj 633 221 sel 192;
#X msg 701 267 192;
#X obj 633 267 - 192;
#N canvas 381 419 308 129 \$0-bars 0;
#X obj 43 43 struct \$0-bars float x float color;
#X obj 43 66 drawpolygon color 8 0 0 0 1;
#X restore 1085 83 pd \$0-bars;
#X obj 1145 132 bng 15 250 50 0 empty empty empty 17 7 0 10 #fcfcfc #000000 #000000;
#X msg 1196 198 clear;
#X obj 1196 221 s pd-\$0-display;
#X obj 1214 359 pointer;
#X obj 1085 428 append \$0-bars x color;
#X obj 1214 313 \$0;
#X msg 1214 336 traverse pd-\$1-display \, bang;
#X obj 1158 267 t f f;
#X obj 1185 290 / 2;
#X obj 1185 313 i;
#X msg 1085 198 10;
#X obj 1085 244 until;
#X obj 1085 267 f;
#X obj 1115 267 + 1;
#X obj 1085 221 t f b;
#X msg 1127 244 0;
#X obj 1085 290 *;
#X obj 1085 175 t b b;
#X obj 1085 336 +;
#N canvas 0 85 450 300 \$0-display 0;
#X scalar 1003-bars 202 0 \;;
#X scalar 1003-bars 240 222 \;;
#X scalar 1003-bars 278 333 \;;
#X scalar 1003-bars 317 555 \;;
#X scalar 1003-bars 355 666 \;;
#X scalar 1003-bars 10 777 \;;
#X scalar 1003-bars 48 666 \;;
#X scalar 1003-bars 86 444 \;;
#X scalar 1003-bars 125 222 \;;
#X scalar 1003-bars 163 111 \;;
#X coords 0 0 383 1 389 100 2 100 100;
#X restore 633 106 pd \$0-display;
#X obj 1158 244 / 10;
#X msg 1158 221 384;
#X obj 1085 359 t f f;
#X obj 1149 405 expr $f1+$f1*10+$f1*100;
#X obj 1149 382 expr int(8*abs($f1-192)/192);
#X obj 1085 313 i;
#X obj 1085 129 loadbang;
#X obj 1196 175 s \$0-reset;
#X obj 1085 152 t b b b b;
#X obj 661 520 r \$0-reset;
#X msg 661 543 0;
#X obj 701 244 r \$0-reset;
#X obj 633 681 mod 384;
#X obj 837 934 *~ 1;
#X obj 633 727 t f f;
#X obj 853 727 t f f;
#X obj 1073 727 t f f;
#X obj 633 244 t f b;
#X obj 633 704 / 384;
#X obj 853 681 mod 384;
#X obj 853 658 + 192;
#X obj 853 704 / 384;
#X obj 1073 681 mod 384;
#X obj 1073 704 / 384;
#X obj 633 658 + 96;
#X obj 1073 658 + 288;
#X obj 633 612 t f f f;
#X msg 743 336 10;
#X obj 743 359 until;
#X msg 743 382 next;
#X obj 743 405 pointer;
#X msg 788 382 traverse pd-\$1-display;
#X obj 788 359 \$0;
#X obj 743 451 get \$0-bars x;
#X obj 743 474 +;
#X obj 743 497 mod 384;
#X obj 743 589 set \$0-bars x color;
#X obj 743 520 t f f;
#X obj 798 566 expr $f1+$f1*10+$f1*100;
#X obj 798 543 expr int(8*abs($f1-192)/192);
#X obj 743 428 t p p;
#X obj 743 313 t b b f;
#X obj 633 290 t f f;
#X obj 666 773 expr pow(1-abs($f1-0.5)*2 \, 2);
#X obj 880 773 expr pow(1-abs($f1-0.5)*2 \, 2);
#X obj 1106 773 expr pow(1-abs($f1-0.5)*2 \, 2);
#X obj 1085 474 r \$0-back;
#X obj 1245 474 r \$0-pause;
#X obj 1155 474 r \$0-forward;
#X msg 1245 497 0;
#X obj 1085 520 t f b;
#X msg 1085 497 1;
#X obj 1085 589 f;
#X obj 1155 520 t f b;
#X msg 1155 497 1;
#X obj 1085 612 s \$0-play;
#X obj 701 221 r \$0-play;
#X obj 1245 520 t f b;
#X msg 1148 566 -1;
#X msg 1182 566 1;
#X obj 1168 635 s \$0-setback;
#X obj 1248 635 s \$0-setforward;
#X obj 1348 635 s \$0-setpause;
#X msg 1168 612 color 0;
#X msg 1248 612 color 0;
#X msg 1348 612 color 0;
#X msg 1179 589 color 16000;
#X msg 1269 589 color 16000;
#X msg 1359 589 color 16000;
#X obj 633 750 expr pow(2 \, $f1*4)*110;
#X obj 853 750 expr pow(2 \, $f1*4)*110;
#X obj 1073 750 expr pow(2 \, $f1*4)*110;
#X obj 604 948 *~ 0.25;
#X obj 1057 938 *~ 0.25;
#X obj 1085 566 metro 200;
#X obj 594 803 else/f2s~ 200;
#X obj 898 806 else/f2s~ 200;
#X obj 1092 807 else/f2s~ 200;
#X obj 529 833 else/resonant~ 1000 50;
#X obj 834 836 else/resonant~ 1000 50;
#X obj 1028 837 else/resonant~ 1000 50;
#X obj 520 898 clip~ 0 1;
#X obj 825 901 clip~ 0 1;
#X obj 1019 902 clip~ 0 1;
#X obj 529 857 *~ 4;
#X obj 834 860 *~ 4;
#X obj 1028 861 *~ 4;
#X obj 633 770 * 10;
#X obj 853 771 * 10;
#X obj 1073 771 * 10;
#X obj 841 1010 throw~ \$0-reverb;
#X obj 1033 1016 throw~ \$0-mono;
#X obj 413 812 noise~;
#X obj 1348 771 r \$0-fearIndexInt;
#X msg 1297 908 \$1 1000;
#X obj 1297 932 line~;
#X obj 840 963 *~;
#X obj 1033 992 *~ 0.05;
#X obj 326 309 loadbang;
#X obj 840 987 *~ 0.2;
#X msg 1348 829 0;
#X msg 1428 829 0.1;
#X msg 1388 829 0.02;
#X obj 1348 795 select 1 2 3;
#X connect 7 0 11 0;
#X connect 8 0 9 0;
#X connect 9 0 8 1;
#X connect 9 0 63 0;
#X connect 11 0 13 0;
#X connect 13 1 54 0;
#X connect 14 0 10 0;
#X connect 15 0 79 0;
#X connect 17 0 45 0;
#X connect 18 0 19 0;
#X connect 20 0 21 2;
#X connect 22 0 23 0;
#X connect 23 0 20 0;
#X connect 24 0 33 1;
#X connect 24 1 25 0;
#X connect 25 0 26 0;
#X connect 26 0 35 1;
#X connect 27 0 31 0;
#X connect 28 0 29 0;
#X connect 29 0 30 0;
#X connect 29 0 33 0;
#X connect 30 0 29 1;
#X connect 31 0 28 0;
#X connect 31 1 32 0;
#X connect 32 0 29 1;
#X connect 33 0 42 0;
#X connect 34 0 27 0;
#X connect 34 1 38 0;
#X connect 35 0 39 0;
#X connect 37 0 24 0;
#X connect 38 0 37 0;
#X connect 39 0 21 0;
#X connect 39 1 41 0;
#X connect 40 0 21 1;
#X connect 41 0 40 0;
#X connect 42 0 35 0;
#X connect 43 0 45 0;
#X connect 45 0 34 0;
#X connect 45 1 22 0;
#X connect 45 2 18 0;
#X connect 45 3 44 0;
#X connect 46 0 47 0;
#X connect 47 0 8 1;
#X connect 48 0 14 0;
#X connect 49 0 55 0;
#X connect 50 0 133 0;
#X connect 51 0 106 0;
#X connect 51 1 80 0;
#X connect 52 0 107 0;
#X connect 52 1 81 0;
#X connect 53 0 108 0;
#X connect 53 1 82 0;
#X connect 54 0 15 0;
#X connect 54 1 14 0;
#X connect 55 0 51 0;
#X connect 56 0 58 0;
#X connect 57 0 56 0;
#X connect 58 0 52 0;
#X connect 59 0 60 0;
#X connect 60 0 53 0;
#X connect 61 0 49 0;
#X connect 62 0 59 0;
#X connect 63 0 61 0;
#X connect 63 1 57 0;
#X connect 63 2 62 0;
#X connect 64 0 65 0;
#X connect 65 0 66 0;
#X connect 66 0 67 0;
#X connect 67 0 77 0;
#X connect 68 0 67 0;
#X connect 69 0 68 0;
#X connect 70 0 71 0;
#X connect 71 0 72 0;
#X connect 72 0 74 0;
#X connect 74 0 73 0;
#X connect 74 1 76 0;
#X connect 75 0 73 1;
#X connect 76 0 75 0;
#X connect 77 0 70 0;
#X connect 77 1 73 2;
#X connect 78 0 64 0;
#X connect 78 1 69 0;
#X connect 78 2 71 1;
#X connect 79 0 8 0;
#X connect 79 1 78 0;
#X connect 80 0 109 1;
#X connect 81 0 50 1;
#X connect 82 0 110 1;
#X connect 83 0 88 0;
#X connect 84 0 86 0;
#X connect 85 0 91 0;
#X connect 86 0 94 0;
#X connect 87 0 111 0;
#X connect 87 1 95 0;
#X connect 87 1 100 0;
#X connect 87 1 105 0;
#X connect 87 1 104 0;
#X connect 88 0 87 0;
#X connect 89 0 92 0;
#X connect 90 0 111 0;
#X connect 90 1 96 0;
#X connect 90 1 101 0;
#X connect 90 1 105 0;
#X connect 90 1 103 0;
#X connect 91 0 90 0;
#X connect 93 0 79 0;
#X connect 94 0 111 0;
#X connect 94 1 102 0;
#X connect 94 1 103 0;
#X connect 94 1 104 0;
#X connect 95 0 89 1;
#X connect 96 0 89 1;
#X connect 100 0 97 0;
#X connect 101 0 98 0;
#X connect 102 0 99 0;
#X connect 103 0 97 0;
#X connect 104 0 98 0;
#X connect 105 0 99 0;
#X connect 106 0 124 0;
#X connect 107 0 125 0;
#X connect 108 0 126 0;
#X connect 109 0 133 0;
#X connect 110 0 133 0;
#X connect 111 0 89 0;
#X connect 112 0 115 1;
#X connect 113 0 116 1;
#X connect 114 0 117 1;
#X connect 115 0 121 0;
#X connect 116 0 122 0;
#X connect 117 0 123 0;
#X connect 118 0 109 0;
#X connect 119 0 50 0;
#X connect 120 0 110 0;
#X connect 121 0 118 0;
#X connect 122 0 119 0;
#X connect 123 0 120 0;
#X connect 124 0 112 0;
#X connect 125 0 113 0;
#X connect 126 0 114 0;
#X connect 129 0 115 0;
#X connect 129 0 116 0;
#X connect 129 0 117 0;
#X connect 130 0 140 0;
#X connect 131 0 132 0;
#X connect 132 0 133 1;
#X connect 133 0 134 0;
#X connect 133 0 136 0;
#X connect 134 0 128 0;
#X connect 135 0 5 0;
#X connect 136 0 127 0;
#X connect 137 0 131 0;
#X connect 138 0 131 0;
#X connect 139 0 131 0;
#X connect 140 0 137 0;
#X connect 140 1 139 0;
#X connect 140 2 138 0;
#X connect 140 3 137 0;
#X restore 1404 853 pd shepard;
#N canvas -1439 16 942 996 bass 0;
#X obj 203 575 throw~ \$0-mono;
#X obj 287 255 osc~ 40;
#X obj 287 295 *~;
#X obj 388 270 line~;
#X obj 214 222 osc~ 39;
#X obj 388 198 r \$0-fearIndexInt;
#X obj 284 87 r \$0-fearIndexInt;
#X obj 284 111 select 1 2;
#X msg 388 246 \$1 1000;
#X obj 284 193 line~;
#X msg 284 169 \$1 2000;
#X obj 71 51 r \$0-fearIndexInt;
#X obj 69 179 line~;
#X msg 69 155 \$1 2000;
#X obj 71 75 select 0 1 2;
#X msg 71 99 39;
#X msg 284 145 46;
#X obj 504 303 tgl 19 0 empty empty empty 0 -10 0 12 #fcfcfc #000000 #000000 0 1;
#X obj 504 327 metro 100;
#X obj 504 380 t b f;
#X obj 504 428 pack f f;
#X obj 504 404 else/rand.f 0.1 1;
#X obj 504 356 else/rand.i 1 250;
#X msg 504 452 \$1 \$2;
#X obj 504 476 line~;
#X msg 104 117 41;
#X obj 203 535 *~ 1;
#X obj 504 254 loadbang;
#X msg 504 278 1;
#X obj 222 127 line~;
#X obj 222 7 r \$0-fearIndexInt;
#X msg 222 103 \$1 1000;
#X obj 214 246 *~;
#X obj 222 79 + 0.5;
#X obj 222 55 * 0.5;
#X obj 222 31 / 3;
#X obj 268 476 r \$0-bass-tgl-s;
#X msg 144 117 43;
#X obj 388 222 / 3;
#X msg 324 145 52;
#X obj 202 379 *~;
#X obj 202 403 *~ 0.5;
#X connect 1 0 2 0;
#X connect 2 0 40 0;
#X connect 3 0 2 1;
#X connect 4 0 32 0;
#X connect 5 0 38 0;
#X connect 6 0 7 0;
#X connect 7 0 16 0;
#X connect 7 1 39 0;
#X connect 8 0 3 0;
#X connect 9 0 1 0;
#X connect 10 0 9 0;
#X connect 11 0 14 0;
#X connect 12 0 4 0;
#X connect 13 0 12 0;
#X connect 14 0 15 0;
#X connect 14 1 25 0;
#X connect 14 2 37 0;
#X connect 15 0 13 0;
#X connect 16 0 10 0;
#X connect 17 0 18 0;
#X connect 18 0 22 0;
#X connect 19 0 21 0;
#X connect 19 1 20 1;
#X connect 20 0 23 0;
#X connect 21 0 20 0;
#X connect 22 0 18 1;
#X connect 22 0 19 0;
#X connect 23 0 24 0;
#X connect 24 0 40 1;
#X connect 25 0 13 0;
#X connect 26 0 0 0;
#X connect 27 0 28 0;
#X connect 28 0 17 0;
#X connect 29 0 32 1;
#X connect 30 0 35 0;
#X connect 31 0 29 0;
#X connect 32 0 40 0;
#X connect 33 0 31 0;
#X connect 34 0 33 0;
#X connect 35 0 34 0;
#X connect 36 0 26 1;
#X connect 37 0 13 0;
#X connect 38 0 8 0;
#X connect 39 0 10 0;
#X connect 40 0 41 0;
#X connect 41 0 26 0;
#X restore 1404 878 pd bass;
#X text 1932 687 // Conversion de fearIndex a 3 niveles;
#X text 2063 739 0.33 = Bajo;
#X text 2063 759 0.66 = Medio Alto;
#X text 2063 719 0 = Nada;
#X text 2063 779 0.99 = Alto;
#X text 1572 931 // Reverb;
#X text 1404 828 // sonidos;
#X obj 1932 731 sel 0;
#X msg 1932 755 0;
#X obj 1982 824 + 1;
#X text 2214 785 3 = Alto +1 *1.5;
#X text 2214 765 2 = Medio 1 *1;
#X text 2214 745 1 = Bajo 0 *1;
#X text 2215 724 0 = Nada -1 *1;
#N canvas 130 130 638 568 breathing 0;
#X obj 303 739 file glob;
#X obj 375 642 bng 19 250 50 0 empty empty empty 0 -10 0 12 #fcfcfc #000000 #000000;
#X obj 435 800 else/count;
#X obj 375 666 t b b;
#X obj 303 763 t a b;
#X msg 303 710 symbol ./samples/breathing/*.wav;
#X msg 435 762 set 0;
#X obj 318 926 text define -k \$0-breathingSamples;
#A set ./samples/breathing/210000__jason130178__man-breathing.wav \; ./samples/breathing/234335__mcroce__breath.wav \; ./samples/breathing/235519__ceberation__heavy-breathing.wav \; ./samples/breathing/401336__ckvoiceover__breathing.wav \;;
#X obj 306 867 text set \$0-breathingSamples;
#X msg 301 815 symbol \$1;
#X obj 1155 748 tgl 19 0 empty empty empty 0 -10 0 12 #fcfcfc #000000 #000000 0 1;
#X obj 1155 796 else/chance 50;
#X obj 1155 772 metro 4000;
#X obj 1146 891 else/rand.i 0 3;
#X obj 1146 915 text get \$0-breathingSamples;
#X msg 1137 1005 open ./\$1.wav \, start;
#X obj 1137 1029 readsf~;
#X obj 1137 1053 *~ 0.1;
#X obj 1382 889 else/rand.i -30 -12;
#X connect 0 0 4 0;
#X connect 1 0 3 0;
#X connect 2 0 8 1;
#X connect 3 0 5 0;
#X connect 3 1 6 0;
#X connect 4 0 9 0;
#X connect 4 1 2 0;
#X connect 5 0 0 0;
#X connect 6 0 2 0;
#X connect 9 0 8 0;
#X connect 10 0 12 0;
#X connect 11 0 13 0;
#X connect 11 0 18 0;
#X connect 12 0 11 0;
#X connect 13 0 14 0;
#X connect 14 0 15 0;
#X connect 15 0 16 0;
#X connect 16 0 17 0;
#X restore 1404 1082 pd breathing;
#N canvas 131 22 688 673 heartRate 0;
#X obj 396 26 / 127;
#X obj 396 50 * 40;
#X obj 396 74 + 60;
#X msg 396 98 60000 \$1;
#X obj 396 122 /;
#X obj 285 93 loadbang;
#X msg 285 117 1;
#X obj 285 141 metro;
#X obj 95 422 else/lowpass~;
#X obj 95 263 else/pink~;
#X obj 183 398 sig~ 0.4;
#X obj 436 151 v \$0-latidoMs;
#X obj 313 315 vline~;
#X obj 139 383 mtof~;
#X obj 156 461 else/drive~;
#X obj 295 490 *~;
#X obj 295 643 throw~ \$0-mono;
#X msg 252 252 1 1 \, 0 160 1;
#X obj 139 354 *~ 100;
#X obj 95 292 else/resonant~ 110 250;
#X obj 370 218 delay;
#X obj 402 186 / 4;
#X msg 32 227 clear;
#X msg 370 241 0.7 1 \, 0 160 1;
#X obj 313 426 sqrt~;
#X obj 422 643 throw~ \$0-reverb;
#X obj 422 619 *~ 0.1;
#X obj 396 2 r \$0-ritmo-cardiaco-s;
#X obj 295 619 *~ 1;
#X obj 295 564 *~ 0.25;
#X connect 0 0 1 0;
#X connect 1 0 2 0;
#X connect 2 0 3 0;
#X connect 3 0 4 0;
#X connect 4 0 7 1;
#X connect 4 0 11 0;
#X connect 4 0 21 0;
#X connect 5 0 6 0;
#X connect 6 0 7 0;
#X connect 7 0 17 0;
#X connect 7 0 22 0;
#X connect 7 0 20 0;
#X connect 8 0 14 0;
#X connect 9 0 19 0;
#X connect 10 0 8 2;
#X connect 12 0 24 0;
#X connect 12 0 18 0;
#X connect 13 0 8 1;
#X connect 14 0 15 0;
#X connect 15 0 29 0;
#X connect 17 0 12 0;
#X connect 18 0 13 0;
#X connect 19 0 8 0;
#X connect 20 0 23 0;
#X connect 21 0 20 1;
#X connect 22 0 8 0;
#X connect 22 0 19 0;
#X connect 23 0 12 0;
#X connect 24 0 15 1;
#X connect 26 0 25 0;
#X connect 27 0 0 0;
#X connect 28 0 16 0;
#X connect 29 0 26 0;
#X connect 29 0 28 0;
#X restore 1404 902 pd heartRate;
#X obj 1982 776 + 0;
#X obj 1786 792 loadbang;
#X msg 1786 816 dsp 1;
#X obj 1786 840 send pd;
#N canvas 9 16 934 956 fear-index-acum 0;
#X obj 252 45 tgl 19 0 empty empty empty 0 -10 0 12 #fcfcfc #000000 #000000 0 1;
#X obj 252 69 metro 100;
#X obj 252 93 v \$0-fearIndexInt;
#X obj 615 133 t f b;
#X obj 615 177 f;
#X obj 567 102 t f f;
#X obj 567 206 -;
#X obj 567 46 r \$0-fearIndexInt;
#X obj 567 75 change -1;
#X text 626 265 diferencia;
#X obj 342 187 tgl 19 0 empty empty empty 0 -10 0 12 #fcfcfc #000000 #000000 0 1;
#X obj 345 211 metro 100;
#X obj 367 263 f;
#X obj 367 287 +;
#X obj 407 287 i;
#X floatatom 367 345 5 0 0 0 - - - 0;
#X obj 567 230 clip -1 3;
#X obj 367 321 clip 0 500;
#X obj 370 383 hsl 162 19 0 127 0 0 empty empty empty -2 -10 0 12 #fcfcfc #000000 #000000 0 1;
#X floatatom 515 57 5 0 0 0 - - - 0;
#X floatatom 567 254 5 0 0 0 - - - 0;
#X obj 252 117 - 1;
#X obj 252 141 +;
#X obj 252 165 clip 0 500;
#X obj 292 141 i;
#X floatatom 252 189 5 0 0 0 - - - 0;
#X connect 0 0 1 0;
#X connect 1 0 2 0;
#X connect 2 0 21 0;
#X connect 3 0 4 1;
#X connect 3 1 4 0;
#X connect 4 0 6 1;
#X connect 5 0 6 0;
#X connect 5 1 3 0;
#X connect 6 0 16 0;
#X connect 7 0 8 0;
#X connect 8 0 5 0;
#X connect 10 0 11 0;
#X connect 11 0 12 0;
#X connect 12 0 13 0;
#X connect 13 0 17 0;
#X connect 14 0 13 1;
#X connect 15 0 18 0;
#X connect 16 0 12 1;
#X connect 16 0 20 0;
#X connect 17 0 14 0;
#X connect 17 0 15 0;
#X connect 19 0 8 0;
#X connect 21 0 22 0;
#X connect 22 0 23 0;
#X connect 23 0 24 0;
#X connect 23 0 25 0;
#X connect 24 0 22 1;
#X restore 1806 945 pd fear-index-acum;
#X obj 385 503 catch~ \$0-mono;
#X text 385 483 // Master Output;
#X obj 1057 310 text define -k \$0-fearVDA;
#A set acum va ar dom \; sin miedo 1 -1 1 \; poco miedo 0.33 -0.33 0.33 \; medio alto -0.33 0.33 -0.33 \; muy alto -1 1 -1 \;;
#X connect 0 0 6 0;
#X connect 1 0 0 1;
#X connect 1 1 0 0;
#X connect 2 0 11 0;
#X connect 3 0 2 1;
#X connect 3 1 2 0;
#X connect 4 0 1 0;
#X connect 4 1 13 0;
#X connect 6 0 3 0;
#X connect 6 1 12 0;
#X connect 8 1 14 0;
#X connect 9 0 10 0;
#X connect 10 0 8 0;
#X connect 15 0 138 0;
#X connect 17 0 18 0;
#X connect 18 0 19 0;
#X connect 19 1 20 0;
#X connect 20 0 21 0;
#X connect 20 1 23 0;
#X connect 20 2 25 0;
#X connect 20 2 131 0;
#X connect 21 0 22 0;
#X connect 22 0 21 1;
#X connect 22 0 129 0;
#X connect 23 0 24 0;
#X connect 24 0 23 1;
#X connect 24 0 128 0;
#X connect 25 0 26 0;
#X connect 26 0 25 1;
#X connect 26 0 127 0;
#X connect 27 0 26 0;
#X connect 27 0 22 0;
#X connect 27 0 24 0;
#X connect 29 0 34 0;
#X connect 30 0 31 0;
#X connect 31 0 32 0;
#X connect 32 0 114 0;
#X connect 32 1 33 0;
#X connect 34 0 35 0;
#X connect 34 0 115 0;
#X connect 34 0 119 0;
#X connect 35 0 34 1;
#X connect 36 0 37 0;
#X connect 37 0 38 0;
#X connect 38 0 94 0;
#X connect 39 0 40 0;
#X connect 40 0 29 0;
#X connect 41 0 130 0;
#X connect 43 0 47 0;
#X connect 44 0 27 0;
#X connect 47 0 48 0;
#X connect 49 0 43 0;
#X connect 50 0 51 0;
#X connect 51 0 56 0;
#X connect 52 0 53 0;
#X connect 53 0 57 0;
#X connect 54 0 50 0;
#X connect 55 0 52 0;
#X connect 58 0 4 0;
#X connect 59 0 64 0;
#X connect 61 0 62 0;
#X connect 62 0 63 0;
#X connect 64 0 61 0;
#X connect 66 0 69 0;
#X connect 67 0 68 0;
#X connect 69 0 67 0;
#X connect 70 0 71 0;
#X connect 71 0 90 0;
#X connect 72 0 70 0;
#X connect 73 0 72 0;
#X connect 80 0 82 0;
#X connect 82 0 81 0;
#X connect 83 0 84 0;
#X connect 84 0 85 1;
#X connect 84 0 89 1;
#X connect 85 0 88 1;
#X connect 85 0 87 1;
#X connect 86 0 85 0;
#X connect 87 0 100 0;
#X connect 88 0 99 0;
#X connect 89 0 99 0;
#X connect 89 0 100 0;
#X connect 93 0 137 0;
#X connect 94 0 30 0;
#X connect 95 0 96 0;
#X connect 96 0 97 0;
#X connect 97 0 98 0;
#X connect 98 0 99 1;
#X connect 98 0 100 1;
#X connect 99 0 103 0;
#X connect 100 0 101 0;
#X connect 101 0 102 0;
#X connect 101 0 81 0;
#X connect 103 0 104 0;
#X connect 107 0 108 0;
#X connect 108 0 80 0;
#X connect 110 0 111 0;
#X connect 112 0 113 0;
#X connect 113 0 111 0;
#X connect 114 0 29 1;
#X connect 115 0 110 0;
#X connect 116 0 117 0;
#X connect 117 0 118 0;
#X connect 118 0 132 0;
#X connect 119 0 121 0;
#X connect 119 1 120 1;
#X connect 120 0 112 0;
#X connect 121 0 120 0;
#X connect 122 0 12 0;
#X connect 122 0 11 0;
#X connect 122 0 13 0;
#X connect 123 0 122 0;
#X connect 124 0 122 0;
#X connect 125 0 41 0;
#X connect 126 0 116 0;
#X connect 130 0 36 0;
#X connect 132 0 121 1;
#X connect 133 0 134 0;
#X connect 134 0 135 0;
#X connect 136 0 83 0;
#X connect 137 0 136 0;
#X connect 138 0 89 0;
#X connect 139 0 140 0;
#X connect 140 0 138 1;
#X connect 141 0 143 0;
#X connect 143 0 139 0;
#X connect 144 0 145 0;
#X connect 145 0 146 0;
#X connect 148 0 151 0;
#X connect 149 0 151 1;
#X connect 151 0 152 0;
#X connect 152 0 153 0;
#X connect 153 0 150 0;
#X connect 154 0 155 0;
#X connect 155 0 156 0;
#X connect 157 0 164 0;
#X connect 157 1 165 0;
#X connect 158 0 166 0;
#X connect 161 0 87 0;
#X connect 162 0 88 0;
#X connect 163 0 157 0;
#X connect 164 0 159 0;
#X connect 165 0 160 0;
#X connect 166 0 157 0;
#X connect 169 0 163 0;
#X connect 173 0 187 0;
#X connect 174 0 189 0;
#X connect 175 0 196 0;
#X connect 187 0 188 0;
#X connect 187 1 175 0;
#X connect 188 0 177 0;
#X connect 189 0 177 0;
#X connect 196 0 174 0;
#X connect 197 0 198 0;
#X connect 198 0 199 0;
#X connect 201 0 87 0;
#X connect 201 0 88 0;
#X restore 15 392 pd guts;
#X obj 215 528 s \$0-mouth-r;
#X text 215 412 OSC: Mouth;
#X obj 12 75 cnv 19 170 300 empty empty empty 20 12 0 12 #c7c6ff #404040 0;
#X obj 192 75 cnv 19 320 220 empty empty empty 20 12 0 12 #ffe3c6 #404040 0;
#X obj 302 115 hradio 19 1 0 7 \$0-emotion empty Manual\ emotion\ input 0 -10 0 12 #ffffff #000000 #000000 0;
#X obj 32 155 hradio 19 1 0 7 \$0-faceEmotion-s \$0-faceEmotion-r Face:neutral 0 -10 0 12 #e3c6ff #000000 #000000 0;
#X obj 272 255 nbx 5 17 -1e+37 1e+37 0 0 \$0-dominance-s \$0-dominance-r dominance 0 -10 0 12 #000000 #ffffff #000000 0 256;
#X obj 202 255 nbx 5 17 -1e+37 1e+37 0 0 \$0-valence-s \$0-valence-r valence 0 -10 0 12 #000000 #ffffff #000000 0 256;
#X obj 342 255 nbx 5 17 -1e+37 1e+37 0 0 \$0-arousal-s \$0-arousal-r arousal 0 -10 0 12 #000000 #ffffff #000000 0 256;
#X obj 412 253 bng 19 250 50 0 \$0-reset empty RESET 0 -10 0 12 #ff0400 #000000 #000000;
#X obj 202 115 tgl 19 0 \$0-emotionRand-s \$0-emotionRand-r emotionRand 0 -10 0 12 #c6ffc7 #000000 #000000 0 1;
#X obj 202 185 nbx 8 17 -1e+37 1e+37 0 0 empty \$0-emotion-1-r Other 20 9 0 12 #000000 #000000 #ffffff 0 256;
#X obj 302 185 nbx 8 17 -1e+37 1e+37 0 0 empty \$0-emotion-2-r Other 20 9 0 12 #000000 #000000 #ffffff 0 256;
#X obj 402 185 nbx 8 17 -1e+37 1e+37 0 0 empty \$0-emotion-3-r Other 20 9 0 12 #000000 #000000 #ffffff 0 256;
#X text 200 164 Emotion 1;
#X text 300 164 Emotion 2;
#X text 400 164 Emotion 3;
#X obj 35 195 hsl 128 19 0 127 0 1 \$0-mouth-s \$0-mouth-r mouth -2 -10 0 12 #e3c6ff #000000 #000000 11564 1;
#X obj 32 115 tgl 19 0 \$0-faceRand-s \$0-faceRand-r faceRand 0 -10 0 12 #e3c6ff #000000 #000000 0 1;
#X text 200 144 Emotion Memory –––––––––––––––––––––––;
#X text 200 215 Accumulated emotion indexes ––––––––––;
#X obj 35 235 hsl 128 19 0 1 0 1 \$0-mouthAcum-s \$0-mouthAcum-r mouthAcum -2 -10 0 12 #e3c6ff #000000 #000000 847 1;
#X text 30 75 Face Emotion;
#X obj 113 114 bng 19 250 50 0 \$0-open empty OPEN 0 -10 0 12 #ff0400 #000000 #000000;
#X text 764 125 Archivo > Preferencias \; > Editar preferencias > Preferencias de audio;
#X text 764 175 Sistema de audio > standard (portaudio);
#X text 763 216 Entrada/Salida: Windows WASHAPI: 4-USB Audio CODEC;
#X text 764 85 Configuraciones de audio:;
#X text 763 196 Velocidad de muestro: 44.1 kHz;
#X obj 11 12 cnv 40 500 40 empty empty Scene\ 4\ -\ Between\ the\ lines 20 20 0 24 #000000 #ffffff 0;
#X text 763 236 Retardo (mseg): 24 (subir a 40 o 80 si causa ruido);
#X text 200 75 Emotions;
#X obj 516 56 cnv 15 220 240 empty empty Main 12 20 0 18 #feffc6 #404040 0;
#N canvas 0 22 450 278 (subpatch) 0;
#X array \$0-scope 4410 float 0;
#X coords 0 1 4409 -1 200 140 1;
#X restore 520 103 graph;
#X obj 567 266 hsl 101 19 0 1 0 1 \$0-volumen-s \$0-volumen-r Volumen -2 -10 0 12 #000000 #ffffff #000000 7000 1;
#X text 631 248 1;
#X text 662 248 2;
#X text 19 259 Music;
#X text 137 258 Speech;
#X obj 35 305 hsl 128 19 0 1 0 1 \$0-mouthVolume-s \$0-mouthVolume-r mouthVolume -2 -10 0 12 #e3c6ff #000000 #000000 0 1;
#X msg 655 516 0;
#X msg 705 516 1;
#X msg 755 516 2;
#X msg 805 516 3;
#X msg 855 516 4;
#X msg 905 516 5;
#X msg 955 516 6;
#X obj 655 456 route faceEmotion;
#X obj 655 560 s \$0-faceEmotion-r;
#X text 655 412 OSC: faceEmotion;
#X floatatom 541 574 5 0 0 0 - - - 0;
#X obj 481 537 print routefaceemotion;
#X obj 655 482 route neutral fear anger disgust surprise happiness sadness;
#X obj 685 263 bng 19 250 50 0 \$0-fadeOut-s empty fadeOut 0 -10 0 12 #ff0400 #000000 #000000;
#X text 76 717 Miedo 1 =;
#X obj 35 502 netreceive -u -b 9011;
#X text 15 609 Port \; 5003 = Mouth \, faceEmotion \; 9011 = Fear Index \;;
#X obj 238 620 cnv 19 395 195 empty empty empty 20 12 0 12 #e0e0e0 #404040 0;
#X obj 292 764 hsl 101 19 0 1 0 0 \$0-presion-s \$0-presion-r presion -2 -10 0 12 #499bde #ffffff #000000 0 1;
#X obj 292 724 hsl 101 19 0 1 0 1 \$0-ritmo-cardiaco-s \$0-ritmo-cardiaco-r ritmo-cardiaco -2 -10 0 12 #499bde #ffffff #000000 10000 1;
#X obj 292 684 hsl 101 19 0 1 0 0 \$0-electricidad-s \$0-electricidad-r electricidad -2 -10 0 12 #499bde #ffffff #000000 0 1;
#X obj 292 644 hsl 101 19 0 1 0 0 \$0-temperatura-s \$0-temperatura-r temperatura -2 -10 0 12 #499bde #ffffff #000000 0 1;
#X obj 412 645 hsl 101 19 0 1 0 1 \$0-fearIndex-s \$0-fearIndex-r fearIndex -2 -10 0 12 #ae5f44 #ffffff #000000 3300 1;
#X floatatom 409 669 5 0 0 0 - - - 0;
#X floatatom 516 646 5 0 0 0 - \$0-fearIndexInt - 0;
#X obj 412 715 hsl 101 19 0 1 0 1 \$0-volumen-s \$0-volumen-r Volumen -2 -10 0 12 #000000 #ffffff #000000 7000 1;
#X obj 590 707 tgl 19 1 \$0-bass-tgl-s \$0-bass-tgl-r empty -30 10 0 12 #feffc6 #000000 #000000 1 1;
#X text 533 708 bass;
#X obj 590 731 tgl 19 1 \$0-howls-tgl-s \$0-howls-tgl-r empty -30 10 0 12 #feffc6 #000000 #000000 1 1;
#X text 533 732 howls;
#X obj 590 755 tgl 19 1 \$0-strings-tgl-s \$0-strings-tgl-r empty -30 10 0 12 #feffc6 #000000 #000000 1 1;
#X text 533 756 strings;
#X obj 457 414 route emotion-ID;
#X obj 457 448 s \$0-fearIndex-r;
#X text 457 365 // OSC fearIndex emotion-ID value;
#X obj 457 385 r \$0-osc;
#X obj 716 674 route heartRate;
#X obj 716 698 else/rescale -1 1 0 1;
#X obj 716 722 s \$0-ritmo-cardiaco-r;
#X obj 717 649 r \$0-osc;
#X obj 33 472 netreceive -u -b 6001;
#X obj 125 579 print;
#X connect 0 0 3 0;
#X connect 1 0 0 0;
#X connect 2 0 4 0;
#X connect 3 0 7 0;
#X connect 3 0 91 0;
#X connect 4 0 5 0;
#X connect 5 0 10 0;
#X connect 6 0 57 0;
#X connect 8 0 2 0;
#X connect 50 0 58 0;
#X connect 50 0 60 0;
#X connect 51 0 58 0;
#X connect 51 0 60 0;
#X connect 52 0 58 0;
#X connect 52 0 60 0;
#X connect 53 0 58 0;
#X connect 53 0 60 0;
#X connect 54 0 58 0;
#X connect 54 0 60 0;
#X connect 55 0 58 0;
#X connect 55 0 60 0;
#X connect 56 0 58 0;
#X connect 56 0 60 0;
#X connect 57 0 61 0;
#X connect 57 0 62 0;
#X connect 62 0 50 0;
#X connect 62 1 51 0;
#X connect 62 2 52 0;
#X connect 62 3 53 0;
#X connect 62 4 54 0;
#X connect 62 5 55 0;
#X connect 62 6 56 0;
#X connect 65 0 0 0;
#X connect 72 0 73 0;
#X connect 82 0 83 0;
#X connect 85 0 82 0;
#X connect 86 0 87 0;
#X connect 87 0 88 0;
#X connect 89 0 86 0;
#X connect 90 0 0 0;
