#N canvas 492 141 1217 754 12;
#X obj 149 -103 tgl 19 0 empty empty empty 0 -10 0 12 #fcfcfc #000000 #000000 0 1;
#X obj 149 -79 metro 100;
#X obj 149 -55 t b b;
#X obj 72 97 makenote;
#X obj 172 33 else/rand.i 1 127;
#X obj 195 63 else/rand.i 250 2000;
#X obj 149 -32 t b b b b;
#X obj 629 354 tgl 19 0 empty empty empty 0 -10 0 12 #fcfcfc #000000 #000000 0 1;
#X obj 629 378 metro 50;
#X obj 629 402 tabwrite~ \$0-scope;
#N canvas 0 22 450 278 (subpatch) 0;
#X array \$0-scope 441 float 1;
#A 0 0 0 0 0 0 0 0 0 0 0 0 0 0 0 0 0 0 0 0 0 0 0 0 0 0 0 0 0 0 0 0 0 0 0 0 0 0 0 0 0 0 0 0 0 0 0 0 0 0 0 0 0 0 0 0 0 0 0 0 0 0 0 0 0 0 0 0 0 0 0 0 0 0 0 0 0 0 0 0 0 0 0 0 0 0 0 0 0 0 0 0 0 0 0 0 0 0 0 0 0 0 0 0 0 0 0 0 0 0 0 0 0 0 0 0 0 0 0 0 0 0 0 0 0 0 0 0 0 0 0 0 0 0 0 0 0 0 0 0 0 0 0 0 0 0 0 0 0 0 0 0 0 0 0 0 0 0 0 0 0 0 0 0 0 0 0 0 0 0 0 0 0 0 0 0 0 0 0 0 0 0 0 0 0 0 0 0 0 0 0 0 0 0 0 0 0 0 0 0 0 0 0 0 0 0 0 0 0 0 0 0 0 0 0 0 0 0 0 0 0 0 0 0 0 0 0 0 0 0 0 0 0 0 0 0 0 0 0 0 0 0 0 0 0 0 0 0 0 0 0 0 0 0 0 0 0 0 0 0 0 0 0 0 0 0 0 0 0 0 0 0 0 0 0 0 0 0 0 0 0 0 0 0 0 0 0 0 0 0 0 0 0 0 0 0 0 0 0 0 0 0 0 0 0 0 0 0 0 0 0 0 0 0 0 0 0 0 0 0 0 0 0 0 0 0 0 0 0 0 0 0 0 0 0 0 0 0 0 0 0 0 0 0 0 0 0 0 0 0 0 0 0 0 0 0 0 0 0 0 0 0 0 0 0 0 0 0 0 0 0 0 0 0 0 0 0 0 0 0 0 0 0 0 0 0 0 0 0 0 0 0 0 0 0 0 0 0 0 0 0 0 0 0 0 0 0 0 0 0 0 0 0 0 0 0 0 0 0 0 0 0 0 0 0 0 0 0 0 0 0 0 0 0 0 0 0 0 0 0 0 0;
#X coords 0 1 440 -1 200 140 1;
#X restore 637 -79 graph;
#X obj 471 25 bng 50 250 50 0 empty empty empty 0 -10 0 12 #fcfcfc #000000 #000000;
#X obj 72 185 pack f f f f f;
#X obj 283 308 else/plate.rev~;
#X obj 365 246 loadbang;
#X obj 258 464 catch~ \$0-mono;
#X obj 257 518 *~ 0.5;
#X obj 257 542 else/drive~;
#X obj 257 566 hip~ 3;
#X obj 257 590 *~ 0.8;
#X obj 257 614 dac~ 1;
#X obj 387 518 *~ 0.5;
#X obj 387 542 else/drive~;
#X obj 387 566 hip~ 3;
#X obj 387 590 *~ 0.8;
#X obj 387 614 dac~ 2;
#X obj 290 407 throw~ \$0-left;
#X obj 420 407 throw~ \$0-right;
#X obj 222 489 catch~ \$0-left;
#X obj 435 489 catch~ \$0-right;
#X obj 377 184 else/pink~;
#X floatatom 239 -55 5 0 0 0 - - - 0;
#X obj 72 208 clone -s 1 noiseVoice~ 20;
#X obj 72 151 poly 20 1;
#X floatatom 27 186 5 0 0 0 - - - 0;
#X obj 1267 533 env~;
#X floatatom 1267 557 5 0 0 0 - - - 0;
#X obj 540 447 clone insectos~ 100;
#X obj 540 471 *~ 1;
#X obj 43 387 throw~ \$0-mono;
#X obj 377 208 else/lowpass~ 200 0.4;
#X obj 1283 600 throw~ \$0-left;
#X obj 1055 563 env~;
#X floatatom 1055 587 5 0 0 0 - - - 0;
#X obj 689 581 throw~ \$0-right;
#X obj 1068 511 clone insectos~ 20;
#X obj 1298 346 loadbang;
#X msg 1298 394 10 \$1;
#X obj 1298 418 pow;
#X floatatom 1298 442 5 0 0 0 - - - 0;
#X msg 1298 465 all \$1;
#X obj 1068 343 loadbang;
#X msg 1068 391 10 \$1;
#X obj 1068 415 pow;
#X floatatom 1068 439 5 0 0 0 - - - 0;
#X msg 1068 462 all \$1;
#X msg 1068 366 5;
#X obj 668 214 hsl 101 19 0 1 0 0 \$0-presion-s \$0-presion-r presion -2 -10 0 12 #ffe3c6 #000000 #000000 0 1;
#X obj 668 174 hsl 101 19 0 1 0 0 \$0-ritmo-cardiaco-s \$0-ritmo-cardiaco-r ritmo-cardiaco -2 -10 0 12 #ffe3c6 #000000 #000000 0 1;
#X obj 668 134 hsl 101 19 0 1 0 0 \$0-electricidad-s \$0-electricidad-r electricidad -2 -10 0 12 #ffe3c6 #000000 #000000 0 1;
#X obj 668 94 hsl 101 19 0 1 0 0 \$0-temperatura-s \$0-temperatura-r temperatura -2 -10 0 12 #ffe3c6 #000000 #000000 0 1;
#X obj 896 166 noise~;
#X obj 882 342 bng 19 250 50 0 empty empty empty 0 -10 0 12 #fcfcfc #000000 #000000;
#X obj 882 390 vline~;
#X obj 768 521 throw~ \$0-mono;
#X obj 931 282 *~ 0.5;
#X obj 897 188 pow~ 101;
#X obj 760 284 else/resonant~ 215 20;
#X obj 897 214 else/resonant~ 923 20;
#X obj 782 384 *~;
#X obj 882 414 pow~ 4;
#X obj 756 331 *~ 1;
#X obj 782 432 else/drive~;
#X obj 782 408 *~ 20;
#X obj 931 258 else/resonant~ 1423 20;
#X msg 882 366 1 500 \, 0 100 500;
#X obj 283 269 hip~ 1;
#X obj 1296 -74 tgl 19 0 empty empty empty 0 -10 0 12 #fcfcfc #000000 #000000 0 1;
#X obj 1296 -50 metro 100;
#X obj 1296 -26 t b b;
#X obj 1219 126 makenote;
#X obj 1319 62 else/rand.i 1 127;
#X obj 1342 92 else/rand.i 250 2000;
#X obj 1296 -3 t b b b b;
#X obj 1219 214 pack f f f f f;
#X obj 1524 213 else/pink~;
#X floatatom 1386 -26 5 0 0 0 - - - 0;
#X obj 1219 180 poly 20 1;
#X obj 1218 237 clone -s 1 strings~ 20;
#X obj 1319 524 *~ 1;
#X obj 1284 493 clone insectos~ 10;
#X obj 46 241 clip~ -1 1;
#X obj 283 332 *~ 1.5;
#X obj 385 358 *~ 1.5;
#X obj 515 549 noise~;
#X obj 552 628 *~;
#X obj 598 481 bng 19 250 50 0 empty empty empty 0 -10 0 12 #fcfcfc #000000 #000000;
#X obj 590 565 vline~;
#X obj 637 684 vline~;
#X obj 662 755 *~;
#X obj 385 702 vline~;
#X obj 227 708 noise~;
#X obj 229 827 else/highpass~ 1000 0.4;
#X obj 385 726 *~ 90;
#X obj 385 774 mtof~;
#X obj 259 869 *~;
#X msg 590 538 1 \, 0 100;
#X obj 590 589 *~;
#X obj 474 789 vline~;
#X obj 514 574 *~ 4;
#X obj 798 725 osc~ 40;
#X obj 717 632 delay 250;
#X msg 634 632 1 \, 0 10;
#X msg 717 656 1 \, 0 100;
#X obj 662 779 *~ 4;
#X msg 365 270 wet 1 \, cutoff 0.5 \, damp 0.5 \, pre 0 \, size 0.8;
#X obj 385 750 +~ 40;
#X obj 228 732 pow~ 1001;
#X msg 384 675 0 \, 1 2000;
#X obj 205 253 *~ 1;
#X obj 43 342 *~ 1;
#X obj 1093 605 throw~ \$0-right;
#X obj 1107 554 *~ 1;
#X msg 1298 369 5;
#X obj 950 16 bng 50 250 50 0 empty empty empty 0 -10 0 12 #fcfcfc #000000 #000000;
#X msg 1550 609 disconnect;
#X obj 1520 638 netsend -u -b;
#X msg 1537 583 connect localhost 5000;
#X obj 1537 559 loadbang;
#X text 1623 639 send as UDP \, binary;
#X obj 535 86 delay 2;
#X msg 535 110 0;
#X msg 471 80 1;
#X obj 471 104 t f;
#X obj 1041 93 delay 2;
#X msg 1041 117 0;
#X obj 977 111 t f;
#X msg 977 87 2;
#X obj 1520 525 oscformat reloj;
#X obj 228 756 *~ 2;
#X msg 473 762 1 550 \, 0 2000 500;
#X obj 989 725 vline~;
#X obj 862 756 noise~;
#X obj 989 797 mtof~;
#X obj 865 898 *~;
#X obj 1170 822 vline~;
#X obj 863 780 pow~ 5001;
#X obj 1193 670 bng 19 250 50 0 empty empty empty 0 -10 0 12 #fcfcfc #000000 #000000;
#X obj 1169 726 else/rand.f 0.5 1;
#X obj 1193 694 t b b;
#X obj 1169 750 pack f f;
#X obj 1170 846 *~;
#X obj 862 851 else/highpass~ 1000 0.7;
#X floatatom 982 679 5 0 0 0 - - - 0;
#X msg 1168 799 \$1 10 \, 0 \$2 10;
#X obj 1333 707 else/rand.i 1000 5000;
#X obj 905 651 else/rand.f 2001 8001;
#X obj 989 821 clip~ 20 20000;
#X obj 240 -79 else/rand.i 100 5000;
#X obj 285 140 else/rand.i 1000 4000;
#X obj 241 113 else/rand.i 1000 4000;
#X obj 1388 142 else/rand.i 1000 4000;
#X obj 1432 169 else/rand.i 1000 4000;
#X obj 1383 -48 else/rand.i 100 5000;
#X obj 1218 32 else/rand.f 30 60;
#X obj 69 4 else/rand.f 30 60;
#X obj 1218 283 *~ 0.5;
#X obj 865 922 throw~ \$0-mono;
#X obj 858 813 *~ 2;
#X msg 988 698 0 \, 1 600;
#X obj 988 749 *~ 50;
#X obj 989 773 +~ 70;
#X obj 769 469 *~ 0.25;
#X connect 0 0 1 0;
#X connect 1 0 2 0;
#X connect 1 0 11 0;
#X connect 2 0 6 0;
#X connect 2 1 158 0;
#X connect 3 0 33 0;
#X connect 3 1 33 1;
#X connect 4 0 3 1;
#X connect 6 0 165 0;
#X connect 6 1 4 0;
#X connect 6 2 5 0;
#X connect 6 3 159 0;
#X connect 6 3 160 0;
#X connect 7 0 8 0;
#X connect 8 0 9 0;
#X connect 11 0 130 0;
#X connect 11 0 132 0;
#X connect 11 0 147 0;
#X connect 12 0 32 0;
#X connect 13 0 92 0;
#X connect 13 1 93 0;
#X connect 14 0 115 0;
#X connect 15 0 16 0;
#X connect 15 0 21 0;
#X connect 16 0 17 0;
#X connect 17 0 18 0;
#X connect 18 0 19 0;
#X connect 19 0 20 0;
#X connect 21 0 22 0;
#X connect 22 0 23 0;
#X connect 23 0 24 0;
#X connect 24 0 25 0;
#X connect 28 0 16 0;
#X connect 29 0 21 0;
#X connect 30 0 40 0;
#X connect 32 0 91 0;
#X connect 33 0 12 0;
#X connect 33 0 34 0;
#X connect 33 1 12 1;
#X connect 33 2 12 2;
#X connect 35 0 36 0;
#X connect 37 0 38 0;
#X connect 40 0 32 1;
#X connect 42 0 43 0;
#X connect 45 0 122 0;
#X connect 46 0 123 0;
#X connect 47 0 48 0;
#X connect 48 0 49 0;
#X connect 49 0 50 0;
#X connect 50 0 90 0;
#X connect 51 0 56 0;
#X connect 52 0 53 0;
#X connect 53 0 54 0;
#X connect 54 0 55 0;
#X connect 55 0 45 0;
#X connect 56 0 52 0;
#X connect 61 0 66 0;
#X connect 62 0 75 0;
#X connect 63 0 70 0;
#X connect 65 0 71 0;
#X connect 66 0 67 0;
#X connect 66 0 68 0;
#X connect 66 0 74 0;
#X connect 67 0 71 0;
#X connect 68 0 71 0;
#X connect 69 0 73 0;
#X connect 70 0 69 1;
#X connect 71 0 69 0;
#X connect 72 0 172 0;
#X connect 73 0 72 0;
#X connect 74 0 65 0;
#X connect 75 0 63 0;
#X connect 76 0 13 0;
#X connect 77 0 78 0;
#X connect 78 0 79 0;
#X connect 78 0 124 0;
#X connect 79 0 83 0;
#X connect 79 1 163 0;
#X connect 80 0 87 0;
#X connect 80 1 87 1;
#X connect 81 0 80 1;
#X connect 83 0 164 0;
#X connect 83 1 81 0;
#X connect 83 2 82 0;
#X connect 83 3 161 0;
#X connect 83 3 162 0;
#X connect 84 0 88 0;
#X connect 85 0 88 1;
#X connect 87 0 84 0;
#X connect 87 1 84 1;
#X connect 87 2 84 2;
#X connect 88 0 166 0;
#X connect 89 0 35 0;
#X connect 90 0 89 0;
#X connect 91 0 119 0;
#X connect 91 0 120 0;
#X connect 92 0 26 0;
#X connect 93 0 27 0;
#X connect 94 0 109 0;
#X connect 96 0 106 0;
#X connect 96 0 112 0;
#X connect 96 0 111 0;
#X connect 97 0 107 0;
#X connect 97 0 107 1;
#X connect 98 0 99 0;
#X connect 99 0 114 0;
#X connect 100 0 103 0;
#X connect 101 0 117 0;
#X connect 102 0 105 0;
#X connect 103 0 116 0;
#X connect 104 0 102 1;
#X connect 106 0 97 0;
#X connect 107 0 95 1;
#X connect 108 0 105 1;
#X connect 109 0 95 0;
#X connect 110 0 99 1;
#X connect 111 0 113 0;
#X connect 112 0 98 0;
#X connect 113 0 98 0;
#X connect 115 0 13 0;
#X connect 116 0 104 0;
#X connect 117 0 139 0;
#X connect 118 0 100 0;
#X connect 119 0 76 0;
#X connect 120 0 39 0;
#X connect 122 0 42 0;
#X connect 123 0 47 0;
#X connect 124 0 137 0;
#X connect 124 0 134 0;
#X connect 124 0 147 0;
#X connect 125 0 126 0;
#X connect 127 0 126 0;
#X connect 128 0 127 0;
#X connect 130 0 131 0;
#X connect 131 0 133 0;
#X connect 132 0 133 0;
#X connect 133 0 138 0;
#X connect 133 0 96 0;
#X connect 134 0 135 0;
#X connect 135 0 136 0;
#X connect 136 0 138 0;
#X connect 137 0 136 0;
#X connect 138 0 126 0;
#X connect 139 0 102 0;
#X connect 140 0 108 0;
#X connect 141 0 170 0;
#X connect 142 0 146 0;
#X connect 143 0 157 0;
#X connect 144 0 167 0;
#X connect 145 0 151 0;
#X connect 145 0 151 1;
#X connect 146 0 168 0;
#X connect 147 0 149 0;
#X connect 148 0 150 0;
#X connect 149 0 148 0;
#X connect 149 0 169 0;
#X connect 149 0 156 0;
#X connect 149 1 155 0;
#X connect 150 0 154 0;
#X connect 151 0 144 1;
#X connect 152 0 144 0;
#X connect 154 0 145 0;
#X connect 155 0 150 1;
#X connect 156 0 146 1;
#X connect 156 0 153 0;
#X connect 157 0 152 1;
#X connect 158 0 1 1;
#X connect 158 0 31 0;
#X connect 159 0 12 4;
#X connect 160 0 12 3;
#X connect 160 0 3 2;
#X connect 161 0 84 3;
#X connect 161 0 80 2;
#X connect 162 0 84 4;
#X connect 163 0 78 1;
#X connect 163 0 86 0;
#X connect 164 0 80 0;
#X connect 165 0 3 0;
#X connect 166 0 13 0;
#X connect 168 0 152 0;
#X connect 169 0 141 0;
#X connect 170 0 171 0;
#X connect 171 0 143 0;
#X connect 172 0 64 0;
#X connect 172 0 13 0;
