#N canvas 224 69 1920 997 12;
#X obj 389 665 tgl 19 0 empty empty empty 0 -10 0 12 #fcfcfc #000000 #000000 0 1;
#X obj 389 689 metro 50;
#X obj 389 713 tabwrite~ \$0-scope;
#N canvas 0 22 450 278 (subpatch) 0;
#X array \$0-scope 441 float 1;
#A 0 0 0 0 0 0 0 0 0 0 0 0 0 0 0 0 0 0 0 0 0 0 0 0 0 0 0 0 0 0 0 0 0 0 0 0 0 0 0 0 0 0 0 0 0 0 0 0 0 0 0 0 0 0 0 0 0 0 0 0 0 0 0 0 0 0 0 0 0 0 0 0 0 0 0 0 0 0 0 0 0 0 0 0 0 0 0 0 0 0 0 0 0 0 0 0 0 0 0 0 0 0 0 0 0 0 0 0 0 0 0 0 0 0 0 0 0 0 0 0 0 0 0 0 0 0 0 0 0 0 0 0 0 0 0 0 0 0 0 0 0 0 0 0 0 0 0 0 0 0 0 0 0 0 0 0 0 0 0 0 0 0 0 0 0 0 0 0 0 0 0 0 0 0 0 0 0 0 0 0 0 0 0 0 0 0 0 0 0 0 0 0 0 0 0 0 0 0 0 0 0 0 0 0 0 0 0 0 0 0 0 0 0 0 0 0 0 0 0 0 0 0 0 0 0 0 0 0 0 0 0 0 0 0 0 0 0 0 0 0 0 0 0 0 0 0 0 0 0 0 0 0 0 0 0 0 0 0 0 0 0 0 0 0 0 0 0 0 0 0 0 0 0 0 0 0 0 0 0 0 0 0 0 0 0 0 0 0 0 0 0 0 0 0 0 0 0 0 0 0 0 0 0 0 0 0 0 0 0 0 0 0 0 0 0 0 0 0 0 0 0 0 0 0 0 0 0 0 0 0 0 0 0 0 0 0 0 0 0 0 0 0 0 0 0 0 0 0 0 0 0 0 0 0 0 0 0 0 0 0 0 0 0 0 0 0 0 0 0 0 0 0 0 0 0 0 0 0 0 0 0 0 0 0 0 0 0 0 0 0 0 0 0 0 0 0 0 0 0 0 0 0 0 0 0 0 0 0 0 0 0 0 0 0 0 0 0 0 0 0 0 0 0 0 0 0 0 0 0 0 0 0 0 0 0 0 0 0 0 0 0 0;
#X coords 0 1 440 -1 200 140 1;
#X restore 637 -79 graph;
#X obj 471 25 bng 50 250 50 0 empty empty empty 0 -10 0 12 #fcfcfc #000000 #000000;
#X obj 84 196 else/plate.rev~;
#X obj 166 134 loadbang;
#X obj 141 336 catch~ \$0-mono;
#X obj 140 390 *~ 0.5;
#X obj 140 414 else/drive~;
#X obj 140 462 *~ 0.8;
#X obj 140 486 dac~ 1;
#X obj 240 390 *~ 0.5;
#X obj 240 414 else/drive~;
#X obj 240 462 *~ 0.8;
#X obj 240 486 dac~ 2;
#X obj 83 295 throw~ \$0-left;
#X obj 186 249 throw~ \$0-right;
#X obj 105 361 catch~ \$0-left;
#X obj 288 361 catch~ \$0-right;
#X obj 272 54 hsl 101 19 0 1 0 0 \$0-presion-s \$0-presion-r presion -2 -10 0 12 #ffe3c6 #000000 #000000 0 1;
#X obj 272 14 hsl 101 19 0 1 0 0 \$0-ritmo-cardiaco-s \$0-ritmo-cardiaco-r ritmo-cardiaco -2 -10 0 12 #ffe3c6 #000000 #000000 0 1;
#X obj 272 -26 hsl 101 19 0 1 0 0 \$0-electricidad-s \$0-electricidad-r electricidad -2 -10 0 12 #ffe3c6 #000000 #000000 0 1;
#X obj 272 -66 hsl 101 19 0 1 0 0 \$0-temperatura-s \$0-temperatura-r temperatura -2 -10 0 12 #ffe3c6 #000000 #000000 0 1;
#X obj 84 157 hip~ 1;
#X obj 84 220 *~ 1.5;
#X obj 186 225 *~ 1.5;
#X msg 166 158 wet 1 \, cutoff 0.5 \, damp 0.5 \, pre 0 \, size 0.8;
#X obj 950 16 bng 50 250 50 0 empty empty empty 0 -10 0 12 #fcfcfc #000000 #000000;
#X msg 1018 270 disconnect;
#X obj 988 299 netsend -u -b;
#X msg 1005 244 connect localhost 5000;
#X obj 1005 220 loadbang;
#X text 1091 300 send as UDP \, binary;
#X obj 535 86 delay 2;
#X msg 535 110 0;
#X msg 471 80 1;
#X obj 471 104 t f;
#X obj 1041 93 delay 2;
#X msg 1041 117 0;
#X obj 977 111 t f;
#X msg 977 87 2;
#X obj 988 186 oscformat reloj;
#X obj 896 756 throw~ \$0-mono;
#X obj 980 546 osc~ 40;
#X obj 980 570 *~;
#X obj 1081 561 line~;
#N canvas 78 78 523 457 scream 0;
#X obj 202 15 noise~;
#X obj 188 191 bng 19 250 50 0 empty empty empty 0 -10 0 12 #fcfcfc #000000 #000000;
#X obj 188 239 vline~;
#X obj 74 370 throw~ \$0-mono;
#X obj 237 131 *~ 0.5;
#X obj 203 37 pow~ 101;
#X obj 66 133 else/resonant~ 215 20;
#X obj 203 63 else/resonant~ 923 20;
#X obj 88 233 *~;
#X obj 188 263 pow~ 4;
#X obj 62 180 *~ 1;
#X obj 88 281 else/drive~;
#X obj 88 257 *~ 20;
#X obj 237 107 else/resonant~ 1423 20;
#X msg 188 215 1 500 \, 0 100 500;
#X obj 75 318 *~ 0.25;
#X connect 0 0 5 0;
#X connect 1 0 14 0;
#X connect 2 0 9 0;
#X connect 4 0 10 0;
#X connect 5 0 6 0;
#X connect 5 0 7 0;
#X connect 5 0 13 0;
#X connect 6 0 10 0;
#X connect 7 0 10 0;
#X connect 8 0 12 0;
#X connect 9 0 8 1;
#X connect 10 0 8 0;
#X connect 11 0 15 0;
#X connect 12 0 11 0;
#X connect 13 0 4 0;
#X connect 14 0 2 0;
#X connect 15 0 3 0;
#X restore 83 645 pd scream;
#N canvas 583 145 885 735 aullido-de-viento 0;
#X obj 179 -69 tgl 19 0 empty empty empty 0 -10 0 12 #fcfcfc #000000 #000000 0 1;
#X obj 179 -45 metro 100;
#X obj 181 -21 t b b;
#X obj 102 291 makenote;
#X obj 202 227 else/rand.i 1 127;
#X obj 179 162 t b b b b;
#X obj 102 379 pack f f f f f;
#X obj 102 402 clone -s 1 noiseVoice~ 20;
#X obj 102 345 poly 20 1;
#X obj 110 677 throw~ \$0-mono;
#X obj 407 402 else/lowpass~ 200 0.4;
#X obj 110 632 *~ 1;
#X obj 270 -45 else/rand.i 100 5000;
#X obj 315 334 else/rand.i 1000 4000;
#X obj 271 307 else/rand.i 1000 4000;
#X obj 401 640 throw~ \$0-reverb;
#X obj 403 607 *~ 1;
#X obj 103 461 clip~ -1 1;
#X obj 313 13 outlet;
#X obj 179 -117 loadbang;
#X msg 179 -93 1;
#X obj 181 123 else/chance;
#X obj 467 -102 r \$0-fearIndexInt;
#X obj 467 -54 -;
#X msg 467 -78 2 \$1;
#X obj 467 -26 * 1500;
#X obj 292 52 r \$0-fearIndexInt;
#X obj 292 76 * 25;
#X obj 275 472 clip~ 0 1;
#X obj 504 438 r \$0-fearIndexInt;
#X obj 504 462 / 2;
#X msg 504 486 \$1 1000;
#X obj 504 510 line~;
#X obj 281 541 *~;
#X obj 103 505 *~;
#X obj 103 529 +~;
#X obj 207 452 sig~ 1;
#X obj 207 476 -~;
#X obj 296 151 r \$0-fearIndexInt;
#X obj 296 199 + 48;
#X obj 296 175 * 24;
#X obj 270 437 *~ 1;
#X obj 275 496 *~ 0.5;
#X obj 292 100 + 50;
#X obj 99 197 else/rand.f 20 60;
#X obj 521 293 else/pink~;
#X obj 712 204 r \$0-fearIndexInt;
#X obj 712 228 / 2;
#X msg 712 252 \$1 1000;
#X obj 712 276 line~;
#X obj 697 363 *~;
#X obj 519 327 *~;
#X obj 623 274 sig~ 1;
#X obj 623 298 -~;
#X obj 692 332 noise~;
#X obj 467 -2 + 500;
#X connect 0 0 1 0;
#X connect 1 0 18 0;
#X connect 1 0 2 0;
#X connect 2 0 21 0;
#X connect 2 1 12 0;
#X connect 3 0 8 0;
#X connect 3 1 8 1;
#X connect 4 0 3 1;
#X connect 5 0 44 0;
#X connect 5 1 4 0;
#X connect 5 3 13 0;
#X connect 5 3 14 0;
#X connect 6 0 7 0;
#X connect 7 0 17 0;
#X connect 7 0 41 0;
#X connect 8 0 6 0;
#X connect 8 1 6 1;
#X connect 8 2 6 2;
#X connect 10 0 7 1;
#X connect 11 0 9 0;
#X connect 12 0 1 1;
#X connect 13 0 6 4;
#X connect 14 0 6 3;
#X connect 14 0 3 2;
#X connect 16 0 15 0;
#X connect 17 0 34 0;
#X connect 19 0 20 0;
#X connect 20 0 0 0;
#X connect 21 0 5 0;
#X connect 22 0 24 0;
#X connect 23 0 25 0;
#X connect 24 0 23 0;
#X connect 25 0 55 0;
#X connect 26 0 27 0;
#X connect 27 0 43 0;
#X connect 28 0 42 0;
#X connect 29 0 30 0;
#X connect 30 0 31 0;
#X connect 31 0 32 0;
#X connect 32 0 37 1;
#X connect 32 0 33 1;
#X connect 33 0 35 1;
#X connect 34 0 35 0;
#X connect 35 0 11 0;
#X connect 35 0 16 0;
#X connect 36 0 37 0;
#X connect 37 0 34 1;
#X connect 38 0 40 0;
#X connect 39 0 44 2;
#X connect 40 0 39 0;
#X connect 41 0 28 0;
#X connect 42 0 33 0;
#X connect 43 0 21 1;
#X connect 44 0 3 0;
#X connect 45 0 51 0;
#X connect 46 0 47 0;
#X connect 47 0 48 0;
#X connect 48 0 49 0;
#X connect 49 0 53 1;
#X connect 49 0 50 1;
#X connect 50 0 10 0;
#X connect 51 0 10 0;
#X connect 52 0 53 0;
#X connect 53 0 51 1;
#X connect 54 0 50 0;
#X connect 55 0 12 2;
#X restore 471 -4 pd aullido-de-viento;
#X obj 84 98 catch~ \$0-reverb;
#N canvas 130 130 523 520 stinger 0;
#X obj 48 175 noise~;
#X obj 85 254 *~;
#X obj 131 107 bng 19 250 50 0 empty empty empty 0 -10 0 12 #fcfcfc #000000 #000000;
#X obj 123 191 vline~;
#X obj 170 310 vline~;
#X obj 195 381 *~;
#X msg 123 164 1 \, 0 100;
#X obj 123 215 *~;
#X obj 47 200 *~ 4;
#X obj 331 351 osc~ 40;
#X obj 250 258 delay 250;
#X msg 167 258 1 \, 0 10;
#X msg 250 282 1 \, 0 100;
#X obj 195 405 *~ 4;
#X connect 0 0 8 0;
#X connect 2 0 6 0;
#X connect 2 0 11 0;
#X connect 2 0 10 0;
#X connect 3 0 7 0;
#X connect 3 0 7 1;
#X connect 4 0 5 0;
#X connect 5 0 13 0;
#X connect 6 0 3 0;
#X connect 7 0 1 1;
#X connect 8 0 1 0;
#X connect 9 0 5 1;
#X connect 10 0 12 0;
#X connect 11 0 4 0;
#X connect 12 0 4 0;
#X restore 83 670 pd stinger;
#N canvas 208 208 487 503 insectos 0;
#X obj 244 422 throw~ \$0-left;
#X obj 29 333 clone insectos~ 20;
#X obj 259 168 loadbang;
#X msg 259 216 10 \$1;
#X obj 259 240 pow;
#X floatatom 259 264 5 0 0 0 - - - 0;
#X msg 259 287 all \$1;
#X obj 29 165 loadbang;
#X msg 29 213 10 \$1;
#X obj 29 237 pow;
#X floatatom 29 261 5 0 0 0 - - - 0;
#X msg 29 284 all \$1;
#X msg 29 188 5;
#X obj 280 346 *~ 1;
#X obj 245 315 clone insectos~ 10;
#X obj 54 427 throw~ \$0-right;
#X obj 68 376 *~ 1;
#X msg 259 191 5;
#X connect 1 0 16 0;
#X connect 2 0 17 0;
#X connect 3 0 4 0;
#X connect 4 0 5 0;
#X connect 5 0 6 0;
#X connect 6 0 14 0;
#X connect 7 0 12 0;
#X connect 8 0 9 0;
#X connect 9 0 10 0;
#X connect 10 0 11 0;
#X connect 11 0 1 0;
#X connect 12 0 8 0;
#X connect 14 0 13 0;
#X connect 17 0 3 0;
#X restore 83 695 pd insectos;
#N canvas 234 234 1102 595 strings 0;
#X obj 184 -15 tgl 19 0 empty empty empty 0 -10 0 12 #fcfcfc #000000 #000000 0 1;
#X obj 184 9 metro 100;
#X obj 184 33 t b b;
#X obj 107 345 makenote;
#X obj 207 281 else/rand.i 1 127;
#X obj 230 311 else/rand.i 250 2000;
#X obj 184 216 t b b b b;
#X obj 107 433 pack f f f f f;
#X obj 412 432 else/pink~;
#X obj 107 399 poly 20 1;
#X obj 106 456 clone -s 1 strings~ 20;
#X obj 276 361 else/rand.i 1000 4000;
#X obj 320 388 else/rand.i 1000 4000;
#X obj 271 11 else/rand.i 100 5000;
#X obj 106 502 *~ 0.5;
#X obj 109 525 throw~ \$0-reverb;
#X obj 296 52 outlet;
#X obj 184 -68 loadbang;
#X msg 184 -44 1;
#X obj 181 163 else/chance;
#X obj 413 -122 r \$0-fearIndexInt;
#X obj 413 -74 -;
#X msg 413 -98 2 \$1;
#X obj 413 -46 * 1500;
#X obj 292 92 r \$0-fearIndexInt;
#X obj 292 116 * 25;
#X obj 310 179 r \$0-fearIndexInt;
#X obj 310 227 + 48;
#X obj 310 203 * 24;
#X obj 292 140 + 50;
#X obj 106 251 else/rand.f 20 60;
#X obj 603 343 r \$0-fearIndexInt;
#X obj 603 367 / 2;
#X msg 603 391 \$1 1000;
#X obj 603 415 line~;
#X obj 588 502 *~;
#X obj 410 466 *~;
#X obj 514 413 sig~ 1;
#X obj 514 437 -~;
#X obj 583 471 noise~;
#X obj 413 -22 + 500;
#X connect 0 0 1 0;
#X connect 1 0 2 0;
#X connect 2 0 19 0;
#X connect 2 1 13 0;
#X connect 2 1 16 0;
#X connect 3 0 9 0;
#X connect 3 1 9 1;
#X connect 4 0 3 1;
#X connect 6 0 30 0;
#X connect 6 1 4 0;
#X connect 6 2 5 0;
#X connect 6 3 11 0;
#X connect 6 3 12 0;
#X connect 7 0 10 0;
#X connect 8 0 36 0;
#X connect 9 0 7 0;
#X connect 9 1 7 1;
#X connect 9 2 7 2;
#X connect 10 0 14 0;
#X connect 11 0 7 3;
#X connect 11 0 3 2;
#X connect 12 0 7 4;
#X connect 13 0 1 1;
#X connect 14 0 15 0;
#X connect 17 0 18 0;
#X connect 18 0 0 0;
#X connect 19 0 6 0;
#X connect 20 0 22 0;
#X connect 21 0 23 0;
#X connect 22 0 21 0;
#X connect 23 0 40 0;
#X connect 24 0 25 0;
#X connect 25 0 29 0;
#X connect 26 0 28 0;
#X connect 27 0 30 2;
#X connect 28 0 27 0;
#X connect 29 0 19 1;
#X connect 30 0 3 0;
#X connect 31 0 32 0;
#X connect 32 0 33 0;
#X connect 33 0 34 0;
#X connect 34 0 38 1;
#X connect 34 0 35 1;
#X connect 35 0 10 1;
#X connect 36 0 10 1;
#X connect 37 0 38 0;
#X connect 38 0 36 1;
#X connect 39 0 35 0;
#X connect 40 0 13 2;
#X restore 950 -13 pd strings;
#X obj 140 438 hip~ 0;
#X obj 240 438 hip~ 0;
#X obj 392 -66 hsl 101 19 0 1 0 0 \$0-fearIndex-s \$0-fearIndex-r fearIndex -2 -10 0 12 #ffe3c6 #000000 #000000 0 1;
#X floatatom 389 -41 5 0 0 0 - - - 0;
#X obj 623 298 r \$0-fearIndex-s;
#X obj 623 346 + 0.5;
#X obj 623 370 i;
#X obj 623 322 * 2;
#X obj 907 513 osc~ 39;
#N canvas 52 52 1413 800 electricidad 0;
#X obj 235 302 vline~;
#X obj 108 333 noise~;
#X obj 235 374 mtof~;
#X obj 213 503 *~;
#X obj 416 399 vline~;
#X obj 439 247 bng 19 250 50 0 empty empty empty 0 -10 0 12 #fcfcfc #000000 #000000;
#X obj 415 303 else/rand.f 0.5 1;
#X obj 439 271 t b b;
#X obj 415 347 pack f f;
#X obj 416 423 *~;
#X obj 108 428 else/highpass~ 1000 0.7;
#X msg 414 376 \$1 10 \, 0 \$2 10;
#X obj 579 284 else/rand.i 1000 5000;
#X obj 235 398 clip~ 20 20000;
#X obj 213 532 throw~ \$0-mono;
#X obj 104 390 *~ 2;
#X msg 234 275 0 \, 1 600;
#X obj 234 326 *~ 50;
#X obj 130 223 sig~ 10;
#X obj 130 247 pow~;
#X obj 109 357 pow~;
#X obj 224 155 sig~ 1;
#X obj 224 179 -~;
#X obj 198 228 +~ 2.5;
#X obj 197 205 *~ 2;
#X obj 235 350 +~ 60;
#X obj 857 327 vline~;
#X obj 730 358 noise~;
#X obj 857 399 mtof~;
#X obj 835 528 *~;
#X obj 1038 424 vline~;
#X obj 1061 272 bng 19 250 50 0 empty empty empty 0 -10 0 12 #fcfcfc #000000 #000000;
#X obj 1037 328 else/rand.f 0.5 1;
#X obj 1061 296 t b b;
#X obj 1037 372 pack f f;
#X obj 1038 448 *~;
#X obj 730 453 else/highpass~ 1000 0.7;
#X msg 1036 401 \$1 10 \, 0 \$2 10;
#X obj 1201 309 else/rand.i 1000 5000;
#X obj 857 423 clip~ 20 20000;
#X obj 835 557 throw~ \$0-mono;
#X obj 726 415 *~ 2;
#X msg 856 300 0 \, 1 600;
#X obj 856 351 *~ 50;
#X obj 752 248 sig~ 10;
#X obj 752 272 pow~;
#X obj 731 382 pow~;
#X obj 846 180 sig~ 1;
#X obj 846 204 -~;
#X obj 820 253 +~ 2.5;
#X obj 819 230 *~ 2;
#X obj 857 375 +~ 60;
#X obj 573 94 inlet;
#X obj 573 118 tgl 19 0 empty empty empty 0 -10 0 12 #fcfcfc #000000 #000000 0 1;
#X obj 573 142 sel 0 1;
#X connect 0 0 17 0;
#X connect 0 0 22 1;
#X connect 1 0 20 0;
#X connect 2 0 13 0;
#X connect 3 0 14 0;
#X connect 4 0 9 0;
#X connect 4 0 9 1;
#X connect 5 0 7 0;
#X connect 6 0 8 0;
#X connect 7 0 6 0;
#X connect 7 0 16 0;
#X connect 7 1 12 0;
#X connect 8 0 11 0;
#X connect 9 0 3 1;
#X connect 10 0 3 0;
#X connect 11 0 4 0;
#X connect 12 0 8 1;
#X connect 13 0 10 1;
#X connect 15 0 10 0;
#X connect 16 0 0 0;
#X connect 17 0 25 0;
#X connect 18 0 19 0;
#X connect 19 0 20 1;
#X connect 20 0 15 0;
#X connect 21 0 22 0;
#X connect 22 0 24 0;
#X connect 23 0 19 1;
#X connect 24 0 23 0;
#X connect 25 0 2 0;
#X connect 26 0 43 0;
#X connect 26 0 48 1;
#X connect 27 0 46 0;
#X connect 28 0 39 0;
#X connect 29 0 40 0;
#X connect 30 0 35 0;
#X connect 30 0 35 1;
#X connect 31 0 33 0;
#X connect 32 0 34 0;
#X connect 33 0 32 0;
#X connect 33 0 42 0;
#X connect 33 1 38 0;
#X connect 34 0 37 0;
#X connect 35 0 29 1;
#X connect 36 0 29 0;
#X connect 37 0 30 0;
#X connect 38 0 34 1;
#X connect 39 0 36 1;
#X connect 41 0 36 0;
#X connect 42 0 26 0;
#X connect 43 0 51 0;
#X connect 44 0 45 0;
#X connect 45 0 46 1;
#X connect 46 0 41 0;
#X connect 47 0 48 0;
#X connect 48 0 50 0;
#X connect 49 0 45 1;
#X connect 50 0 49 0;
#X connect 51 0 28 0;
#X connect 52 0 53 0;
#X connect 53 0 54 0;
#X connect 54 0 5 0;
#X connect 54 1 31 0;
#X restore 787 118 pd electricidad;
#X obj 623 394 s \$0-fearIndexInt;
#X obj 1082 420 r \$0-fearIndexInt;
#X obj 1082 444 / 2;
#X obj 977 378 r \$0-fearIndexInt;
#X obj 977 402 select 1 2;
#X msg 1081 537 \$1 1000;
#X obj 977 484 line~;
#X msg 977 460 \$1 2000;
#X obj 764 342 r \$0-fearIndexInt;
#X obj 762 470 line~;
#X msg 762 446 \$1 2000;
#X obj 764 366 select 0 1 2;
#X msg 764 390 39;
#X msg 977 436 46;
#X obj 895 670 *~;
#X obj 1103 621 tgl 19 0 empty empty empty 0 -10 0 12 #fcfcfc #000000 #000000 0 1;
#X obj 1103 645 metro 100;
#X obj 1197 671 t b f;
#X obj 1197 719 pack f f;
#X obj 1197 695 else/rand.f 0.1 1;
#X obj 1197 647 else/rand.i 1 250;
#X msg 1197 743 \$1 \$2;
#X obj 1197 767 line~;
#X msg 797 408 41;
#X msg 837 408 42;
#X msg 1017 436 48;
#X floatatom 561 398 5 0 0 0 - - - 0;
#X connect 0 0 1 0;
#X connect 1 0 2 0;
#X connect 4 0 34 0;
#X connect 4 0 36 0;
#X connect 5 0 25 0;
#X connect 5 1 26 0;
#X connect 6 0 27 0;
#X connect 7 0 8 0;
#X connect 7 0 12 0;
#X connect 8 0 9 0;
#X connect 9 0 53 0;
#X connect 10 0 11 0;
#X connect 12 0 13 0;
#X connect 13 0 54 0;
#X connect 14 0 15 0;
#X connect 18 0 8 0;
#X connect 19 0 12 0;
#X connect 24 0 5 0;
#X connect 25 0 16 0;
#X connect 26 0 17 0;
#X connect 27 0 5 0;
#X connect 28 0 41 0;
#X connect 28 0 38 0;
#X connect 29 0 30 0;
#X connect 31 0 30 0;
#X connect 32 0 31 0;
#X connect 34 0 35 0;
#X connect 35 0 37 0;
#X connect 36 0 37 0;
#X connect 37 0 42 0;
#X connect 38 0 39 0;
#X connect 39 0 40 0;
#X connect 40 0 42 0;
#X connect 41 0 40 0;
#X connect 42 0 30 0;
#X connect 44 0 45 0;
#X connect 45 0 77 0;
#X connect 46 0 45 1;
#X connect 48 0 4 0;
#X connect 49 0 24 0;
#X connect 52 0 28 0;
#X connect 53 0 10 0;
#X connect 54 0 14 0;
#X connect 55 0 56 0;
#X connect 57 0 60 0;
#X connect 58 0 59 0;
#X connect 59 0 63 0;
#X connect 59 0 89 0;
#X connect 60 0 58 0;
#X connect 61 0 77 0;
#X connect 64 0 65 0;
#X connect 65 0 68 0;
#X connect 66 0 67 0;
#X connect 67 0 76 0;
#X connect 67 1 88 0;
#X connect 68 0 46 0;
#X connect 69 0 44 0;
#X connect 70 0 69 0;
#X connect 71 0 74 0;
#X connect 72 0 61 0;
#X connect 73 0 72 0;
#X connect 74 0 75 0;
#X connect 74 1 86 0;
#X connect 74 2 87 0;
#X connect 75 0 73 0;
#X connect 76 0 70 0;
#X connect 77 0 43 0;
#X connect 78 0 79 0;
#X connect 79 0 83 0;
#X connect 80 0 82 0;
#X connect 80 1 81 1;
#X connect 81 0 84 0;
#X connect 82 0 81 0;
#X connect 83 0 79 1;
#X connect 83 0 80 0;
#X connect 84 0 85 0;
#X connect 85 0 77 1;
#X connect 86 0 73 0;
#X connect 87 0 73 0;
#X connect 88 0 70 0;
