#N canvas 363 40 1920 997 12;
#X obj 224 73 inlet;
#X obj 262 138 t f f;
#X obj 299 295 s \$0-gate;
#X obj 196 182 s \$0-velocity;
#X obj 156 221 list prepend;
#X obj 156 245 route 1;
#X obj 156 269 s \$0-midi;
#X obj 539 296 r \$0-midi;
#X obj 540 370 sig~;
#X obj 540 394 mtof~;
#X obj 301 184 t f f f;
#X obj 356 218 select 1 0;
#X obj 356 272 s \$0-noteOn;
#X obj 386 242 s \$0-noteOff;
#X obj 390 346 inlet~;
#X obj 754 681 *~;
#X obj 814 111 r \$0-velocity;
#X obj 815 336 sqrt;
#X obj 814 135 sel 0;
#X obj 815 502 vline~;
#X obj 815 526 *~;
#X obj 754 720 outlet~;
#X obj 312 150 > 0;
#X obj 224 97 unpack f f f f;
#X obj 345 138 s \$0-attack;
#X obj 491 138 s \$0-release;
#X obj 511 167 v \$0-release;
#X obj 365 168 v \$0-attack;
#X obj 815 360 t f b b;
#X obj 862 397 v \$0-attack;
#X obj 919 422 v \$0-release;
#X obj 815 454 pack f f f;
#X obj 815 163 - 1;
#X obj 815 187 / 126;
#X msg 815 211 1 \$1;
#X obj 815 235 -;
#X obj 815 283 + 100;
#X obj 815 307 dbtorms;
#X obj 358 410 r \$0-midi;
#X obj 358 434 mtof;
#X msg 311 477 1000 \$1;
#X obj 311 501 /;
#X obj 148 455 else/lowpass~ 100 0.4;
#X obj 217 315 r \$0-midi;
#X obj 216 337 else/f2s~ 20;
#X obj 217 363 mtof~;
#X obj 112 354 r \$0-noteOn;
#X msg 112 378 clear;
#X obj 408 624 hip~;
#X obj 815 258 * -15;
#X obj 483 626 r \$0-noteOn;
#X obj 617 627 r \$0-noteOn;
#X obj 790 615 r \$0-noteOn;
#X obj 483 674 mtof;
#X obj 617 675 mtof;
#X obj 797 662 mtof;
#X obj 366 837 *~ 0.5;
#X obj 654 762 else/resonant~ 100 50;
#X obj 455 755 else/resonant~ 100 50;
#X obj 376 707 else/resonant~ 100 50;
#X obj 462 576 else/pulse~;
#X obj 470 537 mtof;
#X obj 470 513 r \$0-midi;
#X obj 483 650 else/rand.f 20 120;
#X obj 617 651 else/rand.f 20 120;
#X obj 797 638 else/rand.f 20 120;
#X obj 179 625 env~;
#X floatatom 179 649 5 0 0 0 - - - 0;
#X floatatom 311 525 5 0 0 0 - - - 0;
#X floatatom 682 345 5 0 0 0 - - - 0;
#X floatatom 862 421 5 0 0 0 - - - 0;
#X floatatom 919 446 5 0 0 0 - - - 0;
#X listbox 638 527 20 0 0 0 - - - 0;
#X msg 815 478 \$1 \$2 \, 0 \$3 \$2;
#X obj 217 411 clip~ 40 10000;
#X obj 314 375 *~;
#X obj 461 485 else/resonant~ 1000 40;
#X obj 461 422 else/resonant~ 1000 40;
#X obj 217 387 *~ 8;
#X obj 149 558 else/fbdelay~ 40 0.9 1;
#X connect 0 0 23 0;
#X connect 1 0 3 0;
#X connect 1 1 22 0;
#X connect 4 0 5 0;
#X connect 5 0 6 0;
#X connect 7 0 8 0;
#X connect 8 0 9 0;
#X connect 9 0 76 1;
#X connect 9 0 77 1;
#X connect 10 0 4 1;
#X connect 10 1 2 0;
#X connect 10 2 11 0;
#X connect 11 0 12 0;
#X connect 11 1 13 0;
#X connect 14 0 75 0;
#X connect 14 0 77 0;
#X connect 14 0 42 0;
#X connect 15 0 21 0;
#X connect 16 0 18 0;
#X connect 16 0 69 0;
#X connect 17 0 28 0;
#X connect 18 1 32 0;
#X connect 19 0 20 0;
#X connect 19 0 20 1;
#X connect 20 0 15 1;
#X connect 20 0 75 1;
#X connect 22 0 10 0;
#X connect 23 0 4 0;
#X connect 23 1 1 0;
#X connect 23 2 24 0;
#X connect 23 3 25 0;
#X connect 28 0 31 0;
#X connect 28 1 29 0;
#X connect 28 2 30 0;
#X connect 29 0 31 1;
#X connect 29 0 70 0;
#X connect 30 0 31 2;
#X connect 30 0 71 0;
#X connect 31 0 73 0;
#X connect 31 0 72 0;
#X connect 32 0 33 0;
#X connect 33 0 34 0;
#X connect 34 0 35 0;
#X connect 35 0 49 0;
#X connect 36 0 37 0;
#X connect 37 0 17 0;
#X connect 38 0 39 0;
#X connect 39 0 40 0;
#X connect 39 0 48 1;
#X connect 40 0 41 0;
#X connect 41 0 68 0;
#X connect 41 0 79 1;
#X connect 42 0 79 0;
#X connect 43 0 44 0;
#X connect 44 0 45 0;
#X connect 45 0 78 0;
#X connect 46 0 47 0;
#X connect 47 0 42 0;
#X connect 47 0 79 0;
#X connect 48 0 57 0;
#X connect 48 0 58 0;
#X connect 48 0 59 0;
#X connect 49 0 36 0;
#X connect 50 0 63 0;
#X connect 51 0 64 0;
#X connect 52 0 65 0;
#X connect 53 0 59 1;
#X connect 54 0 58 1;
#X connect 55 0 57 1;
#X connect 57 0 56 0;
#X connect 58 0 56 0;
#X connect 59 0 56 0;
#X connect 61 0 60 0;
#X connect 62 0 61 0;
#X connect 63 0 53 0;
#X connect 64 0 54 0;
#X connect 65 0 55 0;
#X connect 66 0 67 0;
#X connect 73 0 19 0;
#X connect 74 0 42 1;
#X connect 76 0 15 0;
#X connect 77 0 76 0;
#X connect 78 0 74 0;
#X connect 79 0 66 0;
#X connect 79 0 48 0;
