#N canvas 363 40 1920 997 12;
#X obj 224 73 inlet;
#X obj 262 138 t f f;
#X obj 299 295 s \$0-gate;
#X obj 196 182 s \$0-velocity;
#X obj 156 221 list prepend;
#X obj 156 245 route 1;
#X obj 156 269 s \$0-midi;
#X obj 301 184 t f f f;
#X obj 356 218 select 1 0;
#X obj 356 272 s \$0-noteOn;
#X obj 386 242 s \$0-noteOff;
#X obj 315 339 inlet~;
#X obj 754 681 *~;
#X obj 814 111 r \$0-velocity;
#X obj 815 336 sqrt;
#X obj 814 135 sel 0;
#X obj 815 502 vline~;
#X obj 815 526 *~;
#X obj 754 720 outlet~;
#X obj 312 150 > 0;
#X obj 224 97 unpack f f f f;
#X obj 345 138 s \$0-attack;
#X obj 491 138 s \$0-release;
#X obj 511 167 v \$0-release;
#X obj 365 168 v \$0-attack;
#X obj 815 360 t f b b;
#X obj 862 397 v \$0-attack;
#X obj 919 422 v \$0-release;
#X obj 815 454 pack f f f;
#X obj 815 163 - 1;
#X obj 815 187 / 126;
#X msg 815 211 1 \$1;
#X obj 815 235 -;
#X obj 815 283 + 100;
#X obj 815 307 dbtorms;
#X obj 358 410 r \$0-midi;
#X obj 358 434 mtof;
#X obj 148 455 else/lowpass~ 100 0.4;
#X obj 217 315 r \$0-midi;
#X obj 216 337 else/f2s~ 20;
#X obj 217 363 mtof~;
#X obj 112 354 r \$0-noteOn;
#X msg 112 378 clear;
#X obj 408 624 hip~;
#X obj 815 258 * -15;
#X msg 815 478 \$1 \$2 \, 0 \$3 \$2;
#X obj 217 411 clip~ 40 10000;
#X obj 314 375 *~;
#X obj 217 387 *~ 8;
#X obj 128 585 else/fbdelay~ 40 0.9 1;
#X obj 153 491 hip~;
#X obj 286 526 /~;
#X obj 286 502 sig~ 1000;
#X obj 430 474 sig~;
#X obj 430 498 +~;
#X obj 430 522 mtof~;
#X obj 588 525 *~ 1;
#X connect 0 0 20 0;
#X connect 1 0 3 0;
#X connect 1 1 19 0;
#X connect 4 0 5 0;
#X connect 5 0 6 0;
#X connect 7 0 4 1;
#X connect 7 1 2 0;
#X connect 7 2 8 0;
#X connect 8 0 9 0;
#X connect 8 1 10 0;
#X connect 11 0 47 0;
#X connect 12 0 18 0;
#X connect 13 0 15 0;
#X connect 14 0 25 0;
#X connect 15 1 29 0;
#X connect 16 0 17 0;
#X connect 16 0 17 1;
#X connect 17 0 12 1;
#X connect 17 0 47 1;
#X connect 17 0 56 0;
#X connect 19 0 7 0;
#X connect 20 0 4 0;
#X connect 20 1 1 0;
#X connect 20 2 21 0;
#X connect 20 3 22 0;
#X connect 25 0 28 0;
#X connect 25 1 26 0;
#X connect 25 2 27 0;
#X connect 26 0 28 1;
#X connect 27 0 28 2;
#X connect 28 0 45 0;
#X connect 29 0 30 0;
#X connect 30 0 31 0;
#X connect 31 0 32 0;
#X connect 32 0 44 0;
#X connect 33 0 34 0;
#X connect 34 0 14 0;
#X connect 35 0 36 0;
#X connect 35 0 53 0;
#X connect 36 0 43 1;
#X connect 36 0 50 1;
#X connect 37 0 50 0;
#X connect 38 0 39 0;
#X connect 39 0 40 0;
#X connect 40 0 48 0;
#X connect 41 0 42 0;
#X connect 42 0 37 0;
#X connect 42 0 49 0;
#X connect 42 0 50 0;
#X connect 42 0 43 0;
#X connect 43 0 12 0;
#X connect 44 0 33 0;
#X connect 45 0 16 0;
#X connect 46 0 37 1;
#X connect 47 0 37 0;
#X connect 48 0 46 0;
#X connect 49 0 43 0;
#X connect 50 0 49 0;
#X connect 51 0 49 1;
#X connect 52 0 51 0;
#X connect 53 0 54 0;
#X connect 54 0 55 0;
#X connect 55 0 51 1;
#X connect 56 0 54 1;
