#N canvas 9 16 934 956 12;
#X obj 16 -160 inlet;
#X msg 16 -20 open \$1 \, start;
#X obj 16 4 readsf~;
#X msg 62 62 0;
#X obj 62 91 switch~;
#X msg 183 62 1;
#X obj 16 -44 text get \$2-oneShots;
#X obj 254 783 outlet~;
#X obj 382 783 outlet~;
#X obj 254 744 else/pan2~;
#X obj 253 700 *~;
#X msg 271 647 1 \$1;
#X obj 271 671 -;
#X obj 533 615 *~;
#X obj 48 -102 s \$0-trigger;
#X obj 183 -10 r \$0-trigger;
#X obj 321 667 r \$0-trigger;
#X obj 519 352 r \$0-trigger;
#X obj 533 641 outlet~;
#X obj 93 472 mtof;
#X obj 457 96 r \$0-trigger;
#X obj 17 339 *~ 2;
#X obj 321 691 else/rand.i -2 2;
#X obj 321 715 / 2;
#X obj 519 473 t f f;
#X obj 18 501 else/lowpass~ 1000 0.4;
#X obj 93 400 else/rand.i 0 3;
#X obj 93 424 * -24;
#X obj 93 448 + 135;
#X text 254 803 Outlet 1: Left;
#X text 382 803 Outlet 2: Right;
#X text 533 661 Outlet 3: Reverb;
#X text 16 -180 Inlet 1: Sample number + trigger;
#X obj 519 377 else/rand.i 0 3;
#X obj 519 401 / 3;
#X obj 457 120 random 2;
#X obj 457 144 send \$0-fx;
#X obj 93 376 r \$0-trigger;
#X obj 519 449 + 0.3;
#X obj 519 425 * 0.7;
#X obj 36 530 r \$0-fx;
#X obj 36 554 == 0;
#X obj 18 578 *~;
#X obj 349 330 mtof;
#X obj 349 258 r \$0-trigger;
#X obj 288 388 r \$0-fx;
#X obj 270 436 *~;
#X obj 270 359 else/highpass~ 1000 0.4;
#X obj 288 412 == 1;
#X obj 349 306 * 24;
#X obj 252 597 +~;
#X obj 54 198 else/pitch.shift~;
#X obj 222 55 r \$0-trigger;
#X obj 292 190 r \$0-trigger;
#X obj 17 257 else/xfade~;
#X obj 292 238 / 2;
#X obj 292 214 else/rand.i -1 1;
#X obj 222 164 * 100;
#X obj 62 33 delay 20;
#X obj 349 282 else/rand.i 0 4;
#X msg 133 14 stop;
#X obj 222 80 else/rand.f -12 9;
#X obj 222 104 moses 0;
#X obj 222 128 max -1;
#X obj 272 128 min 1;
#X obj 16 -126 t l b;
#X obj 16 -73 unpack f f;
#X connect 0 0 65 0;
#X connect 1 0 2 0;
#X connect 2 0 54 0;
#X connect 2 0 51 0;
#X connect 2 1 58 0;
#X connect 3 0 4 0;
#X connect 5 0 4 0;
#X connect 6 0 1 0;
#X connect 9 0 7 0;
#X connect 9 1 8 0;
#X connect 10 0 9 0;
#X connect 11 0 12 0;
#X connect 12 0 10 1;
#X connect 13 0 18 0;
#X connect 15 0 5 0;
#X connect 15 0 60 0;
#X connect 16 0 22 0;
#X connect 17 0 33 0;
#X connect 19 0 25 1;
#X connect 20 0 35 0;
#X connect 21 0 25 0;
#X connect 21 0 47 0;
#X connect 22 0 23 0;
#X connect 23 0 9 1;
#X connect 24 0 11 0;
#X connect 24 1 13 1;
#X connect 25 0 42 0;
#X connect 26 0 27 0;
#X connect 27 0 28 0;
#X connect 28 0 19 0;
#X connect 33 0 34 0;
#X connect 34 0 39 0;
#X connect 35 0 36 0;
#X connect 37 0 26 0;
#X connect 38 0 24 0;
#X connect 39 0 38 0;
#X connect 40 0 41 0;
#X connect 41 0 42 1;
#X connect 42 0 50 0;
#X connect 43 0 47 1;
#X connect 44 0 59 0;
#X connect 45 0 48 0;
#X connect 46 0 50 1;
#X connect 47 0 46 0;
#X connect 48 0 46 1;
#X connect 49 0 43 0;
#X connect 50 0 10 0;
#X connect 50 0 13 0;
#X connect 51 0 54 1;
#X connect 52 0 61 0;
#X connect 53 0 56 0;
#X connect 54 0 21 0;
#X connect 55 0 54 2;
#X connect 56 0 55 0;
#X connect 57 0 51 1;
#X connect 58 0 3 0;
#X connect 59 0 49 0;
#X connect 60 0 58 0;
#X connect 61 0 62 0;
#X connect 62 0 63 0;
#X connect 62 1 64 0;
#X connect 63 0 57 0;
#X connect 64 0 57 0;
#X connect 65 0 66 0;
#X connect 65 1 14 0;
#X connect 66 0 6 0;
#X connect 66 1 21 1;
