#N canvas 0 0 1292 769 12;
#X obj 194 23 inlet;
#X obj 232 88 t f f;
#X obj 269 245 s \$0-gate;
#X obj 166 132 s \$0-velocity;
#X obj 126 171 list prepend;
#X obj 126 195 route 1;
#X obj 126 219 s \$0-midi;
#X obj 271 134 t f f f;
#X obj 326 168 select 1 0;
#X obj 326 222 s \$0-noteOn;
#X obj 356 192 s \$0-noteOff;
#X obj 285 289 inlet~;
#X obj 724 631 *~;
#X obj 784 61 r \$0-velocity;
#X obj 785 286 sqrt;
#X obj 784 85 sel 0;
#X obj 785 452 vline~;
#X obj 785 476 *~;
#X obj 724 670 outlet~;
#X obj 282 100 > 0;
#X obj 194 47 unpack f f f f;
#X obj 315 88 s \$0-attack;
#X obj 461 88 s \$0-release;
#X obj 481 117 v \$0-release;
#X obj 335 118 v \$0-attack;
#X obj 785 310 t f b b;
#X obj 832 347 v \$0-attack;
#X obj 889 372 v \$0-release;
#X obj 785 404 pack f f f;
#X obj 785 113 - 1;
#X obj 785 137 / 126;
#X obj 785 233 + 100;
#X obj 785 257 dbtorms;
#X obj 328 360 r \$0-midi;
#X obj 328 384 mtof;
#X obj 118 405 else/lowpass~ 100 0.4;
#X obj 187 265 r \$0-midi;
#X obj 186 287 else/f2s~ 20;
#X obj 187 313 mtof~;
#X obj 82 304 r \$0-noteOn;
#X msg 82 328 clear;
#X obj 378 574 hip~;
#X msg 785 428 \$1 \$2 \, 0 \$3 \$2;
#X obj 284 325 *~;
#X obj 187 337 *~ 8;
#X obj 98 535 else/fbdelay~ 40 0.9 1;
#X obj 123 441 hip~;
#X obj 256 476 /~;
#X obj 256 452 sig~ 1000;
#X obj 400 424 sig~;
#X obj 400 448 +~;
#X obj 400 472 mtof~;
#X obj 501 161 r \$0-noteOn;
#X msg 501 267 1;
#X obj 501 296 switch~;
#X obj 591 171 r \$0-noteOff;
#X obj 623 195 r \$0-release;
#X obj 591 243 delay;
#X obj 623 219 + 2;
#X msg 591 267 0;
#X obj 501 185 t b b;
#X msg 543 214 stop;
#X obj 187 361 clip~ 40 20000;
#X obj 500 492 r \$0-noteOn;
#X obj 469 465 vline~;
#X obj 469 489 *~;
#X obj 469 412 else/pack2;
#X msg 469 441 0 \, 1 \$1;
#X obj 609 391 r \$2-fearIndexInt;
#X obj 609 415 / 3;
#X obj 501 587 *~ 1;
#X obj 500 516 else/rand.f -1 2;
#X obj 785 185 - 18;
#X obj 785 161 * 18;
#X obj 896 94 r \$2-surprise;
#X obj 896 118 * 6;
#X obj 896 142 + 6;
#X connect 0 0 20 0;
#X connect 1 0 3 0;
#X connect 1 1 19 0;
#X connect 4 0 5 0;
#X connect 5 0 6 0;
#X connect 7 0 4 1;
#X connect 7 1 2 0;
#X connect 7 2 8 0;
#X connect 8 0 9 0;
#X connect 8 1 10 0;
#X connect 11 0 43 0;
#X connect 12 0 18 0;
#X connect 13 0 15 0;
#X connect 14 0 25 0;
#X connect 15 1 29 0;
#X connect 16 0 17 0;
#X connect 16 0 17 1;
#X connect 17 0 12 1;
#X connect 17 0 43 1;
#X connect 17 0 70 0;
#X connect 19 0 7 0;
#X connect 20 0 4 0;
#X connect 20 1 1 0;
#X connect 20 2 21 0;
#X connect 20 3 22 0;
#X connect 25 0 28 0;
#X connect 25 1 26 0;
#X connect 25 2 27 0;
#X connect 26 0 28 1;
#X connect 26 0 66 0;
#X connect 27 0 28 2;
#X connect 27 0 66 1;
#X connect 28 0 42 0;
#X connect 29 0 30 0;
#X connect 30 0 73 0;
#X connect 31 0 32 0;
#X connect 32 0 14 0;
#X connect 33 0 34 0;
#X connect 33 0 49 0;
#X connect 34 0 41 1;
#X connect 34 0 46 1;
#X connect 35 0 46 0;
#X connect 36 0 37 0;
#X connect 37 0 38 0;
#X connect 38 0 44 0;
#X connect 39 0 40 0;
#X connect 40 0 35 0;
#X connect 40 0 45 0;
#X connect 40 0 46 0;
#X connect 40 0 41 0;
#X connect 41 0 12 0;
#X connect 42 0 16 0;
#X connect 43 0 35 0;
#X connect 44 0 62 0;
#X connect 45 0 41 0;
#X connect 46 0 45 0;
#X connect 47 0 45 1;
#X connect 48 0 47 0;
#X connect 49 0 50 0;
#X connect 50 0 51 0;
#X connect 51 0 47 1;
#X connect 52 0 60 0;
#X connect 53 0 54 0;
#X connect 55 0 57 0;
#X connect 56 0 58 0;
#X connect 57 0 59 0;
#X connect 58 0 57 1;
#X connect 59 0 54 0;
#X connect 60 0 53 0;
#X connect 60 1 61 0;
#X connect 61 0 57 0;
#X connect 62 0 35 1;
#X connect 63 0 71 0;
#X connect 64 0 65 0;
#X connect 64 0 65 1;
#X connect 66 0 67 0;
#X connect 67 0 64 0;
#X connect 68 0 69 0;
#X connect 70 0 50 1;
#X connect 72 0 31 0;
#X connect 73 0 72 0;
#X connect 74 0 75 0;
#X connect 75 0 76 0;
#X connect 76 0 73 1;
