#N struct 2439-bars float x float color;
#N canvas -1901 31 1920 1037 12;
#X declare -path ./abs;
#X obj 18 310 cnv 19 900 100 empty empty Emotion\ Detection\ Switch 20 20 0 18 #bbbbbb #000000 0;
#X obj 16 61 cnv 15 340 240 empty empty Empatica\ E4\ &\ EEG\ Connection 12 20 0 18 #dfdfdf #000000 0;
#X obj 66 139 hsl 101 19 0 127 0 1 \$0-pressure-s \$0-pressure-r BVP -2 -10 0 12 #d8fcfc #000000 #000000 0 1;
#X obj 66 179 hsl 101 19 0 127 0 1 \$0-temperature-s \$0-temperature-r temperature -2 -10 0 12 #d8fcfc #000000 #000000 0 1;
#X obj 66 219 hsl 101 19 0 127 0 1 \$0-electricity-s \$0-electricity-r electricity -2 -10 0 12 #d8fcfc #000000 #000000 0 1;
#X obj 186 139 hsl 101 19 0 127 0 1 \$0-engagement-s \$0-engagement-r EEG:\ engagement -2 -10 0 12 #d8fcfc #000000 #000000 0 1;
#X obj 718 60 cnv 15 220 240 empty empty Main 12 20 0 18 #feffc6 #404040 0;
#N canvas 0 22 450 278 (subpatch) 0;
#X array \$0-scope 4410 float 0;
#X coords 0 1 4409 -1 188 100 1 0 0;
#X restore 732 130 graph;
#X obj 739 267 hsl 101 19 0 1 0 1 \$0-volumen-s \$0-volumen-r Volumen -2 -10 0 12 #000000 #ffffff #000000 7000 1;
#X text 803 249 1;
#X text 834 249 2;
#X obj 17 417 cnv 19 900 435 empty empty OSC\ Communication\ Structure 20 20 0 18 #ffc7c6 #404040 0;
#X obj 34 654 oscparse;
#N canvas 157 41 1614 926 guts 0;
#X obj 186 412 catch~ \$0-left;
#X obj 176 520 dac~ 1;
#X obj 306 520 dac~ 2;
#X obj 316 412 catch~ \$0-right;
#X obj 176 299 catch~ \$0-mono;
#X obj 31 433 loadbang;
#X msg 30 457 1;
#X obj 30 481 metro 100;
#X obj 30 505 tabwrite~ \$0-scope;
#N canvas 68 96 839 701 pressure-y-electricity 0;
#X obj 308 182 else/resonant~ 61.73 500;
#X obj 333 211 else/resonant~ 184.9 37;
#X obj 333 235 *~ 0.3;
#X obj 253 413 else/drive~;
#X obj 386 274 r \$0-pressure-s;
#X obj 386 298 / 127;
#X obj 386 346 + 100;
#X obj 386 370 dbtorms;
#X obj 386 394 else/f2s~ 20;
#X obj 308 124 else/pink~;
#X obj 35 218 noise~;
#X obj 102 50 r \$0-electricity-s;
#X obj 102 74 / 127;
#X msg 102 98 1 \$1;
#X obj 102 122 -;
#X msg 102 194 10 \$1;
#X obj 102 218 pow;
#X obj 102 170 + 2;
#X obj 102 146 * 2;
#X obj 65 305 *~ 0.02;
#X obj 35 276 else/highpass~ 3000 0.7;
#X obj 253 384 +~;
#X text 440 333 <- de 0 a +24 dB de distorsion;
#X text 145 202 <- de 10k a 100;
#X text 102 30 GUI: electricity;
#X obj 35 513 throw~ \$0-reverb;
#X obj 35 489 *~ 0.15;
#X obj 308 153 else/power~ 3;
#X obj 35 247 else/power~ 100;
#X text 386 255 GUI: blood pressure;
#X obj 667 304 / 127;
#X text 667 260 GUI:engagement;
#X obj 667 280 r \$0-engagement-s;
#X msg 667 328 1 \$1;
#X obj 667 352 -;
#X msg 667 424 \$1 20;
#X obj 667 448 line~;
#X obj 277 485 *~;
#X obj 277 533 throw~ \$0-mono;
#X obj 667 401 + 0.5;
#X obj 667 376 * 0.2;
#X obj 277 509 *~ 0.4;
#X obj 308 264 *~ 0.1;
#X obj 386 322 * 12;
#X connect 0 0 42 0;
#X connect 1 0 2 0;
#X connect 2 0 42 0;
#X connect 3 0 37 0;
#X connect 4 0 5 0;
#X connect 5 0 43 0;
#X connect 6 0 7 0;
#X connect 7 0 8 0;
#X connect 8 0 3 1;
#X connect 9 0 27 0;
#X connect 10 0 28 0;
#X connect 11 0 12 0;
#X connect 12 0 13 0;
#X connect 13 0 14 0;
#X connect 14 0 18 0;
#X connect 15 0 16 0;
#X connect 16 0 28 1;
#X connect 17 0 15 0;
#X connect 18 0 17 0;
#X connect 19 0 21 0;
#X connect 20 0 19 0;
#X connect 21 0 3 0;
#X connect 26 0 25 0;
#X connect 27 0 0 0;
#X connect 27 0 1 0;
#X connect 28 0 20 0;
#X connect 30 0 33 0;
#X connect 32 0 30 0;
#X connect 33 0 34 0;
#X connect 34 0 40 0;
#X connect 35 0 36 0;
#X connect 36 0 37 1;
#X connect 37 0 41 0;
#X connect 39 0 35 0;
#X connect 40 0 39 0;
#X connect 41 0 38 0;
#X connect 42 0 21 1;
#X connect 43 0 6 0;
#X restore 1090 305 pd pressure-y-electricity;
#X obj 306 486 else/drive~;
#X obj 176 486 else/drive~;
#N canvas 10 136 805 364 bioRand 0;
#X obj 418 263 line;
#X msg 418 239 \$1 20000;
#X obj 578 263 line;
#X msg 578 239 \$1 20000;
#X obj 278 263 line;
#X msg 278 239 \$1 20000;
#X obj 278 287 s \$0-temperature-r;
#X obj 418 287 s \$0-electricity-r;
#X obj 578 287 s \$0-heartRate-r;
#X obj 128 263 line;
#X msg 128 239 \$1 20000;
#X obj 128 287 s \$0-pressure-r;
#X obj 128 215 else/rand.i 0 127;
#X obj 278 215 else/rand.i 0 127;
#X obj 418 215 else/rand.i 0 127;
#X obj 578 215 else/rand.i 0 127;
#X obj 96 87 t f f;
#X msg 36 244 stop;
#X obj 128 116 metro 10000;
#X obj 96 63 r \$0-bioRand-s;
#X obj 37 134 sel 0;
#X connect 0 0 7 0;
#X connect 1 0 0 0;
#X connect 2 0 8 0;
#X connect 3 0 2 0;
#X connect 4 0 6 0;
#X connect 5 0 4 0;
#X connect 9 0 11 0;
#X connect 10 0 9 0;
#X connect 12 0 10 0;
#X connect 13 0 5 0;
#X connect 14 0 1 0;
#X connect 15 0 3 0;
#X connect 16 0 20 0;
#X connect 16 1 18 0;
#X connect 17 0 9 0;
#X connect 17 0 4 0;
#X connect 17 0 2 0;
#X connect 17 0 0 0;
#X connect 18 0 12 0;
#X connect 18 0 15 0;
#X connect 18 0 14 0;
#X connect 18 0 13 0;
#X connect 19 0 16 0;
#X connect 20 0 17 0;
#X restore 1110 410 pd bioRand;
#N canvas 367 141 450 300 comentarios 0;
#X text 31 29 Brazo izquierdo (mano \, codo \, hombro);
#X text 29 49 Brazo derecho (mano \, codo \, hombro);
#X text 33 136 Brazos (izq y der);
#X text 34 156 Codos (izq y der);
#X text 34 176 Hombros (izq y der);
#X text 34 116 Cabeza;
#X text 34 216 Rodillas (izq y der);
#X text 34 236 Pies (izq y der);
#X text 34 196 Caderas (izq y der);
#X text 23 86 Open pose: controla la base;
#X text 243 86 Biomeotricos: agregan matiz;
#X restore 1120 458 pd comentarios;
#N canvas 272 313 755 363 poseRand 0;
#X obj 254 209 line;
#X obj 107 209 line;
#X obj 127 238 pack f f;
#X obj 107 161 else/rand.i 0 127;
#X obj 254 161 else/rand.i 0 127;
#X obj 120 26 r \$0-poseRand-s;
#X obj 120 50 t f f;
#X obj 152 79 metro 2000;
#X msg 37 190 stop;
#X obj 564 209 line;
#X obj 417 209 line;
#X obj 437 238 pack f f;
#X obj 417 161 else/rand.i 0 127;
#X obj 564 161 else/rand.i 0 127;
#X obj 127 267 s \$0-armLeftXY-r;
#X obj 437 267 s \$0-armRightXY-r;
#X obj 37 94 sel 0;
#X msg 107 185 \$1 1000;
#X msg 254 185 \$1 1000;
#X msg 417 185 \$1 1000;
#X msg 564 185 \$1 1000;
#X obj 317 62 metro 1;
#X connect 0 0 2 1;
#X connect 1 0 2 0;
#X connect 2 0 14 0;
#X connect 3 0 17 0;
#X connect 4 0 18 0;
#X connect 5 0 6 0;
#X connect 6 0 16 0;
#X connect 6 1 7 0;
#X connect 6 1 21 0;
#X connect 7 0 3 0;
#X connect 7 0 13 0;
#X connect 7 0 12 0;
#X connect 7 0 4 0;
#X connect 8 0 1 0;
#X connect 8 0 0 0;
#X connect 8 0 10 0;
#X connect 8 0 9 0;
#X connect 9 0 11 1;
#X connect 10 0 11 0;
#X connect 11 0 15 0;
#X connect 12 0 19 0;
#X connect 13 0 20 0;
#X connect 16 0 8 0;
#X connect 17 0 1 0;
#X connect 18 0 0 0;
#X connect 19 0 10 0;
#X connect 20 0 9 0;
#X connect 21 0 2 0;
#X connect 21 0 11 0;
#X restore 1110 433 pd poseRand;
#X text 1110 390 Rand;
#X text 780 231 Sub patches –––––––––––––;
#X obj 176 454 *~;
#X obj 430 363 r \$0-volumen-s;
#X obj 430 435 else/f2s~ 100;
#X obj 306 454 *~;
#X text 1090 261 Biometrics;
#X text 780 261 Mediapipe;
#X obj 782 185 declare -path ./abs;
#X obj 169 144 / 127;
#X text 170 100 GUI:engagement;
#X obj 169 216 else/f2s~ 8;
#X obj 151 245 *~;
#X obj 169 120 r \$0-engagement-s;
#X obj 116 68 else/plate.rev~;
#X obj 331 25 loadbang;
#X obj 116 102 +~;
#X msg 331 50 pre 0 \, cutoff 0.1 \, damp 0.5 \, size 0.8;
#X obj 615 -26 == 5;
#X obj 615 -2 * -0.2;
#X obj 615 22 + 1;
#X msg 615 46 wet \$1;
#X obj 615 -50 r \$0-emotion-s;
#X obj 36 283 adc~ 1;
#X obj 89 35 hip~ 100;
#X obj 15 334 env~;
#X obj 15 358 - 100;
#X obj 15 382 s \$0-vu;
#X obj 169 192 + 0.1;
#X obj 169 168 * 0.1;
#N canvas 104 104 919 578 recording 0;
#X obj 62 59 r \$0-rec-s;
#X obj 115 162 else/datetime;
#X msg 115 191 \$1h\$2m\$3s;
#X msg 189 191 \$1y\$2m\$3d\$4;
#X obj 43 491 writesf~;
#X obj 62 83 select 0 1;
#X msg 63 431 stop;
#X obj 688 27 r \$0-rec-s;
#X msg 688 80 color \$1 \$1;
#X obj 688 104 s \$0-rec-r;
#X obj 688 51 * 13;
#X obj 138 405 text define scene3-latest;
#X obj 161 340 text set scene3-latest;
#X obj 115 244 t l b l;
#X obj 161 311 list;
#X msg 138 376 write ../scene3-latest.txt;
#X obj 44 10 inlet~;
#X obj 438 184 i;
#X obj 478 184 + 1;
#X obj 115 122 t b b;
#X obj 115 220 list prepend;
#X obj 374 352 r \$0-openRec-s;
#X msg 374 376 click;
#X msg 161 273 C:/Users/Neurohumanities/Documents/recordings/escena3-miedo/\$1-\$2-recording.wav;
#X msg 115 434 open C:/Users/Neurohumanities/Documents/recordings/escena3-miedo/\$1-\$2-recording.wav \, start;
#X connect 0 0 5 0;
#X connect 1 0 2 0;
#X connect 1 1 3 0;
#X connect 2 0 20 0;
#X connect 3 0 20 1;
#X connect 5 0 6 0;
#X connect 5 1 19 0;
#X connect 6 0 4 0;
#X connect 7 0 10 0;
#X connect 8 0 9 0;
#X connect 10 0 8 0;
#X connect 13 0 24 0;
#X connect 13 1 15 0;
#X connect 13 2 23 0;
#X connect 14 0 12 0;
#X connect 15 0 11 0;
#X connect 16 0 4 0;
#X connect 17 0 18 0;
#X connect 17 0 12 1;
#X connect 18 0 17 1;
#X connect 19 0 1 0;
#X connect 19 1 17 0;
#X connect 20 0 13 0;
#X connect 21 0 22 0;
#X connect 22 0 11 0;
#X connect 23 0 14 0;
#X connect 24 0 4 0;
#X restore 80 383 pd recording;
#X obj 19 35 hip~ 300;
#X obj 409 482 loadbang;
#X msg 409 506 dsp 1;
#X obj 409 530 s pd;
#X obj 1033 575 r \$0-fadeOut-s;
#X obj 891 568 r \$0-volumen-s;
#X obj 938 722 s \$0-volumen-r;
#X obj 978 628 f;
#X msg 973 665 \$1 \, 0 3000;
#X obj 973 689 line;
#X obj 19 11 *~ 0.2;
#X obj 290 645 loadbang;
#X msg 290 669 0.7;
#X obj 290 693 s \$0-volumen-r;
#N canvas 78 78 523 457 scream 0;
#X obj 202 15 noise~;
#X obj 188 191 bng 19 250 50 0 empty empty empty 0 -10 0 12 #fcfcfc #000000 #000000;
#X obj 188 239 vline~;
#X obj 74 370 throw~ \$0-mono;
#X obj 237 131 *~ 0.5;
#X obj 203 37 pow~ 101;
#X obj 66 133 else/resonant~ 215 20;
#X obj 203 63 else/resonant~ 923 20;
#X obj 88 233 *~;
#X obj 188 263 pow~ 4;
#X obj 62 180 *~ 1;
#X obj 88 281 else/drive~;
#X obj 88 257 *~ 20;
#X obj 237 107 else/resonant~ 1423 20;
#X msg 188 215 1 500 \, 0 100 500;
#X obj 75 318 *~ 0.25;
#X connect 0 0 5 0;
#X connect 1 0 14 0;
#X connect 2 0 9 0;
#X connect 4 0 10 0;
#X connect 5 0 6 0;
#X connect 5 0 7 0;
#X connect 5 0 13 0;
#X connect 6 0 10 0;
#X connect 7 0 10 0;
#X connect 8 0 12 0;
#X connect 9 0 8 1;
#X connect 10 0 8 0;
#X connect 11 0 15 0;
#X connect 12 0 11 0;
#X connect 13 0 4 0;
#X connect 14 0 2 0;
#X connect 15 0 3 0;
#X restore 71 791 pd scream;
#N canvas -1439 16 1169 996 aullido-de-viento 0;
#X obj 179 91 tgl 19 0 empty empty empty 0 -10 0 12 #fcfcfc #000000 #000000 0 1;
#X obj 179 115 metro 100;
#X obj 181 139 t b b;
#X obj 102 451 makenote;
#X obj 202 387 else/rand.i 1 127;
#X obj 179 322 t b b b b;
#X obj 102 539 pack f f f f f;
#X obj 102 562 clone -s 1 noiseVoice~ 20;
#X obj 102 505 poly 20 1;
#X obj 70 941 throw~ \$0-mono;
#X obj 407 562 else/lowpass~ 200 0.4;
#X obj 70 896 *~ 1;
#X obj 270 115 else/rand.i 100 5000;
#X obj 315 494 else/rand.i 1000 4000;
#X obj 271 467 else/rand.i 1000 4000;
#X obj 401 800 throw~ \$0-reverb;
#X obj 403 767 *~ 1;
#X obj 103 621 clip~ -1 1;
#X obj 179 43 loadbang;
#X msg 179 67 1;
#X obj 181 283 else/chance;
#X obj 467 58 r \$0-fearIndexInt;
#X obj 467 106 -;
#X obj 467 134 * 1500;
#X obj 255 211 r \$0-fearIndexInt;
#X obj 275 632 clip~ 0 1;
#X obj 504 598 r \$0-fearIndexInt;
#X msg 504 646 \$1 1000;
#X obj 504 670 line~;
#X obj 281 701 *~;
#X obj 103 665 *~;
#X obj 103 689 +~;
#X obj 207 612 sig~ 1;
#X obj 207 636 -~;
#X obj 296 311 r \$0-fearIndexInt;
#X obj 296 359 + 48;
#X obj 296 335 * 24;
#X obj 270 597 *~ 1;
#X obj 275 656 *~ 0.5;
#X obj 521 453 else/pink~;
#X obj 712 364 r \$0-fearIndexInt;
#X obj 712 388 / 2;
#X msg 712 412 \$1 1000;
#X obj 712 436 line~;
#X obj 697 523 *~;
#X obj 519 487 *~;
#X obj 623 434 sig~ 1;
#X obj 623 458 -~;
#X obj 692 492 noise~;
#X obj 467 158 + 500;
#X text 548 781 intensidad de volumen;
#X obj 255 259 + 70;
#X obj 255 235 * 20;
#X obj 99 357 else/rand.f 30 60;
#X obj 549 834 - 100;
#X obj 549 858 outlet;
#X obj 549 810 env~ 4096;
#X obj 134 899 outlet~;
#X msg 467 82 3 \$1;
#X obj 505 622 / 3;
#X obj 550 733 hip~ 200;
#X obj 267 49 r \$0-howls-tgl-s;
#X obj 203 227 bng 19 250 50 0 empty empty empty 0 -10 0 12 #fcfcfc #000000 #000000;
#X obj 317 948 pipe;
#X obj 217 770 pack f f;
#X obj 217 794 unpack f f;
#X obj 222 856 list prepend;
#X obj 222 885 route 1;
#X obj 233 914 select 1;
#X obj 316 792 > 32;
#X msg 542 979 1;
#X msg 564 1018 0;
#X obj 475 1042 t b b;
#X obj 475 1019 spigot 1;
#X obj 473 936 t b b;
#X obj 388 867 * 1;
#X floatatom 388 891 5 0 0 0 - - - 0;
#X msg 217 818 1;
#X obj 229 968 bng 19 250 50 0 empty empty empty 0 -10 0 12 #fcfcfc #000000 #000000;
#X obj 707 898 loadbang;
#X msg 707 922 1;
#X obj 543 954 delay 4000;
#X obj 707 970 bng 19 250 50 0 empty empty empty 0 -10 0 12 #fcfcfc #000000 #000000;
#X obj 707 946 metro 4000;
#X msg 906 860 disconnect;
#X obj 876 889 netsend -u -b;
#X obj 893 810 loadbang;
#X text 979 890 send as UDP \, binary;
#X msg 897 833 connect 10.12.181.191 5001;
#X floatatom 876 913 5 0 0 0 - - - 0;
#X text 1034 855 blancos y negros;
#X obj 738 619 t b b;
#X obj 768 745 oscformat /TriggerSB;
#X obj 876 704 oscformat /BeatDuration;
#X msg 712 700 1;
#X msg 792 703 0;
#X obj 793 672 t b b;
#X obj 792 648 delay 50;
#N canvas -786 227 553 405 test 0;
#X obj 247 48 tgl 19 0 empty empty empty 0 -10 0 12 #fcfcfc #000000 #000000 0 1;
#X obj 113 169 t b b;
#X msg 113 217 1;
#X msg 155 217 0;
#X obj 247 130 t b b;
#X obj 113 251 oscformat /TriggerSB;
#X obj 279 241 oscformat /BeatDuration;
#X obj 279 295 outlet;
#X obj 155 193 delay 50;
#X obj 247 101 bng 19 250 50 0 empty empty empty 0 -10 0 12 #fcfcfc #000000 #000000;
#X text 319 217 Duracion del pulso en segundos;
#X text 23 297 Envia 1 y luego 0 despues de 50 ms;
#X obj 247 72 metro 2000;
#X msg 278 217 2;
#X connect 0 0 12 0;
#X connect 1 0 2 0;
#X connect 1 1 8 0;
#X connect 2 0 5 0;
#X connect 3 0 5 0;
#X connect 4 0 1 0;
#X connect 4 1 13 0;
#X connect 5 0 7 0;
#X connect 6 0 7 0;
#X connect 8 0 3 0;
#X connect 9 0 4 0;
#X connect 12 0 9 0;
#X connect 13 0 6 0;
#X restore 1055 756 pd test;
#X text 923 913 Secondary Beat;
#X msg 910 662 0.5;
#X obj 883 558 bng 19 250 50 0 empty empty empty 0 -10 0 12 #fcfcfc #000000 #000000;
#X obj 883 582 t b b;
#X connect 0 0 1 0;
#X connect 1 0 2 0;
#X connect 2 0 20 0;
#X connect 2 1 12 0;
#X connect 3 0 8 0;
#X connect 3 0 64 0;
#X connect 3 1 8 1;
#X connect 3 1 64 1;
#X connect 4 0 3 1;
#X connect 5 0 53 0;
#X connect 5 1 4 0;
#X connect 5 3 13 0;
#X connect 5 3 14 0;
#X connect 6 0 7 0;
#X connect 7 0 17 0;
#X connect 7 0 37 0;
#X connect 8 0 6 0;
#X connect 8 1 6 1;
#X connect 8 2 6 2;
#X connect 10 0 7 1;
#X connect 11 0 9 0;
#X connect 12 0 1 1;
#X connect 13 0 6 4;
#X connect 14 0 6 3;
#X connect 14 0 3 2;
#X connect 14 0 75 0;
#X connect 16 0 15 0;
#X connect 17 0 30 0;
#X connect 18 0 19 0;
#X connect 19 0 0 0;
#X connect 20 0 5 0;
#X connect 20 0 62 0;
#X connect 21 0 58 0;
#X connect 22 0 23 0;
#X connect 23 0 49 0;
#X connect 24 0 52 0;
#X connect 25 0 38 0;
#X connect 26 0 59 0;
#X connect 27 0 28 0;
#X connect 28 0 33 1;
#X connect 28 0 29 1;
#X connect 29 0 31 1;
#X connect 30 0 31 0;
#X connect 31 0 16 0;
#X connect 31 0 11 0;
#X connect 31 0 57 0;
#X connect 31 0 60 0;
#X connect 32 0 33 0;
#X connect 33 0 30 1;
#X connect 34 0 36 0;
#X connect 35 0 53 2;
#X connect 36 0 35 0;
#X connect 37 0 25 0;
#X connect 38 0 29 0;
#X connect 39 0 45 0;
#X connect 40 0 41 0;
#X connect 41 0 42 0;
#X connect 42 0 43 0;
#X connect 43 0 47 1;
#X connect 43 0 44 1;
#X connect 44 0 10 0;
#X connect 45 0 10 0;
#X connect 46 0 47 0;
#X connect 47 0 45 1;
#X connect 48 0 44 0;
#X connect 49 0 12 2;
#X connect 51 0 20 1;
#X connect 52 0 51 0;
#X connect 53 0 3 0;
#X connect 54 0 55 0;
#X connect 56 0 54 0;
#X connect 58 0 22 0;
#X connect 59 0 27 0;
#X connect 60 0 56 0;
#X connect 61 0 1 0;
#X connect 63 0 74 0;
#X connect 64 0 65 0;
#X connect 65 0 77 0;
#X connect 65 1 69 0;
#X connect 66 0 67 0;
#X connect 67 0 68 0;
#X connect 68 0 63 0;
#X connect 68 0 78 0;
#X connect 69 0 66 1;
#X connect 70 0 73 1;
#X connect 71 0 73 1;
#X connect 72 0 101 0;
#X connect 72 1 71 0;
#X connect 73 0 72 0;
#X connect 74 0 73 0;
#X connect 74 1 81 0;
#X connect 75 0 63 1;
#X connect 75 0 76 0;
#X connect 77 0 66 0;
#X connect 79 0 80 0;
#X connect 80 0 83 0;
#X connect 81 0 70 0;
#X connect 83 0 70 0;
#X connect 83 0 82 0;
#X connect 84 0 85 0;
#X connect 85 0 89 0;
#X connect 86 0 88 0;
#X connect 88 0 85 0;
#X connect 91 0 94 0;
#X connect 91 1 97 0;
#X connect 92 0 85 0;
#X connect 93 0 85 0;
#X connect 94 0 92 0;
#X connect 95 0 92 0;
#X connect 96 0 95 0;
#X connect 96 1 100 0;
#X connect 97 0 96 0;
#X connect 98 0 85 0;
#X connect 100 0 93 0;
#X connect 101 0 102 0;
#X connect 102 0 91 0;
#X connect 102 1 100 0;
#X restore 71 763 pd aullido-de-viento;
#N canvas 130 130 523 520 stinger 0;
#X obj 48 175 noise~;
#X obj 85 254 *~;
#X obj 131 107 bng 19 250 50 0 empty empty empty 0 -10 0 12 #fcfcfc #000000 #000000;
#X obj 123 191 vline~;
#X obj 170 310 vline~;
#X obj 195 381 *~;
#X msg 123 164 1 \, 0 100;
#X obj 123 215 *~;
#X obj 47 200 *~ 4;
#X obj 331 351 osc~ 40;
#X obj 250 258 delay 250;
#X msg 167 258 1 \, 0 10;
#X msg 250 282 1 \, 0 100;
#X obj 195 405 *~ 4;
#X connect 0 0 8 0;
#X connect 2 0 6 0;
#X connect 2 0 11 0;
#X connect 2 0 10 0;
#X connect 3 0 7 0;
#X connect 3 0 7 1;
#X connect 4 0 5 0;
#X connect 5 0 13 0;
#X connect 6 0 3 0;
#X connect 7 0 1 1;
#X connect 8 0 1 0;
#X connect 9 0 5 1;
#X connect 10 0 12 0;
#X connect 11 0 4 0;
#X connect 12 0 4 0;
#X restore 71 816 pd stinger;
#N canvas 208 208 487 503 insectos 0;
#X obj 244 422 throw~ \$0-left;
#X obj 29 333 clone insectos~ 20;
#X obj 259 168 loadbang;
#X msg 259 216 10 \$1;
#X obj 259 240 pow;
#X floatatom 259 264 5 0 0 0 - - - 0;
#X msg 259 287 all \$1;
#X obj 29 165 loadbang;
#X msg 29 213 10 \$1;
#X obj 29 237 pow;
#X floatatom 29 261 5 0 0 0 - - - 0;
#X msg 29 284 all \$1;
#X msg 29 188 5;
#X obj 280 346 *~ 1;
#X obj 245 315 clone insectos~ 10;
#X obj 54 427 throw~ \$0-right;
#X obj 68 376 *~ 1;
#X msg 259 191 5;
#X connect 1 0 16 0;
#X connect 2 0 17 0;
#X connect 3 0 4 0;
#X connect 4 0 5 0;
#X connect 5 0 6 0;
#X connect 6 0 14 0;
#X connect 7 0 12 0;
#X connect 8 0 9 0;
#X connect 9 0 10 0;
#X connect 10 0 11 0;
#X connect 11 0 1 0;
#X connect 12 0 8 0;
#X connect 14 0 13 0;
#X connect 17 0 3 0;
#X restore 71 841 pd insectos;
#N canvas 9 16 934 956 strings 0;
#X obj 184 -15 tgl 19 0 empty empty empty 0 -10 0 12 #fcfcfc #000000 #000000 0 1;
#X obj 184 9 metro 100;
#X obj 184 33 t b b;
#X obj 107 345 makenote;
#X obj 230 311 else/rand.i 250 2000;
#X obj 162 149 t b b b b;
#X obj 107 433 pack f f f f f;
#X obj 412 432 else/pink~;
#X obj 107 399 poly 20 1;
#X obj 106 456 clone -s 1 strings~ 20;
#X obj 276 361 else/rand.i 1000 4000;
#X obj 320 388 else/rand.i 1000 4000;
#X obj 106 502 *~ 0.5;
#X obj 105 528 throw~ \$0-reverb;
#X obj 184 -68 loadbang;
#X msg 184 -44 1;
#X obj 164 111 else/chance;
#X obj 431 -156 r \$0-fearIndexInt;
#X obj 287 47 r \$0-fearIndexInt;
#X obj 310 179 r \$0-fearIndexInt;
#X obj 310 227 + 48;
#X obj 106 251 else/rand.f 20 60;
#X obj 603 343 r \$0-fearIndexInt;
#X msg 603 391 \$1 1000;
#X obj 603 415 line~;
#X obj 588 502 *~;
#X obj 410 466 *~;
#X obj 514 413 sig~ 1;
#X obj 514 437 -~;
#X obj 583 471 noise~;
#X obj 287 95 + 70;
#X obj 287 71 * 20;
#X obj 40 528 outlet~;
#X obj 603 367 / 3;
#X obj 232 -32 r \$0-strings-tgl-s;
#X obj 140 772 pipe;
#X obj 59 599 pack f f;
#X obj 59 623 unpack f f;
#X obj 59 685 list prepend;
#X obj 59 714 route 1;
#X obj 70 743 select 1;
#X obj 140 652 > 32;
#X msg 366 839 1;
#X msg 388 878 0;
#X obj 299 902 t b b;
#X obj 299 879 spigot 1;
#X obj 297 796 t b b;
#X obj 366 814 delay 1000;
#X obj 242 708 * 1;
#X obj 207 281 else/rand.i 32 127;
#X msg 59 647 1;
#X obj 287 119 min 100;
#X msg 431 -101 2 \$1;
#X obj 431 -76 pow;
#X obj 431 -51 * -500;
#X obj 271 11 else/rand.i 100 2000;
#X floatatom 431 -1 5 0 0 0 - - - 0;
#X obj 410 710 r \$0-fearIndexInt;
#X floatatom 310 251 5 0 0 0 - - - 0;
#X obj 310 203 * 12;
#X obj 460 196 r \$0-fearIndexInt;
#X obj 460 220 * 12;
#X obj 460 244 + 20;
#X obj 431 -131 - 1;
#X obj 431 -26 + 2100;
#X obj 410 734 select 1 2 3;
#X msg 410 758 1000;
#X msg 459 772 24;
#X msg 1079 817 disconnect;
#X obj 1049 846 netsend -u -b;
#X obj 1066 767 loadbang;
#X text 1152 847 send as UDP \, binary;
#X msg 1069 790 connect 10.12.181.191 5000;
#X floatatom 1049 870 5 0 0 0 - - - 0;
#X text 1227 757 colores;
#X obj 1042 552 bng 19 250 50 0 empty empty empty 0 -10 0 12 #000000 #ffffff #000000;
#X obj 671 619 t b b;
#X obj 809 704 oscformat /BeatDuration;
#X msg 645 700 1;
#X msg 725 703 0;
#X obj 726 672 t b b;
#X obj 725 648 delay 50;
#X obj 789 601 t b b;
#X obj 701 745 oscformat /TriggerPB;
#X text 1092 868 Primary Beat;
#N canvas -786 227 553 405 test 0;
#X obj 247 18 tgl 19 0 empty empty empty 0 -10 0 12 #fcfcfc #000000 #000000 0 1;
#X obj 113 169 t b b;
#X msg 113 217 1;
#X msg 155 217 0;
#X obj 247 100 t b b;
#X obj 113 251 oscformat /TriggerSB;
#X obj 279 241 oscformat /BeatDuration;
#X obj 279 295 outlet;
#X obj 155 193 delay 50;
#X obj 247 71 bng 19 250 50 0 empty empty empty 0 -10 0 12 #fcfcfc #000000 #000000;
#X text 23 297 Envia 1 y luego 0 despues de 50 ms;
#X text 319 217 Duracion del pulso en BPM;
#X msg 283 146 60000 \$1;
#X obj 283 170 /;
#X obj 249 42 metro 100;
#X msg 300 129 100;
#X obj 283 194 * 2;
#X connect 0 0 14 0;
#X connect 1 0 2 0;
#X connect 1 1 8 0;
#X connect 2 0 5 0;
#X connect 3 0 5 0;
#X connect 4 0 1 0;
#X connect 4 1 15 0;
#X connect 5 0 7 0;
#X connect 6 0 7 0;
#X connect 8 0 3 0;
#X connect 9 0 4 0;
#X connect 12 0 13 0;
#X connect 13 0 16 0;
#X connect 14 0 9 0;
#X connect 15 0 12 0;
#X connect 16 0 6 0;
#X restore 1028 680 pd test;
#X obj 811 661 f;
#X obj 847 477 r \$0-fearIndexInt;
#X obj 847 501 * 120;
#X obj 847 525 max 60;
#X connect 0 0 1 0;
#X connect 1 0 2 0;
#X connect 2 0 16 0;
#X connect 2 1 55 0;
#X connect 3 0 8 0;
#X connect 3 0 36 0;
#X connect 3 1 8 1;
#X connect 3 1 36 1;
#X connect 5 0 21 0;
#X connect 5 1 49 0;
#X connect 5 2 4 0;
#X connect 5 3 10 0;
#X connect 5 3 11 0;
#X connect 6 0 9 0;
#X connect 7 0 26 0;
#X connect 8 0 6 0;
#X connect 8 1 6 1;
#X connect 8 2 6 2;
#X connect 9 0 12 0;
#X connect 9 0 32 0;
#X connect 10 0 6 3;
#X connect 10 0 3 2;
#X connect 10 0 48 0;
#X connect 11 0 6 4;
#X connect 12 0 13 0;
#X connect 14 0 15 0;
#X connect 15 0 0 0;
#X connect 16 0 5 0;
#X connect 17 0 63 0;
#X connect 18 0 31 0;
#X connect 19 0 59 0;
#X connect 20 0 21 2;
#X connect 20 0 58 0;
#X connect 21 0 3 0;
#X connect 22 0 33 0;
#X connect 23 0 24 0;
#X connect 24 0 28 1;
#X connect 24 0 25 1;
#X connect 25 0 9 1;
#X connect 26 0 9 1;
#X connect 27 0 28 0;
#X connect 28 0 26 1;
#X connect 29 0 25 0;
#X connect 30 0 51 0;
#X connect 31 0 30 0;
#X connect 33 0 23 0;
#X connect 34 0 1 0;
#X connect 35 0 46 0;
#X connect 36 0 37 0;
#X connect 37 0 50 0;
#X connect 37 1 41 0;
#X connect 38 0 39 0;
#X connect 39 0 40 0;
#X connect 40 0 35 0;
#X connect 41 0 38 1;
#X connect 42 0 45 1;
#X connect 43 0 45 1;
#X connect 44 0 75 0;
#X connect 44 1 43 0;
#X connect 45 0 44 0;
#X connect 46 0 45 0;
#X connect 46 1 47 0;
#X connect 47 0 42 0;
#X connect 48 0 35 1;
#X connect 49 0 3 1;
#X connect 50 0 38 0;
#X connect 51 0 16 1;
#X connect 52 0 53 0;
#X connect 53 0 54 0;
#X connect 54 0 64 0;
#X connect 55 0 1 1;
#X connect 57 0 65 0;
#X connect 59 0 20 0;
#X connect 60 0 61 0;
#X connect 61 0 62 0;
#X connect 62 0 21 1;
#X connect 63 0 52 0;
#X connect 64 0 55 2;
#X connect 64 0 56 0;
#X connect 65 0 66 0;
#X connect 65 1 66 0;
#X connect 65 2 67 0;
#X connect 66 0 47 1;
#X connect 67 0 47 1;
#X connect 68 0 69 0;
#X connect 69 0 73 0;
#X connect 70 0 72 0;
#X connect 72 0 69 0;
#X connect 75 0 82 0;
#X connect 76 0 78 0;
#X connect 76 1 81 0;
#X connect 77 0 69 0;
#X connect 78 0 83 0;
#X connect 79 0 83 0;
#X connect 80 0 79 0;
#X connect 80 1 86 0;
#X connect 81 0 80 0;
#X connect 82 0 76 0;
#X connect 83 0 69 0;
#X connect 85 0 69 0;
#X connect 86 0 77 0;
#X connect 87 0 88 0;
#X connect 88 0 89 0;
#X connect 89 0 86 1;
#X restore 71 739 pd strings;
#N canvas 52 52 1413 800 electricidad 0;
#X obj 235 302 vline~;
#X obj 108 333 noise~;
#X obj 235 374 mtof~;
#X obj 213 503 *~;
#X obj 416 399 vline~;
#X obj 439 247 bng 19 250 50 0 empty empty empty 0 -10 0 12 #fcfcfc #000000 #000000;
#X obj 415 303 else/rand.f 0.5 1;
#X obj 439 271 t b b;
#X obj 415 347 pack f f;
#X obj 416 423 *~;
#X obj 108 428 else/highpass~ 1000 0.7;
#X msg 414 376 \$1 10 \, 0 \$2 10;
#X obj 579 284 else/rand.i 1000 5000;
#X obj 235 398 clip~ 20 20000;
#X obj 213 532 throw~ \$0-mono;
#X obj 104 390 *~ 2;
#X msg 234 275 0 \, 1 600;
#X obj 234 326 *~ 50;
#X obj 130 223 sig~ 10;
#X obj 130 247 pow~;
#X obj 109 357 pow~;
#X obj 224 155 sig~ 1;
#X obj 224 179 -~;
#X obj 198 228 +~ 2.5;
#X obj 197 205 *~ 2;
#X obj 235 350 +~ 60;
#X obj 857 327 vline~;
#X obj 730 358 noise~;
#X obj 857 399 mtof~;
#X obj 835 528 *~;
#X obj 1038 424 vline~;
#X obj 1061 272 bng 19 250 50 0 empty empty empty 0 -10 0 12 #fcfcfc #000000 #000000;
#X obj 1037 328 else/rand.f 0.5 1;
#X obj 1061 296 t b b;
#X obj 1037 372 pack f f;
#X obj 1038 448 *~;
#X obj 730 453 else/highpass~ 1000 0.7;
#X msg 1036 401 \$1 10 \, 0 \$2 10;
#X obj 1201 309 else/rand.i 1000 5000;
#X obj 857 423 clip~ 20 20000;
#X obj 835 557 throw~ \$0-mono;
#X obj 726 415 *~ 2;
#X msg 856 300 0 \, 1 600;
#X obj 856 351 *~ 50;
#X obj 752 248 sig~ 10;
#X obj 752 272 pow~;
#X obj 731 382 pow~;
#X obj 846 180 sig~ 1;
#X obj 846 204 -~;
#X obj 820 253 +~ 2.5;
#X obj 819 230 *~ 2;
#X obj 857 375 +~ 60;
#X obj 573 94 inlet;
#X obj 573 118 tgl 19 0 empty empty empty 0 -10 0 12 #fcfcfc #000000 #000000 0 1;
#X obj 573 142 sel 0 1;
#X connect 0 0 17 0;
#X connect 0 0 22 1;
#X connect 1 0 20 0;
#X connect 2 0 13 0;
#X connect 3 0 14 0;
#X connect 4 0 9 0;
#X connect 4 0 9 1;
#X connect 5 0 7 0;
#X connect 6 0 8 0;
#X connect 7 0 6 0;
#X connect 7 0 16 0;
#X connect 7 1 12 0;
#X connect 8 0 11 0;
#X connect 9 0 3 1;
#X connect 10 0 3 0;
#X connect 11 0 4 0;
#X connect 12 0 8 1;
#X connect 13 0 10 1;
#X connect 15 0 10 0;
#X connect 16 0 0 0;
#X connect 17 0 25 0;
#X connect 18 0 19 0;
#X connect 19 0 20 1;
#X connect 20 0 15 0;
#X connect 21 0 22 0;
#X connect 22 0 24 0;
#X connect 23 0 19 1;
#X connect 24 0 23 0;
#X connect 25 0 2 0;
#X connect 26 0 43 0;
#X connect 26 0 48 1;
#X connect 27 0 46 0;
#X connect 28 0 39 0;
#X connect 29 0 40 0;
#X connect 30 0 35 0;
#X connect 30 0 35 1;
#X connect 31 0 33 0;
#X connect 32 0 34 0;
#X connect 33 0 32 0;
#X connect 33 0 42 0;
#X connect 33 1 38 0;
#X connect 34 0 37 0;
#X connect 35 0 29 1;
#X connect 36 0 29 0;
#X connect 37 0 30 0;
#X connect 38 0 34 1;
#X connect 39 0 36 1;
#X connect 41 0 36 0;
#X connect 42 0 26 0;
#X connect 43 0 51 0;
#X connect 44 0 45 0;
#X connect 45 0 46 1;
#X connect 46 0 41 0;
#X connect 47 0 48 0;
#X connect 48 0 50 0;
#X connect 49 0 45 1;
#X connect 50 0 49 0;
#X connect 51 0 28 0;
#X connect 52 0 53 0;
#X connect 53 0 54 0;
#X connect 54 0 5 0;
#X connect 54 1 31 0;
#X restore 71 865 pd electricidad;
#N canvas 77 0 1920 997 shepard 0;
#X obj 55 53 cnv 15 413 179 empty empty empty 20 12 0 14 #e0e0e0 #404040 0;
#X obj 61 59 cnv 15 401 112 empty empty empty 20 12 0 14 #202020 #404040 0;
#N canvas 398 107 878 693 \$0-screen 0;
#X coords 0 -1 1 1 389 100 2 40 60;
#X restore 67 65 pd \$0-screen;
#X obj 61 178 cnv 15 401 48 empty empty empty 20 12 0 14 #9c9c9c #404040 0;
#X obj 193 184 bng 36 250 50 0 \$0-back \$0-setback < 8 18 0 30 #e0e0e0 #000000 #000000;
#X obj 293 184 bng 36 250 50 0 \$0-forward \$0-setforward > 8 18 0 30 #fcfcfc #000000 #000000;
#X obj 243 184 bng 36 250 50 0 \$0-pause \$0-setpause ▮▮ 7 17 0 20 #e0e0e0 #000000 #000000;
#X obj 633 83 r \$0-set;
#X obj 633 566 +;
#X obj 633 589 t f;
#X obj 701 289 s \$0-set;
#X obj 636 106 hsl 384 100 0 383 0 0 empty empty empty -2 -8 0 10 #fcfcfc #000000 #000000 0 1;
#X obj 634 107 cnv 15 387 98 empty empty empty 20 12 0 14 #fcfcfc #404040 0;
#X obj 633 221 sel 192;
#X msg 701 267 192;
#X obj 633 267 - 192;
#N canvas 381 419 308 129 \$0-bars 0;
#X obj 43 43 struct \$0-bars float x float color;
#X obj 43 66 drawpolygon color 8 0 0 0 1;
#X restore 1085 83 pd \$0-bars;
#X obj 1145 132 bng 15 250 50 0 empty empty empty 17 7 0 10 #fcfcfc #000000 #000000;
#X msg 1196 198 clear;
#X obj 1196 221 s pd-\$0-display;
#X obj 1214 359 pointer;
#X obj 1085 428 append \$0-bars x color;
#X obj 1214 313 \$0;
#X msg 1214 336 traverse pd-\$1-display \, bang;
#X obj 1158 267 t f f;
#X obj 1185 290 / 2;
#X obj 1185 313 i;
#X msg 1085 198 10;
#X obj 1085 244 until;
#X obj 1085 267 f;
#X obj 1115 267 + 1;
#X obj 1085 221 t f b;
#X msg 1127 244 0;
#X obj 1085 290 *;
#X obj 1085 175 t b b;
#X obj 1085 336 +;
#N canvas 0 85 450 300 \$0-display 0;
#X scalar 2439-bars 90 444 \;;
#X scalar 2439-bars 128 222 \;;
#X scalar 2439-bars 166 111 \;;
#X scalar 2439-bars 205 0 \;;
#X scalar 2439-bars 243 222 \;;
#X scalar 2439-bars 282 333 \;;
#X scalar 2439-bars 320 555 \;;
#X scalar 2439-bars 358 666 \;;
#X scalar 2439-bars 13 777 \;;
#X scalar 2439-bars 51 555 \;;
#X coords 0 0 383 1 389 100 2 100 100;
#X restore 633 106 pd \$0-display;
#X obj 1158 244 / 10;
#X msg 1158 221 384;
#X obj 1085 359 t f f;
#X obj 1149 405 expr $f1+$f1*10+$f1*100;
#X obj 1149 382 expr int(8*abs($f1-192)/192);
#X obj 1085 313 i;
#X obj 1085 129 loadbang;
#X obj 1196 175 s \$0-reset;
#X obj 1085 152 t b b b b;
#X obj 661 520 r \$0-reset;
#X msg 661 543 0;
#X obj 701 244 r \$0-reset;
#X obj 633 681 mod 384;
#X obj 837 934 *~ 1;
#X obj 633 727 t f f;
#X obj 853 727 t f f;
#X obj 1073 727 t f f;
#X obj 633 244 t f b;
#X obj 633 704 / 384;
#X obj 853 681 mod 384;
#X obj 853 658 + 192;
#X obj 853 704 / 384;
#X obj 1073 681 mod 384;
#X obj 1073 704 / 384;
#X obj 633 658 + 96;
#X obj 1073 658 + 288;
#X obj 633 612 t f f f;
#X msg 743 336 10;
#X obj 743 359 until;
#X msg 743 382 next;
#X obj 743 405 pointer;
#X msg 788 382 traverse pd-\$1-display;
#X obj 788 359 \$0;
#X obj 743 451 get \$0-bars x;
#X obj 743 474 +;
#X obj 743 497 mod 384;
#X obj 743 589 set \$0-bars x color;
#X obj 743 520 t f f;
#X obj 798 566 expr $f1+$f1*10+$f1*100;
#X obj 798 543 expr int(8*abs($f1-192)/192);
#X obj 743 428 t p p;
#X obj 743 313 t b b f;
#X obj 633 290 t f f;
#X obj 666 773 expr pow(1-abs($f1-0.5)*2 \, 2);
#X obj 880 773 expr pow(1-abs($f1-0.5)*2 \, 2);
#X obj 1106 773 expr pow(1-abs($f1-0.5)*2 \, 2);
#X obj 1085 474 r \$0-back;
#X obj 1245 474 r \$0-pause;
#X obj 1155 474 r \$0-forward;
#X msg 1245 497 0;
#X obj 1085 520 t f b;
#X msg 1085 497 1;
#X obj 1085 589 f;
#X obj 1155 520 t f b;
#X msg 1155 497 1;
#X obj 1085 612 s \$0-play;
#X obj 701 221 r \$0-play;
#X obj 1245 520 t f b;
#X msg 1148 566 -1;
#X msg 1182 566 1;
#X obj 1168 635 s \$0-setback;
#X obj 1248 635 s \$0-setforward;
#X obj 1348 635 s \$0-setpause;
#X msg 1168 612 color 0;
#X msg 1248 612 color 0;
#X msg 1348 612 color 0;
#X msg 1179 589 color 16000;
#X msg 1269 589 color 16000;
#X msg 1359 589 color 16000;
#X obj 633 750 expr pow(2 \, $f1*4)*110;
#X obj 853 750 expr pow(2 \, $f1*4)*110;
#X obj 1073 750 expr pow(2 \, $f1*4)*110;
#X obj 604 948 *~ 0.25;
#X obj 1057 938 *~ 0.25;
#X obj 1085 566 metro 200;
#X obj 594 803 else/f2s~ 200;
#X obj 898 806 else/f2s~ 200;
#X obj 1092 807 else/f2s~ 200;
#X obj 529 833 else/resonant~ 1000 50;
#X obj 834 836 else/resonant~ 1000 50;
#X obj 1028 837 else/resonant~ 1000 50;
#X obj 520 898 clip~ 0 1;
#X obj 825 901 clip~ 0 1;
#X obj 1019 902 clip~ 0 1;
#X obj 529 857 *~ 4;
#X obj 834 860 *~ 4;
#X obj 1028 861 *~ 4;
#X obj 633 770 * 10;
#X obj 853 771 * 10;
#X obj 1073 771 * 10;
#X obj 841 1010 throw~ \$0-reverb;
#X obj 1033 1016 throw~ \$0-mono;
#X obj 413 812 noise~;
#X obj 1348 771 r \$0-fearIndexInt;
#X msg 1297 908 \$1 1000;
#X obj 1297 932 line~;
#X obj 840 963 *~;
#X obj 1033 992 *~ 0.05;
#X obj 326 309 loadbang;
#X obj 840 987 *~ 0.2;
#X msg 1348 829 0;
#X msg 1428 829 0.1;
#X msg 1388 829 0.02;
#X obj 1348 795 select 1 2 3;
#X connect 7 0 11 0;
#X connect 8 0 9 0;
#X connect 9 0 8 1;
#X connect 9 0 63 0;
#X connect 11 0 13 0;
#X connect 13 1 54 0;
#X connect 14 0 10 0;
#X connect 15 0 79 0;
#X connect 17 0 45 0;
#X connect 18 0 19 0;
#X connect 20 0 21 2;
#X connect 22 0 23 0;
#X connect 23 0 20 0;
#X connect 24 0 33 1;
#X connect 24 1 25 0;
#X connect 25 0 26 0;
#X connect 26 0 35 1;
#X connect 27 0 31 0;
#X connect 28 0 29 0;
#X connect 29 0 30 0;
#X connect 29 0 33 0;
#X connect 30 0 29 1;
#X connect 31 0 28 0;
#X connect 31 1 32 0;
#X connect 32 0 29 1;
#X connect 33 0 42 0;
#X connect 34 0 27 0;
#X connect 34 1 38 0;
#X connect 35 0 39 0;
#X connect 37 0 24 0;
#X connect 38 0 37 0;
#X connect 39 0 21 0;
#X connect 39 1 41 0;
#X connect 40 0 21 1;
#X connect 41 0 40 0;
#X connect 42 0 35 0;
#X connect 43 0 45 0;
#X connect 45 0 34 0;
#X connect 45 1 22 0;
#X connect 45 2 18 0;
#X connect 45 3 44 0;
#X connect 46 0 47 0;
#X connect 47 0 8 1;
#X connect 48 0 14 0;
#X connect 49 0 55 0;
#X connect 50 0 133 0;
#X connect 51 0 106 0;
#X connect 51 1 80 0;
#X connect 52 0 107 0;
#X connect 52 1 81 0;
#X connect 53 0 108 0;
#X connect 53 1 82 0;
#X connect 54 0 15 0;
#X connect 54 1 14 0;
#X connect 55 0 51 0;
#X connect 56 0 58 0;
#X connect 57 0 56 0;
#X connect 58 0 52 0;
#X connect 59 0 60 0;
#X connect 60 0 53 0;
#X connect 61 0 49 0;
#X connect 62 0 59 0;
#X connect 63 0 61 0;
#X connect 63 1 57 0;
#X connect 63 2 62 0;
#X connect 64 0 65 0;
#X connect 65 0 66 0;
#X connect 66 0 67 0;
#X connect 67 0 77 0;
#X connect 68 0 67 0;
#X connect 69 0 68 0;
#X connect 70 0 71 0;
#X connect 71 0 72 0;
#X connect 72 0 74 0;
#X connect 74 0 73 0;
#X connect 74 1 76 0;
#X connect 75 0 73 1;
#X connect 76 0 75 0;
#X connect 77 0 70 0;
#X connect 77 1 73 2;
#X connect 78 0 64 0;
#X connect 78 1 69 0;
#X connect 78 2 71 1;
#X connect 79 0 8 0;
#X connect 79 1 78 0;
#X connect 80 0 109 1;
#X connect 81 0 50 1;
#X connect 82 0 110 1;
#X connect 83 0 88 0;
#X connect 84 0 86 0;
#X connect 85 0 91 0;
#X connect 86 0 94 0;
#X connect 87 0 111 0;
#X connect 87 1 95 0;
#X connect 87 1 100 0;
#X connect 87 1 105 0;
#X connect 87 1 104 0;
#X connect 88 0 87 0;
#X connect 89 0 92 0;
#X connect 90 0 111 0;
#X connect 90 1 96 0;
#X connect 90 1 101 0;
#X connect 90 1 105 0;
#X connect 90 1 103 0;
#X connect 91 0 90 0;
#X connect 93 0 79 0;
#X connect 94 0 111 0;
#X connect 94 1 102 0;
#X connect 94 1 103 0;
#X connect 94 1 104 0;
#X connect 95 0 89 1;
#X connect 96 0 89 1;
#X connect 100 0 97 0;
#X connect 101 0 98 0;
#X connect 102 0 99 0;
#X connect 103 0 97 0;
#X connect 104 0 98 0;
#X connect 105 0 99 0;
#X connect 106 0 124 0;
#X connect 107 0 125 0;
#X connect 108 0 126 0;
#X connect 109 0 133 0;
#X connect 110 0 133 0;
#X connect 111 0 89 0;
#X connect 112 0 115 1;
#X connect 113 0 116 1;
#X connect 114 0 117 1;
#X connect 115 0 121 0;
#X connect 116 0 122 0;
#X connect 117 0 123 0;
#X connect 118 0 109 0;
#X connect 119 0 50 0;
#X connect 120 0 110 0;
#X connect 121 0 118 0;
#X connect 122 0 119 0;
#X connect 123 0 120 0;
#X connect 124 0 112 0;
#X connect 125 0 113 0;
#X connect 126 0 114 0;
#X connect 129 0 115 0;
#X connect 129 0 116 0;
#X connect 129 0 117 0;
#X connect 130 0 140 0;
#X connect 131 0 132 0;
#X connect 132 0 133 1;
#X connect 133 0 134 0;
#X connect 133 0 136 0;
#X connect 134 0 128 0;
#X connect 135 0 5 0;
#X connect 136 0 127 0;
#X connect 137 0 131 0;
#X connect 138 0 131 0;
#X connect 139 0 131 0;
#X connect 140 0 137 0;
#X connect 140 1 139 0;
#X connect 140 2 138 0;
#X connect 140 3 137 0;
#X restore 71 666 pd shepard;
#N canvas -1439 16 942 996 bass 0;
#X obj 203 575 throw~ \$0-mono;
#X obj 287 255 osc~ 40;
#X obj 287 295 *~;
#X obj 388 270 line~;
#X obj 214 222 osc~ 39;
#X obj 388 198 r \$0-fearIndexInt;
#X obj 284 87 r \$0-fearIndexInt;
#X obj 284 111 select 1 2;
#X msg 388 246 \$1 1000;
#X obj 284 193 line~;
#X msg 284 169 \$1 2000;
#X obj 71 51 r \$0-fearIndexInt;
#X obj 69 179 line~;
#X msg 69 155 \$1 2000;
#X obj 71 75 select 0 1 2;
#X msg 71 99 39;
#X msg 284 145 46;
#X obj 504 303 tgl 19 0 empty empty empty 0 -10 0 12 #fcfcfc #000000 #000000 0 1;
#X obj 504 327 metro 100;
#X obj 504 380 t b f;
#X obj 504 428 pack f f;
#X obj 504 404 else/rand.f 0.1 1;
#X obj 504 356 else/rand.i 1 250;
#X msg 504 452 \$1 \$2;
#X obj 504 476 line~;
#X msg 104 117 41;
#X obj 203 535 *~ 1;
#X obj 504 254 loadbang;
#X msg 504 278 1;
#X obj 222 127 line~;
#X obj 222 7 r \$0-fearIndexInt;
#X msg 222 103 \$1 1000;
#X obj 214 246 *~;
#X obj 222 79 + 0.5;
#X obj 222 55 * 0.5;
#X obj 222 31 / 3;
#X obj 268 476 r \$0-bass-tgl-s;
#X msg 144 117 43;
#X obj 388 222 / 3;
#X msg 324 145 52;
#X obj 202 379 *~;
#X obj 202 403 *~ 0.5;
#X connect 1 0 2 0;
#X connect 2 0 40 0;
#X connect 3 0 2 1;
#X connect 4 0 32 0;
#X connect 5 0 38 0;
#X connect 6 0 7 0;
#X connect 7 0 16 0;
#X connect 7 1 39 0;
#X connect 8 0 3 0;
#X connect 9 0 1 0;
#X connect 10 0 9 0;
#X connect 11 0 14 0;
#X connect 12 0 4 0;
#X connect 13 0 12 0;
#X connect 14 0 15 0;
#X connect 14 1 25 0;
#X connect 14 2 37 0;
#X connect 15 0 13 0;
#X connect 16 0 10 0;
#X connect 17 0 18 0;
#X connect 18 0 22 0;
#X connect 19 0 21 0;
#X connect 19 1 20 1;
#X connect 20 0 23 0;
#X connect 21 0 20 0;
#X connect 22 0 18 1;
#X connect 22 0 19 0;
#X connect 23 0 24 0;
#X connect 24 0 40 1;
#X connect 25 0 13 0;
#X connect 26 0 0 0;
#X connect 27 0 28 0;
#X connect 28 0 17 0;
#X connect 29 0 32 1;
#X connect 30 0 35 0;
#X connect 31 0 29 0;
#X connect 32 0 40 0;
#X connect 33 0 31 0;
#X connect 34 0 33 0;
#X connect 35 0 34 0;
#X connect 36 0 26 1;
#X connect 37 0 13 0;
#X connect 38 0 8 0;
#X connect 39 0 10 0;
#X connect 40 0 41 0;
#X connect 41 0 26 0;
#X restore 71 691 pd bass;
#X text 71 641 // sonidos;
#N canvas 130 130 638 568 breathing 0;
#X obj 303 739 file glob;
#X obj 375 642 bng 19 250 50 0 empty empty empty 0 -10 0 12 #fcfcfc #000000 #000000;
#X obj 435 800 else/count;
#X obj 375 666 t b b;
#X obj 303 763 t a b;
#X msg 303 710 symbol ./samples/breathing/*.wav;
#X msg 435 762 set 0;
#X obj 318 926 text define -k \$0-breathingSamples;
#A set ./samples/breathing/210000__jason130178__man-breathing.wav \; ./samples/breathing/234335__mcroce__breath.wav \; ./samples/breathing/235519__ceberation__heavy-breathing.wav \; ./samples/breathing/401336__ckvoiceover__breathing.wav \;;
#X obj 306 867 text set \$0-breathingSamples;
#X msg 301 815 symbol \$1;
#X obj 1155 748 tgl 19 0 empty empty empty 0 -10 0 12 #fcfcfc #000000 #000000 0 1;
#X obj 1155 796 else/chance 50;
#X obj 1155 772 metro 4000;
#X obj 1146 891 else/rand.i 0 3;
#X obj 1146 915 text get \$0-breathingSamples;
#X msg 1137 1005 open ./\$1.wav \, start;
#X obj 1137 1029 readsf~;
#X obj 1137 1053 *~ 0.1;
#X obj 1382 889 else/rand.i -30 -12;
#X connect 0 0 4 0;
#X connect 1 0 3 0;
#X connect 2 0 8 1;
#X connect 3 0 5 0;
#X connect 3 1 6 0;
#X connect 4 0 9 0;
#X connect 4 1 2 0;
#X connect 5 0 0 0;
#X connect 6 0 2 0;
#X connect 9 0 8 0;
#X connect 10 0 12 0;
#X connect 11 0 13 0;
#X connect 11 0 18 0;
#X connect 12 0 11 0;
#X connect 13 0 14 0;
#X connect 14 0 15 0;
#X connect 15 0 16 0;
#X connect 16 0 17 0;
#X restore 71 895 pd breathing;
#N canvas 131 22 688 673 heartRate 0;
#X obj 396 26 / 127;
#X obj 396 50 * 40;
#X obj 396 74 + 60;
#X msg 396 98 60000 \$1;
#X obj 396 122 /;
#X obj 285 93 loadbang;
#X msg 285 117 1;
#X obj 285 141 metro;
#X obj 95 422 else/lowpass~;
#X obj 95 263 else/pink~;
#X obj 183 398 sig~ 0.4;
#X obj 436 151 v \$0-latidoMs;
#X obj 313 315 vline~;
#X obj 139 383 mtof~;
#X obj 156 461 else/drive~;
#X obj 295 490 *~;
#X obj 295 643 throw~ \$0-mono;
#X msg 252 252 1 1 \, 0 160 1;
#X obj 139 354 *~ 100;
#X obj 95 292 else/resonant~ 110 250;
#X obj 370 218 delay;
#X obj 402 186 / 4;
#X msg 32 227 clear;
#X msg 370 241 0.7 1 \, 0 160 1;
#X obj 313 426 sqrt~;
#X obj 422 643 throw~ \$0-reverb;
#X obj 422 619 *~ 0.1;
#X obj 396 2 r \$0-ritmo-cardiaco-s;
#X obj 295 619 *~ 1;
#X obj 295 564 *~ 0.5;
#X connect 0 0 1 0;
#X connect 1 0 2 0;
#X connect 2 0 3 0;
#X connect 3 0 4 0;
#X connect 4 0 7 1;
#X connect 4 0 11 0;
#X connect 4 0 21 0;
#X connect 5 0 6 0;
#X connect 6 0 7 0;
#X connect 7 0 17 0;
#X connect 7 0 22 0;
#X connect 7 0 20 0;
#X connect 8 0 14 0;
#X connect 9 0 19 0;
#X connect 10 0 8 2;
#X connect 12 0 24 0;
#X connect 12 0 18 0;
#X connect 13 0 8 1;
#X connect 14 0 15 0;
#X connect 15 0 29 0;
#X connect 17 0 12 0;
#X connect 18 0 13 0;
#X connect 19 0 8 0;
#X connect 20 0 23 0;
#X connect 21 0 20 1;
#X connect 22 0 8 0;
#X connect 22 0 19 0;
#X connect 23 0 12 0;
#X connect 24 0 15 1;
#X connect 26 0 25 0;
#X connect 27 0 0 0;
#X connect 28 0 16 0;
#X connect 29 0 26 0;
#X connect 29 0 28 0;
#X restore 71 715 pd heartRate;
#X obj 608 462 else/plate.rev~;
#X obj 690 410 loadbang;
#X obj 608 515 throw~ \$0-left;
#X obj 720 515 throw~ \$0-right;
#X obj 608 423 hip~ 1;
#X obj 608 491 *~ 1.5;
#X obj 720 491 *~ 1.5;
#X msg 690 434 wet 1 \, cutoff 0.5 \, damp 0.5 \, pre 0 \, size 0.8;
#X obj 608 381 catch~ \$0-reverb;
#X text 608 361 // Reverb;
#X obj 430 387 pow 4;
#X obj 430 411 * 1;
#X connect 0 0 17 0;
#X connect 3 0 20 0;
#X connect 4 0 17 0;
#X connect 4 0 20 0;
#X connect 5 0 6 0;
#X connect 6 0 7 0;
#X connect 7 0 8 0;
#X connect 10 0 2 0;
#X connect 10 0 8 0;
#X connect 11 0 1 0;
#X connect 11 0 8 0;
#X connect 17 0 11 0;
#X connect 18 0 81 0;
#X connect 19 0 20 1;
#X connect 19 0 17 1;
#X connect 20 0 10 0;
#X connect 24 0 44 0;
#X connect 26 0 27 1;
#X connect 27 0 17 0;
#X connect 27 0 20 0;
#X connect 28 0 24 0;
#X connect 29 0 31 0;
#X connect 29 1 31 1;
#X connect 30 0 32 0;
#X connect 31 0 27 0;
#X connect 32 0 29 0;
#X connect 33 0 34 0;
#X connect 34 0 35 0;
#X connect 35 0 36 0;
#X connect 36 0 29 0;
#X connect 37 0 33 0;
#X connect 38 0 40 0;
#X connect 38 0 45 0;
#X connect 38 0 56 0;
#X connect 39 0 29 0;
#X connect 40 0 41 0;
#X connect 41 0 42 0;
#X connect 43 0 26 0;
#X connect 44 0 43 0;
#X connect 46 0 39 0;
#X connect 47 0 48 0;
#X connect 48 0 49 0;
#X connect 50 0 53 0;
#X connect 51 0 53 1;
#X connect 53 0 54 0;
#X connect 54 0 55 0;
#X connect 55 0 52 0;
#X connect 56 0 46 0;
#X connect 57 0 58 0;
#X connect 58 0 59 0;
#X connect 71 0 76 0;
#X connect 71 1 77 0;
#X connect 72 0 78 0;
#X connect 75 0 71 0;
#X connect 76 0 73 0;
#X connect 77 0 74 0;
#X connect 78 0 71 0;
#X connect 79 0 75 0;
#X connect 81 0 82 0;
#X connect 82 0 19 0;
#X restore 27 451 pd guts;
#X obj 34 858 list trim;
#X obj 34 882 send \$0-osc;
#X obj 512 492 r \$0-osc;
#X obj 512 636 s \$0-temperature-r;
#X text 512 468 OSC temperature;
#X obj 871 491 r \$0-osc;
#X obj 312 492 r \$0-osc;
#X obj 312 636 s \$0-pressure-r;
#X obj 682 492 r \$0-osc;
#X obj 682 636 s \$0-electricity-r;
#X text 682 468 OSC electricity;
#X obj 53 812 print OSC:;
#X obj 53 723 spigot;
#X obj 92 693 tgl 19 0 empty empty Print 22 11 0 12 #00ff04 #000000 #000000 0 1;
#X obj 312 516 route pressure;
#X obj 512 516 route temperature;
#X obj 682 516 route electricity;
#X obj 871 516 route heartRate;
#X text 312 460 OSC pressure(BVP);
#X text 871 467 OSC heartRate rescaled;
#X obj 63 98 tgl 19 0 \$0-bioRand-s \$0-bioRand-r bioRand 22 10 0 12 #c6ffc7 #000000 #000000 0 1;
#X obj 342 694 r \$0-osc;
#X obj 342 718 route engagement;
#X obj 342 843 s \$0-engagement-r;
#X obj 682 612 else/rescale -1 1 0 127;
#X obj 312 612 else/rescale -1 1 0 127;
#X obj 512 612 else/rescale -1 1 0 127;
#X obj 53 535 netreceive -u -b 6001;
#X obj 73 565 netreceive -u -b 7001;
#X obj 93 595 netreceive -u -b 9001;
#X obj 312 540 change -1;
#X msg 312 564 \$1 1000;
#X obj 312 588 line 0 1;
#X obj 512 540 change -1;
#X msg 512 564 \$1 1000;
#X obj 512 588 line 0 1;
#X obj 682 540 change -1;
#X msg 682 564 \$1 1000;
#X obj 682 588 line 0 1;
#X obj 871 540 change -1;
#X msg 871 564 \$1 1000;
#X obj 871 588 line 0 1;
#X obj 731 730 r \$0-osc;
#X msg 342 766 \$1 10000;
#X obj 342 790 line 0 1;
#X text 731 706 OSC emotionID;
#X obj 342 814 clip 0 127;
#X obj 342 742 else/rescale -1 1 0 127;
#X obj 366 61 cnv 15 340 240 empty empty Microphone 12 20 0 18 #ffe3c6 #000000 0;
#X text 342 670 OSC Engagement;
#X text 948 98 Archivo > Preferencias \; > Editar preferencias > Preferencias de audio;
#X text 948 148 Sistema de audio > standard (portaudio);
#X text 947 189 Entrada/Salida: Windows WASHAPI: 4-USB Audio CODEC;
#X text 948 58 Configuraciones de audio:;
#X text 947 169 Velocidad de muestro: 44.1 kHz;
#X obj 388 119 tgl 19 0 \$0-rec-s \$0-rec-r REC 0 -10 0 12 #fcfcfc #fcfcfc #000000 0 1;
#X obj 389 160 vu 19 120 \$0-vu empty -1 -10 0 12 #404040 #000000 1 0;
#X text 947 209 Retardo (mseg): 24 (subir a 40 o 80 si causa ruido);
#X text 446 108 Presionar el boton "Direct Monitor" \; para escuchar el microfono.;
#X obj 33 478 netreceive -u -b 5004;
#X obj 551 788 t b b;
#X msg 551 822 0;
#X obj 583 817 delay 10;
#X msg 583 841 1;
#X obj 583 865 s \$0-rec-r;
#X text 551 676 OSC Recording;
#X obj 63 508 netreceive -u -b 5005;
#X obj 551 705 r \$0-osc;
#X obj 551 729 route Rec Stop;
#X obj 551 763 route Rec;
#X obj 631 763 route Stop;
#X obj 458 199 bng 19 250 50 0 \$0-openRec-s empty openRec 0 -10 0 12 #c6feff #000000 #000000;
#X text 508 198 lista de archivos;
#X text 943 302 se guardan en documents > recordings > scene 3;
#X obj 863 269 bng 19 250 50 0 \$0-fadeOut-s empty fadeOut 0 -10 0 12 #ff0400 #000000 #000000;
#X text 147 710 Port \; 5004 = Rec/Stop \; 6001 = Biometrics \; 7001 = Real Emotion \; 9001 = Engagement \; 9011 = Fear Index \;;
#X obj 110 631 netreceive -u -b 9011;
#X obj 731 756 route emotion-ID;
#X obj 731 780 s \$0-fearIndex-r;
#X obj 347 346 hsl 101 19 0 1 0 1 \$0-fearIndex-s \$0-fearIndex-r fearIndex -2 -10 0 12 #ae5f44 #ffffff #000000 3300 1;
#X floatatom 344 370 5 0 0 0 - - - 0;
#X floatatom 451 347 5 0 0 0 - \$0-fearIndexInt - 0;
#X obj 870 611 else/rescale -1 1 0 1;
#X obj 870 635 s \$0-ritmo-cardiaco-r;
#X obj 66 259 hsl 101 19 0 1 0 1 \$0-ritmo-cardiaco-s \$0-ritmo-cardiaco-r ritmo-cardiaco -2 -10 0 12 #499bde #ffffff #000000 10000 1;
#X obj 578 329 tgl 19 1 \$0-bass-tgl-s \$0-bass-tgl-r empty -30 10 0 12 #feffc6 #000000 #000000 1 1;
#X text 521 330 bass;
#X obj 578 353 tgl 19 1 \$0-howls-tgl-s \$0-howls-tgl-r empty -30 10 0 12 #feffc6 #000000 #000000 1 1;
#X text 521 354 howls;
#X obj 578 377 tgl 19 1 \$0-strings-tgl-s \$0-strings-tgl-r empty -30 10 0 12 #feffc6 #000000 #000000 1 1;
#X text 521 378 strings;
#X obj 927 712 r \$0-fearIndex-s;
#X obj 977 805 i;
#X obj 977 757 * 2;
#X obj 927 857 s \$0-fearIndexInt;
#X text 927 692 // Conversion de fearIndex a 3 niveles;
#X text 1058 744 0.33 = Bajo;
#X text 1058 764 0.66 = Medio Alto;
#X text 1058 724 0 = Nada;
#X text 1058 784 0.99 = Alto;
#X obj 927 736 sel 0;
#X msg 927 760 0;
#X obj 977 829 + 1;
#X text 1209 790 3 = Alto +1 *1.5;
#X text 1209 770 2 = Medio 1 *1;
#X text 1209 750 1 = Bajo 0 *1;
#X text 1210 729 0 = Nada -1 *1;
#X obj 977 781 + 0;
#X obj 1327 497 r \$0-fadeOut-s;
#X obj 1327 602 s \$0-volumen-r;
#X obj 1327 578 line;
#X msg 1327 554 \$1 \, 0 10000;
#X obj 1327 525 v \$0-volumen-s;
#X obj 17 9 cnv 19 700 48 empty empty Escena\ 3\ -\ Cartografias\ Miedo 21 24 0 36 #000000 #ffffff 0;
#X connect 12 0 14 0;
#X connect 12 0 26 0;
#X connect 14 0 15 0;
#X connect 16 0 29 0;
#X connect 19 0 31 0;
#X connect 20 0 28 0;
#X connect 22 0 30 0;
#X connect 26 0 25 0;
#X connect 27 0 26 1;
#X connect 28 0 44 0;
#X connect 29 0 47 0;
#X connect 30 0 50 0;
#X connect 31 0 53 0;
#X connect 35 0 36 0;
#X connect 36 0 61 0;
#X connect 38 0 23 0;
#X connect 39 0 21 0;
#X connect 40 0 17 0;
#X connect 41 0 12 0;
#X connect 42 0 12 0;
#X connect 43 0 12 0;
#X connect 44 0 45 0;
#X connect 45 0 46 0;
#X connect 46 0 39 0;
#X connect 47 0 48 0;
#X connect 48 0 49 0;
#X connect 49 0 40 0;
#X connect 50 0 51 0;
#X connect 51 0 52 0;
#X connect 52 0 38 0;
#X connect 53 0 54 0;
#X connect 54 0 55 0;
#X connect 56 0 91 0;
#X connect 57 0 58 0;
#X connect 58 0 60 0;
#X connect 60 0 37 0;
#X connect 61 0 57 0;
#X connect 73 0 12 0;
#X connect 74 0 75 0;
#X connect 74 1 76 0;
#X connect 75 0 78 0;
#X connect 76 0 77 0;
#X connect 77 0 78 0;
#X connect 80 0 12 0;
#X connect 81 0 82 0;
#X connect 82 0 83 0;
#X connect 82 1 84 0;
#X connect 83 0 74 0;
#X connect 84 0 75 0;
#X connect 90 0 12 0;
#X connect 91 0 92 0;
#X connect 93 0 94 0;
#X connect 96 0 97 0;
#X connect 105 0 114 0;
#X connect 106 0 116 0;
#X connect 107 0 121 0;
#X connect 114 0 115 0;
#X connect 114 1 107 0;
#X connect 115 0 108 0;
#X connect 116 0 108 0;
#X connect 121 0 106 0;
#X connect 122 0 126 0;
#X connect 124 0 123 0;
#X connect 125 0 124 0;
#X connect 126 0 125 0;
