#N canvas 13 16 1260 672 12;
#X declare -path ./abs;
#X obj 892 57 cnv 15 340 240 empty empty Microphone 12 20 0 18 #ffe3c6 #000000 0;
#X text 1272 106 Archivo > Preferencias \; > Editar preferencias > Preferencias de audio;
#X text 1272 156 Sistema de audio > standard (portaudio);
#X text 1271 197 Entrada/Salida: Windows WASHAPI: 4-USB Audio CODEC;
#X text 1272 66 Configuraciones de audio:;
#X text 1271 177 Velocidad de muestro: 44.1 kHz;
#X obj 914 115 tgl 19 0 \$0-rec-s \$0-rec-r REC 0 -10 0 12 #fcfcfc #fcfcfc #000000 0 1;
#X obj 915 156 vu 19 120 \$0-vu empty -1 -10 0 12 #404040 #000000 1 0;
#X text 1271 217 Retardo (mseg): 24 (subir a 40 o 80 si causa ruido);
#X text 972 104 Presionar el boton "Direct Monitor" \; para escuchar el microfono.;
#X obj 602 406 t b b;
#X msg 602 440 0;
#X obj 634 435 delay 10;
#X msg 634 459 1;
#X obj 634 483 s \$0-rec-r;
#X text 602 294 OSC Recording;
#X obj 602 323 r \$0-osc;
#X obj 602 347 route Rec Stop;
#X obj 602 381 route Rec;
#X obj 682 381 route Stop;
#X obj 984 195 bng 19 250 50 0 \$0-openRec-s empty openRec 0 -10 0 12 #c6feff #000000 #000000;
#X text 1034 194 lista de archivos;
#X text 1267 240 se guardan en documents > recordings > scene 3;
#X obj 17 9 cnv 19 700 48 empty empty Escena\ 3\ -\ Cartografias\ Miedo 21 24 0 36 #000000 #ffffff 0;
#X obj 15 59 cnv 19 170 195 empty empty empty 20 12 0 12 #ffe3c6 #404040 0;
#N canvas 7 10 1249 684 guts 0;
#X obj 193 214 tgl 19 1 empty empty empty 0 -10 0 12 #fcfcfc #000000 #000000 1 1;
#X obj 193 282 tabwrite~ \$0-scope;
#X obj 754 197 else/plate.rev~;
#X obj 836 145 loadbang;
#X obj 364 36 catch~ \$0-mono;
#X obj 363 170 *~ 0.5;
#X obj 363 194 else/drive~;
#X obj 362 282 dac~ 1;
#X obj 483 170 *~ 0.5;
#X obj 483 194 else/drive~;
#X obj 482 282 dac~ 2;
#X obj 754 250 throw~ \$0-left;
#X obj 866 250 throw~ \$0-right;
#X obj 328 61 catch~ \$0-left;
#X obj 482 61 catch~ \$0-right;
#X obj 754 226 *~ 1.5;
#X obj 866 226 *~ 1.5;
#N canvas 574 214 1280 709 scream 0;
#X obj 202 15 noise~;
#X obj 188 191 bng 19 250 50 0 empty empty empty 0 -10 0 12 #fcfcfc #000000 #000000;
#X obj 188 239 vline~;
#X obj 74 370 throw~ \$0-mono;
#X obj 237 131 *~ 0.5;
#X obj 203 37 pow~ 101;
#X obj 66 133 else/resonant~ 215 20;
#X obj 203 63 else/resonant~ 923 20;
#X obj 88 233 *~;
#X obj 188 263 pow~ 4;
#X obj 62 180 *~ 1;
#X obj 88 281 else/drive~;
#X obj 88 257 *~ 20;
#X obj 237 107 else/resonant~ 1423 20;
#X msg 188 215 1 500 \, 0 100 500;
#X msg 293 176 1 1 \, 0 1 500;
#X obj 75 318 *~ 1;
#X obj 331 434 *~ 1;
#X obj 305 617 throw~ \$0-mono;
#X obj 681 434 *~ 0.1;
#X obj 413 307 else/rand.f 100 700;
#X obj 331 458 *~ 10;
#X obj 930 89 bng 19 250 50 0 empty empty empty 0 -10 0 12 #fcfcfc #000000 #000000;
#X obj 930 113 t b b b;
#X obj 962 313 pack f f;
#X msg 962 337 1 \$1 \, 0 \$2 \$1;
#X obj 962 361 vline~;
#X obj 260 337 noise~;
#X obj 760 307 else/rand.f 1200 3000;
#X obj 579 307 else/rand.f 700 1200;
#X obj 329 513 *~;
#X obj 449 623 throw~ \$0-reverb;
#X obj 305 593 *~ 0.25;
#X obj 449 599 *~ 0.25;
#X obj 962 385 pow~ 4;
#X msg 1082 289 2 \$1;
#X obj 1082 313 pow;
#X obj 962 171 select 0;
#X msg 962 195 1;
#X obj 1013 194 - 1;
#X msg 1013 218 2 \$1;
#X obj 1013 242 pow;
#X obj 1013 266 * 50;
#X obj 962 147 random 7;
#X obj 1082 265 random 4;
#X obj 1082 337 * 200;
#X obj 755 557 else/db2lin;
#X obj 905 29 r \$0-surpriseType;
#X obj 905 53 sel 1;
#X obj 260 361 pow~ 51;
#X obj 547 206 t b b;
#X msg 795 241 2 \$1;
#X obj 795 265 pow;
#X obj 413 355 *;
#X obj 580 355 *;
#X obj 760 355 *;
#X obj 795 217 else/rand.f -2 2;
#X obj 329 489 else/drive~;
#X obj 501 434 *~ 0.2;
#X obj 334 411 else/resonant~ 1000 100;
#X obj 501 411 else/resonant~ 1000 100;
#X obj 681 409 else/resonant~ 1000 100;
#X obj 755 581 * 2;
#X obj 755 509 else/rand.i 3 9;
#X obj 755 533 - 30;
#X connect 0 0 5 0;
#X connect 1 0 14 0;
#X connect 2 0 9 0;
#X connect 4 0 10 0;
#X connect 5 0 6 0;
#X connect 5 0 7 0;
#X connect 5 0 13 0;
#X connect 6 0 10 0;
#X connect 7 0 10 0;
#X connect 8 0 12 0;
#X connect 9 0 8 1;
#X connect 10 0 8 0;
#X connect 11 0 16 0;
#X connect 12 0 11 0;
#X connect 13 0 4 0;
#X connect 14 0 2 0;
#X connect 15 0 2 0;
#X connect 16 0 3 0;
#X connect 17 0 21 0;
#X connect 19 0 21 0;
#X connect 20 0 53 0;
#X connect 21 0 57 0;
#X connect 22 0 23 0;
#X connect 23 0 50 0;
#X connect 23 0 63 0;
#X connect 23 1 43 0;
#X connect 23 2 44 0;
#X connect 24 0 25 0;
#X connect 25 0 26 0;
#X connect 26 0 34 0;
#X connect 27 0 49 0;
#X connect 28 0 55 0;
#X connect 29 0 54 0;
#X connect 30 0 32 0;
#X connect 30 0 33 0;
#X connect 32 0 18 0;
#X connect 33 0 31 0;
#X connect 34 0 30 1;
#X connect 35 0 36 0;
#X connect 36 0 45 0;
#X connect 37 0 38 0;
#X connect 37 1 39 0;
#X connect 38 0 24 0;
#X connect 39 0 40 0;
#X connect 40 0 41 0;
#X connect 41 0 42 0;
#X connect 42 0 24 0;
#X connect 43 0 37 0;
#X connect 44 0 35 0;
#X connect 45 0 24 1;
#X connect 46 0 32 1;
#X connect 46 0 62 0;
#X connect 47 0 48 0;
#X connect 48 0 22 0;
#X connect 49 0 59 0;
#X connect 49 0 60 0;
#X connect 49 0 61 0;
#X connect 50 0 20 0;
#X connect 50 0 29 0;
#X connect 50 0 28 0;
#X connect 50 1 56 0;
#X connect 51 0 52 0;
#X connect 52 0 55 1;
#X connect 52 0 54 1;
#X connect 52 0 53 1;
#X connect 53 0 59 1;
#X connect 54 0 60 1;
#X connect 55 0 61 1;
#X connect 56 0 51 0;
#X connect 57 0 30 0;
#X connect 58 0 21 0;
#X connect 59 0 17 0;
#X connect 60 0 58 0;
#X connect 61 0 19 0;
#X connect 62 0 33 1;
#X connect 63 0 64 0;
#X connect 64 0 46 0;
#X restore 33 385 pd scream;
#N canvas 9 16 934 956 aullido-de-viento 0;
#X obj 256 105 metro 100;
#X obj 256 134 t b b;
#X obj 177 439 makenote;
#X obj 276 354 else/rand.i 1 127;
#X obj 256 285 t b b b b;
#X obj 177 512 pack f f f f f;
#X obj 177 554 clone -s 1 noiseVoice~ 20;
#X obj 177 478 poly 20 1;
#X obj 177 817 throw~ \$0-mono;
#X obj 483 484 else/lowpass~ 200 0.4;
#X obj 178 786 *~ 1;
#X obj 347 105 else/rand.i 100 5000;
#X obj 316 483 else/rand.i 1000 4000;
#X obj 296 410 else/rand.i 1000 4000;
#X obj 307 804 throw~ \$0-reverb;
#X obj 307 775 *~ 1;
#X obj 178 644 clip~ -1 1;
#X obj 256 256 else/chance;
#X obj 484 -20 r \$0-fearIndexInt;
#X obj 484 28 -;
#X obj 484 52 * 1500;
#X obj 330 155 r \$0-fearIndexInt;
#X obj 450 587 clip~ 0 1;
#X msg 524 611 \$1 1000;
#X obj 524 635 line~;
#X obj 450 684 *~;
#X obj 178 673 *~;
#X obj 282 630 sig~ 1;
#X obj 282 654 -~;
#X obj 150 333 r \$0-fearIndexInt;
#X obj 150 381 + 48;
#X obj 150 357 * 24;
#X obj 450 611 *~ 0.5;
#X obj 484 406 else/pink~;
#X obj 659 325 r \$0-fearIndexInt;
#X obj 659 349 / 2;
#X msg 659 373 \$1 1000;
#X obj 659 397 line~;
#X obj 659 455 *~;
#X obj 484 435 *~;
#X obj 588 392 sig~ 1;
#X obj 588 416 -~;
#X obj 678 426 noise~;
#X obj 484 76 + 500;
#X obj 34 410 else/rand.f 30 60;
#X msg 484 4 3 \$1;
#X obj 256 76 r \$0-howls-tgl-s;
#X obj 109 554 outlet;
#X text 109 584 Outlet 1: envia a oscVideos;
#X obj 643 609 r \$0-fearIndexInt;
#X obj 643 633 select 0 1 2 3;
#X obj 643 691 else/db2lin;
#X msg 643 657 -6;
#X msg 683 657 -12;
#X obj 643 715 else/f2s~ 1000;
#X obj 178 733 *~;
#X obj 178 702 +~;
#X msg 761 657 -18;
#X obj 330 227 min 100;
#X msg 721 657 -12;
#X obj 500 690 r \$0-valence-s;
#X obj 500 714 / 9;
#X obj 178 757 else/pan2~;
#X obj 500 738 else/f2s~ 2000;
#X obj 330 203 + 30;
#X obj 330 179 * 16;
#X obj 524 539 r \$0-valence-s;
#X obj 524 563 / -9;
#X obj 524 587 clip 0 1;
#X floatatom 513 114 5 0 0 0 - - - 0;
#X connect 0 0 1 0;
#X connect 1 0 17 0;
#X connect 1 1 11 0;
#X connect 2 0 7 0;
#X connect 2 1 7 1;
#X connect 3 0 2 1;
#X connect 4 0 44 0;
#X connect 4 1 3 0;
#X connect 4 2 13 0;
#X connect 4 3 12 0;
#X connect 5 0 47 0;
#X connect 5 0 6 0;
#X connect 6 0 16 0;
#X connect 6 0 22 0;
#X connect 7 0 5 0;
#X connect 7 1 5 1;
#X connect 7 2 5 2;
#X connect 9 0 6 1;
#X connect 10 0 8 0;
#X connect 11 0 0 1;
#X connect 12 0 5 4;
#X connect 13 0 5 3;
#X connect 13 0 2 2;
#X connect 15 0 14 0;
#X connect 16 0 26 0;
#X connect 17 0 4 0;
#X connect 18 0 45 0;
#X connect 19 0 20 0;
#X connect 20 0 43 0;
#X connect 21 0 65 0;
#X connect 22 0 32 0;
#X connect 23 0 24 0;
#X connect 24 0 28 1;
#X connect 24 0 25 1;
#X connect 25 0 56 1;
#X connect 26 0 56 0;
#X connect 27 0 28 0;
#X connect 28 0 26 1;
#X connect 29 0 31 0;
#X connect 30 0 44 2;
#X connect 31 0 30 0;
#X connect 32 0 25 0;
#X connect 33 0 39 0;
#X connect 34 0 35 0;
#X connect 35 0 36 0;
#X connect 36 0 37 0;
#X connect 37 0 41 1;
#X connect 37 0 38 0;
#X connect 38 0 9 0;
#X connect 39 0 9 0;
#X connect 40 0 41 0;
#X connect 41 0 39 1;
#X connect 42 0 38 1;
#X connect 43 0 11 2;
#X connect 43 0 69 0;
#X connect 44 0 2 0;
#X connect 45 0 19 0;
#X connect 46 0 0 0;
#X connect 49 0 50 0;
#X connect 50 0 52 0;
#X connect 50 1 53 0;
#X connect 50 2 59 0;
#X connect 50 3 57 0;
#X connect 51 0 54 0;
#X connect 52 0 51 0;
#X connect 53 0 51 0;
#X connect 54 0 55 1;
#X connect 55 0 62 0;
#X connect 56 0 55 0;
#X connect 57 0 51 0;
#X connect 58 0 17 1;
#X connect 59 0 51 0;
#X connect 60 0 61 0;
#X connect 61 0 63 0;
#X connect 62 0 10 0;
#X connect 62 1 15 0;
#X connect 63 0 62 1;
#X connect 64 0 58 0;
#X connect 65 0 64 0;
#X connect 66 0 67 0;
#X connect 67 0 68 0;
#X connect 68 0 23 0;
#X restore 33 327 pd aullido-de-viento;
#X obj 754 116 catch~ \$0-reverb;
#N canvas 130 130 523 520 stinger 0;
#X obj 48 175 noise~;
#X obj 85 254 *~;
#X obj 131 107 bng 19 250 50 0 empty empty empty 0 -10 0 12 #fcfcfc #000000 #000000;
#X obj 123 191 vline~;
#X obj 170 310 vline~;
#X obj 195 381 *~;
#X msg 123 164 1 \, 0 100;
#X obj 123 215 *~;
#X obj 47 200 *~ 4;
#X obj 331 351 osc~ 40;
#X obj 250 258 delay 250;
#X msg 167 258 1 \, 0 10;
#X msg 250 282 1 \, 0 100;
#X obj 195 405 *~ 4;
#X connect 0 0 8 0;
#X connect 2 0 6 0;
#X connect 2 0 11 0;
#X connect 2 0 10 0;
#X connect 3 0 7 0;
#X connect 3 0 7 1;
#X connect 4 0 5 0;
#X connect 5 0 13 0;
#X connect 6 0 3 0;
#X connect 7 0 1 1;
#X connect 8 0 1 0;
#X connect 9 0 5 1;
#X connect 10 0 12 0;
#X connect 11 0 4 0;
#X connect 12 0 4 0;
#X restore 33 410 pd stinger;
#N canvas 208 208 487 503 insectos 0;
#X obj 244 422 throw~ \$0-left;
#X obj 29 333 clone insectos~ 20;
#X obj 259 168 loadbang;
#X msg 259 216 10 \$1;
#X obj 259 240 pow;
#X floatatom 259 264 5 0 0 0 - - - 0;
#X msg 259 287 all \$1;
#X obj 29 165 loadbang;
#X msg 29 213 10 \$1;
#X obj 29 237 pow;
#X floatatom 29 261 5 0 0 0 - - - 0;
#X msg 29 284 all \$1;
#X msg 29 188 5;
#X obj 280 346 *~ 1;
#X obj 245 315 clone insectos~ 10;
#X obj 54 427 throw~ \$0-right;
#X obj 68 376 *~ 1;
#X msg 259 191 5;
#X connect 1 0 16 0;
#X connect 2 0 17 0;
#X connect 3 0 4 0;
#X connect 4 0 5 0;
#X connect 5 0 6 0;
#X connect 6 0 14 0;
#X connect 7 0 12 0;
#X connect 8 0 9 0;
#X connect 9 0 10 0;
#X connect 10 0 11 0;
#X connect 11 0 1 0;
#X connect 12 0 8 0;
#X connect 14 0 13 0;
#X connect 17 0 3 0;
#X restore 33 435 pd insectos;
#N canvas 7 10 836 684 strings 0;
#X obj 194 192 metro 100;
#X obj 194 216 t b b;
#X obj 95 599 makenote;
#X obj 194 363 t b b b b;
#X obj 163 682 pack f f f f f;
#X obj 390 649 else/pink~;
#X obj 147 648 poly 20 1;
#X obj 234 570 else/rand.i 1000 4000;
#X obj 398 570 else/rand.i 1000 4000;
#X obj 194 935 throw~ \$0-reverb;
#X obj 194 334 else/chance;
#X obj 418 41 r \$0-fearIndexInt;
#X obj 268 233 r \$0-fearIndexInt;
#X obj 134 419 r \$0-fearIndexInt;
#X obj 134 467 + 48;
#X obj 18 495 else/rand.f 20 60;
#X obj 568 567 r \$0-fearIndexInt;
#X msg 568 615 \$1 1000;
#X obj 568 639 line~;
#X obj 568 697 *~;
#X obj 390 678 *~;
#X obj 494 630 sig~ 1;
#X obj 494 659 -~;
#X obj 587 668 noise~;
#X obj 568 591 / 3;
#X obj 194 163 r \$0-strings-tgl-s;
#X obj 121 531 else/rand.i 32 127;
#X obj 268 305 min 100;
#X msg 418 90 2 \$1;
#X obj 418 115 pow;
#X obj 418 140 * -500;
#X obj 281 194 else/rand.i 100 2000;
#X obj 76 390 r \$0-fearIndexInt;
#X obj 76 414 * 12;
#X obj 76 438 + 20;
#X obj 418 66 - 1;
#X obj 418 165 + 2100;
#X obj 390 715 +~;
#X text 244 550 // Ataque y Release;
#X text 151 511 // Velocidad MIDI;
#X obj 113 790 outlet;
#X text 194 143 GUI: String tgl;
#X text 113 810 Outlet 1: envia a oscPulsoColores;
#X obj 653 639 r \$0-fearIndexInt;
#X obj 653 663 select 0 1 2 3;
#X obj 653 721 else/db2lin;
#X msg 653 687 -6;
#X obj 195 764 *~;
#X obj 268 257 * 16;
#X msg 731 687 -9;
#X msg 693 687 -9;
#X obj 195 735 clone -s 1 strings~ 20 \$0;
#X obj 134 443 * 15;
#X obj 435 741 r \$0-valence-s;
#X obj 435 789 / 9;
#X obj 435 814 * -75;
#X obj 435 838 + 135;
#X obj 435 862 mtof;
#X obj 435 886 else/f2s~ 1000;
#X obj 195 906 else/lowpass~ 1000 0.7;
#X obj 435 765 clip 0 9;
#X obj 268 281 + 30;
#X msg 771 687 -21;
#X obj 653 745 else/f2s~ 500;
#X connect 0 0 1 0;
#X connect 1 0 10 0;
#X connect 1 1 31 0;
#X connect 2 0 6 0;
#X connect 2 1 6 1;
#X connect 3 0 15 0;
#X connect 3 1 26 0;
#X connect 3 2 7 0;
#X connect 3 3 8 0;
#X connect 4 0 40 0;
#X connect 4 0 51 0;
#X connect 5 0 20 0;
#X connect 6 0 4 0;
#X connect 6 1 4 1;
#X connect 6 2 4 2;
#X connect 7 0 4 3;
#X connect 7 0 2 2;
#X connect 8 0 4 4;
#X connect 10 0 3 0;
#X connect 11 0 35 0;
#X connect 12 0 48 0;
#X connect 13 0 52 0;
#X connect 14 0 15 2;
#X connect 15 0 2 0;
#X connect 16 0 24 0;
#X connect 17 0 18 0;
#X connect 18 0 22 1;
#X connect 18 0 19 0;
#X connect 19 0 37 1;
#X connect 20 0 37 0;
#X connect 21 0 22 0;
#X connect 22 0 20 1;
#X connect 23 0 19 1;
#X connect 24 0 17 0;
#X connect 25 0 0 0;
#X connect 26 0 2 1;
#X connect 27 0 10 1;
#X connect 28 0 29 0;
#X connect 29 0 30 0;
#X connect 30 0 36 0;
#X connect 31 0 0 1;
#X connect 32 0 33 0;
#X connect 33 0 34 0;
#X connect 34 0 15 1;
#X connect 35 0 28 0;
#X connect 36 0 31 2;
#X connect 37 0 51 1;
#X connect 43 0 44 0;
#X connect 44 0 46 0;
#X connect 44 1 50 0;
#X connect 44 2 49 0;
#X connect 44 3 62 0;
#X connect 45 0 63 0;
#X connect 46 0 45 0;
#X connect 47 0 59 0;
#X connect 48 0 61 0;
#X connect 49 0 45 0;
#X connect 50 0 45 0;
#X connect 51 0 47 0;
#X connect 52 0 14 0;
#X connect 53 0 60 0;
#X connect 54 0 55 0;
#X connect 55 0 56 0;
#X connect 56 0 57 0;
#X connect 57 0 58 0;
#X connect 58 0 59 1;
#X connect 59 0 9 0;
#X connect 60 0 54 0;
#X connect 61 0 27 0;
#X connect 62 0 45 0;
#X connect 63 0 47 1;
#X restore 33 273 pd strings;
#N canvas 0 0 1280 709 shepard 0;
#X obj 239 208 mod 384;
#X obj 239 256 t f f;
#X obj 239 232 / 384;
#X obj 529 184 + 192;
#X obj 239 184 + 96;
#X obj 809 184 + 288;
#X obj 506 145 t f f f;
#X obj 301 304 expr pow(1-abs($f1-0.5)*2 \, 2);
#X obj 239 280 expr pow(2 \, $f1*4)*110;
#X obj 506 92 metro 200;
#X obj 239 333 else/f2s~ 200;
#X obj 135 411 clip~ 0 1;
#X obj 239 304 * 10;
#X obj 35 320 noise~;
#X obj 976 332 r \$0-fearIndexInt;
#X obj 445 493 *~;
#X obj 445 628 *~ 0.2;
#X obj 135 387 else/resonant~ 1000 50;
#X obj 35 344 else/highpass~ 500 0.4;
#X obj 301 413 else/f2s~ 200;
#X obj 283 441 *~;
#X obj 506 116 else/count 0 384;
#X obj 506 39 loadbang;
#X msg 506 63 1;
#X obj 135 363 else/resonant~ 1000 50;
#X obj 529 208 mod 384;
#X obj 529 256 t f f;
#X obj 529 232 / 384;
#X obj 591 304 expr pow(1-abs($f1-0.5)*2 \, 2);
#X obj 529 280 expr pow(2 \, $f1*4)*110;
#X obj 529 333 else/f2s~ 200;
#X obj 425 411 clip~ 0 1;
#X obj 529 304 * 10;
#X obj 425 387 else/resonant~ 1000 50;
#X obj 591 413 else/f2s~ 200;
#X obj 573 441 *~;
#X obj 425 363 else/resonant~ 1000 50;
#X obj 809 208 mod 384;
#X obj 809 256 t f f;
#X obj 809 232 / 384;
#X obj 871 304 expr pow(1-abs($f1-0.5)*2 \, 2);
#X obj 809 280 expr pow(2 \, $f1*4)*110;
#X obj 809 333 else/f2s~ 200;
#X obj 705 411 clip~ 0 1;
#X obj 809 304 * 10;
#X obj 705 387 else/resonant~ 1000 50;
#X obj 871 413 else/f2s~ 200;
#X obj 853 441 *~;
#X obj 705 363 else/resonant~ 1000 50;
#X obj 585 628 *~ 0.2;
#X obj 976 356 select 0 1 2 3;
#X obj 976 488 else/db2lin;
#X obj 445 532 *~;
#X obj 117 450 r \$0-shepard-tgl-s;
#X obj 117 474 else/f2s~ 100;
#X obj 463 465 +~;
#X msg 976 386 -30;
#X obj 1114 395 * -3;
#X obj 976 414 else/pack2;
#X obj 976 438 +;
#X obj 976 462 - 30;
#X obj 1114 371 r \$0-valence-s;
#X msg 1066 386 -12;
#X msg 1006 386 -21;
#X msg 1036 386 -12;
#X obj 597 489 r \$0-valence-s;
#X obj 445 652 throw~ \$0-mono;
#X obj 585 652 throw~ \$0-reverb;
#X obj 445 557 else/pan2~;
#X obj 976 512 else/f2s~ 5000;
#X obj 597 537 else/f2s~ 5000;
#X obj 597 513 / 9;
#X connect 0 0 2 0;
#X connect 1 0 8 0;
#X connect 1 1 7 0;
#X connect 2 0 1 0;
#X connect 3 0 25 0;
#X connect 4 0 0 0;
#X connect 5 0 37 0;
#X connect 6 0 4 0;
#X connect 6 1 3 0;
#X connect 6 2 5 0;
#X connect 7 0 19 0;
#X connect 8 0 12 0;
#X connect 9 0 21 0;
#X connect 10 0 24 1;
#X connect 11 0 20 0;
#X connect 12 0 10 0;
#X connect 13 0 18 0;
#X connect 14 0 50 0;
#X connect 15 0 52 0;
#X connect 16 0 66 0;
#X connect 17 0 11 0;
#X connect 18 0 24 0;
#X connect 18 0 36 0;
#X connect 18 0 48 0;
#X connect 19 0 20 1;
#X connect 20 0 55 0;
#X connect 21 0 6 0;
#X connect 22 0 23 0;
#X connect 23 0 9 0;
#X connect 24 0 17 0;
#X connect 25 0 27 0;
#X connect 26 0 29 0;
#X connect 26 1 28 0;
#X connect 27 0 26 0;
#X connect 28 0 34 0;
#X connect 29 0 32 0;
#X connect 30 0 36 1;
#X connect 31 0 35 0;
#X connect 32 0 30 0;
#X connect 33 0 31 0;
#X connect 34 0 35 1;
#X connect 35 0 55 1;
#X connect 36 0 33 0;
#X connect 37 0 39 0;
#X connect 38 0 41 0;
#X connect 38 1 40 0;
#X connect 39 0 38 0;
#X connect 40 0 46 0;
#X connect 41 0 44 0;
#X connect 42 0 48 1;
#X connect 43 0 47 0;
#X connect 44 0 42 0;
#X connect 45 0 43 0;
#X connect 46 0 47 1;
#X connect 47 0 55 1;
#X connect 48 0 45 0;
#X connect 49 0 67 0;
#X connect 50 0 56 0;
#X connect 50 1 63 0;
#X connect 50 2 64 0;
#X connect 50 3 62 0;
#X connect 51 0 69 0;
#X connect 52 0 68 0;
#X connect 53 0 54 0;
#X connect 54 0 15 0;
#X connect 55 0 15 1;
#X connect 56 0 58 0;
#X connect 57 0 58 1;
#X connect 58 0 59 0;
#X connect 59 0 60 0;
#X connect 60 0 51 0;
#X connect 61 0 57 0;
#X connect 62 0 58 0;
#X connect 63 0 58 0;
#X connect 64 0 58 0;
#X connect 65 0 71 0;
#X connect 68 0 16 0;
#X connect 68 1 49 0;
#X connect 69 0 52 1;
#X connect 70 0 68 1;
#X connect 71 0 70 0;
#X restore 33 190 pd shepard;
#X obj 600 162 r \$0-volumen-s;
#X obj 600 186 pow 4;
#X msg 600 210 \$1 100;
#X obj 600 234 line~;
#X obj 482 253 *~;
#X obj 362 253 *~;
#X text 364 16 // Master Output;
#N canvas 3 10 836 680 bass 0;
#X obj 203 575 throw~ \$0-mono;
#X obj 287 255 osc~ 40;
#X obj 287 295 *~;
#X obj 388 270 line~;
#X obj 214 222 osc~ 39;
#X obj 388 163 r \$0-fearIndexInt;
#X obj 284 87 r \$0-fearIndexInt;
#X obj 284 111 select 1 2;
#X msg 388 246 \$1 1000;
#X obj 284 193 line~;
#X msg 284 169 \$1 2000;
#X obj 71 51 r \$0-fearIndexInt;
#X obj 69 179 line~;
#X msg 69 155 \$1 2000;
#X obj 71 75 select 0 1 2;
#X msg 71 99 39;
#X msg 284 145 46;
#X obj 534 223 tgl 19 0 empty empty empty 0 -10 0 12 #fcfcfc #000000 #000000 0 1;
#X obj 534 247 metro 100;
#X obj 534 300 t b f;
#X obj 534 350 pack f f;
#X obj 534 324 else/rand.f 0.1 1;
#X msg 534 374 \$1 \$2;
#X obj 534 398 line~;
#X msg 104 117 41;
#X obj 534 174 loadbang;
#X msg 534 198 1;
#X obj 222 127 line~;
#X obj 222 7 r \$0-fearIndexInt;
#X msg 222 103 \$1 1000;
#X obj 214 246 *~;
#X obj 222 79 + 0.5;
#X obj 222 55 * 0.5;
#X obj 222 31 / 3;
#X obj 222 482 r \$0-bass-tgl-s;
#X msg 144 117 43;
#X obj 388 187 / 3;
#X msg 324 145 52;
#X obj 202 409 *~;
#X obj 388 211 clip 0 0.5;
#X text 222 462 GUI: Bass tgl;
#X obj 222 506 else/f2s~ 100;
#X obj 203 535 *~;
#X obj 62 276 clip~ -1 0;
#X obj 158 296 clip~ -1 0;
#X obj 62 300 +~;
#X obj 203 326 +~;
#X obj 155 358 *~ 0.1;
#X obj 534 276 else/rand.i 10 250;
#X obj 202 433 *~ 0.5;
#X connect 1 0 2 0;
#X connect 2 0 46 1;
#X connect 2 0 44 0;
#X connect 3 0 2 1;
#X connect 4 0 30 0;
#X connect 5 0 36 0;
#X connect 6 0 7 0;
#X connect 7 0 16 0;
#X connect 7 1 37 0;
#X connect 8 0 3 0;
#X connect 9 0 1 0;
#X connect 10 0 9 0;
#X connect 11 0 14 0;
#X connect 12 0 4 0;
#X connect 13 0 12 0;
#X connect 14 0 15 0;
#X connect 14 1 24 0;
#X connect 14 2 35 0;
#X connect 15 0 13 0;
#X connect 16 0 10 0;
#X connect 17 0 18 0;
#X connect 18 0 48 0;
#X connect 19 0 21 0;
#X connect 19 1 20 1;
#X connect 20 0 22 0;
#X connect 21 0 20 0;
#X connect 22 0 23 0;
#X connect 23 0 38 1;
#X connect 24 0 13 0;
#X connect 25 0 26 0;
#X connect 26 0 17 0;
#X connect 27 0 30 1;
#X connect 28 0 33 0;
#X connect 29 0 27 0;
#X connect 30 0 46 0;
#X connect 30 0 43 0;
#X connect 31 0 29 0;
#X connect 32 0 31 0;
#X connect 33 0 32 0;
#X connect 34 0 41 0;
#X connect 35 0 13 0;
#X connect 36 0 39 0;
#X connect 37 0 10 0;
#X connect 38 0 49 0;
#X connect 39 0 8 0;
#X connect 41 0 42 1;
#X connect 42 0 0 0;
#X connect 43 0 45 0;
#X connect 44 0 45 1;
#X connect 45 0 47 0;
#X connect 46 0 38 0;
#X connect 47 0 38 0;
#X connect 48 0 18 1;
#X connect 48 0 19 0;
#X connect 49 0 42 0;
#X restore 33 215 pd bass;
#X obj 273 238 /~ 2;
#X text 754 96 // Reverb;
#X text 33 165 // sonidos;
#N canvas 3 10 836 680 heartRate 0;
#X obj 431 79 + 60;
#X msg 381 132 60000 \$1;
#X obj 381 156 /;
#X obj 263 151 loadbang;
#X msg 263 175 1;
#X obj 263 199 metro;
#X obj 95 412 else/lowpass~;
#X obj 95 283 else/pink~;
#X obj 313 325 vline~;
#X obj 139 373 mtof~;
#X obj 156 461 else/drive~;
#X obj 295 480 *~;
#X msg 263 286 1 1 \, 0 160 1;
#X obj 139 344 *~ 100;
#X obj 95 312 else/resonant~ 110 250;
#X obj 381 257 delay;
#X obj 413 225 / 4;
#X msg 35 263 clear;
#X msg 381 286 0.7 1 \, 0 160 1;
#X obj 313 366 sqrt~;
#X obj 492 578 throw~ \$0-reverb;
#X obj 431 55 * 60;
#X text 481 74 60 a 120 bpm;
#X obj 383 457 r \$0-heart-tgl-s;
#X text 383 437 GUI: Heart tgl;
#X obj 263 228 t b b;
#X obj 431 103 t f f;
#X obj 381 180 t f f;
#X obj 463 132 i;
#X msg 463 156 label heartRate\\\ =\\\ \$1\\\ BPM;
#X obj 463 180 s \$0-heartRate-r;
#X obj 365 509 *~;
#X obj 383 481 else/f2s~ 100;
#X obj 365 578 throw~ \$0-heart;
#X obj 333 400 s~ \$0-duck;
#X obj 183 388 sig~ 0.7;
#X obj 95 436 *~ 2;
#X obj 492 554 *~ 0.05;
#X obj 365 554 *~;
#X obj 559 368 r \$0-dominance-s;
#X obj 559 392 clip 0 9;
#X obj 559 416 / 9;
#X obj 559 488 else/db2lin;
#X obj 559 512 else/f2s~ 1000;
#X obj 559 440 * 9;
#X obj 559 464 - 15;
#X obj 431 31 r \$0-heartRate-s;
#X connect 0 0 26 0;
#X connect 1 0 2 0;
#X connect 2 0 27 0;
#X connect 3 0 4 0;
#X connect 4 0 5 0;
#X connect 5 0 17 0;
#X connect 5 0 25 0;
#X connect 6 0 36 0;
#X connect 7 0 14 0;
#X connect 8 0 19 0;
#X connect 8 0 13 0;
#X connect 9 0 6 1;
#X connect 10 0 11 0;
#X connect 11 0 31 0;
#X connect 12 0 8 0;
#X connect 13 0 9 0;
#X connect 14 0 6 0;
#X connect 15 0 18 0;
#X connect 16 0 15 1;
#X connect 17 0 6 0;
#X connect 17 0 14 0;
#X connect 18 0 8 0;
#X connect 19 0 11 1;
#X connect 19 0 34 0;
#X connect 21 0 0 0;
#X connect 23 0 32 0;
#X connect 25 0 12 0;
#X connect 25 1 15 0;
#X connect 26 0 1 0;
#X connect 26 1 28 0;
#X connect 27 0 5 1;
#X connect 27 1 16 0;
#X connect 28 0 29 0;
#X connect 29 0 30 0;
#X connect 31 0 37 0;
#X connect 31 0 38 0;
#X connect 32 0 31 1;
#X connect 35 0 6 2;
#X connect 36 0 10 0;
#X connect 37 0 20 0;
#X connect 38 0 33 0;
#X connect 39 0 40 0;
#X connect 40 0 41 0;
#X connect 41 0 44 0;
#X connect 42 0 43 0;
#X connect 43 0 38 1;
#X connect 44 0 45 0;
#X connect 45 0 42 0;
#X connect 46 0 21 0;
#X restore 33 239 pd heartRate;
#N canvas 7 10 836 684 fear-index-acum 0;
#X text 489 16 acum valence arousal dominance \; sin miedo 1 -1 1 \; poco miedo 0.33 -0.33 0.33 \; medio alto -0.33 0.33 -0.33 \; muy alto -1 1 -1 \;;
#X obj 493 120 text define -k \$0-fearVADs;
#A set nada 1 -1 1 \; poco 0.33 -0.33 0.33 \; medio -0.33 0.33 -0.33 \; alto -1 1 -1 \;;
#X obj 52 170 r \$0-fearIndex-s;
#X text 52 150 // Conversion de fearIndex a 3 niveles;
#X obj 492 194 text get \$0-fearVADs;
#X obj 492 218 unpack s f f f;
#X msg 492 348 label fearIndex\\\ =\\\ \$1;
#X obj 492 372 s \$0-fearIndex-r;
#X obj 523 257 +;
#X obj 563 257 f;
#X obj 643 257 +;
#X obj 683 257 f;
#X obj 763 257 +;
#X obj 803 257 f;
#X obj 52 199 t f f;
#X obj 84 228 s \$0-fearIndexInt_;
#X obj 492 170 r \$0-fearIndexInt_;
#X obj 44 311 random 2;
#X obj 44 335 * 2;
#X obj 44 359 - 1;
#X obj 12 228 t f b;
#X obj 26 398 +;
#X obj 26 422 s \$0-fearIndexInt;
#X obj 44 287 else/chance 20;
#X msg 139 369 0;
#X obj 563 310 s \$0-valence-r;
#X obj 683 310 s \$0-arrousal-r;
#X obj 803 310 s \$0-dominance-r;
#X obj 803 194 r \$0-reset;
#X msg 803 218 0;
#X obj 352 170 r \$0-rand-s;
#X obj 352 218 random 2;
#X obj 352 242 * 2;
#X obj 352 266 - 1;
#X obj 352 290 +;
#X obj 392 290 i;
#X text 154 287 [1];
#X text 54 64 [1] 20% de probabilidad de cambiar el nivel de miedo a uno arriba o abajo.;
#X text 352 150 // GUI: rand tgl;
#X obj 352 314 clip 1 3;
#X obj 352 338 s \$0-fearIndex-r;
#X obj 26 462 r \$0-fearIndexInt;
#X obj 26 486 text get \$0-fearVADs;
#X obj 26 510 unpack s f f f;
#X obj 26 559 s \$0-fearSound;
#X msg 26 535 label \$1;
#X obj 312 430 r \$0-fearIndexInt_;
#X obj 312 454 select 0 1 2 3;
#X obj 342 570 s \$0-fearIndex-r;
#X msg 252 483 #00ff00;
#X msg 342 546 color \$1;
#X msg 312 483 #ffff00;
#X msg 372 483 #ff7f00;
#X msg 432 483 #ff0000;
#X text 312 410 // Color;
#X obj 342 522 symbol;
#X obj 523 281 clip -9 9;
#X obj 643 281 clip -9 9;
#X obj 763 281 clip -9 9;
#X text 516 423 valencia positiva = miedo distante reverb;
#X text 516 443 valencia negativa = seco \, distorsionado \, subir de volumen a shepard's tone;
#X text 516 483 arrousal positivo = mayor posibilidad de saltos de volumen;
#X text 516 503 arrousal negativo = menor posibilidad de saltos de volumen;
#X text 515 533 dominance negativo = mayor Probabilidad de notas y probablidad de descontrol aleatorio en el varios parametros del sonido;
#X text 515 583 dominance positiva = sube el volumen del corazon;
#X obj 64 258 delay 5000;
#X obj 352 194 metro 10000;
#X connect 2 0 14 0;
#X connect 4 0 5 0;
#X connect 5 0 6 0;
#X connect 5 1 8 0;
#X connect 5 2 10 0;
#X connect 5 3 12 0;
#X connect 6 0 7 0;
#X connect 8 0 56 0;
#X connect 9 0 8 1;
#X connect 9 0 25 0;
#X connect 10 0 57 0;
#X connect 11 0 10 1;
#X connect 11 0 26 0;
#X connect 12 0 58 0;
#X connect 13 0 12 1;
#X connect 13 0 27 0;
#X connect 14 0 20 0;
#X connect 14 1 15 0;
#X connect 16 0 4 0;
#X connect 17 0 18 0;
#X connect 18 0 19 0;
#X connect 19 0 21 1;
#X connect 20 0 21 0;
#X connect 20 1 23 0;
#X connect 20 1 65 0;
#X connect 21 0 22 0;
#X connect 23 0 17 0;
#X connect 23 1 24 0;
#X connect 24 0 21 1;
#X connect 28 0 29 0;
#X connect 29 0 13 0;
#X connect 29 0 9 0;
#X connect 29 0 11 0;
#X connect 30 0 66 0;
#X connect 31 0 32 0;
#X connect 32 0 33 0;
#X connect 33 0 34 0;
#X connect 34 0 39 0;
#X connect 35 0 34 1;
#X connect 39 0 35 0;
#X connect 39 0 40 0;
#X connect 41 0 42 0;
#X connect 42 0 43 0;
#X connect 43 0 45 0;
#X connect 45 0 44 0;
#X connect 46 0 47 0;
#X connect 47 0 49 0;
#X connect 47 1 51 0;
#X connect 47 2 52 0;
#X connect 47 3 53 0;
#X connect 49 0 55 0;
#X connect 50 0 48 0;
#X connect 51 0 55 0;
#X connect 52 0 55 0;
#X connect 53 0 55 0;
#X connect 55 0 50 0;
#X connect 56 0 9 0;
#X connect 57 0 11 0;
#X connect 58 0 13 0;
#X connect 65 0 23 0;
#X connect 66 0 31 0;
#X restore 33 120 pd fear-index-acum;
#X obj 33 90 declare -path ./abs;
#N canvas -1334 31 934 956 oscVideos 0;
#X msg 323 548 disconnect;
#X obj 293 577 netsend -u -b;
#X obj 314 497 loadbang;
#X text 396 578 send as UDP \, binary;
#X msg 314 521 connect 10.12.181.191 5001;
#X floatatom 293 601 5 0 0 0 - - - 0;
#X obj 121 357 t b b;
#X obj 121 468 oscformat /TriggerSB;
#X obj 293 468 oscformat /BeatDuration;
#X msg 121 439 1;
#X msg 163 439 0;
#X obj 163 410 t b b;
#X obj 163 386 delay 50;
#N canvas -786 227 553 405 test 0;
#X obj 247 48 tgl 19 0 empty empty empty 0 -10 0 12 #fcfcfc #000000 #000000 0 1;
#X obj 113 169 t b b;
#X msg 113 217 1;
#X msg 155 217 0;
#X obj 247 130 t b b;
#X obj 113 251 oscformat /TriggerSB;
#X obj 279 241 oscformat /BeatDuration;
#X obj 279 295 outlet;
#X obj 155 193 delay 50;
#X obj 247 101 bng 19 250 50 0 empty empty empty 0 -10 0 12 #fcfcfc #000000 #000000;
#X text 319 217 Duracion del pulso en segundos;
#X text 23 297 Envia 1 y luego 0 despues de 50 ms;
#X obj 247 72 metro 2000;
#X msg 278 217 2;
#X connect 0 0 12 0;
#X connect 1 0 2 0;
#X connect 1 1 8 0;
#X connect 2 0 5 0;
#X connect 3 0 5 0;
#X connect 4 0 1 0;
#X connect 4 1 13 0;
#X connect 5 0 7 0;
#X connect 6 0 7 0;
#X connect 8 0 3 0;
#X connect 9 0 4 0;
#X connect 12 0 9 0;
#X connect 13 0 6 0;
#X restore 212 498 pd test;
#X text 340 601 Secondary Beat;
#X msg 293 429 0.5;
#X obj 121 296 bng 19 250 50 0 empty empty empty 0 -10 0 12 #000000 #ffffff #000000;
#X obj 261 320 t b b;
#X text 450 544 video blanco y negro;
#X obj 65 53 inlet;
#X obj 121 179 pipe;
#X obj 65 150 select 1;
#X msg 210 243 0;
#X obj 121 244 spigot 1;
#X obj 174 191 pipe 1000;
#X obj 121 267 t b b b;
#X msg 174 215 1;
#X obj 234 109 r \$0-fearIndexInt;
#X obj 234 133 select 1 2 3;
#X obj 65 77 unpack f f f f f;
#X text 65 33 Inlet 1: List (Voice \, Pitch \, Velocity \, Attack \, Release);
#X msg 234 162 4000;
#X msg 318 162 1000;
#X obj 65 126 > 0;
#X msg 274 162 2000;
#X connect 0 0 1 0;
#X connect 1 0 5 0;
#X connect 2 0 4 0;
#X connect 4 0 1 0;
#X connect 6 0 9 0;
#X connect 6 1 12 0;
#X connect 7 0 1 0;
#X connect 8 0 1 0;
#X connect 9 0 7 0;
#X connect 10 0 7 0;
#X connect 11 0 10 0;
#X connect 11 1 15 0;
#X connect 12 0 11 0;
#X connect 13 0 1 0;
#X connect 15 0 8 0;
#X connect 16 0 17 0;
#X connect 17 0 6 0;
#X connect 17 1 15 0;
#X connect 19 0 29 0;
#X connect 20 0 23 0;
#X connect 21 0 20 0;
#X connect 22 0 23 1;
#X connect 23 0 25 0;
#X connect 24 0 26 0;
#X connect 25 0 16 0;
#X connect 25 1 24 0;
#X connect 25 2 22 0;
#X connect 26 0 23 1;
#X connect 27 0 28 0;
#X connect 28 0 31 0;
#X connect 28 1 34 0;
#X connect 28 2 32 0;
#X connect 29 2 33 0;
#X connect 29 3 20 1;
#X connect 31 0 24 1;
#X connect 32 0 24 1;
#X connect 33 0 21 0;
#X connect 34 0 24 1;
#X restore 33 351 pd oscVideos;
#N canvas 400 0 934 761 oscPulsoColores 0;
#X obj 37 47 inlet;
#X obj 93 173 pipe;
#X obj 37 144 select 1;
#X msg 284 535 disconnect;
#X obj 254 564 netsend -u -b;
#X obj 274 479 loadbang;
#X text 357 565 send as UDP \, binary;
#X msg 274 508 connect 10.12.181.191 5000;
#X floatatom 254 588 5 0 0 0 - - - 0;
#X text 432 475 colores;
#X obj 93 292 bng 19 250 50 0 empty empty empty 0 -10 0 12 #000000 #ffffff #000000;
#X obj 93 353 t b b;
#X obj 254 450 oscformat /BeatDuration;
#X msg 93 411 1;
#X msg 135 411 0;
#X obj 135 382 delay 50;
#X obj 93 321 t b b;
#X obj 93 450 oscformat /TriggerPB;
#X text 297 586 Primary Beat;
#N canvas -786 227 553 405 test 0;
#X obj 247 18 tgl 19 0 empty empty empty 0 -10 0 12 #fcfcfc #000000 #000000 0 1;
#X obj 113 169 t b b;
#X msg 113 217 1;
#X msg 155 217 0;
#X obj 247 100 t b b;
#X obj 113 251 oscformat /TriggerSB;
#X obj 279 241 oscformat /BeatDuration;
#X obj 279 295 outlet;
#X obj 155 193 delay 50;
#X obj 247 71 bng 19 250 50 0 empty empty empty 0 -10 0 12 #fcfcfc #000000 #000000;
#X text 23 297 Envia 1 y luego 0 despues de 50 ms;
#X text 319 217 Duracion del pulso en BPM;
#X msg 283 146 60000 \$1;
#X obj 283 170 /;
#X obj 249 42 metro 100;
#X msg 300 129 100;
#X obj 283 194 * 2;
#X connect 0 0 14 0;
#X connect 1 0 2 0;
#X connect 1 1 8 0;
#X connect 2 0 5 0;
#X connect 3 0 5 0;
#X connect 4 0 1 0;
#X connect 4 1 15 0;
#X connect 5 0 7 0;
#X connect 6 0 7 0;
#X connect 8 0 3 0;
#X connect 9 0 4 0;
#X connect 12 0 13 0;
#X connect 13 0 16 0;
#X connect 14 0 9 0;
#X connect 15 0 12 0;
#X connect 16 0 6 0;
#X restore 184 480 pd test;
#X obj 254 421 f;
#X obj 272 344 r \$0-fearIndexInt;
#X obj 272 368 * 120;
#X obj 272 392 max 60;
#X msg 182 237 0;
#X obj 93 238 spigot 1;
#X obj 146 185 pipe 1000;
#X obj 93 261 t b b b;
#X msg 146 209 1;
#X obj 206 103 r \$0-fearIndexInt;
#X obj 206 127 select 1 2 3;
#X msg 206 156 1000;
#X msg 280 156 24;
#X obj 37 120 > 32;
#X obj 37 71 unpack f f f f f;
#X text 37 27 Inlet 1: List (Voice \, Pitch \, Velocity \, Attack \, Release);
#X msg 246 156 500;
#X connect 0 0 34 0;
#X connect 1 0 25 0;
#X connect 2 0 1 0;
#X connect 3 0 4 0;
#X connect 4 0 8 0;
#X connect 5 0 7 0;
#X connect 7 0 4 0;
#X connect 10 0 16 0;
#X connect 11 0 13 0;
#X connect 11 1 15 0;
#X connect 12 0 4 0;
#X connect 13 0 17 0;
#X connect 14 0 17 0;
#X connect 15 0 14 0;
#X connect 16 0 11 0;
#X connect 16 1 20 0;
#X connect 17 0 4 0;
#X connect 19 0 4 0;
#X connect 20 0 12 0;
#X connect 21 0 22 0;
#X connect 22 0 23 0;
#X connect 23 0 20 1;
#X connect 24 0 25 1;
#X connect 25 0 27 0;
#X connect 26 0 28 0;
#X connect 27 0 10 0;
#X connect 27 1 26 0;
#X connect 27 2 24 0;
#X connect 28 0 25 1;
#X connect 29 0 30 0;
#X connect 30 0 31 0;
#X connect 30 1 36 0;
#X connect 30 2 32 0;
#X connect 31 0 26 1;
#X connect 32 0 26 1;
#X connect 33 0 2 0;
#X connect 34 2 33 0;
#X connect 34 3 1 1;
#X connect 36 0 26 1;
#X restore 33 297 pd oscPulsoColores;
#X obj 602 279 r \$0-fadeOut-s;
#X obj 602 384 s \$0-volumen-r;
#X obj 602 360 line;
#X msg 602 336 \$1 \, 0 10000;
#X obj 602 307 v \$0-volumen-s;
#X obj 193 238 metro 100;
#X obj 754 158 hip~ 50;
#X obj 363 218 hip~ 3;
#X obj 483 218 hip~ 3;
#X text 600 142 GUI: volumen slider;
#X obj 193 120 loadbang;
#X msg 193 144 dsp 1;
#X obj 193 168 send pd;
#X text 602 259 GUI: fadeOut bang;
#N canvas 9 16 934 956 oneShots 0;
#X obj 44 388 else/rand.u;
#X obj 44 148 metro;
#X obj 425 436 i;
#X obj 455 436 + 1;
#X obj 344 550 list prepend;
#X obj 118 359 r \$0-sizeOneShots;
#X obj 425 460 % 10;
#X obj 344 579 clone oneShots 10 \$0;
#X obj 344 663 throw~ \$0-left;
#X obj 464 663 throw~ \$0-right;
#X obj 44 222 else/chance 50;
#X obj 94 148 else/rand.i 1000 10000;
#X obj 44 47 > 0;
#X obj 245 95 * -5000;
#X obj 245 119 + 20000;
#X obj 44 23 r \$0-fearIndex-s;
#X obj 484 632 throw~ \$0-reverb;
#X obj 379 107 * 15;
#X obj 379 78 r \$0-fearIndexInt;
#X obj 245 70 r \$0-fearIndexInt;
#X obj 84 52 r \$0-samples-tgl-s;
#X obj 84 76 t b f;
#X obj 44 95 &&;
#X obj 414 603 hip~ 20;
#X obj 484 603 hip~ 20;
#X obj 344 603 hip~ 20;
#X obj 379 155 pack2 f f;
#X obj 379 179 +;
#X obj 509 112 / -9;
#X obj 509 136 * 10;
#X obj 379 203 min 100;
#X obj 44 119 change -1;
#X obj 379 131 + 25;
#X obj 509 64 r \$0-dominance-s;
#X obj 509 88 clip -9 0;
#X obj 44 417 t f b b;
#X obj 44 531 pack f f;
#X obj 299 340 t b b;
#X obj 363 421 + 12;
#X obj 97 502 else/db2lin;
#X obj 331 368 t f f;
#X obj 251 369 delay 1;
#X obj 331 392 * 6;
#X obj 299 292 r \$0-surpriseType;
#X obj 97 454 else/rand.i 0 12;
#X obj 299 316 sel 0;
#X obj 97 478 - 12;
#X obj 363 397 * 12;
#X connect 0 0 35 0;
#X connect 1 0 10 0;
#X connect 1 0 11 0;
#X connect 2 0 6 0;
#X connect 3 0 2 1;
#X connect 4 0 7 0;
#X connect 5 0 0 1;
#X connect 6 0 3 0;
#X connect 6 0 4 1;
#X connect 7 0 25 0;
#X connect 7 1 23 0;
#X connect 7 2 24 0;
#X connect 10 0 0 0;
#X connect 11 0 1 1;
#X connect 12 0 22 0;
#X connect 13 0 14 0;
#X connect 14 0 11 2;
#X connect 15 0 12 0;
#X connect 17 0 32 0;
#X connect 18 0 17 0;
#X connect 19 0 13 0;
#X connect 20 0 21 0;
#X connect 21 0 22 0;
#X connect 21 1 22 1;
#X connect 22 0 31 0;
#X connect 23 0 9 0;
#X connect 24 0 16 0;
#X connect 25 0 8 0;
#X connect 26 0 27 0;
#X connect 27 0 30 0;
#X connect 28 0 29 0;
#X connect 29 0 26 1;
#X connect 30 0 10 1;
#X connect 31 0 1 0;
#X connect 32 0 26 0;
#X connect 33 0 34 0;
#X connect 34 0 28 0;
#X connect 35 0 36 0;
#X connect 35 1 44 0;
#X connect 35 2 2 0;
#X connect 36 0 4 0;
#X connect 37 0 41 0;
#X connect 37 1 40 0;
#X connect 38 0 44 2;
#X connect 39 0 36 1;
#X connect 40 0 42 0;
#X connect 40 1 47 0;
#X connect 41 0 0 0;
#X connect 42 0 44 1;
#X connect 43 0 45 0;
#X connect 44 0 46 0;
#X connect 45 0 37 0;
#X connect 46 0 39 0;
#X connect 47 0 38 0;
#X restore 33 465 pd oneShots;
#N canvas 3 10 836 680 load-oneShots 0;
#X obj 115 331 file glob;
#X obj 115 355 t a b;
#X obj 215 403 i;
#X obj 255 403 + 1;
#X msg 233 353 0;
#X msg 306 244 clear;
#X obj 65 394 list split 1;
#X obj 178 93 loadbang;
#X obj 210 215 t b b b;
#X obj 178 146 t b b;
#X msg 178 117 bang;
#X obj 118 466 file size;
#X obj 118 490 / 1000;
#X obj 118 514 * 250;
#X obj 118 538 / 44.1;
#X obj 65 418 t s s;
#X obj 65 567 pack s f;
#X text 354 244 [1];
#X text 85 312 [2];
#X text 32 504 [3];
#X text 175 584 [4];
#X text 15 202 [5];
#X text 304 334 [1] Clear text file;
#X text 304 354 [2] Get names of .wav files inside patch folder;
#X text 304 374 [3] Convert file size to duration in milliseconds;
#X text 304 394 [4] Write file path and duration on text file;
#X text 304 414 [5] Send number of files as a variable;
#X obj 306 273 text define -k \$0-oneShots;
#A set;
#X msg 115 307 symbol \$1/one-shots/*.wav;
#X obj 53 186 text size \$0-oneShots;
#X obj 53 209 s \$0-sizeOneShots;
#X obj 170 608 text set \$0-oneShots;
#X msg 115 254 0;
#X obj 115 278 text get \$0-folderPath;
#X obj 314 479 text define -k \$0-folderPath;
#A set C:/Users/Usuario/Documents/Cartografias-del-miedo-sonido/sonido \;;
#X obj 248 74 openpanel 1;
#X obj 280 128 text set \$0-folderPath;
#X obj 248 50 r \$0-loadSamples;
#X text 310 514 C:/Users/Neurohumanities/OneDrive - Instituto Tecnologico y de Estudios Superiores de Monterrey/cartografiasMiedo/Sonido \;;
#X text 248 30 // GUI: loadSamples bang;
#X obj 248 98 t b s;
#X connect 0 0 1 0;
#X connect 1 0 6 0;
#X connect 1 1 2 0;
#X connect 2 0 3 0;
#X connect 2 0 31 1;
#X connect 3 0 2 1;
#X connect 4 0 2 1;
#X connect 5 0 27 0;
#X connect 6 0 15 0;
#X connect 7 0 10 0;
#X connect 8 0 32 0;
#X connect 8 1 4 0;
#X connect 8 2 5 0;
#X connect 9 0 29 0;
#X connect 9 1 8 0;
#X connect 10 0 9 0;
#X connect 11 0 12 0;
#X connect 12 0 13 0;
#X connect 13 0 14 0;
#X connect 14 0 16 1;
#X connect 15 0 16 0;
#X connect 15 1 11 0;
#X connect 16 0 31 0;
#X connect 28 0 0 0;
#X connect 29 0 30 0;
#X connect 32 0 33 0;
#X connect 33 0 28 0;
#X connect 35 0 40 0;
#X connect 37 0 35 0;
#X connect 40 0 10 0;
#X connect 40 1 36 0;
#X restore 33 490 pd load-oneShots;
#N canvas 0 0 1292 769 electricidad 0;
#X obj 235 302 vline~;
#X obj 108 333 noise~;
#X obj 235 374 mtof~;
#X obj 213 503 *~;
#X obj 416 399 vline~;
#X obj 439 247 bng 19 250 50 0 empty empty empty 0 -10 0 12 #fcfcfc #000000 #000000;
#X obj 415 303 else/rand.f 0.5 1;
#X obj 439 271 t b b;
#X obj 415 347 pack f f;
#X obj 416 423 *~;
#X obj 108 428 else/highpass~ 1000 0.7;
#X msg 414 376 \$1 10 \, 0 \$2 10;
#X obj 579 284 else/rand.i 1000 5000;
#X obj 235 398 clip~ 20 20000;
#X obj 213 532 throw~ \$0-mono;
#X obj 104 390 *~ 2;
#X msg 234 275 0 \, 1 600;
#X obj 234 326 *~ 50;
#X obj 130 223 sig~ 10;
#X obj 130 247 pow~;
#X obj 109 357 pow~;
#X obj 224 155 sig~ 1;
#X obj 224 179 -~;
#X obj 198 228 +~ 2.5;
#X obj 197 205 *~ 2;
#X obj 235 350 +~ 60;
#X obj 857 327 vline~;
#X obj 730 358 noise~;
#X obj 857 399 mtof~;
#X obj 835 528 *~;
#X obj 1038 424 vline~;
#X obj 1061 272 bng 19 250 50 0 empty empty empty 0 -10 0 12 #fcfcfc #000000 #000000;
#X obj 1037 328 else/rand.f 0.5 1;
#X obj 1061 296 t b b;
#X obj 1037 372 pack f f;
#X obj 1038 448 *~;
#X obj 730 453 else/highpass~ 1000 0.7;
#X msg 1036 401 \$1 10 \, 0 \$2 10;
#X obj 1201 309 else/rand.i 1000 5000;
#X obj 857 423 clip~ 20 20000;
#X obj 835 557 throw~ \$0-mono;
#X obj 726 415 *~ 2;
#X msg 856 300 0 \, 1 600;
#X obj 856 351 *~ 50;
#X obj 752 248 sig~ 10;
#X obj 752 272 pow~;
#X obj 731 382 pow~;
#X obj 846 180 sig~ 1;
#X obj 846 204 -~;
#X obj 820 253 +~ 2.5;
#X obj 819 230 *~ 2;
#X obj 857 375 +~ 60;
#X obj 573 94 inlet;
#X obj 573 118 tgl 19 0 empty empty empty 0 -10 0 12 #fcfcfc #000000 #000000 0 1;
#X obj 573 142 sel 0 1;
#X connect 0 0 17 0;
#X connect 0 0 22 1;
#X connect 1 0 20 0;
#X connect 2 0 13 0;
#X connect 3 0 14 0;
#X connect 4 0 9 0;
#X connect 4 0 9 1;
#X connect 5 0 7 0;
#X connect 6 0 8 0;
#X connect 7 0 6 0;
#X connect 7 0 16 0;
#X connect 7 1 12 0;
#X connect 8 0 11 0;
#X connect 9 0 3 1;
#X connect 10 0 3 0;
#X connect 11 0 4 0;
#X connect 12 0 8 1;
#X connect 13 0 10 1;
#X connect 15 0 10 0;
#X connect 16 0 0 0;
#X connect 17 0 25 0;
#X connect 18 0 19 0;
#X connect 19 0 20 1;
#X connect 20 0 15 0;
#X connect 21 0 22 0;
#X connect 22 0 24 0;
#X connect 23 0 19 1;
#X connect 24 0 23 0;
#X connect 25 0 2 0;
#X connect 26 0 43 0;
#X connect 26 0 48 1;
#X connect 27 0 46 0;
#X connect 28 0 39 0;
#X connect 29 0 40 0;
#X connect 30 0 35 0;
#X connect 30 0 35 1;
#X connect 31 0 33 0;
#X connect 32 0 34 0;
#X connect 33 0 32 0;
#X connect 33 0 42 0;
#X connect 33 1 38 0;
#X connect 34 0 37 0;
#X connect 35 0 29 1;
#X connect 36 0 29 0;
#X connect 37 0 30 0;
#X connect 38 0 34 1;
#X connect 39 0 36 1;
#X connect 41 0 36 0;
#X connect 42 0 26 0;
#X connect 43 0 51 0;
#X connect 44 0 45 0;
#X connect 45 0 46 1;
#X connect 46 0 41 0;
#X connect 47 0 48 0;
#X connect 48 0 50 0;
#X connect 49 0 45 1;
#X connect 50 0 49 0;
#X connect 51 0 28 0;
#X connect 52 0 53 0;
#X connect 53 0 54 0;
#X connect 54 0 5 0;
#X connect 54 1 31 0;
#X restore 33 520 pd electricidad;
#X msg 836 169 wet 1 \, cutoff 0.5 \, damp 0.6 \, pre 20 \, size 0.8;
#X obj 363 141 *~;
#X obj 608 61 -~;
#X obj 670 -31 r~ \$0-duck;
#X obj 199 62 catch~ \$0-heart;
#X obj 483 141 *~;
#X obj 670 -6 lop~ 20;
#X obj 670 43 *~ 0.1;
#N canvas 9 16 1347 956 rumble 0;
#X obj 21 235 else/pink~;
#X obj 129 130 metro 10000;
#X obj 129 154 else/count 0 1;
#X obj 161 205 s \$0-xFade;
#X obj 260 221 r \$0-xFade;
#X obj 260 293 else/f2s~ 5000;
#X obj 22 312 else/xfade~;
#X obj 21 589 throw~ \$0-mono;
#X obj 129 178 t f f;
#X obj 260 245 * 2;
#X obj 260 269 - 1;
#X obj 129 234 select 0 1;
#X obj 379 140 tgl 19 0 empty empty empty 0 -10 0 12 #fcfcfc #000000 #000000 0 1;
#X obj 379 164 metro 100;
#X obj 379 217 t b f;
#X obj 379 268 pack f f;
#X msg 379 292 \$1 \$2;
#X obj 379 316 line~;
#X obj 379 91 loadbang;
#X msg 379 115 1;
#X obj 379 242 else/rand.f 0.1 1;
#X obj 379 193 else/rand.i 250 1000;
#X obj 22 520 *~;
#N canvas 156 156 882 329 rumble 0;
#X obj 301 216 +~;
#X obj 301 240 outlet~;
#X obj 392 61 inlet;
#X obj 40 110 inlet~;
#X obj 602 100 else/rand.f 120 240;
#X obj 182 100 else/rand.f 30 60;
#X obj 393 101 else/rand.f 30 120;
#X obj 530 177 *~ 0.05;
#X obj 320 177 *~ 0.1;
#X obj 110 129 else/resonant~ 100 20;
#X obj 110 153 else/resonant~ 100 20;
#X obj 320 129 else/resonant~ 100 20;
#X obj 320 153 else/resonant~ 100 20;
#X obj 530 129 else/resonant~ 100 20;
#X obj 530 153 else/resonant~ 100 20;
#X connect 0 0 1 0;
#X connect 2 0 4 0;
#X connect 2 0 5 0;
#X connect 2 0 6 0;
#X connect 3 0 9 0;
#X connect 3 0 11 0;
#X connect 3 0 13 0;
#X connect 4 0 13 1;
#X connect 4 0 14 1;
#X connect 5 0 9 1;
#X connect 5 0 10 1;
#X connect 6 0 11 1;
#X connect 6 0 12 1;
#X connect 7 0 0 1;
#X connect 8 0 0 1;
#X connect 9 0 10 0;
#X connect 10 0 0 0;
#X connect 11 0 12 0;
#X connect 12 0 8 0;
#X connect 13 0 14 0;
#X connect 14 0 7 0;
#X restore 22 273 pd rumble;
#X obj 22 336 *~;
#X obj 90 477 r \$0-rumble-tgl-s;
#X obj 90 501 else/f2s~ 100;
#X obj 131 589 throw~ \$0-reverb;
#N canvas 156 156 882 329 rumble 0;
#X obj 301 216 +~;
#X obj 301 240 outlet~;
#X obj 392 61 inlet;
#X obj 40 110 inlet~;
#X obj 602 100 else/rand.f 120 240;
#X obj 182 100 else/rand.f 30 60;
#X obj 393 101 else/rand.f 30 120;
#X obj 320 177 *~ 0.1;
#X obj 530 177 *~ 0.05;
#X obj 110 129 else/resonant~ 100 20;
#X obj 110 153 else/resonant~ 100 20;
#X obj 320 129 else/resonant~ 100 20;
#X obj 320 153 else/resonant~ 100 20;
#X obj 530 129 else/resonant~ 100 20;
#X obj 530 153 else/resonant~ 100 20;
#X connect 0 0 1 0;
#X connect 2 0 4 0;
#X connect 2 0 5 0;
#X connect 2 0 6 0;
#X connect 3 0 9 0;
#X connect 3 0 11 0;
#X connect 3 0 13 0;
#X connect 4 0 13 1;
#X connect 4 0 14 1;
#X connect 5 0 9 1;
#X connect 5 0 10 1;
#X connect 6 0 11 1;
#X connect 6 0 12 1;
#X connect 7 0 0 1;
#X connect 8 0 0 1;
#X connect 9 0 10 0;
#X connect 10 0 0 0;
#X connect 11 0 12 0;
#X connect 12 0 7 0;
#X connect 13 0 14 0;
#X connect 14 0 8 0;
#X restore 102 273 pd rumble;
#X obj 129 82 loadbang;
#X msg 129 106 1;
#X obj 22 360 *~ 10;
#X obj 522 248 r \$0-fearIndexInt;
#X obj 522 272 / 3;
#X obj 522 320 -;
#X msg 522 296 1 \$1;
#X obj 522 344 * 0.8;
#X obj 522 368 + 0.2;
#X obj 522 392 else/f2s~ 100;
#X obj 22 410 *~;
#X obj 22 386 lop~ 200;
#X connect 0 0 23 0;
#X connect 0 0 28 0;
#X connect 1 0 2 0;
#X connect 2 0 8 0;
#X connect 4 0 9 0;
#X connect 5 0 6 2;
#X connect 6 0 24 0;
#X connect 8 0 11 0;
#X connect 8 1 3 0;
#X connect 9 0 10 0;
#X connect 10 0 5 0;
#X connect 11 0 23 1;
#X connect 11 1 28 1;
#X connect 12 0 13 0;
#X connect 13 0 21 0;
#X connect 14 0 20 0;
#X connect 14 1 15 1;
#X connect 15 0 16 0;
#X connect 16 0 17 0;
#X connect 17 0 24 1;
#X connect 18 0 19 0;
#X connect 19 0 12 0;
#X connect 20 0 15 0;
#X connect 21 0 13 1;
#X connect 21 0 14 0;
#X connect 22 0 7 0;
#X connect 22 0 27 0;
#X connect 23 0 6 0;
#X connect 24 0 31 0;
#X connect 25 0 26 0;
#X connect 26 0 22 1;
#X connect 28 0 6 1;
#X connect 29 0 30 0;
#X connect 30 0 1 0;
#X connect 31 0 40 0;
#X connect 32 0 33 0;
#X connect 33 0 35 0;
#X connect 34 0 36 0;
#X connect 35 0 34 0;
#X connect 36 0 37 0;
#X connect 37 0 38 0;
#X connect 38 0 39 1;
#X connect 39 0 22 0;
#X connect 40 0 39 0;
#X restore 33 544 pd rumble;
#X obj 926 617 s \$0-surprise;
#X obj 746 377 loadbang;
#X msg 746 401 1;
#X obj 1010 355 r \$0-arrousal-s;
#X obj 1010 379 / 9;
#X obj 1010 403 + 1;
#X obj 1010 427 / 2;
#X msg 926 588 1;
#X msg 965 588 0;
#X obj 746 425 metro 2000;
#X obj 926 529 t b b;
#X obj 836 425 else/rand.i 1000 2000;
#X obj 965 559 delay 500;
#X obj 666 520 r \$0-surprise;
#X obj 666 568 random 2;
#X obj 666 592 s \$0-surpriseType;
#X obj 926 504 chance 0;
#X obj 666 544 select 1;
#X obj 1010 475 + 5;
#X obj 1010 451 * 20;
#X obj 246 428 loadbang;
#X msg 246 452 0;
#X obj 246 476 s \$0-fearIndex-r;
#X obj 930 19 adc~ 1;
#X obj 909 70 env~;
#X obj 909 94 - 100;
#X obj 909 118 s \$0-vu;
#N canvas 235 144 919 578 recording 0;
#X obj 62 59 r \$0-rec-s;
#X obj 115 162 else/datetime;
#X msg 115 191 \$1h\$2m\$3s;
#X msg 189 191 \$1y\$2m\$3d\$4;
#X obj 43 491 writesf~;
#X obj 62 83 select 0 1;
#X msg 63 431 stop;
#X obj 688 27 r \$0-rec-s;
#X msg 688 80 color \$1 \$1;
#X obj 688 104 s \$0-rec-r;
#X obj 688 51 * 13;
#X obj 138 405 text define scene3-latest;
#X obj 161 340 text set scene3-latest;
#X obj 115 244 t l b l;
#X obj 161 311 list;
#X msg 138 376 write ../scene3-latest.txt;
#X obj 44 10 inlet~;
#X obj 438 184 i;
#X obj 478 184 + 1;
#X obj 115 122 t b b;
#X obj 115 220 list prepend;
#X obj 374 352 r \$0-openRec-s;
#X msg 374 376 click;
#X msg 161 273 ../recordings/1-\$2-recording.wav;
#X msg 115 434 open ../recordings/\$1-\$2-recording.wav \, start;
#X connect 0 0 5 0;
#X connect 1 0 2 0;
#X connect 1 1 3 0;
#X connect 2 0 20 0;
#X connect 3 0 20 1;
#X connect 5 0 6 0;
#X connect 5 1 19 0;
#X connect 6 0 4 0;
#X connect 7 0 10 0;
#X connect 8 0 9 0;
#X connect 10 0 8 0;
#X connect 13 0 24 0;
#X connect 13 1 15 0;
#X connect 13 2 23 0;
#X connect 14 0 12 0;
#X connect 15 0 11 0;
#X connect 16 0 4 0;
#X connect 17 0 18 0;
#X connect 17 0 12 1;
#X connect 18 0 17 1;
#X connect 19 0 1 0;
#X connect 19 1 17 0;
#X connect 20 0 13 0;
#X connect 21 0 22 0;
#X connect 22 0 11 0;
#X connect 23 0 14 0;
#X connect 24 0 4 0;
#X restore 974 119 pd recording;
#X obj 762 74 hip~ 100;
#X obj 762 50 hip~ 300;
#X obj 762 26 *~ 0.2;
#X obj 608 37 sig~ 0.5;
#X connect 0 0 45 0;
#X connect 2 0 15 0;
#X connect 2 1 16 0;
#X connect 3 0 57 0;
#X connect 4 0 58 0;
#X connect 4 0 62 0;
#X connect 5 0 6 0;
#X connect 6 0 47 0;
#X connect 8 0 9 0;
#X connect 9 0 48 0;
#X connect 13 0 58 0;
#X connect 14 0 62 0;
#X connect 15 0 11 0;
#X connect 16 0 12 0;
#X connect 18 0 38 0;
#X connect 19 0 46 0;
#X connect 22 0 39 0;
#X connect 24 0 25 0;
#X connect 25 0 26 0;
#X connect 26 0 27 0;
#X connect 27 0 28 1;
#X connect 27 0 29 1;
#X connect 28 0 10 0;
#X connect 29 0 7 0;
#X connect 32 0 1 0;
#X connect 40 0 44 0;
#X connect 42 0 41 0;
#X connect 43 0 42 0;
#X connect 44 0 43 0;
#X connect 45 0 1 0;
#X connect 46 0 2 0;
#X connect 47 0 29 0;
#X connect 47 0 32 0;
#X connect 48 0 28 0;
#X connect 48 0 32 0;
#X connect 50 0 51 0;
#X connect 51 0 52 0;
#X connect 57 0 2 0;
#X connect 58 0 5 0;
#X connect 59 0 58 1;
#X connect 59 0 62 1;
#X connect 60 0 63 0;
#X connect 61 0 5 0;
#X connect 61 0 8 0;
#X connect 62 0 8 0;
#X connect 63 0 64 0;
#X connect 64 0 59 1;
#X connect 67 0 68 0;
#X connect 68 0 75 0;
#X connect 69 0 70 0;
#X connect 70 0 71 0;
#X connect 71 0 72 0;
#X connect 72 0 85 0;
#X connect 73 0 66 0;
#X connect 74 0 66 0;
#X connect 75 0 77 0;
#X connect 75 0 82 0;
#X connect 76 0 73 0;
#X connect 76 1 78 0;
#X connect 77 0 75 1;
#X connect 78 0 74 0;
#X connect 79 0 83 0;
#X connect 80 0 81 0;
#X connect 82 0 76 0;
#X connect 83 0 80 0;
#X connect 84 0 82 1;
#X connect 85 0 84 0;
#X connect 86 0 87 0;
#X connect 87 0 88 0;
#X connect 89 0 90 0;
#X connect 89 0 93 0;
#X connect 89 0 96 0;
#X connect 90 0 91 0;
#X connect 91 0 92 0;
#X connect 94 0 2 0;
#X connect 95 0 94 0;
#X connect 96 0 95 0;
#X connect 97 0 59 0;
#X restore 26 263 pd guts;
#X obj 187 59 cnv 19 200 195 empty empty empty 20 12 0 12 #ffc7c6 #404040 0;
#X obj 389 59 cnv 19 500 195 empty empty empty 20 12 0 12 #bbbbbb #404040 0;
#N canvas 0 22 450 278 (subpatch) 0;
#X array \$0-scope 441 float 1;
#A 0 -0.0383806 -0.0387731 -0.0392433 -0.0396852 -0.0400599 -0.0404845 -0.0409207 -0.041185 -0.0413256 -0.0415689 -0.0418719 -0.0421115 -0.0424261 -0.0428944 -0.0434404 -0.0439053 -0.0442616 -0.0446803 -0.0452655 -0.0459387 -0.0465727 -0.0471405 -0.0475752 -0.0479025 -0.0482162 -0.0486011 -0.04906 -0.0495559 -0.0500756 -0.0506023 -0.0511233 -0.0516181 -0.0521081 -0.0525541 -0.053016 -0.0535137 -0.053996 -0.0544798 -0.0549104 -0.0552674 -0.0556261 -0.0560364 -0.0564382 -0.0567909 -0.0571712 -0.0576033 -0.0580948 -0.0585544 -0.0589369 -0.0592994 -0.0596673 -0.060042 -0.0603808 -0.0607511 -0.0612089 -0.0616714 -0.062096 -0.0624731 -0.0628023 -0.0630714 -0.0632849 -0.0635069 -0.0637841 -0.0641773 -0.0645809 -0.064871 -0.065094 -0.0653708 -0.065713 -0.0661169 -0.0665554 -0.0669208 -0.0672447 -0.0675961 -0.0679612 -0.0682735 -0.0684815 -0.0685966 -0.0687022 -0.0688701 -0.0691304 -0.0694635 -0.069775 -0.0700144 -0.0702944 -0.0706078 -0.0708319 -0.0709617 -0.0710369 -0.0710889 -0.0710896 -0.0710604 -0.0711173 -0.0712897 -0.0714682 -0.0716386 -0.071841 -0.0720573 -0.0722273 -0.072318 -0.0723683 -0.0724396 -0.0724897 -0.0724988 -0.0725286 -0.0725686 -0.0725448 -0.0725096 -0.0725238 -0.0725071 -0.0724225 -0.0723209 -0.0722648 -0.0721858 -0.0720311 -0.07176 -0.0714313 -0.07111 -0.0707952 -0.0705426 -0.070366 -0.0702275 -0.0700669 -0.0698808 -0.0696489 -0.0693253 -0.0689491 -0.0685424 -0.0681101 -0.0677333 -0.0674279 -0.06713 -0.0667734 -0.0664782 -0.0663268 -0.0661949 -0.0659639 -0.0656146 -0.065194 -0.0646439 -0.0640027 -0.0633749 -0.062824 -0.0623641 -0.0619823 -0.0617028 -0.0614636 -0.0611948 -0.0607832 -0.0602919 -0.0598272 -0.0593239 -0.0587997 -0.0583302 -0.0578861 -0.0574174 -0.056969 -0.0565566 -0.0561286 -0.0556508 -0.0551885 -0.0547625 -0.0543166 -0.0537758 -0.0531457 -0.0525399 -0.0520019 -0.0514279 -0.0507938 -0.0502345 -0.0497122 -0.0491139 -0.0485227 -0.0479928 -0.0474799 -0.0469047 -0.0463023 -0.0457917 -0.0453565 -0.0448935 -0.0443684 -0.0439069 -0.0435087 -0.0430143 -0.0424337 -0.0419399 -0.041552 -0.0412042 -0.0408302 -0.0404115 -0.0399859 -0.0395727 -0.0391491 -0.0387022 -0.0383257 -0.0380561 -0.0377888 -0.0375611 -0.0374083 -0.0372675 -0.0370812 -0.036872 -0.0367377 -0.0366662 -0.0366379 -0.0366145 -0.0365248 -0.0363915 -0.0363353 -0.0363313 -0.0363642 -0.0364828 -0.0365477 -0.0365742 -0.036746 -0.0370042 -0.0371837 -0.0373448 -0.037617 -0.0379515 -0.0381541 -0.0382983 -0.038565 -0.0389381 -0.0393221 -0.0397435 -0.0402894 -0.0408357 -0.041235 -0.0415735 -0.0420283 -0.0424685 -0.0428423 -0.0432907 -0.0438303 -0.0443419 -0.0448834 -0.0455296 -0.0460664 -0.0464836 -0.0469436 -0.0474599 -0.0478938 -0.0482709 -0.0486885 -0.0491331 -0.0495721 -0.0499914 -0.0504834 -0.0511167 -0.0517513 -0.0522702 -0.0527329 -0.0531972 -0.0536406 -0.0540298 -0.054405 -0.0548386 -0.0552591 -0.0555973 -0.0559782 -0.0563928 -0.056746 -0.057089 -0.0574893 -0.0579007 -0.0582568 -0.058617 -0.058971 -0.0592198 -0.0593485 -0.0594653 -0.0596901 -0.0599523 -0.0601545 -0.0603795 -0.060717 -0.0610831 -0.0612996 -0.0613282 -0.0613363 -0.0613739 -0.0613368 -0.0612738 -0.0612576 -0.0611961 -0.0610073 -0.0607995 -0.0606846 -0.0606626 -0.0606646 -0.0606855 -0.0606913 -0.0606374 -0.0605172 -0.0603375 -0.0600977 -0.0598312 -0.0595695 -0.0593102 -0.0590589 -0.0587791 -0.0584373 -0.0580149 -0.0575748 -0.057243 -0.0569651 -0.0565837 -0.0560731 -0.0555425 -0.0550295 -0.0544522 -0.0538563 -0.0533252 -0.0528409 -0.052336 -0.0517916 -0.0512528 -0.0507566 -0.0501802 -0.0495161 -0.0488163 -0.0480397 -0.0471982 -0.0463682 -0.0456736 -0.0450052 -0.0442043 -0.0433686 -0.0425705 -0.0417987 -0.0410784 -0.0404219 -0.039795 -0.0391595 -0.0385302 -0.0379219 -0.0371882 -0.036281 -0.0353842 -0.0345061 -0.0336356 -0.0328752 -0.0321882 -0.0314664 -0.0307323 -0.0300186 -0.0293569 -0.0287023 -0.0279624 -0.0272283 -0.0265632 -0.0258944 -0.0251692 -0.024456 -0.0237023 -0.0228165 -0.0218583 -0.0209458 -0.0201144 -0.0192873 -0.0184559 -0.0176883 -0.016997 -0.0164149 -0.0159129 -0.0153518 -0.0146677 -0.0139068 -0.0131131 -0.0122697 -0.0114612 -0.0107909 -0.0102479 -0.00977021 -0.00930873 -0.00891495 -0.00859125 -0.0082561 -0.0078914 -0.0075615 -0.00724495 -0.00687881 -0.00651554 -0.00618707 -0.00591485 -0.00569079 -0.00546768 -0.00525172 -0.00500381 -0.00473255 -0.00450515 -0.00433829 -0.00423532 -0.00418383 -0.00407037 -0.00382056 -0.0035369 -0.00326897 -0.00301821 -0.00287853 -0.00284087 -0.00276363 -0.00264826 -0.002705 -0.00292811 -0.00311451 -0.00315885 -0.00316505 -0.00314931 -0.00303108 -0.00298961 -0.00308448 -0.00308924 -0.00294098 -0.0027479 -0.0026988 -0.00285993 -0.00300582 -0.0029939 -0.00290379 -0.00277174 -0.00261299 -0.00254148 -0.00255578 -0.00261346 -0.00266733 -0.00264969 -0.0025882 -0.0025143 -0.00243087 -0.00239655 -0.0024795 -0.00260583 -0.00269069 -0.00274123 -0.00275934 -0.00274218 -0.00272216 -0.00268259 -0.00261823;
#X coords 0 1 440 -1 200 101 1 0 0;
#X restore 678 81 graph;
#X obj 39 223 hsl 101 19 0 1 0 0 \$0-pressure-s \$0-pressure-r pressure -2 -10 0 12 #499bde #ffffff #000000 0 1;
#X obj 39 183 hsl 101 19 0 1 0 1 \$0-heartRate-s \$0-heartRate-r heartRate\ =\ 81\ BPM -2 -10 0 12 #499bde #ffffff #000000 3613 1;
#X obj 39 143 hsl 101 19 0 1 0 0 \$0-electricity-s \$0-electricity-r electricity -2 -10 0 12 #499bde #ffffff #000000 0 1;
#X obj 39 103 hsl 101 19 0 1 0 0 \$0-temperature-s \$0-temperature-r temperature -2 -10 0 12 #499bde #ffffff #000000 0 1;
#X obj 681 214 hsl 101 19 0 1 0 1 \$0-volumen-s \$0-volumen-r Volumen -2 -10 0 12 #000000 #ffffff #000000 8500 1;
#X obj 272 112 tgl 19 1 \$0-bass-tgl-s \$0-bass-tgl-r empty -30 10 0 12 #feffc6 #000000 #000000 1 1;
#X text 205 113 bass;
#X obj 272 137 tgl 19 1 \$0-howls-tgl-s \$0-howls-tgl-r empty -30 10 0 12 #feffc6 #000000 #000000 1 1;
#X text 205 138 howls;
#X obj 272 162 tgl 19 1 \$0-strings-tgl-s \$0-strings-tgl-r empty -30 10 0 12 #feffc6 #000000 #000000 1 1;
#X text 205 163 strings;
#X obj 798 214 bng 19 250 50 0 \$0-fadeOut-s empty fadeOut 0 -10 0 12 #ff0400 #000000 #000000;
#X obj 272 87 tgl 19 1 \$0-heart-tgl-s \$0-heart-tgl-r empty -30 10 0 12 #feffc6 #000000 #000000 1 1;
#X text 205 88 heart;
#X obj 395 154 nbx 5 19 -9 9 0 0 \$0-valence-s \$0-valence-r Valence 0 -10 0 12 #000000 #ffffff #000000 0 256;
#X obj 535 154 nbx 5 19 -9 9 0 0 \$0-dominance-s \$0-dominance-r Dominance 0 -10 0 12 #000000 #ffffff #000000 0 256;
#X obj 526 84 tgl 19 0 \$0-rand-s \$0-rand-r rand 0 -10 0 12 #000000 #ffffff #000000 0 1;
#X obj 465 154 nbx 5 19 -9 9 0 0 \$0-arrousal-s \$0-arrousal-r Arrousal 0 -10 0 12 #000000 #ffffff #000000 0 256;
#X obj 615 154 bng 19 250 50 0 \$0-reset empty Reset 0 -10 0 12 #ff0400 #000000 #000000;
#X obj 396 84 hradio 19 1 0 4 \$0-fearIndex-s \$0-fearIndex-r fearIndex\ =\ nada 0 -10 0 12 #00ff00 #000000 #000000 0;
#X obj 302 212 bng 19 250 50 0 \$0-loadSamples empty loadSamples 0 -10 0 12 #ff0400 #000000 #000000;
#X obj 272 187 tgl 19 1 \$0-shepard-tgl-s \$0-shepard-tgl-r empty -30 10 0 12 #feffc6 #000000 #000000 1 1;
#X text 205 188 shepard;
#X obj 272 212 tgl 19 1 \$0-samples-tgl-s \$0-samples-tgl-r empty -30 10 0 12 #feffc6 #000000 #000000 1 1;
#X text 205 213 samples;
#X text 392 114 VAD accumulation ;
#X text 205 63 Sound Switches ;
#X obj 566 84 nbx 3 19 -1e+37 1e+37 0 0 empty \$0-fearSound nada 0 -10 0 12 #000000 #ffffff #000000 0 256;
#X obj 272 237 tgl 19 1 \$0-rumble-tgl-s \$0-rumble-tgl-r empty -30 10 0 12 #feffc6 #000000 #000000 1 1;
#X text 205 238 rumble;
#X obj 395 204 tgl 19 0 empty \$0-surprise Surprise 0 -10 0 12 #000000 #ffffff #000000 0 1;
#X obj 328 347 route emotion-ID;
#X obj 328 443 s \$0-fearIndex-r;
#X obj 468 347 route heartRate;
#X obj 468 371 + 1;
#X obj 468 395 / 2;
#X obj 468 419 change -1;
#X obj 328 419 i;
#X obj 25 391 oscparse;
#X obj 25 503 list trim;
#X obj 25 527 send \$0-osc;
#X obj 44 474 print OSC:;
#X obj 44 450 spigot;
#X obj 83 420 tgl 19 0 empty empty Print 22 11 0 12 #00ff04 #000000 #000000 0 1;
#X obj 65 362 netreceive -u -b 9011;
#X obj 55 333 netreceive -u -b 6001;
#X obj 328 323 r \$0-osc;
#X obj 468 323 r \$0-osc;
#X text 328 303 // Fear Index;
#X text 468 303 // Heart Rate;
#X obj 468 443 s \$0-heartRate-r;
#X text 159 389 OSC Ports \; 5004 = Rec/Stop \; 6001 = Biometrics \; 9011 = Fear Index \;;
#X obj 25 303 netreceive -u -b 5004;
#X obj 328 371 * 1;
#X obj 328 395 + 0;
#X connect 10 0 11 0;
#X connect 10 1 12 0;
#X connect 11 0 14 0;
#X connect 12 0 13 0;
#X connect 13 0 14 0;
#X connect 16 0 17 0;
#X connect 17 0 18 0;
#X connect 17 1 19 0;
#X connect 18 0 10 0;
#X connect 19 0 11 0;
#X connect 60 0 82 0;
#X connect 62 0 63 0;
#X connect 63 0 64 0;
#X connect 64 0 65 0;
#X connect 65 0 79 0;
#X connect 66 0 61 0;
#X connect 67 0 68 0;
#X connect 67 0 71 0;
#X connect 68 0 69 0;
#X connect 71 0 70 0;
#X connect 72 0 71 1;
#X connect 73 0 67 0;
#X connect 74 0 67 0;
#X connect 75 0 60 0;
#X connect 76 0 62 0;
#X connect 81 0 67 0;
#X connect 82 0 83 0;
#X connect 83 0 66 0;
