#N canvas 9 16 1123 956 12;
#X obj 19 435 catch~ \$0-left;
#X obj 19 653 else/drive~;
#X obj 19 677 hip~ 3;
#X obj 19 725 dac~ 1;
#X obj 129 653 else/drive~;
#X obj 129 677 hip~ 3;
#X obj 129 435 catch~ \$0-right;
#X obj 159 549 else/plate.rev~;
#X obj 190 492 loadbang;
#X msg 190 516 wet 1 \, size 0.8;
#X obj 129 725 dac~ 2;
#X obj 236 682 - 100;
#X obj 236 706 s \$0-leftVU;
#X obj 678 624 vu 21 120 \$0-leftVU Left -1 -10 0 12 #000000 #000000 1 0;
#X obj 356 682 - 100;
#X obj 356 706 s \$0-rightVU;
#X obj 738 624 vu 21 120 \$0-leftVU Right -1 -10 0 12 #000000 #000000 1 0;
#X obj 236 658 env~ 8192;
#X obj 356 658 env~ 8192;
#X obj 344 268 else/rand.u;
#X obj 344 104 tgl 19 0 empty empty empty 0 -10 0 12 #fcfcfc #000000 #000000 0 1;
#X obj 344 128 metro;
#X obj 344 297 t f b;
#X obj 425 326 i;
#X obj 455 326 + 1;
#X obj 344 379 list prepend;
#N canvas 3 10 836 680 load-ambiences 0;
#X obj 115 281 file glob;
#X obj 115 305 t a b;
#X obj 215 353 i;
#X obj 255 353 + 1;
#X msg 233 303 0;
#X msg 276 194 clear;
#X obj 65 344 list split 1;
#X obj 178 43 loadbang;
#X obj 210 165 t b b b;
#X obj 178 96 t b b;
#X msg 178 67 bang;
#X obj 118 416 file size;
#X obj 118 440 / 1000;
#X obj 118 464 * 250;
#X obj 118 488 / 44.1;
#X obj 65 368 t s s;
#X obj 65 517 pack s f;
#X text 324 194 [1];
#X text 85 262 [2];
#X text 32 454 [3];
#X text 172 534 [4];
#X text 15 152 [5];
#X text 304 284 [1] Clear text file;
#X text 304 304 [2] Get names of .wav files inside patch folder;
#X text 304 324 [3] Convert file size to duration in milliseconds;
#X text 304 344 [4] Write file path and duration on text file;
#X text 304 364 [5] Send number of files as a variable;
#X obj 276 223 text define -k \$0-ambiences;
#A set C:/Users/Neurohumanities/OneDrive\ -\ Instituto\ Tecnologico\ y\ de\ Estudios\ Superiores\ de\ Monterrey/cartografiasMiedo/Sonido/ambiences/01-intro/137109__klankbeeld__horror-ambience-16.wav 69389.9 \; C:/Users/Neurohumanities/OneDrive\ -\ Instituto\ Tecnologico\ y\ de\ Estudios\ Superiores\ de\ Monterrey/cartografiasMiedo/Sonido/ambiences/01-intro/170354__klankbeeld__horror-ambience-17.wav 113035 \; C:/Users/Neurohumanities/OneDrive\ -\ Instituto\ Tecnologico\ y\ de\ Estudios\ Superiores\ de\ Monterrey/cartografiasMiedo/Sonido/ambiences/01-intro/170460__klankbeeld__horror-ambience-22.wav 166339 \; C:/Users/Neurohumanities/OneDrive\ -\ Instituto\ Tecnologico\ y\ de\ Estudios\ Superiores\ de\ Monterrey/cartografiasMiedo/Sonido/ambiences/01-intro/172036__klankbeeld__horror-ambience-26.wav 95316.4 \; C:/Users/Neurohumanities/OneDrive\ -\ Instituto\ Tecnologico\ y\ de\ Estudios\ Superiores\ de\ Monterrey/cartografiasMiedo/Sonido/ambiences/01-intro/201837__klankbeeld__horror-ambience-63-130525_13-wah-wah.wav 147866 \; C:/Users/Neurohumanities/OneDrive\ -\ Instituto\ Tecnologico\ y\ de\ Estudios\ Superiores\ de\ Monterrey/cartografiasMiedo/Sonido/ambiences/01-intro/203738__klankbeeld__horror-ambience-67.wav 114978 \; C:/Users/Neurohumanities/OneDrive\ -\ Instituto\ Tecnologico\ y\ de\ Estudios\ Superiores\ de\ Monterrey/cartografiasMiedo/Sonido/ambiences/01-intro/213146__klankbeeld__horror-ambience-73-130525_13.wav 129500 \;;
#X obj 167 558 text set \$0-ambiences;
#X obj 53 135 text size \$0-ambiences;
#X obj 53 159 s \$0-sizeAmbiences;
#X msg 115 257 symbol \$1/ambiences/01-intro/*.wav;
#X obj 323 107 text define -k \$0-soundPath;
#A set C:/Users/Neurohumanities/OneDrive\ -\ Instituto\ Tecnologico\ y\ de\ Estudios\ Superiores\ de\ Monterrey/cartografiasMiedo/Sonido \;;
#X obj 115 228 text get \$0-soundPath;
#X msg 115 204 0;
#X connect 0 0 1 0;
#X connect 1 0 6 0;
#X connect 1 1 2 0;
#X connect 2 0 3 0;
#X connect 2 0 28 1;
#X connect 3 0 2 1;
#X connect 4 0 2 1;
#X connect 5 0 27 0;
#X connect 6 0 15 0;
#X connect 7 0 10 0;
#X connect 8 0 34 0;
#X connect 8 1 4 0;
#X connect 8 2 5 0;
#X connect 9 0 29 0;
#X connect 9 1 8 0;
#X connect 10 0 9 0;
#X connect 11 0 12 0;
#X connect 12 0 13 0;
#X connect 13 0 14 0;
#X connect 14 0 16 1;
#X connect 15 0 16 0;
#X connect 15 1 11 0;
#X connect 16 0 28 0;
#X connect 29 0 30 0;
#X connect 31 0 0 0;
#X connect 33 0 31 0;
#X connect 34 0 33 0;
#X restore 19 345 pd load-ambiences;
#N canvas 651 72 934 956 play-ambiences 0;
#X obj 312 55 bng 19 250 50 0 empty empty empty 0 -10 0 12 #00ff04 #000000 #000000;
#X obj 172 168 else/rand.u;
#X obj 172 232 list prepend;
#X obj 344 203 else/count 0 1;
#X obj 172 261 route 0 1;
#X obj 22 820 throw~ \$0-left;
#X obj 351 820 throw~ \$0-right;
#X obj 312 89 t b b;
#X obj 312 25 r \$0-next;
#X obj 22 493 snake~ in;
#X obj 22 522 *~;
#X obj 132 474 sig~ 1;
#X obj 132 504 -~;
#X obj 22 551 snake~ out;
#X obj 89 372 delay;
#X obj 89 396 s \$0-next;
#X obj 344 227 s \$0-xfade;
#X obj 198 428 r \$0-xfade;
#X obj 198 476 line~;
#X obj 121 348 - 10000;
#X obj 22 454 readsf~ 2;
#X obj 22 300 unpack s f;
#X msg 22 425 open \$1 \, start;
#X msg 198 451 \$1 9000;
#X obj 89 324 t b f;
#X obj 320 493 snake~ in;
#X obj 302 522 *~;
#X obj 302 551 snake~ out;
#X obj 387 372 delay;
#X obj 387 396 s \$0-next;
#X obj 419 348 - 10000;
#X obj 320 454 readsf~ 2;
#X obj 320 300 unpack s f;
#X msg 320 425 open \$1 \, start;
#X obj 387 324 t b f;
#X obj 176 36 t b f;
#X text 134 24 [1];
#X text 454 204 [2];
#X text 394 44 [1] Receive the number of files and randomly play files in an unrepeated sequence (sort of like shuffle playlist).;
#X text 104 294 [3];
#X text 204 404 [2];
#X text 394 124 [3] Use the duration float to play the other file and crossfade to it 10 seconds before the current one ends.;
#X text 394 84 [2] Switch between playing the file in one slot and another \, then crossfade in 9 seconds between the two.;
#X obj 172 192 text get \$0-ambiences;
#X obj 176 12 r \$0-sizeAmbiences;
#X obj 22 595 +~;
#X obj 352 595 +~;
#X obj 214 851 throw~ \$0-reverb;
#X obj 213 804 +~;
#X obj 527 434 r \$0-etapa-s;
#X msg 527 458 2 \$1;
#X obj 527 482 pow;
#X obj 527 554 + 100;
#X obj 527 578 dbtorms;
#X obj 527 530 - 20;
#X msg 527 602 \$1 5000;
#X obj 527 626 line~;
#X obj 352 644 *~;
#X obj 21 643 *~;
#X obj 527 506 * 2;
#X obj 214 827 *~ 0.25;
#X connect 0 0 7 0;
#X connect 1 0 43 0;
#X connect 2 0 4 0;
#X connect 3 0 2 1;
#X connect 3 0 16 0;
#X connect 4 0 21 0;
#X connect 4 1 32 0;
#X connect 7 0 1 0;
#X connect 7 1 3 0;
#X connect 8 0 0 0;
#X connect 9 0 10 0;
#X connect 10 0 13 0;
#X connect 11 0 12 0;
#X connect 12 0 10 1;
#X connect 13 0 45 0;
#X connect 13 1 46 0;
#X connect 14 0 15 0;
#X connect 17 0 23 0;
#X connect 18 0 12 1;
#X connect 18 0 26 0;
#X connect 19 0 14 1;
#X connect 20 0 9 0;
#X connect 20 1 9 1;
#X connect 21 0 22 0;
#X connect 21 1 24 0;
#X connect 22 0 20 0;
#X connect 23 0 18 0;
#X connect 24 0 14 0;
#X connect 24 1 19 0;
#X connect 25 0 26 1;
#X connect 26 0 27 0;
#X connect 27 0 45 1;
#X connect 27 1 46 1;
#X connect 28 0 29 0;
#X connect 30 0 28 1;
#X connect 31 0 25 0;
#X connect 31 1 25 1;
#X connect 32 0 33 0;
#X connect 32 1 34 0;
#X connect 33 0 31 0;
#X connect 34 0 28 0;
#X connect 34 1 30 0;
#X connect 35 0 0 0;
#X connect 35 1 1 1;
#X connect 43 0 2 0;
#X connect 44 0 35 0;
#X connect 45 0 58 0;
#X connect 46 0 57 0;
#X connect 48 0 60 0;
#X connect 49 0 50 0;
#X connect 50 0 51 0;
#X connect 51 0 59 0;
#X connect 52 0 53 0;
#X connect 53 0 55 0;
#X connect 54 0 52 0;
#X connect 55 0 56 0;
#X connect 56 0 57 1;
#X connect 56 0 58 1;
#X connect 57 0 6 0;
#X connect 57 0 48 1;
#X connect 58 0 5 0;
#X connect 58 0 48 0;
#X connect 59 0 54 0;
#X connect 60 0 47 0;
#X restore 19 369 pd play-ambiences;
#N canvas 3 10 836 680 load-oneShots 0;
#X obj 115 281 file glob;
#X obj 115 233 pdcontrol;
#X msg 115 209 dir;
#X obj 115 305 t a b;
#X obj 215 353 i;
#X obj 255 353 + 1;
#X msg 233 303 0;
#X msg 256 194 clear;
#X obj 65 344 list split 1;
#X obj 178 43 loadbang;
#X obj 210 165 t b b b;
#X obj 178 96 t b b;
#X msg 178 67 bang;
#X obj 118 416 file size;
#X obj 118 440 / 1000;
#X obj 118 464 * 250;
#X obj 118 488 / 44.1;
#X obj 65 368 t s s;
#X obj 65 517 pack s f;
#X text 304 194 [1];
#X text 85 262 [2];
#X text 32 454 [3];
#X text 182 534 [4];
#X text 15 152 [5];
#X text 304 284 [1] Clear text file;
#X text 304 304 [2] Get names of .wav files inside patch folder;
#X text 304 324 [3] Convert file size to duration in milliseconds;
#X text 304 344 [4] Write file path and duration on text file;
#X text 304 364 [5] Send number of files as a variable;
#X obj 256 223 text define -k \$0-oneShots;
#A set;
#X msg 115 257 symbol \$1/one-shots/*.wav;
#X obj 53 136 text size \$0-oneShots;
#X obj 53 159 s \$0-sizeOneShots;
#X obj 177 558 text set \$0-oneShots;
#X connect 0 0 3 0;
#X connect 1 0 30 0;
#X connect 2 0 1 0;
#X connect 3 0 8 0;
#X connect 3 1 4 0;
#X connect 4 0 5 0;
#X connect 4 0 33 1;
#X connect 5 0 4 1;
#X connect 6 0 4 1;
#X connect 7 0 29 0;
#X connect 8 0 17 0;
#X connect 9 0 12 0;
#X connect 10 0 2 0;
#X connect 10 1 6 0;
#X connect 10 2 7 0;
#X connect 11 0 31 0;
#X connect 11 1 10 0;
#X connect 12 0 11 0;
#X connect 13 0 14 0;
#X connect 14 0 15 0;
#X connect 15 0 16 0;
#X connect 16 0 18 1;
#X connect 17 0 18 0;
#X connect 17 1 13 0;
#X connect 18 0 33 0;
#X connect 30 0 0 0;
#X connect 31 0 32 0;
#X restore 159 345 pd load-oneShots;
#X obj 418 239 r \$0-sizeOneShots;
#X obj 425 350 % 10;
#X obj 344 408 clone oneShots 10 \$0;
#X obj 160 463 catch~ \$0-reverb;
#X obj 344 552 throw~ \$0-left;
#X obj 583 552 throw~ \$0-right;
#X obj 18 701 *~ 0.9;
#X obj 129 701 *~ 0.9;
#X obj 480 460 else/plate.rev~;
#X obj 521 403 loadbang;
#X obj 19 619 *~ 1;
#X obj 129 619 *~ 1;
#X obj 344 202 else/chance 50;
#X obj 394 128 else/rand.i 1000 10000;
#X obj 58 116 hradio 19 1 1 4 \$0-etapa-s \$0-etapa-r etapa 0 -10 0 12 #fcfcfc #000000 #000000 3;
#X msg 521 429 wet 1 \, size 0.7 \, damp 0.3 \, cut 0.8 \, pre 20;
#X obj 831 65 netreceive -u -b 1500;
#X obj 831 89 oscparse;
#X obj 831 113 list trim;
#X obj 831 187 print;
#X listbox 861 157 20 0 0 0 - - - 0;
#X text 56 144 0 = Nada \; 1 = Introduccion \; 2 = Climax \; 3 = Desenlace \;;
#X obj 344 51 r \$0-etapa-s;
#X obj 344 75 > 0;
#X obj 545 50 r \$0-etapa-s;
#X obj 545 75 * -5000;
#X obj 545 99 + 20000;
#X obj 629 135 r \$0-etapa-s;
#X obj 629 159 * 15;
#X obj 629 183 + 35;
#X connect 0 0 39 0;
#X connect 1 0 2 0;
#X connect 2 0 35 0;
#X connect 4 0 5 0;
#X connect 5 0 36 0;
#X connect 6 0 40 0;
#X connect 7 0 39 0;
#X connect 7 1 40 0;
#X connect 8 0 9 0;
#X connect 9 0 7 0;
#X connect 11 0 12 0;
#X connect 14 0 15 0;
#X connect 17 0 11 0;
#X connect 18 0 14 0;
#X connect 19 0 22 0;
#X connect 20 0 21 0;
#X connect 21 0 41 0;
#X connect 21 0 42 0;
#X connect 22 0 25 0;
#X connect 22 1 23 0;
#X connect 23 0 30 0;
#X connect 24 0 23 1;
#X connect 25 0 31 0;
#X connect 29 0 19 1;
#X connect 30 0 24 0;
#X connect 30 0 25 1;
#X connect 31 0 33 0;
#X connect 31 1 34 0;
#X connect 31 2 37 0;
#X connect 32 0 7 0;
#X connect 35 0 3 0;
#X connect 36 0 10 0;
#X connect 37 0 33 0;
#X connect 37 1 34 0;
#X connect 38 0 44 0;
#X connect 39 0 1 0;
#X connect 39 0 17 0;
#X connect 40 0 4 0;
#X connect 40 0 18 0;
#X connect 41 0 19 0;
#X connect 42 0 21 1;
#X connect 44 0 37 0;
#X connect 45 0 46 0;
#X connect 46 0 47 0;
#X connect 47 0 48 0;
#X connect 47 0 49 0;
#X connect 51 0 52 0;
#X connect 52 0 20 0;
#X connect 53 0 54 0;
#X connect 54 0 55 0;
#X connect 55 0 42 2;
#X connect 56 0 57 0;
#X connect 57 0 58 0;
#X connect 58 0 41 1;
