#N canvas 9 0 934 769 12;
#X obj 19 585 catch~ \$0-left;
#X obj 19 803 else/drive~;
#X obj 19 827 hip~ 3;
#X obj 19 875 dac~ 1;
#X obj 129 803 else/drive~;
#X obj 129 827 hip~ 3;
#X obj 129 585 catch~ \$0-right;
#X obj 159 699 else/plate.rev~;
#X obj 190 642 loadbang;
#X msg 190 666 wet 1 \, size 0.8;
#X obj 129 875 dac~ 2;
#X obj 236 832 - 100;
#X obj 236 856 s \$0-leftVU;
#X obj 698 624 vu 21 120 \$0-leftVU empty -1 -10 0 12 #000000 #ffffff 1 0;
#X obj 356 832 - 100;
#X obj 356 856 s \$0-rightVU;
#X obj 738 624 vu 21 120 \$0-leftVU Right -1 -10 0 12 #000000 #000000 1 0;
#X obj 236 808 env~ 8192;
#X obj 356 808 env~ 8192;
#X obj 344 268 else/rand.u;
#X obj 344 104 tgl 19 0 empty empty empty 0 -10 0 12 #fcfcfc #000000 #000000 0 1;
#X obj 344 128 metro;
#X obj 344 297 t f b;
#X obj 425 326 i;
#X obj 455 326 + 1;
#X obj 344 379 list prepend;
#N canvas 274 5 934 956 play-ambiences 0;
#X obj 392 165 bng 19 250 50 0 empty empty empty 0 -10 0 12 #00ff04 #000000 #000000;
#X obj 172 218 else/rand.u;
#X obj 172 282 list prepend;
#X obj 344 263 else/count 0 1;
#X obj 172 311 route 0 1;
#X obj 22 748 throw~ \$0-left;
#X obj 351 748 throw~ \$0-right;
#X obj 392 199 t b b;
#X obj 392 135 r \$0-next;
#X obj 22 543 snake~ in;
#X obj 22 572 *~;
#X obj 132 524 sig~ 1;
#X obj 132 554 -~;
#X obj 22 601 snake~ out;
#X obj 89 422 delay;
#X obj 89 446 s \$0-next;
#X obj 344 297 s \$0-xfade;
#X obj 198 478 r \$0-xfade;
#X obj 198 526 line~;
#X obj 121 398 - 10000;
#X obj 22 504 readsf~ 2;
#X obj 22 350 unpack s f;
#X msg 22 475 open \$1 \, start;
#X msg 198 501 \$1 9000;
#X obj 89 374 t b f;
#X obj 320 543 snake~ in;
#X obj 302 572 *~;
#X obj 302 601 snake~ out;
#X obj 387 422 delay;
#X obj 387 446 s \$0-next;
#X obj 419 398 - 10000;
#X obj 320 504 readsf~ 2;
#X obj 320 350 unpack s f;
#X msg 320 475 open \$1 \, start;
#X obj 387 374 t b f;
#X text 311 78 [1];
#X text 454 264 [2];
#X text 514 281 [1] Receive the number of files and randomly play files in an unrepeated sequence (sort of like shuffle playlist).;
#X text 104 344 [3];
#X text 204 454 [2];
#X text 514 361 [3] Use the duration float to play the other file and crossfade to it 10 seconds before the current one ends.;
#X text 514 321 [2] Switch between playing the file in one slot and another \, then crossfade in 9 seconds between the two.;
#X obj 22 645 +~;
#X obj 352 645 +~;
#X obj 213 790 throw~ \$0-reverb;
#X obj 213 737 +~;
#X obj 495 474 r \$0-etapa-s;
#X msg 527 527 2 \$1;
#X obj 527 551 pow;
#X obj 527 604 + 100;
#X obj 527 628 dbtorms;
#X obj 527 580 - 20;
#X msg 527 652 \$1 5000;
#X obj 527 676 line~;
#X obj 352 694 *~;
#X obj 21 693 *~;
#X obj 213 766 *~ 0.25;
#X msg 268 383 stop;
#X obj 223 60 r \$0-etapa-s;
#X obj 246 190 text size;
#X obj 246 118 pack f \$0;
#X msg 246 142 symbol \$2-etapa\$1;
#X obj 246 166 t b s;
#X obj 152 128 s \$0-next;
#X obj 223 89 t b f b;
#X obj 225 242 text get;
#X obj 21 717 hip~ 100;
#X obj 352 718 hip~ 100;
#X obj 495 498 sel 0;
#X msg 495 527 12;
#X connect 0 0 7 0;
#X connect 1 0 65 0;
#X connect 2 0 4 0;
#X connect 3 0 2 1;
#X connect 3 0 16 0;
#X connect 4 0 21 0;
#X connect 4 1 32 0;
#X connect 7 0 1 0;
#X connect 7 1 3 0;
#X connect 8 0 0 0;
#X connect 9 0 10 0;
#X connect 10 0 13 0;
#X connect 11 0 12 0;
#X connect 12 0 10 1;
#X connect 13 0 42 0;
#X connect 13 1 43 0;
#X connect 14 0 15 0;
#X connect 17 0 23 0;
#X connect 18 0 12 1;
#X connect 18 0 26 0;
#X connect 19 0 14 1;
#X connect 20 0 9 0;
#X connect 20 1 9 1;
#X connect 21 0 22 0;
#X connect 21 1 24 0;
#X connect 22 0 20 0;
#X connect 23 0 18 0;
#X connect 24 0 14 0;
#X connect 24 1 19 0;
#X connect 25 0 26 1;
#X connect 26 0 27 0;
#X connect 27 0 42 1;
#X connect 27 1 43 1;
#X connect 28 0 29 0;
#X connect 30 0 28 1;
#X connect 31 0 25 0;
#X connect 31 1 25 1;
#X connect 32 0 33 0;
#X connect 32 1 34 0;
#X connect 33 0 31 0;
#X connect 34 0 28 0;
#X connect 34 1 30 0;
#X connect 42 0 55 0;
#X connect 43 0 54 0;
#X connect 45 0 56 0;
#X connect 46 0 68 0;
#X connect 47 0 48 0;
#X connect 48 0 51 0;
#X connect 49 0 50 0;
#X connect 50 0 52 0;
#X connect 51 0 49 0;
#X connect 52 0 53 0;
#X connect 53 0 54 1;
#X connect 53 0 55 1;
#X connect 54 0 67 0;
#X connect 55 0 66 0;
#X connect 56 0 44 0;
#X connect 57 0 28 0;
#X connect 57 0 14 0;
#X connect 58 0 64 0;
#X connect 59 0 1 1;
#X connect 60 0 61 0;
#X connect 61 0 62 0;
#X connect 62 0 59 0;
#X connect 62 1 59 1;
#X connect 62 1 65 3;
#X connect 64 0 63 0;
#X connect 64 1 60 0;
#X connect 64 2 57 0;
#X connect 65 0 2 0;
#X connect 66 0 5 0;
#X connect 66 0 45 0;
#X connect 67 0 6 0;
#X connect 67 0 45 1;
#X connect 68 0 69 0;
#X connect 68 1 47 0;
#X connect 69 0 51 0;
#X restore 19 459 pd play-ambiences;
#N canvas 3 10 836 680 load-oneShots 0;
#X obj 115 281 file glob;
#X obj 115 305 t a b;
#X obj 215 353 i;
#X obj 255 353 + 1;
#X msg 233 303 0;
#X msg 306 194 clear;
#X obj 65 344 list split 1;
#X obj 178 43 loadbang;
#X obj 210 165 t b b b;
#X obj 178 96 t b b;
#X msg 178 67 bang;
#X obj 118 416 file size;
#X obj 118 440 / 1000;
#X obj 118 464 * 250;
#X obj 118 488 / 44.1;
#X obj 65 368 t s s;
#X obj 65 517 pack s f;
#X text 354 194 [1];
#X text 85 262 [2];
#X text 32 454 [3];
#X text 175 534 [4];
#X text 15 152 [5];
#X text 304 284 [1] Clear text file;
#X text 304 304 [2] Get names of .wav files inside patch folder;
#X text 304 324 [3] Convert file size to duration in milliseconds;
#X text 304 344 [4] Write file path and duration on text file;
#X text 304 364 [5] Send number of files as a variable;
#X obj 306 223 text define -k \$0-oneShots;
#A set;
#X msg 115 257 symbol \$1/one-shots/*.wav;
#X obj 53 136 text size \$0-oneShots;
#X obj 53 159 s \$0-sizeOneShots;
#X obj 170 558 text set \$0-oneShots;
#X msg 115 204 0;
#X obj 115 228 text get \$0-folderPath;
#X connect 0 0 1 0;
#X connect 1 0 6 0;
#X connect 1 1 2 0;
#X connect 2 0 3 0;
#X connect 2 0 31 1;
#X connect 3 0 2 1;
#X connect 4 0 2 1;
#X connect 5 0 27 0;
#X connect 6 0 15 0;
#X connect 7 0 10 0;
#X connect 8 0 32 0;
#X connect 8 1 4 0;
#X connect 8 2 5 0;
#X connect 9 0 29 0;
#X connect 9 1 8 0;
#X connect 10 0 9 0;
#X connect 11 0 12 0;
#X connect 12 0 13 0;
#X connect 13 0 14 0;
#X connect 14 0 16 1;
#X connect 15 0 16 0;
#X connect 15 1 11 0;
#X connect 16 0 31 0;
#X connect 28 0 0 0;
#X connect 29 0 30 0;
#X connect 32 0 33 0;
#X connect 33 0 28 0;
#X restore 159 351 pd load-oneShots;
#X obj 418 239 r \$0-sizeOneShots;
#X obj 425 350 % 10;
#X obj 344 408 clone oneShots 10 \$0;
#X obj 160 613 catch~ \$0-reverb;
#X obj 344 552 throw~ \$0-left;
#X obj 583 552 throw~ \$0-right;
#X obj 18 851 *~ 0.9;
#X obj 129 851 *~ 0.9;
#X obj 520 460 else/plate.rev~;
#X obj 561 403 loadbang;
#X obj 19 769 *~ 1;
#X obj 129 769 *~ 1;
#X obj 344 202 else/chance 50;
#X obj 394 128 else/rand.i 1000 10000;
#X obj 58 116 hradio 19 1 1 4 \$0-etapa-s \$0-etapa-r etapa 0 -10 0 12 #fcfcfc #000000 #000000 1;
#X obj 680 206 netreceive -u -b 1500;
#X obj 680 230 oscparse;
#X obj 680 254 list trim;
#X obj 680 328 print;
#X listbox 710 298 20 0 0 0 - - - 0;
#X text 56 144 0 = Nada \; 1 = Introduccion \; 2 = Climax \; 3 = Desenlace \;;
#X obj 344 31 r \$0-etapa-s;
#X obj 344 55 > 0;
#X obj 545 50 r \$0-etapa-s;
#X obj 545 75 * -5000;
#X obj 545 99 + 20000;
#X obj 629 110 r \$0-etapa-s;
#X obj 19 305 text define -k \$0-folderPath;
#A set C:/Users/Neurohumanities/OneDrive\ -\ Instituto\ Tecnologico\ y\ de\ Estudios\ Superiores\ de\ Monterrey/cartografiasMiedo/Sonido \;;
#N canvas 171 69 711 532 load-ambiences1 0;
#X obj 85 181 file glob;
#X obj 85 205 t a b;
#X obj 185 253 i;
#X obj 225 253 + 1;
#X msg 203 203 0;
#X msg 256 94 clear;
#X obj 35 244 list split 1;
#X obj 180 12 loadbang;
#X obj 180 65 t b b b;
#X msg 180 36 bang;
#X obj 88 316 file size;
#X obj 88 340 / 1000;
#X obj 88 364 * 250;
#X obj 88 388 / 44.1;
#X obj 35 268 t s s;
#X obj 35 417 pack s f;
#X text 304 94 [1];
#X text 55 162 [2];
#X text 2 354 [3];
#X text 149 434 [4];
#X text 274 184 [1] Clear text file;
#X text 274 204 [2] Get names of .wav files inside patch folder;
#X text 274 224 [3] Convert file size to duration in milliseconds;
#X text 274 244 [4] Write file path and duration on text file;
#X msg 85 157 symbol \$1/ambiences/01-intro/*.wav;
#X msg 85 104 0;
#X obj 144 458 text set \$0-etapa1;
#X obj 256 123 text define -k \$0-etapa1;
#A set;
#X obj 85 128 text get \$0-folderPath;
#X connect 0 0 1 0;
#X connect 1 0 6 0;
#X connect 1 1 2 0;
#X connect 2 0 3 0;
#X connect 2 0 26 1;
#X connect 3 0 2 1;
#X connect 4 0 2 1;
#X connect 5 0 27 0;
#X connect 6 0 14 0;
#X connect 7 0 9 0;
#X connect 8 0 25 0;
#X connect 8 1 4 0;
#X connect 8 2 5 0;
#X connect 9 0 8 0;
#X connect 10 0 11 0;
#X connect 11 0 12 0;
#X connect 12 0 13 0;
#X connect 13 0 15 1;
#X connect 14 0 15 0;
#X connect 14 1 10 0;
#X connect 15 0 26 0;
#X connect 24 0 0 0;
#X connect 25 0 28 0;
#X connect 28 0 24 0;
#X restore 19 375 pd load-ambiences1;
#N canvas 171 69 711 532 load-ambiences2 0;
#X obj 85 181 file glob;
#X obj 85 205 t a b;
#X obj 185 253 i;
#X obj 225 253 + 1;
#X msg 203 203 0;
#X msg 256 94 clear;
#X obj 35 244 list split 1;
#X obj 180 12 loadbang;
#X obj 180 65 t b b b;
#X msg 180 36 bang;
#X obj 88 316 file size;
#X obj 88 340 / 1000;
#X obj 88 364 * 250;
#X obj 88 388 / 44.1;
#X obj 35 268 t s s;
#X obj 35 417 pack s f;
#X text 304 94 [1];
#X text 55 162 [2];
#X text 2 354 [3];
#X text 149 434 [4];
#X text 274 184 [1] Clear text file;
#X text 274 204 [2] Get names of .wav files inside patch folder;
#X text 274 224 [3] Convert file size to duration in milliseconds;
#X text 274 244 [4] Write file path and duration on text file;
#X msg 85 104 0;
#X obj 85 128 text get \$0-folderPath;
#X msg 85 157 symbol \$1/ambiences/02-desarrollo/*.wav;
#X obj 256 123 text define -k \$0-etapa2;
#A set;
#X obj 144 458 text set \$0-etapa2;
#X connect 0 0 1 0;
#X connect 1 0 6 0;
#X connect 1 1 2 0;
#X connect 2 0 3 0;
#X connect 2 0 28 1;
#X connect 3 0 2 1;
#X connect 4 0 2 1;
#X connect 5 0 27 0;
#X connect 6 0 14 0;
#X connect 7 0 9 0;
#X connect 8 0 24 0;
#X connect 8 1 4 0;
#X connect 8 2 5 0;
#X connect 9 0 8 0;
#X connect 10 0 11 0;
#X connect 11 0 12 0;
#X connect 12 0 13 0;
#X connect 13 0 15 1;
#X connect 14 0 15 0;
#X connect 14 1 10 0;
#X connect 15 0 28 0;
#X connect 24 0 25 0;
#X connect 25 0 26 0;
#X connect 26 0 0 0;
#X restore 19 399 pd load-ambiences2;
#N canvas 171 69 711 532 load-ambiences3 0;
#X obj 85 181 file glob;
#X obj 85 205 t a b;
#X obj 185 253 i;
#X obj 225 253 + 1;
#X msg 203 203 0;
#X msg 256 94 clear;
#X obj 35 244 list split 1;
#X obj 180 12 loadbang;
#X obj 180 65 t b b b;
#X msg 180 36 bang;
#X obj 88 316 file size;
#X obj 88 340 / 1000;
#X obj 88 364 * 250;
#X obj 88 388 / 44.1;
#X obj 35 268 t s s;
#X obj 35 417 pack s f;
#X text 304 94 [1];
#X text 55 162 [2];
#X text 2 354 [3];
#X text 149 434 [4];
#X text 274 184 [1] Clear text file;
#X text 274 204 [2] Get names of .wav files inside patch folder;
#X text 274 224 [3] Convert file size to duration in milliseconds;
#X text 274 244 [4] Write file path and duration on text file;
#X msg 85 104 0;
#X obj 85 128 text get \$0-folderPath;
#X obj 256 123 text define -k \$0-etapa3;
#A set;
#X obj 144 458 text set \$0-etapa3;
#X msg 85 157 symbol \$1/ambiences/03-desenlace/*.wav;
#X connect 0 0 1 0;
#X connect 1 0 6 0;
#X connect 1 1 2 0;
#X connect 2 0 3 0;
#X connect 2 0 27 1;
#X connect 3 0 2 1;
#X connect 4 0 2 1;
#X connect 5 0 26 0;
#X connect 6 0 14 0;
#X connect 7 0 9 0;
#X connect 8 0 24 0;
#X connect 8 1 4 0;
#X connect 8 2 5 0;
#X connect 9 0 8 0;
#X connect 10 0 11 0;
#X connect 11 0 12 0;
#X connect 12 0 13 0;
#X connect 13 0 15 1;
#X connect 14 0 15 0;
#X connect 14 1 10 0;
#X connect 15 0 27 0;
#X connect 24 0 25 0;
#X connect 25 0 28 0;
#X connect 28 0 0 0;
#X restore 20 423 pd load-ambiences3;
#X text 695 604 Left;
#X obj 344 432 hip~ 200;
#X obj 414 432 hip~ 200;
#X obj 484 432 hip~ 200;
#N canvas 171 69 711 532 load-ambiences0 0;
#X obj 85 181 file glob;
#X obj 85 205 t a b;
#X obj 185 253 i;
#X obj 225 253 + 1;
#X msg 203 203 0;
#X msg 256 94 clear;
#X obj 35 244 list split 1;
#X obj 180 12 loadbang;
#X obj 180 65 t b b b;
#X msg 180 36 bang;
#X obj 88 316 file size;
#X obj 88 340 / 1000;
#X obj 88 364 * 250;
#X obj 88 388 / 44.1;
#X obj 35 268 t s s;
#X obj 35 417 pack s f;
#X text 304 94 [1];
#X text 55 162 [2];
#X text 2 354 [3];
#X text 149 434 [4];
#X text 274 184 [1] Clear text file;
#X text 274 204 [2] Get names of .wav files inside patch folder;
#X text 274 224 [3] Convert file size to duration in milliseconds;
#X text 274 244 [4] Write file path and duration on text file;
#X msg 85 104 0;
#X obj 85 128 text get \$0-folderPath;
#X obj 256 123 text define -k \$0-etapa0;
#A set;
#X msg 85 157 symbol \$1/ambiences/00-nada/*.wav;
#X obj 144 458 text set \$0-etapa0;
#X connect 0 0 1 0;
#X connect 1 0 6 0;
#X connect 1 1 2 0;
#X connect 2 0 3 0;
#X connect 2 0 28 1;
#X connect 3 0 2 1;
#X connect 4 0 2 1;
#X connect 5 0 26 0;
#X connect 6 0 14 0;
#X connect 7 0 9 0;
#X connect 8 0 24 0;
#X connect 8 1 4 0;
#X connect 8 2 5 0;
#X connect 9 0 8 0;
#X connect 10 0 11 0;
#X connect 11 0 12 0;
#X connect 12 0 13 0;
#X connect 13 0 15 1;
#X connect 14 0 15 0;
#X connect 14 1 10 0;
#X connect 15 0 28 0;
#X connect 24 0 25 0;
#X connect 25 0 27 0;
#X connect 27 0 0 0;
#X restore 19 351 pd load-ambiences0;
#X obj 246 191 r \$0-etapa-s;
#X obj 246 215 > 0;
#X obj 246 239 sel 1;
#X msg 561 429 wet 1 \, size 0.8 \, damp 0.3 \, cut 0.8 \, pre 20;
#X obj 344 79 change -1;
#X floatatom 629 207 5 0 0 0 - - - 0;
#X obj 629 183 + 10;
#X obj 629 159 * 10;
#X obj 204 100 bng 19 250 50 0 \$0-openFolder empty openFolder 0 -10 0 12 #ff0400 #000000 #000000;
#X obj 19 227 r \$0-openFolder;
#X obj 19 251 openpanel 1;
#X obj 19 275 text set \$0-folderPath;
#X connect 0 0 38 0;
#X connect 1 0 2 0;
#X connect 2 0 34 0;
#X connect 4 0 5 0;
#X connect 5 0 35 0;
#X connect 6 0 39 0;
#X connect 7 0 38 0;
#X connect 7 1 39 0;
#X connect 8 0 9 0;
#X connect 9 0 7 0;
#X connect 11 0 12 0;
#X connect 14 0 15 0;
#X connect 17 0 11 0;
#X connect 18 0 14 0;
#X connect 19 0 22 0;
#X connect 20 0 21 0;
#X connect 21 0 40 0;
#X connect 21 0 41 0;
#X connect 22 0 25 0;
#X connect 22 1 23 0;
#X connect 23 0 29 0;
#X connect 24 0 23 1;
#X connect 25 0 30 0;
#X connect 28 0 19 1;
#X connect 29 0 24 0;
#X connect 29 0 25 1;
#X connect 30 0 60 0;
#X connect 30 1 61 0;
#X connect 30 2 62 0;
#X connect 31 0 7 0;
#X connect 34 0 3 0;
#X connect 35 0 10 0;
#X connect 36 0 32 0;
#X connect 36 1 33 0;
#X connect 37 0 67 0;
#X connect 38 0 1 0;
#X connect 38 0 17 0;
#X connect 39 0 4 0;
#X connect 39 0 18 0;
#X connect 40 0 19 0;
#X connect 41 0 21 1;
#X connect 43 0 44 0;
#X connect 44 0 45 0;
#X connect 45 0 46 0;
#X connect 45 0 47 0;
#X connect 49 0 50 0;
#X connect 50 0 68 0;
#X connect 51 0 52 0;
#X connect 52 0 53 0;
#X connect 53 0 41 2;
#X connect 54 0 71 0;
#X connect 60 0 32 0;
#X connect 61 0 33 0;
#X connect 62 0 36 0;
#X connect 64 0 65 0;
#X connect 65 0 66 0;
#X connect 66 0 19 0;
#X connect 67 0 36 0;
#X connect 68 0 20 0;
#X connect 70 0 40 1;
#X connect 70 0 69 0;
#X connect 71 0 70 0;
#X connect 73 0 74 0;
#X connect 74 0 75 0;
