#N canvas 557 139 635 600 12;
#X obj 16 31 inlet;
#X msg 16 145 open \$1 \, start;
#X obj 16 169 readsf~;
#X msg 62 193 0;
#X obj 62 222 switch~;
#X msg 113 193 1;
#X obj 16 121 text get \$2-oneShots;
#X obj 16 65 t a b;
#X obj 157 505 outlet~;
#X obj 285 505 outlet~;
#X obj 157 466 else/pan2~;
#X obj 156 422 *~;
#X msg 174 369 1 \$1;
#X obj 174 393 -;
#X obj 416 405 *~;
#X obj 48 89 s \$0-trigger;
#X obj 113 169 r \$0-trigger;
#X obj 223 390 r \$0-trigger;
#X obj 402 209 r \$0-trigger;
#X obj 416 431 outlet~;
#X obj 231 295 mtof;
#X obj 231 198 r \$0-trigger;
#X obj 17 304 *~ 2;
#X obj 42 251 r \$0-trigger;
#X obj 224 413 else/rand.i -2 2;
#X obj 224 437 / 2;
#X obj 402 330 t f f;
#X obj 156 324 else/lowpass~ 1000 0.4;
#X obj 231 223 else/rand.i 0 3;
#X obj 231 247 * -24;
#X obj 231 271 + 135;
#X text 157 525 Outlet 1: Left;
#X text 285 525 Outlet 2: Right;
#X text 416 451 Outlet 3: Reverb;
#X text 16 11 Inlet 1: Sample number + trigger;
#X obj 42 275 else/rand.i 1 8;
#X obj 402 306 + 0.2;
#X obj 402 282 * 0.8;
#X obj 402 234 else/rand.i 0 3;
#X obj 402 258 / 3;
#X connect 0 0 7 0;
#X connect 1 0 2 0;
#X connect 2 0 22 0;
#X connect 2 1 3 0;
#X connect 3 0 4 0;
#X connect 5 0 4 0;
#X connect 6 0 1 0;
#X connect 7 0 6 0;
#X connect 7 1 15 0;
#X connect 10 0 8 0;
#X connect 10 1 9 0;
#X connect 11 0 10 0;
#X connect 12 0 13 0;
#X connect 13 0 11 1;
#X connect 14 0 19 0;
#X connect 16 0 5 0;
#X connect 17 0 24 0;
#X connect 18 0 38 0;
#X connect 20 0 27 1;
#X connect 21 0 28 0;
#X connect 22 0 27 0;
#X connect 23 0 35 0;
#X connect 24 0 25 0;
#X connect 25 0 10 1;
#X connect 26 0 12 0;
#X connect 26 1 14 1;
#X connect 27 0 11 0;
#X connect 27 0 14 0;
#X connect 28 0 29 0;
#X connect 29 0 30 0;
#X connect 30 0 20 0;
#X connect 35 0 22 1;
#X connect 36 0 26 0;
#X connect 37 0 36 0;
#X connect 38 0 39 0;
#X connect 39 0 37 0;
