#N canvas 9 16 934 956 12;
#X obj 104 73 inlet;
#X obj 142 138 t f f;
#X obj 179 295 s \$0-gate;
#X obj 76 182 s \$0-velocity;
#X obj 36 221 list prepend;
#X obj 36 245 route 1;
#X obj 36 269 s \$0-midi;
#X obj 410 212 r \$0-midi;
#X obj 411 286 sig~;
#X obj 420 394 mtof~;
#X obj 181 184 t f f f;
#X obj 236 218 select 1 0;
#X obj 236 272 s \$0-noteOn;
#X obj 266 242 s \$0-noteOff;
#X obj 270 346 inlet~;
#X obj 340 554 *~;
#X obj 694 111 r \$0-velocity;
#X obj 695 336 sqrt;
#X obj 694 135 sel 0;
#X obj 695 502 vline~;
#X obj 695 526 *~;
#X obj 340 593 outlet~;
#X obj 192 150 > 0;
#X obj 104 97 unpack f f f f;
#X obj 225 138 s \$0-attack;
#X obj 371 138 s \$0-release;
#X obj 391 167 v \$0-release;
#X obj 245 168 v \$0-attack;
#X obj 695 360 t f b b;
#X obj 742 397 v \$0-attack;
#X obj 799 422 v \$0-release;
#X obj 695 454 pack f f f;
#X obj 695 163 - 1;
#X obj 695 187 / 126;
#X msg 695 211 1 \$1;
#X obj 695 235 -;
#X obj 695 283 + 100;
#X obj 695 307 dbtorms;
#X obj 695 258 * -15;
#X msg 695 478 \$1 \$2 \, 0 \$3 \$2;
#X obj 341 485 else/resonant~ 1000 40;
#X obj 341 422 else/resonant~ 1000 40;
#X obj 411 310 +~;
#X obj 695 665 env~ 2048;
#X obj 473 596 hip~ 200;
#X obj 695 713 - 100;
#X obj 695 809 outlet;
#X obj 473 620 hip~ 200;
#X obj 522 759 select 1 0;
#X obj 484 785 t b b;
#X msg 513 811 stop;
#X msg 555 858 0;
#X msg 486 849 1;
#X obj 486 884 change -1;
#X obj 695 737 > -18;
#X obj 695 761 change -1;
#X obj 555 837 del 500;
#X connect 0 0 23 0;
#X connect 1 0 3 0;
#X connect 1 1 22 0;
#X connect 4 0 5 0;
#X connect 5 0 6 0;
#X connect 7 0 8 0;
#X connect 8 0 42 0;
#X connect 9 0 40 1;
#X connect 9 0 41 1;
#X connect 10 0 4 1;
#X connect 10 1 2 0;
#X connect 10 2 11 0;
#X connect 11 0 12 0;
#X connect 11 1 13 0;
#X connect 14 0 41 0;
#X connect 15 0 21 0;
#X connect 15 0 44 0;
#X connect 16 0 18 0;
#X connect 17 0 28 0;
#X connect 18 1 32 0;
#X connect 19 0 20 0;
#X connect 19 0 20 1;
#X connect 20 0 15 1;
#X connect 20 0 42 1;
#X connect 22 0 10 0;
#X connect 23 0 4 0;
#X connect 23 1 1 0;
#X connect 23 2 24 0;
#X connect 23 3 25 0;
#X connect 28 0 31 0;
#X connect 28 1 29 0;
#X connect 28 2 30 0;
#X connect 29 0 31 1;
#X connect 30 0 31 2;
#X connect 31 0 39 0;
#X connect 32 0 33 0;
#X connect 33 0 34 0;
#X connect 34 0 35 0;
#X connect 35 0 38 0;
#X connect 36 0 37 0;
#X connect 37 0 17 0;
#X connect 38 0 36 0;
#X connect 39 0 19 0;
#X connect 40 0 15 0;
#X connect 41 0 40 0;
#X connect 42 0 9 0;
#X connect 43 0 45 0;
#X connect 44 0 47 0;
#X connect 45 0 54 0;
#X connect 47 0 43 0;
#X connect 48 0 49 0;
#X connect 48 1 56 0;
#X connect 49 0 52 0;
#X connect 49 1 50 0;
#X connect 50 0 56 0;
#X connect 51 0 53 0;
#X connect 52 0 53 0;
#X connect 53 0 46 0;
#X connect 54 0 55 0;
#X connect 55 0 48 0;
#X connect 56 0 51 0;
