#N canvas -1705 16 1424 957 12;
#X obj 127 610 dac~ 1 2;
#X obj 19 204 else/resonant~ 60 100;
#X obj 19 180 else/resonant~ 50 100;
#X obj 206 881 else/plate.rev~;
#X obj 56 329 throw~ \$0-mono;
#X obj 145 395 catch~ \$0-mono;
#X obj 133 512 else/drive~;
#X obj 133 536 hip~ 3;
#X obj 123 572 *~ 0.9;
#X obj 364 190 throw~ \$0-mono;
#X obj 364 166 *~ 0.001;
#X obj 195 935 throw~ \$0-mono;
#X obj 256 812 loadbang;
#X obj 115 95 else/resonant~ 83 100;
#X obj 115 119 else/resonant~ 83 100;
#X obj 120 147 *~ 0.1;
#X obj 293 67 else/resonant~ 500 10;
#X obj 293 91 else/resonant~ 500 100;
#X obj 293 115 *~ 0.01;
#X obj 206 790 catch~ \$0-reverb;
#X msg 247 849 size 0.75 \, wet 1 \, pre 5 \, damp 0.75 \, cutoff 0.5;
#X obj 763 829 readsf~;
#X obj 765 777 loadbang;
#X msg 763 805 open ./wind-through-trees.wav \, start;
#X obj 763 905 else/lowpass~ 500 0.7;
#X obj 727 1002 throw~ \$0-reverb;
#X obj 763 853 *~ 0.2;
#X obj 56 305 *~ 0.03;
#X obj 145 419 *~ 1;
#X obj 20 151 else/pink~;
#X obj 130 22 else/pink~;
#X obj 308 -6 else/pink~;
#X obj 364 142 else/pink~;
#N canvas 509 264 887 691 visuales 0;
#X obj 64 445 gemwin;
#X msg 102 320 0 \, destroy;
#X msg 88 277 create \, 1;
#X msg 106 385 color \$1 \$1 \$1 \$1;
#X msg 74 228 reset \, offset 100 100 \, dimen 640 480 \, create \, 1;
#X obj 434 131 gemhead;
#X obj 517 308 alpha 1;
#X obj 517 332 square;
#X obj 517 284 colorRGB 1 1 1 0;
#X obj 628 162 r \$0-footstepsEnv;
#X obj 629 208 clip 0 1;
#X connect 1 0 0 0;
#X connect 2 0 0 0;
#X connect 3 0 0 0;
#X connect 4 0 0 0;
#X connect 6 0 7 0;
#X connect 8 0 6 0;
#X connect 9 0 10 0;
#X connect 10 0 8 4;
#X restore 32 791 pd visuales;
#N canvas -1894 26 1822 767 person 0;
#X msg 290 548 open ./footsteps_wood_walk.wav \, start;
#X obj 290 572 readsf~;
#X obj 290 596 *~ 0.5;
#X obj 361 163 readsf~;
#X obj 361 187 *~ 0.5;
#X msg 361 139 open ./wood_creak_02.wav \, start;
#X obj 638 51 tgl 19 0 empty empty empty 0 -10 0 12 #fcfcfc #000000 #000000 0 1;
#X obj 638 75 metro 100;
#X obj 638 99 t b b;
#X obj 718 99 t f f;
#X obj 638 152 f;
#X obj 638 176 / 2;
#X msg 638 200 1 \$1 \, 0 \$1 \$1;
#X obj 638 224 vline~;
#X obj 351 461 throw~ \$0-mono;
#X obj 499 457 throw~ \$0-reverb;
#X obj 361 211 *~;
#X obj 718 75 random 100 1000;
#X obj 638 248 sqrt~;
#X obj 697 431 tgl 19 0 empty empty empty 0 -10 0 12 #fcfcfc #000000 #000000 0 1;
#X obj 697 455 metro 100;
#X obj 697 479 t b b;
#X obj 777 479 t f f;
#X obj 678 538 f;
#X obj 697 503 else/chance 50;
#X obj 678 562 / 2;
#X msg 678 586 1 \$1 \, 0 \$1 \$1;
#X obj 678 610 vline~;
#X obj 777 455 random 100 1000;
#X obj 678 634 sqrt~;
#X obj 358 664 *~;
#X obj 393 95 loadbang;
#X obj 292 520 loadbang;
#X obj 354 726 throw~ \$0-mono;
#X obj 528 734 throw~ \$0-reverb;
#X obj 638 123 else/chance 20;
#X obj 417 354 sig~ 1;
#X obj 417 378 -~;
#X obj 351 437 *~;
#X obj 499 433 *~;
#X obj 768 229 t b f;
#X obj 771 306 pack f f;
#X msg 771 330 \$1 \$2;
#X obj 771 354 line~;
#X obj 892 510 t b f;
#X obj 892 558 pack f f;
#X msg 892 582 \$1 \$2;
#X obj 892 606 line~;
#X obj 528 710 *~;
#X obj 354 702 *~;
#X obj 478 622 sig~ 1;
#X obj 478 646 -~;
#X obj 411 591 else/rand.f 0.1 1;
#X obj 476 191 else/rand.f 0.1 1;
#X obj 767 253 else/rand.f 0.2 0.8;
#X obj 892 534 else/rand.f 0.2 0.8;
#X obj 1095 214 readsf~;
#X obj 1095 238 *~ 0.5;
#X obj 1372 102 tgl 19 0 empty empty empty 0 -10 0 12 #fcfcfc #000000 #000000 0 1;
#X obj 1372 126 metro 100;
#X obj 1372 150 t b b;
#X obj 1452 150 t f f;
#X obj 1372 203 f;
#X obj 1372 227 / 2;
#X msg 1372 251 1 \$1 \, 0 \$1 \$1;
#X obj 1372 275 vline~;
#X obj 1085 512 throw~ \$0-mono;
#X obj 1233 508 throw~ \$0-reverb;
#X obj 1095 262 *~;
#X obj 1452 126 random 100 1000;
#X obj 1372 299 sqrt~;
#X obj 1127 146 loadbang;
#X obj 1151 405 sig~ 1;
#X obj 1151 429 -~;
#X obj 1085 488 *~;
#X obj 1233 484 *~;
#X obj 1502 280 t b f;
#X obj 1505 357 pack f f;
#X msg 1505 381 \$1 \$2;
#X obj 1505 405 line~;
#X obj 1210 242 else/rand.f 0.1 1;
#X obj 1501 304 else/rand.f 0.2 0.8;
#X msg 1095 190 open ./man-breathing.wav \, start;
#X obj 884 388 loadbang;
#X msg 884 412 1;
#X obj 884 86 loadbang;
#X msg 884 110 1;
#X obj 1396 49 loadbang;
#X msg 1396 73 1;
#X obj 1371 175 else/chance 30;
#X connect 0 0 1 0;
#X connect 1 0 2 0;
#X connect 1 1 0 0;
#X connect 2 0 30 0;
#X connect 3 0 4 0;
#X connect 3 1 5 0;
#X connect 4 0 16 0;
#X connect 5 0 3 0;
#X connect 6 0 7 0;
#X connect 7 0 8 0;
#X connect 8 0 35 0;
#X connect 8 1 17 0;
#X connect 9 0 7 1;
#X connect 9 1 10 1;
#X connect 10 0 11 0;
#X connect 10 0 40 0;
#X connect 11 0 12 0;
#X connect 12 0 13 0;
#X connect 13 0 18 0;
#X connect 16 0 38 0;
#X connect 16 0 39 0;
#X connect 17 0 9 0;
#X connect 18 0 16 1;
#X connect 19 0 20 0;
#X connect 20 0 21 0;
#X connect 21 0 24 0;
#X connect 21 1 28 0;
#X connect 22 0 20 1;
#X connect 22 1 23 1;
#X connect 23 0 25 0;
#X connect 23 0 44 0;
#X connect 24 0 23 0;
#X connect 24 0 52 0;
#X connect 25 0 26 0;
#X connect 26 0 27 0;
#X connect 27 0 29 0;
#X connect 28 0 22 0;
#X connect 29 0 30 1;
#X connect 30 0 48 0;
#X connect 30 0 49 0;
#X connect 31 0 5 0;
#X connect 32 0 0 0;
#X connect 35 0 10 0;
#X connect 35 0 53 0;
#X connect 36 0 37 0;
#X connect 37 0 38 1;
#X connect 38 0 14 0;
#X connect 39 0 15 0;
#X connect 40 0 54 0;
#X connect 40 1 41 1;
#X connect 41 0 42 0;
#X connect 42 0 43 0;
#X connect 43 0 39 1;
#X connect 43 0 37 1;
#X connect 44 0 55 0;
#X connect 44 1 45 1;
#X connect 45 0 46 0;
#X connect 46 0 47 0;
#X connect 47 0 48 1;
#X connect 47 0 51 1;
#X connect 48 0 34 0;
#X connect 49 0 33 0;
#X connect 50 0 51 0;
#X connect 51 0 49 1;
#X connect 52 0 2 1;
#X connect 53 0 4 1;
#X connect 54 0 41 0;
#X connect 55 0 45 0;
#X connect 56 0 57 0;
#X connect 56 1 82 0;
#X connect 57 0 68 0;
#X connect 58 0 59 0;
#X connect 59 0 60 0;
#X connect 60 0 89 0;
#X connect 60 1 69 0;
#X connect 61 0 59 1;
#X connect 61 1 62 1;
#X connect 62 0 63 0;
#X connect 62 0 76 0;
#X connect 63 0 64 0;
#X connect 64 0 65 0;
#X connect 65 0 70 0;
#X connect 68 0 74 0;
#X connect 68 0 75 0;
#X connect 69 0 61 0;
#X connect 70 0 68 1;
#X connect 71 0 82 0;
#X connect 72 0 73 0;
#X connect 73 0 74 1;
#X connect 74 0 66 0;
#X connect 75 0 67 0;
#X connect 76 0 81 0;
#X connect 76 1 77 1;
#X connect 77 0 78 0;
#X connect 78 0 79 0;
#X connect 79 0 75 1;
#X connect 79 0 73 1;
#X connect 80 0 57 1;
#X connect 81 0 77 0;
#X connect 82 0 56 0;
#X connect 83 0 84 0;
#X connect 84 0 19 0;
#X connect 85 0 86 0;
#X connect 86 0 6 0;
#X connect 87 0 88 0;
#X connect 88 0 58 0;
#X connect 89 0 62 0;
#X connect 89 0 80 0;
#X restore 581 345 pd person 1;
#X connect 1 0 27 0;
#X connect 2 0 1 0;
#X connect 3 0 11 0;
#X connect 5 0 28 0;
#X connect 6 0 7 0;
#X connect 7 0 8 0;
#X connect 8 0 0 0;
#X connect 8 0 0 1;
#X connect 10 0 9 0;
#X connect 12 0 20 0;
#X connect 13 0 14 0;
#X connect 14 0 15 0;
#X connect 15 0 27 0;
#X connect 16 0 17 0;
#X connect 17 0 18 0;
#X connect 18 0 27 0;
#X connect 19 0 3 0;
#X connect 20 0 3 0;
#X connect 21 0 26 0;
#X connect 21 1 23 0;
#X connect 22 0 23 0;
#X connect 23 0 21 0;
#X connect 24 0 25 0;
#X connect 26 0 24 0;
#X connect 27 0 4 0;
#X connect 28 0 6 0;
#X connect 29 0 2 0;
#X connect 30 0 13 0;
#X connect 31 0 16 0;
#X connect 32 0 10 0;
