#N struct 5744-bars float x float color;
#N canvas -1902 11 1076 996 12;
#X declare -path ./abs;
#X obj 51 446 tgl 19 1 empty empty empty 0 -10 0 12 #fcfcfc #000000 #000000 1 1;
#X obj 51 470 metro 50;
#X obj 51 514 tabwrite~ \$0-scope;
#N canvas 0 22 450 278 (subpatch) 0;
#X array \$0-scope 441 float 1;
#A 0 0.0386764 0.042075 0.047686 0.0551127 0.0646011 0.0750069 0.0847298 0.0933066 0.1001 0.105135 0.109312 0.11395 0.119977 0.127381 0.134047 0.13887 0.141765 0.142696 0.143171 0.14355 0.144815 0.145171 0.14417 0.140638 0.134375 0.126259 0.117234 0.109314 0.102875 0.0982501 0.0947618 0.0907051 0.0857407 0.0796204 0.0728899 0.0648643 0.0551776 0.0450655 0.0348009 0.0250093 0.0156163 0.00648643 -0.000823916 -0.00634148 -0.00931292 -0.0102627 -0.00921756 -0.00717494 -0.00526963 -0.00387736 -0.00363133 -0.00419205 -0.00408334 -0.00302865 -0.000532113 0.00336051 0.00815524 0.0136652 0.0187307 0.0228885 0.0273933 0.0321194 0.037368 0.0428932 0.0497935 0.0575254 0.0649902 0.0711505 0.0744652 0.0740227 0.0707805 0.0654822 0.0605178 0.0569932 0.0548839 0.0547999 0.0560797 0.0582234 0.0617174 0.0659457 0.0693043 0.0714289 0.0730749 0.0752872 0.0783655 0.0808715 0.0830648 0.084459 0.0840928 0.0822772 0.0784036 0.0737958 0.0693691 0.0648338 0.0599342 0.0547904 0.0496447 0.0456224 0.042424 0.0390673 0.0360349 0.0337558 0.0334525 0.0340628 0.0352205 0.0355352 0.0330196 0.0281676 0.0216221 0.0136804 0.00554617 -0.00276165 -0.0111915 -0.019034 -0.0268955 -0.0338683 -0.03926 -0.0426262 -0.0440509 -0.0436046 -0.0419835 -0.041232 -0.0426453 -0.0456434 -0.0499156 -0.0540104 -0.0560263 -0.0554999 -0.0523416 -0.04781 -0.0439765 -0.0422791 -0.0434768 -0.0461393 -0.0488094 -0.050318 -0.0499461 -0.0488494 -0.0461698 -0.041398 -0.0350202 -0.0273285 -0.0196691 -0.0119754 -0.00363706 0.00636246 0.0171935 0.0283622 0.0384685 0.0470719 0.0524579 0.0544223 0.0550708 0.0551337 0.0568635 0.0609717 0.0677518 0.0756114 0.0828207 0.0882582 0.0906594 0.090934 0.0901883 0.0901997 0.0919296 0.0943613 0.0947084 0.0909702 0.0822886 0.070092 0.0565431 0.0426682 0.0300577 0.019034 0.0100281 0.00313546 -0.00211319 -0.00658751 -0.0103447 -0.0140371 -0.0178096 -0.0229667 -0.0298517 -0.0375835 -0.0462919 -0.0566766 -0.0692604 -0.0839498 -0.0983626 -0.111372 -0.122207 -0.131123 -0.13734 -0.14071 -0.141899 -0.141889 -0.139408 -0.134386 -0.127778 -0.120944 -0.116062 -0.111795 -0.107113 -0.101698 -0.0951928 -0.0889314 -0.0837495 -0.0794812 -0.0756858 -0.071839 -0.0683412 -0.0655204 -0.0621427 -0.0581624 -0.0531292 -0.0473752 -0.0413388 -0.0348429 -0.0285586 -0.0233347 -0.0185057 -0.015437 -0.0149602 -0.0154446 -0.0163143 -0.0153798 -0.0114814 -0.00488437 0.00424927 0.0133314 0.0201383 0.0236342 0.0247137 0.0258141 0.028509 0.0324512 0.037183 0.0412625 0.0445735 0.0474705 0.0498526 0.0517236 0.0522138 0.0504076 0.0473637 0.0442092 0.0409803 0.0376312 0.0326381 0.0253526 0.0152291 0.00252324 -0.0106613 -0.0236513 -0.0354761 -0.0456167 -0.0544948 -0.0619444 -0.0687474 -0.0761931 -0.0835111 -0.0898068 -0.0939436 -0.0946855 -0.0941534 -0.093627 -0.0954121 -0.101466 -0.111517 -0.123664 -0.135803 -0.145917 -0.15355 -0.157435 -0.157431 -0.155037 -0.151702 -0.148972 -0.147744 -0.14689 -0.145866 -0.143642 -0.140169 -0.134783 -0.129114 -0.124436 -0.121724 -0.121427 -0.122193 -0.123175 -0.124146 -0.123351 -0.120276 -0.115466 -0.109081 -0.102551 -0.0951337 -0.0864864 -0.0776808 -0.0693043 -0.0612539 -0.0540905 -0.0474419 -0.0409879 -0.0336661 -0.0258065 -0.0184828 -0.0111915 -0.00472989 0.000438659 0.00373051 0.00466313 0.00461736 0.00449721 0.00386783 0.00277118 0.00188623 0.00180232 0.00291041 0.003967 0.00404901 0.0016669 -0.00410241 -0.0117427 -0.0201802 -0.0272407 -0.0318619 -0.0353941 -0.0380642 -0.0403681 -0.0434444 -0.0476593 -0.0533066 -0.0600448 -0.067975 -0.0762885 -0.0846955 -0.093648 -0.101868 -0.108997 -0.115373 -0.119742 -0.123862 -0.128178 -0.131968 -0.134081 -0.133535 -0.131317 -0.129875 -0.130621 -0.134956 -0.141876 -0.149505 -0.156906 -0.162771 -0.167348 -0.170379 -0.171743 -0.172309 -0.17093 -0.166683 -0.159678 -0.149907 -0.137796 -0.124484 -0.111572 -0.10159 -0.0952577 -0.0928488 -0.0935087 -0.0940542 -0.0930415 -0.091386 -0.0891107 -0.0860592 -0.080616 -0.0721518 -0.0610957 -0.0500739 -0.0400324 -0.0316712 -0.0245554 -0.019259 -0.0161865 -0.016669 -0.0197053 -0.0249158 -0.0317284 -0.0391589 -0.0457102 -0.0509455 -0.0536785 -0.0535431 -0.0504286 -0.0452181 -0.0396071 -0.0330711 -0.0263329 -0.0200772 -0.0154541 -0.0133219 -0.012784 -0.0128756 -0.0140123 -0.0166423 -0.020699 -0.026453 -0.0328308 -0.0395975 -0.0463014 -0.0543937 -0.063472 -0.0701778 -0.0747208 -0.076649 -0.0768702 -0.0770133 -0.0771277 -0.0778067 -0.0800057 -0.0837286 -0.0902093 -0.0987173 -0.107752 -0.115968 -0.121634 -0.124959 -0.125739 -0.124766 -0.123851 -0.123814 -0.125624 -0.129732 -0.134762 -0.139831 -0.144654 -0.147981 -0.150262 -0.15162 -0.152882 -0.154063;
#X coords 0 1 440 -1 200 140 1;
#X restore 807 81 graph;
#X obj 251 789 else/plate.rev~;
#X obj 333 737 loadbang;
#X obj 222 348 catch~ \$0-mono;
#X obj 221 402 *~ 0.5;
#X obj 221 426 else/drive~;
#X obj 221 508 dac~ 1;
#X obj 321 402 *~ 0.5;
#X obj 321 426 else/drive~;
#X obj 321 508 dac~ 2;
#X obj 251 842 throw~ \$0-left;
#X obj 363 842 throw~ \$0-right;
#X obj 186 373 catch~ \$0-left;
#X obj 369 373 catch~ \$0-right;
#X obj 251 750 hip~ 1;
#X obj 251 818 *~ 1.5;
#X obj 363 818 *~ 1.5;
#X msg 333 761 wet 1 \, cutoff 0.5 \, damp 0.5 \, pre 0 \, size 0.8;
#N canvas 78 78 523 457 scream 0;
#X obj 202 15 noise~;
#X obj 188 191 bng 19 250 50 0 empty empty empty 0 -10 0 12 #fcfcfc #000000 #000000;
#X obj 188 239 vline~;
#X obj 74 370 throw~ \$0-mono;
#X obj 237 131 *~ 0.5;
#X obj 203 37 pow~ 101;
#X obj 66 133 else/resonant~ 215 20;
#X obj 203 63 else/resonant~ 923 20;
#X obj 88 233 *~;
#X obj 188 263 pow~ 4;
#X obj 62 180 *~ 1;
#X obj 88 281 else/drive~;
#X obj 88 257 *~ 20;
#X obj 237 107 else/resonant~ 1423 20;
#X msg 188 215 1 500 \, 0 100 500;
#X obj 75 318 *~ 0.25;
#X connect 0 0 5 0;
#X connect 1 0 14 0;
#X connect 2 0 9 0;
#X connect 4 0 10 0;
#X connect 5 0 6 0;
#X connect 5 0 7 0;
#X connect 5 0 13 0;
#X connect 6 0 10 0;
#X connect 7 0 10 0;
#X connect 8 0 12 0;
#X connect 9 0 8 1;
#X connect 10 0 8 0;
#X connect 11 0 15 0;
#X connect 12 0 11 0;
#X connect 13 0 4 0;
#X connect 14 0 2 0;
#X connect 15 0 3 0;
#X restore 83 735 pd scream;
#N canvas -1439 16 1169 996 aullido-de-viento 0;
#X obj 179 91 tgl 19 0 empty empty empty 0 -10 0 12 #fcfcfc #000000 #000000 0 1;
#X obj 179 115 metro 100;
#X obj 181 139 t b b;
#X obj 102 451 makenote;
#X obj 202 387 else/rand.i 1 127;
#X obj 179 322 t b b b b;
#X obj 102 539 pack f f f f f;
#X obj 102 562 clone -s 1 noiseVoice~ 20;
#X obj 102 505 poly 20 1;
#X obj 70 941 throw~ \$0-mono;
#X obj 407 562 else/lowpass~ 200 0.4;
#X obj 70 896 *~ 1;
#X obj 270 115 else/rand.i 100 5000;
#X obj 315 494 else/rand.i 1000 4000;
#X obj 271 467 else/rand.i 1000 4000;
#X obj 401 800 throw~ \$0-reverb;
#X obj 403 767 *~ 1;
#X obj 103 621 clip~ -1 1;
#X obj 179 43 loadbang;
#X msg 179 67 1;
#X obj 181 283 else/chance;
#X obj 467 58 r \$0-fearIndexInt;
#X obj 467 106 -;
#X obj 467 134 * 1500;
#X obj 255 211 r \$0-fearIndexInt;
#X obj 275 632 clip~ 0 1;
#X obj 504 598 r \$0-fearIndexInt;
#X msg 504 646 \$1 1000;
#X obj 504 670 line~;
#X obj 281 701 *~;
#X obj 103 665 *~;
#X obj 103 689 +~;
#X obj 207 612 sig~ 1;
#X obj 207 636 -~;
#X obj 296 311 r \$0-fearIndexInt;
#X obj 296 359 + 48;
#X obj 296 335 * 24;
#X obj 270 597 *~ 1;
#X obj 275 656 *~ 0.5;
#X obj 521 453 else/pink~;
#X obj 712 364 r \$0-fearIndexInt;
#X obj 712 388 / 2;
#X msg 712 412 \$1 1000;
#X obj 712 436 line~;
#X obj 697 523 *~;
#X obj 519 487 *~;
#X obj 623 434 sig~ 1;
#X obj 623 458 -~;
#X obj 692 492 noise~;
#X obj 467 158 + 500;
#X text 548 781 intensidad de volumen;
#X obj 255 259 + 70;
#X obj 255 235 * 20;
#X obj 99 357 else/rand.f 30 60;
#X obj 549 834 - 100;
#X obj 549 858 outlet;
#X obj 549 810 env~ 4096;
#X obj 134 899 outlet~;
#X msg 467 82 3 \$1;
#X obj 505 622 / 3;
#X obj 550 733 hip~ 200;
#X obj 267 49 r \$0-howls-tgl-s;
#X obj 203 227 bng 19 250 50 0 empty empty empty 0 -10 0 12 #fcfcfc #000000 #000000;
#X obj 317 948 pipe;
#X obj 217 770 pack f f;
#X obj 217 794 unpack f f;
#X obj 222 856 list prepend;
#X obj 222 885 route 1;
#X obj 233 914 select 1;
#X obj 316 792 > 32;
#X msg 542 979 1;
#X msg 564 1018 0;
#X obj 475 1042 t b b;
#X obj 475 1019 spigot 1;
#X obj 473 936 t b b;
#X obj 388 867 * 1;
#X floatatom 388 891 5 0 0 0 - - - 0;
#X msg 217 818 1;
#X obj 229 968 bng 19 250 50 0 empty empty empty 0 -10 0 12 #fcfcfc #000000 #000000;
#X obj 707 898 loadbang;
#X msg 707 922 1;
#X obj 543 954 delay 4000;
#X obj 707 970 bng 19 250 50 0 empty empty empty 0 -10 0 12 #fcfcfc #000000 #000000;
#X obj 707 946 metro 4000;
#X msg 906 860 disconnect;
#X obj 876 889 netsend -u -b;
#X obj 893 810 loadbang;
#X text 979 890 send as UDP \, binary;
#X msg 897 833 connect 10.12.181.191 5001;
#X floatatom 876 913 5 0 0 0 - - - 0;
#X text 1034 855 blancos y negros;
#X obj 738 619 t b b;
#X obj 768 745 oscformat /TriggerSB;
#X obj 876 704 oscformat /BeatDuration;
#X msg 712 700 1;
#X msg 792 703 0;
#X obj 793 672 t b b;
#X obj 792 648 delay 50;
#N canvas -786 227 553 405 test 0;
#X obj 247 48 tgl 19 0 empty empty empty 0 -10 0 12 #fcfcfc #000000 #000000 0 1;
#X obj 113 169 t b b;
#X msg 113 217 1;
#X msg 155 217 0;
#X obj 247 130 t b b;
#X obj 113 251 oscformat /TriggerSB;
#X obj 279 241 oscformat /BeatDuration;
#X obj 279 295 outlet;
#X obj 155 193 delay 50;
#X obj 247 101 bng 19 250 50 0 empty empty empty 0 -10 0 12 #fcfcfc #000000 #000000;
#X text 319 217 Duracion del pulso en segundos;
#X text 23 297 Envia 1 y luego 0 despues de 50 ms;
#X obj 247 72 metro 2000;
#X msg 278 217 2;
#X connect 0 0 12 0;
#X connect 1 0 2 0;
#X connect 1 1 8 0;
#X connect 2 0 5 0;
#X connect 3 0 5 0;
#X connect 4 0 1 0;
#X connect 4 1 13 0;
#X connect 5 0 7 0;
#X connect 6 0 7 0;
#X connect 8 0 3 0;
#X connect 9 0 4 0;
#X connect 12 0 9 0;
#X connect 13 0 6 0;
#X restore 1055 756 pd test;
#X text 923 913 Secondary Beat;
#X msg 910 662 0.5;
#X obj 883 558 bng 19 250 50 0 empty empty empty 0 -10 0 12 #fcfcfc #000000 #000000;
#X obj 883 582 t b b;
#X connect 0 0 1 0;
#X connect 1 0 2 0;
#X connect 2 0 20 0;
#X connect 2 1 12 0;
#X connect 3 0 8 0;
#X connect 3 0 64 0;
#X connect 3 1 8 1;
#X connect 3 1 64 1;
#X connect 4 0 3 1;
#X connect 5 0 53 0;
#X connect 5 1 4 0;
#X connect 5 3 13 0;
#X connect 5 3 14 0;
#X connect 6 0 7 0;
#X connect 7 0 17 0;
#X connect 7 0 37 0;
#X connect 8 0 6 0;
#X connect 8 1 6 1;
#X connect 8 2 6 2;
#X connect 10 0 7 1;
#X connect 11 0 9 0;
#X connect 12 0 1 1;
#X connect 13 0 6 4;
#X connect 14 0 6 3;
#X connect 14 0 3 2;
#X connect 14 0 75 0;
#X connect 16 0 15 0;
#X connect 17 0 30 0;
#X connect 18 0 19 0;
#X connect 19 0 0 0;
#X connect 20 0 5 0;
#X connect 20 0 62 0;
#X connect 21 0 58 0;
#X connect 22 0 23 0;
#X connect 23 0 49 0;
#X connect 24 0 52 0;
#X connect 25 0 38 0;
#X connect 26 0 59 0;
#X connect 27 0 28 0;
#X connect 28 0 33 1;
#X connect 28 0 29 1;
#X connect 29 0 31 1;
#X connect 30 0 31 0;
#X connect 31 0 16 0;
#X connect 31 0 11 0;
#X connect 31 0 57 0;
#X connect 31 0 60 0;
#X connect 32 0 33 0;
#X connect 33 0 30 1;
#X connect 34 0 36 0;
#X connect 35 0 53 2;
#X connect 36 0 35 0;
#X connect 37 0 25 0;
#X connect 38 0 29 0;
#X connect 39 0 45 0;
#X connect 40 0 41 0;
#X connect 41 0 42 0;
#X connect 42 0 43 0;
#X connect 43 0 47 1;
#X connect 43 0 44 1;
#X connect 44 0 10 0;
#X connect 45 0 10 0;
#X connect 46 0 47 0;
#X connect 47 0 45 1;
#X connect 48 0 44 0;
#X connect 49 0 12 2;
#X connect 51 0 20 1;
#X connect 52 0 51 0;
#X connect 53 0 3 0;
#X connect 54 0 55 0;
#X connect 56 0 54 0;
#X connect 58 0 22 0;
#X connect 59 0 27 0;
#X connect 60 0 56 0;
#X connect 61 0 1 0;
#X connect 63 0 74 0;
#X connect 64 0 65 0;
#X connect 65 0 77 0;
#X connect 65 1 69 0;
#X connect 66 0 67 0;
#X connect 67 0 68 0;
#X connect 68 0 63 0;
#X connect 68 0 78 0;
#X connect 69 0 66 1;
#X connect 70 0 73 1;
#X connect 71 0 73 1;
#X connect 72 0 101 0;
#X connect 72 1 71 0;
#X connect 73 0 72 0;
#X connect 74 0 73 0;
#X connect 74 1 81 0;
#X connect 75 0 63 1;
#X connect 75 0 76 0;
#X connect 77 0 66 0;
#X connect 79 0 80 0;
#X connect 80 0 83 0;
#X connect 81 0 70 0;
#X connect 83 0 70 0;
#X connect 83 0 82 0;
#X connect 84 0 85 0;
#X connect 85 0 89 0;
#X connect 86 0 88 0;
#X connect 88 0 85 0;
#X connect 91 0 94 0;
#X connect 91 1 97 0;
#X connect 92 0 85 0;
#X connect 93 0 85 0;
#X connect 94 0 92 0;
#X connect 95 0 92 0;
#X connect 96 0 95 0;
#X connect 96 1 100 0;
#X connect 97 0 96 0;
#X connect 98 0 85 0;
#X connect 100 0 93 0;
#X connect 101 0 102 0;
#X connect 102 0 91 0;
#X connect 102 1 100 0;
#X restore 83 707 pd aullido-de-viento;
#X obj 251 708 catch~ \$0-reverb;
#N canvas 130 130 523 520 stinger 0;
#X obj 48 175 noise~;
#X obj 85 254 *~;
#X obj 131 107 bng 19 250 50 0 empty empty empty 0 -10 0 12 #fcfcfc #000000 #000000;
#X obj 123 191 vline~;
#X obj 170 310 vline~;
#X obj 195 381 *~;
#X msg 123 164 1 \, 0 100;
#X obj 123 215 *~;
#X obj 47 200 *~ 4;
#X obj 331 351 osc~ 40;
#X obj 250 258 delay 250;
#X msg 167 258 1 \, 0 10;
#X msg 250 282 1 \, 0 100;
#X obj 195 405 *~ 4;
#X connect 0 0 8 0;
#X connect 2 0 6 0;
#X connect 2 0 11 0;
#X connect 2 0 10 0;
#X connect 3 0 7 0;
#X connect 3 0 7 1;
#X connect 4 0 5 0;
#X connect 5 0 13 0;
#X connect 6 0 3 0;
#X connect 7 0 1 1;
#X connect 8 0 1 0;
#X connect 9 0 5 1;
#X connect 10 0 12 0;
#X connect 11 0 4 0;
#X connect 12 0 4 0;
#X restore 83 760 pd stinger;
#N canvas 208 208 487 503 insectos 0;
#X obj 244 422 throw~ \$0-left;
#X obj 29 333 clone insectos~ 20;
#X obj 259 168 loadbang;
#X msg 259 216 10 \$1;
#X obj 259 240 pow;
#X floatatom 259 264 5 0 0 0 - - - 0;
#X msg 259 287 all \$1;
#X obj 29 165 loadbang;
#X msg 29 213 10 \$1;
#X obj 29 237 pow;
#X floatatom 29 261 5 0 0 0 - - - 0;
#X msg 29 284 all \$1;
#X msg 29 188 5;
#X obj 280 346 *~ 1;
#X obj 245 315 clone insectos~ 10;
#X obj 54 427 throw~ \$0-right;
#X obj 68 376 *~ 1;
#X msg 259 191 5;
#X connect 1 0 16 0;
#X connect 2 0 17 0;
#X connect 3 0 4 0;
#X connect 4 0 5 0;
#X connect 5 0 6 0;
#X connect 6 0 14 0;
#X connect 7 0 12 0;
#X connect 8 0 9 0;
#X connect 9 0 10 0;
#X connect 10 0 11 0;
#X connect 11 0 1 0;
#X connect 12 0 8 0;
#X connect 14 0 13 0;
#X connect 17 0 3 0;
#X restore 83 785 pd insectos;
#N canvas 9 16 934 956 strings 0;
#X obj 184 -15 tgl 19 0 empty empty empty 0 -10 0 12 #fcfcfc #000000 #000000 0 1;
#X obj 184 9 metro 100;
#X obj 184 33 t b b;
#X obj 107 345 makenote;
#X obj 230 311 else/rand.i 250 2000;
#X obj 162 149 t b b b b;
#X obj 107 433 pack f f f f f;
#X obj 412 432 else/pink~;
#X obj 107 399 poly 20 1;
#X obj 106 456 clone -s 1 strings~ 20;
#X obj 276 361 else/rand.i 1000 4000;
#X obj 320 388 else/rand.i 1000 4000;
#X obj 106 502 *~ 0.5;
#X obj 105 528 throw~ \$0-reverb;
#X obj 184 -68 loadbang;
#X msg 184 -44 1;
#X obj 164 111 else/chance;
#X obj 431 -156 r \$0-fearIndexInt;
#X obj 287 47 r \$0-fearIndexInt;
#X obj 310 179 r \$0-fearIndexInt;
#X obj 310 227 + 48;
#X obj 106 251 else/rand.f 20 60;
#X obj 603 343 r \$0-fearIndexInt;
#X msg 603 391 \$1 1000;
#X obj 603 415 line~;
#X obj 588 502 *~;
#X obj 410 466 *~;
#X obj 514 413 sig~ 1;
#X obj 514 437 -~;
#X obj 583 471 noise~;
#X obj 287 95 + 70;
#X obj 287 71 * 20;
#X obj 40 528 outlet~;
#X obj 603 367 / 3;
#X obj 232 -32 r \$0-strings-tgl-s;
#X obj 140 772 pipe;
#X obj 59 599 pack f f;
#X obj 59 623 unpack f f;
#X obj 59 685 list prepend;
#X obj 59 714 route 1;
#X obj 70 743 select 1;
#X obj 140 652 > 32;
#X msg 366 839 1;
#X msg 388 878 0;
#X obj 299 902 t b b;
#X obj 299 879 spigot 1;
#X obj 297 796 t b b;
#X obj 366 814 delay 1000;
#X obj 242 708 * 1;
#X obj 207 281 else/rand.i 32 127;
#X msg 59 647 1;
#X obj 287 119 min 100;
#X msg 431 -101 2 \$1;
#X obj 431 -76 pow;
#X obj 431 -51 * -500;
#X obj 271 11 else/rand.i 100 2000;
#X floatatom 431 -1 5 0 0 0 - - - 0;
#X obj 410 710 r \$0-fearIndexInt;
#X floatatom 310 251 5 0 0 0 - - - 0;
#X obj 310 203 * 12;
#X obj 460 196 r \$0-fearIndexInt;
#X obj 460 220 * 12;
#X obj 460 244 + 20;
#X obj 431 -131 - 1;
#X obj 431 -26 + 2100;
#X obj 410 734 select 1 2 3;
#X msg 410 758 1000;
#X msg 459 772 24;
#X msg 1079 817 disconnect;
#X obj 1049 846 netsend -u -b;
#X obj 1066 767 loadbang;
#X text 1152 847 send as UDP \, binary;
#X msg 1069 790 connect 10.12.181.191 5000;
#X floatatom 1049 870 5 0 0 0 - - - 0;
#X text 1227 757 colores;
#X obj 1042 552 bng 19 250 50 0 empty empty empty 0 -10 0 12 #000000 #ffffff #000000;
#X obj 671 619 t b b;
#X obj 809 704 oscformat /BeatDuration;
#X msg 645 700 1;
#X msg 725 703 0;
#X obj 726 672 t b b;
#X obj 725 648 delay 50;
#X obj 789 601 t b b;
#X obj 701 745 oscformat /TriggerPB;
#X text 1092 868 Primary Beat;
#N canvas -786 227 553 405 test 0;
#X obj 247 18 tgl 19 0 empty empty empty 0 -10 0 12 #fcfcfc #000000 #000000 0 1;
#X obj 113 169 t b b;
#X msg 113 217 1;
#X msg 155 217 0;
#X obj 247 100 t b b;
#X obj 113 251 oscformat /TriggerSB;
#X obj 279 241 oscformat /BeatDuration;
#X obj 279 295 outlet;
#X obj 155 193 delay 50;
#X obj 247 71 bng 19 250 50 0 empty empty empty 0 -10 0 12 #fcfcfc #000000 #000000;
#X text 23 297 Envia 1 y luego 0 despues de 50 ms;
#X text 319 217 Duracion del pulso en BPM;
#X msg 283 146 60000 \$1;
#X obj 283 170 /;
#X obj 249 42 metro 100;
#X msg 300 129 100;
#X obj 283 194 * 2;
#X connect 0 0 14 0;
#X connect 1 0 2 0;
#X connect 1 1 8 0;
#X connect 2 0 5 0;
#X connect 3 0 5 0;
#X connect 4 0 1 0;
#X connect 4 1 15 0;
#X connect 5 0 7 0;
#X connect 6 0 7 0;
#X connect 8 0 3 0;
#X connect 9 0 4 0;
#X connect 12 0 13 0;
#X connect 13 0 16 0;
#X connect 14 0 9 0;
#X connect 15 0 12 0;
#X connect 16 0 6 0;
#X restore 1028 680 pd test;
#X obj 811 661 f;
#X obj 847 477 r \$0-fearIndexInt;
#X obj 847 501 * 120;
#X obj 847 525 max 60;
#X connect 0 0 1 0;
#X connect 1 0 2 0;
#X connect 2 0 16 0;
#X connect 2 1 55 0;
#X connect 3 0 8 0;
#X connect 3 0 36 0;
#X connect 3 1 8 1;
#X connect 3 1 36 1;
#X connect 5 0 21 0;
#X connect 5 1 49 0;
#X connect 5 2 4 0;
#X connect 5 3 10 0;
#X connect 5 3 11 0;
#X connect 6 0 9 0;
#X connect 7 0 26 0;
#X connect 8 0 6 0;
#X connect 8 1 6 1;
#X connect 8 2 6 2;
#X connect 9 0 12 0;
#X connect 9 0 32 0;
#X connect 10 0 6 3;
#X connect 10 0 3 2;
#X connect 10 0 48 0;
#X connect 11 0 6 4;
#X connect 12 0 13 0;
#X connect 14 0 15 0;
#X connect 15 0 0 0;
#X connect 16 0 5 0;
#X connect 17 0 63 0;
#X connect 18 0 31 0;
#X connect 19 0 59 0;
#X connect 20 0 21 2;
#X connect 20 0 58 0;
#X connect 21 0 3 0;
#X connect 22 0 33 0;
#X connect 23 0 24 0;
#X connect 24 0 28 1;
#X connect 24 0 25 1;
#X connect 25 0 9 1;
#X connect 26 0 9 1;
#X connect 27 0 28 0;
#X connect 28 0 26 1;
#X connect 29 0 25 0;
#X connect 30 0 51 0;
#X connect 31 0 30 0;
#X connect 33 0 23 0;
#X connect 34 0 1 0;
#X connect 35 0 46 0;
#X connect 36 0 37 0;
#X connect 37 0 50 0;
#X connect 37 1 41 0;
#X connect 38 0 39 0;
#X connect 39 0 40 0;
#X connect 40 0 35 0;
#X connect 41 0 38 1;
#X connect 42 0 45 1;
#X connect 43 0 45 1;
#X connect 44 0 75 0;
#X connect 44 1 43 0;
#X connect 45 0 44 0;
#X connect 46 0 45 0;
#X connect 46 1 47 0;
#X connect 47 0 42 0;
#X connect 48 0 35 1;
#X connect 49 0 3 1;
#X connect 50 0 38 0;
#X connect 51 0 16 1;
#X connect 52 0 53 0;
#X connect 53 0 54 0;
#X connect 54 0 64 0;
#X connect 55 0 1 1;
#X connect 57 0 65 0;
#X connect 59 0 20 0;
#X connect 60 0 61 0;
#X connect 61 0 62 0;
#X connect 62 0 21 1;
#X connect 63 0 52 0;
#X connect 64 0 55 2;
#X connect 64 0 56 0;
#X connect 65 0 66 0;
#X connect 65 1 66 0;
#X connect 65 2 67 0;
#X connect 66 0 47 1;
#X connect 67 0 47 1;
#X connect 68 0 69 0;
#X connect 69 0 73 0;
#X connect 70 0 72 0;
#X connect 72 0 69 0;
#X connect 75 0 82 0;
#X connect 76 0 78 0;
#X connect 76 1 81 0;
#X connect 77 0 69 0;
#X connect 78 0 83 0;
#X connect 79 0 83 0;
#X connect 80 0 79 0;
#X connect 80 1 86 0;
#X connect 81 0 80 0;
#X connect 82 0 76 0;
#X connect 83 0 69 0;
#X connect 85 0 69 0;
#X connect 86 0 77 0;
#X connect 87 0 88 0;
#X connect 88 0 89 0;
#X connect 89 0 86 1;
#X restore 83 683 pd strings;
#X obj 611 464 r \$0-fearIndex-s;
#X obj 661 557 i;
#X obj 661 509 * 2;
#N canvas 52 52 1413 800 electricidad 0;
#X obj 235 302 vline~;
#X obj 108 333 noise~;
#X obj 235 374 mtof~;
#X obj 213 503 *~;
#X obj 416 399 vline~;
#X obj 439 247 bng 19 250 50 0 empty empty empty 0 -10 0 12 #fcfcfc #000000 #000000;
#X obj 415 303 else/rand.f 0.5 1;
#X obj 439 271 t b b;
#X obj 415 347 pack f f;
#X obj 416 423 *~;
#X obj 108 428 else/highpass~ 1000 0.7;
#X msg 414 376 \$1 10 \, 0 \$2 10;
#X obj 579 284 else/rand.i 1000 5000;
#X obj 235 398 clip~ 20 20000;
#X obj 213 532 throw~ \$0-mono;
#X obj 104 390 *~ 2;
#X msg 234 275 0 \, 1 600;
#X obj 234 326 *~ 50;
#X obj 130 223 sig~ 10;
#X obj 130 247 pow~;
#X obj 109 357 pow~;
#X obj 224 155 sig~ 1;
#X obj 224 179 -~;
#X obj 198 228 +~ 2.5;
#X obj 197 205 *~ 2;
#X obj 235 350 +~ 60;
#X obj 857 327 vline~;
#X obj 730 358 noise~;
#X obj 857 399 mtof~;
#X obj 835 528 *~;
#X obj 1038 424 vline~;
#X obj 1061 272 bng 19 250 50 0 empty empty empty 0 -10 0 12 #fcfcfc #000000 #000000;
#X obj 1037 328 else/rand.f 0.5 1;
#X obj 1061 296 t b b;
#X obj 1037 372 pack f f;
#X obj 1038 448 *~;
#X obj 730 453 else/highpass~ 1000 0.7;
#X msg 1036 401 \$1 10 \, 0 \$2 10;
#X obj 1201 309 else/rand.i 1000 5000;
#X obj 857 423 clip~ 20 20000;
#X obj 835 557 throw~ \$0-mono;
#X obj 726 415 *~ 2;
#X msg 856 300 0 \, 1 600;
#X obj 856 351 *~ 50;
#X obj 752 248 sig~ 10;
#X obj 752 272 pow~;
#X obj 731 382 pow~;
#X obj 846 180 sig~ 1;
#X obj 846 204 -~;
#X obj 820 253 +~ 2.5;
#X obj 819 230 *~ 2;
#X obj 857 375 +~ 60;
#X obj 573 94 inlet;
#X obj 573 118 tgl 19 0 empty empty empty 0 -10 0 12 #fcfcfc #000000 #000000 0 1;
#X obj 573 142 sel 0 1;
#X connect 0 0 17 0;
#X connect 0 0 22 1;
#X connect 1 0 20 0;
#X connect 2 0 13 0;
#X connect 3 0 14 0;
#X connect 4 0 9 0;
#X connect 4 0 9 1;
#X connect 5 0 7 0;
#X connect 6 0 8 0;
#X connect 7 0 6 0;
#X connect 7 0 16 0;
#X connect 7 1 12 0;
#X connect 8 0 11 0;
#X connect 9 0 3 1;
#X connect 10 0 3 0;
#X connect 11 0 4 0;
#X connect 12 0 8 1;
#X connect 13 0 10 1;
#X connect 15 0 10 0;
#X connect 16 0 0 0;
#X connect 17 0 25 0;
#X connect 18 0 19 0;
#X connect 19 0 20 1;
#X connect 20 0 15 0;
#X connect 21 0 22 0;
#X connect 22 0 24 0;
#X connect 23 0 19 1;
#X connect 24 0 23 0;
#X connect 25 0 2 0;
#X connect 26 0 43 0;
#X connect 26 0 48 1;
#X connect 27 0 46 0;
#X connect 28 0 39 0;
#X connect 29 0 40 0;
#X connect 30 0 35 0;
#X connect 30 0 35 1;
#X connect 31 0 33 0;
#X connect 32 0 34 0;
#X connect 33 0 32 0;
#X connect 33 0 42 0;
#X connect 33 1 38 0;
#X connect 34 0 37 0;
#X connect 35 0 29 1;
#X connect 36 0 29 0;
#X connect 37 0 30 0;
#X connect 38 0 34 1;
#X connect 39 0 36 1;
#X connect 41 0 36 0;
#X connect 42 0 26 0;
#X connect 43 0 51 0;
#X connect 44 0 45 0;
#X connect 45 0 46 1;
#X connect 46 0 41 0;
#X connect 47 0 48 0;
#X connect 48 0 50 0;
#X connect 49 0 45 1;
#X connect 50 0 49 0;
#X connect 51 0 28 0;
#X connect 52 0 53 0;
#X connect 53 0 54 0;
#X connect 54 0 5 0;
#X connect 54 1 31 0;
#X restore 83 809 pd electricidad;
#X obj 611 609 s \$0-fearIndexInt;
#X obj 670 798 oscparse;
#X obj 670 774 netreceive -u -b 9011;
#X listbox 756 817 20 0 0 0 - - - 0;
#X obj 670 846 route emotion-ID;
#X obj 670 870 s \$0-fearIndex-r;
#X obj 670 822 list trim;
#N canvas 77 0 1920 997 shepard 0;
#X obj 55 53 cnv 15 413 179 empty empty empty 20 12 0 14 #e0e0e0 #404040 0;
#X obj 61 59 cnv 15 401 112 empty empty empty 20 12 0 14 #202020 #404040 0;
#N canvas 398 107 878 693 \$0-screen 0;
#X coords 0 -1 1 1 389 100 2 40 60;
#X restore 67 65 pd \$0-screen;
#X obj 61 178 cnv 15 401 48 empty empty empty 20 12 0 14 #9c9c9c #404040 0;
#X obj 193 184 bng 36 250 50 0 \$0-back \$0-setback < 8 18 0 30 #e0e0e0 #000000 #000000;
#X obj 293 184 bng 36 250 50 0 \$0-forward \$0-setforward > 8 18 0 30 #fcfcfc #000000 #000000;
#X obj 243 184 bng 36 250 50 0 \$0-pause \$0-setpause ▮▮ 7 17 0 20 #e0e0e0 #000000 #000000;
#X obj 633 83 r \$0-set;
#X obj 633 566 +;
#X obj 633 589 t f;
#X obj 701 289 s \$0-set;
#X obj 636 106 hsl 384 100 0 383 0 0 empty empty empty -2 -8 0 10 #fcfcfc #000000 #000000 0 1;
#X obj 634 107 cnv 15 387 98 empty empty empty 20 12 0 14 #fcfcfc #404040 0;
#X obj 633 221 sel 192;
#X msg 701 267 192;
#X obj 633 267 - 192;
#N canvas 381 419 308 129 \$0-bars 0;
#X obj 43 43 struct \$0-bars float x float color;
#X obj 43 66 drawpolygon color 8 0 0 0 1;
#X restore 1085 83 pd \$0-bars;
#X obj 1145 132 bng 15 250 50 0 empty empty empty 17 7 0 10 #fcfcfc #000000 #000000;
#X msg 1196 198 clear;
#X obj 1196 221 s pd-\$0-display;
#X obj 1214 359 pointer;
#X obj 1085 428 append \$0-bars x color;
#X obj 1214 313 \$0;
#X msg 1214 336 traverse pd-\$1-display \, bang;
#X obj 1158 267 t f f;
#X obj 1185 290 / 2;
#X obj 1185 313 i;
#X msg 1085 198 10;
#X obj 1085 244 until;
#X obj 1085 267 f;
#X obj 1115 267 + 1;
#X obj 1085 221 t f b;
#X msg 1127 244 0;
#X obj 1085 290 *;
#X obj 1085 175 t b b;
#X obj 1085 336 +;
#N canvas 0 85 450 300 \$0-display 0;
#X scalar 5744-bars 341 666 \;;
#X scalar 5744-bars 379 777 \;;
#X scalar 5744-bars 33 666 \;;
#X scalar 5744-bars 72 555 \;;
#X scalar 5744-bars 110 333 \;;
#X scalar 5744-bars 149 111 \;;
#X scalar 5744-bars 187 0 \;;
#X scalar 5744-bars 225 111 \;;
#X scalar 5744-bars 264 333 \;;
#X scalar 5744-bars 302 444 \;;
#X coords 0 0 383 1 389 100 2 100 100;
#X restore 633 106 pd \$0-display;
#X obj 1158 244 / 10;
#X msg 1158 221 384;
#X obj 1085 359 t f f;
#X obj 1149 405 expr $f1+$f1*10+$f1*100;
#X obj 1149 382 expr int(8*abs($f1-192)/192);
#X obj 1085 313 i;
#X obj 1085 129 loadbang;
#X obj 1196 175 s \$0-reset;
#X obj 1085 152 t b b b b;
#X obj 661 520 r \$0-reset;
#X msg 661 543 0;
#X obj 701 244 r \$0-reset;
#X obj 633 681 mod 384;
#X obj 837 934 *~ 1;
#X obj 633 727 t f f;
#X obj 853 727 t f f;
#X obj 1073 727 t f f;
#X obj 633 244 t f b;
#X obj 633 704 / 384;
#X obj 853 681 mod 384;
#X obj 853 658 + 192;
#X obj 853 704 / 384;
#X obj 1073 681 mod 384;
#X obj 1073 704 / 384;
#X obj 633 658 + 96;
#X obj 1073 658 + 288;
#X obj 633 612 t f f f;
#X msg 743 336 10;
#X obj 743 359 until;
#X msg 743 382 next;
#X obj 743 405 pointer;
#X msg 788 382 traverse pd-\$1-display;
#X obj 788 359 \$0;
#X obj 743 451 get \$0-bars x;
#X obj 743 474 +;
#X obj 743 497 mod 384;
#X obj 743 589 set \$0-bars x color;
#X obj 743 520 t f f;
#X obj 798 566 expr $f1+$f1*10+$f1*100;
#X obj 798 543 expr int(8*abs($f1-192)/192);
#X obj 743 428 t p p;
#X obj 743 313 t b b f;
#X obj 633 290 t f f;
#X obj 666 773 expr pow(1-abs($f1-0.5)*2 \, 2);
#X obj 880 773 expr pow(1-abs($f1-0.5)*2 \, 2);
#X obj 1106 773 expr pow(1-abs($f1-0.5)*2 \, 2);
#X obj 1085 474 r \$0-back;
#X obj 1245 474 r \$0-pause;
#X obj 1155 474 r \$0-forward;
#X msg 1245 497 0;
#X obj 1085 520 t f b;
#X msg 1085 497 1;
#X obj 1085 589 f;
#X obj 1155 520 t f b;
#X msg 1155 497 1;
#X obj 1085 612 s \$0-play;
#X obj 701 221 r \$0-play;
#X obj 1245 520 t f b;
#X msg 1148 566 -1;
#X msg 1182 566 1;
#X obj 1168 635 s \$0-setback;
#X obj 1248 635 s \$0-setforward;
#X obj 1348 635 s \$0-setpause;
#X msg 1168 612 color 0;
#X msg 1248 612 color 0;
#X msg 1348 612 color 0;
#X msg 1179 589 color 16000;
#X msg 1269 589 color 16000;
#X msg 1359 589 color 16000;
#X obj 633 750 expr pow(2 \, $f1*4)*110;
#X obj 853 750 expr pow(2 \, $f1*4)*110;
#X obj 1073 750 expr pow(2 \, $f1*4)*110;
#X obj 604 948 *~ 0.25;
#X obj 1057 938 *~ 0.25;
#X obj 1085 566 metro 200;
#X obj 594 803 else/f2s~ 200;
#X obj 898 806 else/f2s~ 200;
#X obj 1092 807 else/f2s~ 200;
#X obj 529 833 else/resonant~ 1000 50;
#X obj 834 836 else/resonant~ 1000 50;
#X obj 1028 837 else/resonant~ 1000 50;
#X obj 520 898 clip~ 0 1;
#X obj 825 901 clip~ 0 1;
#X obj 1019 902 clip~ 0 1;
#X obj 529 857 *~ 4;
#X obj 834 860 *~ 4;
#X obj 1028 861 *~ 4;
#X obj 633 770 * 10;
#X obj 853 771 * 10;
#X obj 1073 771 * 10;
#X obj 841 1010 throw~ \$0-reverb;
#X obj 1033 1016 throw~ \$0-mono;
#X obj 413 812 noise~;
#X obj 1348 771 r \$0-fearIndexInt;
#X msg 1297 908 \$1 1000;
#X obj 1297 932 line~;
#X obj 840 963 *~;
#X obj 1033 992 *~ 0.05;
#X obj 326 309 loadbang;
#X obj 840 987 *~ 0.2;
#X msg 1348 829 0;
#X msg 1428 829 0.1;
#X msg 1388 829 0.02;
#X obj 1348 795 select 1 2 3;
#X connect 7 0 11 0;
#X connect 8 0 9 0;
#X connect 9 0 8 1;
#X connect 9 0 63 0;
#X connect 11 0 13 0;
#X connect 13 1 54 0;
#X connect 14 0 10 0;
#X connect 15 0 79 0;
#X connect 17 0 45 0;
#X connect 18 0 19 0;
#X connect 20 0 21 2;
#X connect 22 0 23 0;
#X connect 23 0 20 0;
#X connect 24 0 33 1;
#X connect 24 1 25 0;
#X connect 25 0 26 0;
#X connect 26 0 35 1;
#X connect 27 0 31 0;
#X connect 28 0 29 0;
#X connect 29 0 30 0;
#X connect 29 0 33 0;
#X connect 30 0 29 1;
#X connect 31 0 28 0;
#X connect 31 1 32 0;
#X connect 32 0 29 1;
#X connect 33 0 42 0;
#X connect 34 0 27 0;
#X connect 34 1 38 0;
#X connect 35 0 39 0;
#X connect 37 0 24 0;
#X connect 38 0 37 0;
#X connect 39 0 21 0;
#X connect 39 1 41 0;
#X connect 40 0 21 1;
#X connect 41 0 40 0;
#X connect 42 0 35 0;
#X connect 43 0 45 0;
#X connect 45 0 34 0;
#X connect 45 1 22 0;
#X connect 45 2 18 0;
#X connect 45 3 44 0;
#X connect 46 0 47 0;
#X connect 47 0 8 1;
#X connect 48 0 14 0;
#X connect 49 0 55 0;
#X connect 50 0 133 0;
#X connect 51 0 106 0;
#X connect 51 1 80 0;
#X connect 52 0 107 0;
#X connect 52 1 81 0;
#X connect 53 0 108 0;
#X connect 53 1 82 0;
#X connect 54 0 15 0;
#X connect 54 1 14 0;
#X connect 55 0 51 0;
#X connect 56 0 58 0;
#X connect 57 0 56 0;
#X connect 58 0 52 0;
#X connect 59 0 60 0;
#X connect 60 0 53 0;
#X connect 61 0 49 0;
#X connect 62 0 59 0;
#X connect 63 0 61 0;
#X connect 63 1 57 0;
#X connect 63 2 62 0;
#X connect 64 0 65 0;
#X connect 65 0 66 0;
#X connect 66 0 67 0;
#X connect 67 0 77 0;
#X connect 68 0 67 0;
#X connect 69 0 68 0;
#X connect 70 0 71 0;
#X connect 71 0 72 0;
#X connect 72 0 74 0;
#X connect 74 0 73 0;
#X connect 74 1 76 0;
#X connect 75 0 73 1;
#X connect 76 0 75 0;
#X connect 77 0 70 0;
#X connect 77 1 73 2;
#X connect 78 0 64 0;
#X connect 78 1 69 0;
#X connect 78 2 71 1;
#X connect 79 0 8 0;
#X connect 79 1 78 0;
#X connect 80 0 109 1;
#X connect 81 0 50 1;
#X connect 82 0 110 1;
#X connect 83 0 88 0;
#X connect 84 0 86 0;
#X connect 85 0 91 0;
#X connect 86 0 94 0;
#X connect 87 0 111 0;
#X connect 87 1 95 0;
#X connect 87 1 100 0;
#X connect 87 1 105 0;
#X connect 87 1 104 0;
#X connect 88 0 87 0;
#X connect 89 0 92 0;
#X connect 90 0 111 0;
#X connect 90 1 96 0;
#X connect 90 1 101 0;
#X connect 90 1 105 0;
#X connect 90 1 103 0;
#X connect 91 0 90 0;
#X connect 93 0 79 0;
#X connect 94 0 111 0;
#X connect 94 1 102 0;
#X connect 94 1 103 0;
#X connect 94 1 104 0;
#X connect 95 0 89 1;
#X connect 96 0 89 1;
#X connect 100 0 97 0;
#X connect 101 0 98 0;
#X connect 102 0 99 0;
#X connect 103 0 97 0;
#X connect 104 0 98 0;
#X connect 105 0 99 0;
#X connect 106 0 124 0;
#X connect 107 0 125 0;
#X connect 108 0 126 0;
#X connect 109 0 133 0;
#X connect 110 0 133 0;
#X connect 111 0 89 0;
#X connect 112 0 115 1;
#X connect 113 0 116 1;
#X connect 114 0 117 1;
#X connect 115 0 121 0;
#X connect 116 0 122 0;
#X connect 117 0 123 0;
#X connect 118 0 109 0;
#X connect 119 0 50 0;
#X connect 120 0 110 0;
#X connect 121 0 118 0;
#X connect 122 0 119 0;
#X connect 123 0 120 0;
#X connect 124 0 112 0;
#X connect 125 0 113 0;
#X connect 126 0 114 0;
#X connect 129 0 115 0;
#X connect 129 0 116 0;
#X connect 129 0 117 0;
#X connect 130 0 140 0;
#X connect 131 0 132 0;
#X connect 132 0 133 1;
#X connect 133 0 134 0;
#X connect 133 0 136 0;
#X connect 134 0 128 0;
#X connect 135 0 5 0;
#X connect 136 0 127 0;
#X connect 137 0 131 0;
#X connect 138 0 131 0;
#X connect 139 0 131 0;
#X connect 140 0 137 0;
#X connect 140 1 139 0;
#X connect 140 2 138 0;
#X connect 140 3 137 0;
#X restore 83 610 pd shepard;
#X obj 488 394 r \$0-volumen-s;
#X obj 488 418 pow 4;
#X msg 488 442 \$1 100;
#X obj 488 466 line~;
#X obj 321 484 *~;
#X obj 220 485 *~;
#X text 222 328 // Master Output;
#N canvas -1439 16 942 996 bass 0;
#X obj 203 575 throw~ \$0-mono;
#X obj 287 255 osc~ 40;
#X obj 287 295 *~;
#X obj 388 270 line~;
#X obj 214 222 osc~ 39;
#X obj 388 198 r \$0-fearIndexInt;
#X obj 284 87 r \$0-fearIndexInt;
#X obj 284 111 select 1 2;
#X msg 388 246 \$1 1000;
#X obj 284 193 line~;
#X msg 284 169 \$1 2000;
#X obj 71 51 r \$0-fearIndexInt;
#X obj 69 179 line~;
#X msg 69 155 \$1 2000;
#X obj 71 75 select 0 1 2;
#X msg 71 99 39;
#X msg 284 145 46;
#X obj 504 303 tgl 19 0 empty empty empty 0 -10 0 12 #fcfcfc #000000 #000000 0 1;
#X obj 504 327 metro 100;
#X obj 504 380 t b f;
#X obj 504 428 pack f f;
#X obj 504 404 else/rand.f 0.1 1;
#X obj 504 356 else/rand.i 1 250;
#X msg 504 452 \$1 \$2;
#X obj 504 476 line~;
#X msg 104 117 41;
#X obj 203 535 *~ 1;
#X obj 504 254 loadbang;
#X msg 504 278 1;
#X obj 222 127 line~;
#X obj 222 7 r \$0-fearIndexInt;
#X msg 222 103 \$1 1000;
#X obj 214 246 *~;
#X obj 222 79 + 0.5;
#X obj 222 55 * 0.5;
#X obj 222 31 / 3;
#X obj 268 476 r \$0-bass-tgl-s;
#X msg 144 117 43;
#X obj 388 222 / 3;
#X msg 324 145 52;
#X obj 202 379 *~;
#X obj 202 403 *~ 0.5;
#X connect 1 0 2 0;
#X connect 2 0 40 0;
#X connect 3 0 2 1;
#X connect 4 0 32 0;
#X connect 5 0 38 0;
#X connect 6 0 7 0;
#X connect 7 0 16 0;
#X connect 7 1 39 0;
#X connect 8 0 3 0;
#X connect 9 0 1 0;
#X connect 10 0 9 0;
#X connect 11 0 14 0;
#X connect 12 0 4 0;
#X connect 13 0 12 0;
#X connect 14 0 15 0;
#X connect 14 1 25 0;
#X connect 14 2 37 0;
#X connect 15 0 13 0;
#X connect 16 0 10 0;
#X connect 17 0 18 0;
#X connect 18 0 22 0;
#X connect 19 0 21 0;
#X connect 19 1 20 1;
#X connect 20 0 23 0;
#X connect 21 0 20 0;
#X connect 22 0 18 1;
#X connect 22 0 19 0;
#X connect 23 0 24 0;
#X connect 24 0 40 1;
#X connect 25 0 13 0;
#X connect 26 0 0 0;
#X connect 27 0 28 0;
#X connect 28 0 17 0;
#X connect 29 0 32 1;
#X connect 30 0 35 0;
#X connect 31 0 29 0;
#X connect 32 0 40 0;
#X connect 33 0 31 0;
#X connect 34 0 33 0;
#X connect 35 0 34 0;
#X connect 36 0 26 1;
#X connect 37 0 13 0;
#X connect 38 0 8 0;
#X connect 39 0 10 0;
#X connect 40 0 41 0;
#X connect 41 0 26 0;
#X restore 83 635 pd bass;
#X obj 131 470 /~ 2;
#X text 611 444 // Conversion de fearIndex a 3 niveles;
#X text 670 754 // OSC fearIndex emotion-ID value;
#X text 742 496 0.33 = Bajo;
#X text 742 516 0.66 = Medio Alto;
#X text 742 476 0 = Nada;
#X text 742 536 0.99 = Alto;
#X obj 60 63 cnv 19 395 195 empty empty empty 20 12 0 12 #e0e0e0 #404040 0;
#X obj 114 207 hsl 101 19 0 1 0 0 \$0-presion-s \$0-presion-r presion -2 -10 0 12 #499bde #ffffff #000000 0 1;
#X obj 114 167 hsl 101 19 0 1 0 1 \$0-ritmo-cardiaco-s \$0-ritmo-cardiaco-r ritmo-cardiaco -2 -10 0 12 #499bde #ffffff #000000 0 1;
#X obj 114 127 hsl 101 19 0 1 0 0 \$0-electricidad-s \$0-electricidad-r electricidad -2 -10 0 12 #499bde #ffffff #000000 0 1;
#X obj 114 87 hsl 101 19 0 1 0 0 \$0-temperatura-s \$0-temperatura-r temperatura -2 -10 0 12 #499bde #ffffff #000000 0 1;
#X obj 234 88 hsl 101 19 0 1 0 1 \$0-fearIndex-s \$0-fearIndex-r fearIndex -2 -10 0 12 #ae5f44 #ffffff #000000 5300 1;
#X floatatom 231 112 5 0 0 0 - - - 0;
#X floatatom 338 89 5 0 0 0 - \$0-fearIndexInt - 0;
#X obj 234 158 hsl 101 19 0 1 0 1 \$0-volumen-s \$0-volumen-r Volumen -2 -10 0 12 #000000 #ffffff #000000 0 1;
#X obj 221 450 hip~ 1;
#X obj 321 450 hip~ 1;
#X text 251 688 // Reverb;
#X text 83 585 // sonidos;
#X obj 611 488 sel 0;
#X msg 611 512 0;
#X obj 661 581 + 1;
#X text 893 542 3 = Alto +1 *1.5;
#X text 893 522 2 = Medio 1 *1;
#X text 893 502 1 = Bajo 0 *1;
#X text 894 481 0 = Nada -1 *1;
#N canvas 130 130 638 568 breathing 0;
#X obj 303 739 file glob;
#X obj 375 642 bng 19 250 50 0 empty empty empty 0 -10 0 12 #fcfcfc #000000 #000000;
#X obj 435 800 else/count;
#X obj 375 666 t b b;
#X obj 303 763 t a b;
#X msg 303 710 symbol ./samples/breathing/*.wav;
#X msg 435 762 set 0;
#X obj 318 926 text define -k \$0-breathingSamples;
#A set ./samples/breathing/210000__jason130178__man-breathing.wav \; ./samples/breathing/234335__mcroce__breath.wav \; ./samples/breathing/235519__ceberation__heavy-breathing.wav \; ./samples/breathing/401336__ckvoiceover__breathing.wav \;;
#X obj 306 867 text set \$0-breathingSamples;
#X msg 301 815 symbol \$1;
#X obj 1155 748 tgl 19 0 empty empty empty 0 -10 0 12 #fcfcfc #000000 #000000 0 1;
#X obj 1155 796 else/chance 50;
#X obj 1155 772 metro 4000;
#X obj 1146 891 else/rand.i 0 3;
#X obj 1146 915 text get \$0-breathingSamples;
#X msg 1137 1005 open ./\$1.wav \, start;
#X obj 1137 1029 readsf~;
#X obj 1137 1053 *~ 0.1;
#X obj 1382 889 else/rand.i -30 -12;
#X connect 0 0 4 0;
#X connect 1 0 3 0;
#X connect 2 0 8 1;
#X connect 3 0 5 0;
#X connect 3 1 6 0;
#X connect 4 0 9 0;
#X connect 4 1 2 0;
#X connect 5 0 0 0;
#X connect 6 0 2 0;
#X connect 9 0 8 0;
#X connect 10 0 12 0;
#X connect 11 0 13 0;
#X connect 11 0 18 0;
#X connect 12 0 11 0;
#X connect 13 0 14 0;
#X connect 14 0 15 0;
#X connect 15 0 16 0;
#X connect 16 0 17 0;
#X restore 83 839 pd breathing;
#X obj 412 150 tgl 19 1 \$0-bass-tgl-s \$0-bass-tgl-r empty -30 10 0 12 #feffc6 #000000 #000000 1 1;
#X text 355 151 bass;
#X obj 412 174 tgl 19 1 \$0-howls-tgl-s \$0-howls-tgl-r empty -30 10 0 12 #feffc6 #000000 #000000 1 1;
#X text 355 175 howls;
#X obj 412 198 tgl 19 1 \$0-strings-tgl-s \$0-strings-tgl-r empty -30 10 0 12 #feffc6 #000000 #000000 1 1;
#X text 355 199 strings;
#N canvas 131 22 688 673 heartRate 0;
#X obj 396 26 / 127;
#X obj 396 50 * 40;
#X obj 396 74 + 60;
#X msg 396 98 60000 \$1;
#X obj 396 122 /;
#X obj 285 93 loadbang;
#X msg 285 117 1;
#X obj 285 141 metro;
#X obj 95 422 else/lowpass~;
#X obj 95 263 else/pink~;
#X obj 183 398 sig~ 0.4;
#X obj 436 151 v \$0-latidoMs;
#X obj 313 315 vline~;
#X obj 139 383 mtof~;
#X obj 156 461 else/drive~;
#X obj 295 490 *~;
#X obj 295 643 throw~ \$0-mono;
#X msg 252 252 1 1 \, 0 160 1;
#X obj 139 354 *~ 100;
#X obj 95 292 else/resonant~ 110 250;
#X obj 370 218 delay;
#X obj 402 186 / 4;
#X msg 32 227 clear;
#X msg 370 241 0.7 1 \, 0 160 1;
#X obj 313 426 sqrt~;
#X obj 422 643 throw~ \$0-reverb;
#X obj 422 619 *~ 0.1;
#X obj 396 2 r \$0-ritmo-cardiaco-s;
#X obj 295 619 *~ 1;
#X obj 295 564 *~ 0.5;
#X connect 0 0 1 0;
#X connect 1 0 2 0;
#X connect 2 0 3 0;
#X connect 3 0 4 0;
#X connect 4 0 7 1;
#X connect 4 0 11 0;
#X connect 4 0 21 0;
#X connect 5 0 6 0;
#X connect 6 0 7 0;
#X connect 7 0 17 0;
#X connect 7 0 22 0;
#X connect 7 0 20 0;
#X connect 8 0 14 0;
#X connect 9 0 19 0;
#X connect 10 0 8 2;
#X connect 12 0 24 0;
#X connect 12 0 18 0;
#X connect 13 0 8 1;
#X connect 14 0 15 0;
#X connect 15 0 29 0;
#X connect 17 0 12 0;
#X connect 18 0 13 0;
#X connect 19 0 8 0;
#X connect 20 0 23 0;
#X connect 21 0 20 1;
#X connect 22 0 8 0;
#X connect 22 0 19 0;
#X connect 23 0 12 0;
#X connect 24 0 15 1;
#X connect 26 0 25 0;
#X connect 27 0 0 0;
#X connect 28 0 16 0;
#X connect 29 0 26 0;
#X connect 29 0 28 0;
#X restore 83 659 pd heartRate;
#X obj 661 533 + 0;
#X obj 465 549 loadbang;
#X msg 465 573 dsp 1;
#X obj 465 597 send pd;
#N canvas 9 16 934 956 fear-index-acum 0;
#X obj 252 45 tgl 19 0 empty empty empty 0 -10 0 12 #fcfcfc #000000 #000000 0 1;
#X obj 252 69 metro 100;
#X obj 252 93 v \$0-fearIndexInt;
#X obj 615 133 t f b;
#X obj 615 177 f;
#X obj 567 102 t f f;
#X obj 567 206 -;
#X obj 567 46 r \$0-fearIndexInt;
#X obj 567 75 change -1;
#X text 626 265 diferencia;
#X obj 342 187 tgl 19 0 empty empty empty 0 -10 0 12 #fcfcfc #000000 #000000 0 1;
#X obj 345 211 metro 100;
#X obj 367 263 f;
#X obj 367 287 +;
#X obj 407 287 i;
#X floatatom 367 345 5 0 0 0 - - - 0;
#X obj 567 230 clip -1 3;
#X obj 367 321 clip 0 500;
#X obj 370 383 hsl 162 19 0 127 0 0 empty empty empty -2 -10 0 12 #fcfcfc #000000 #000000 0 1;
#X floatatom 515 57 5 0 0 0 - - - 0;
#X floatatom 567 254 5 0 0 0 - - - 0;
#X obj 252 117 - 1;
#X obj 252 141 +;
#X obj 252 165 clip 0 500;
#X obj 292 141 i;
#X floatatom 252 189 5 0 0 0 - - - 0;
#X connect 0 0 1 0;
#X connect 1 0 2 0;
#X connect 2 0 21 0;
#X connect 3 0 4 1;
#X connect 3 1 4 0;
#X connect 4 0 6 1;
#X connect 5 0 6 0;
#X connect 5 1 3 0;
#X connect 6 0 16 0;
#X connect 7 0 8 0;
#X connect 8 0 5 0;
#X connect 10 0 11 0;
#X connect 11 0 12 0;
#X connect 12 0 13 0;
#X connect 13 0 17 0;
#X connect 14 0 13 1;
#X connect 15 0 18 0;
#X connect 16 0 12 1;
#X connect 16 0 20 0;
#X connect 17 0 14 0;
#X connect 17 0 15 0;
#X connect 19 0 8 0;
#X connect 21 0 22 0;
#X connect 22 0 23 0;
#X connect 23 0 24 0;
#X connect 23 0 25 0;
#X connect 24 0 22 1;
#X restore 485 702 pd fear-index-acum;
#X obj 848 281 oscparse;
#X obj 848 329 route heartRate;
#X obj 848 257 netreceive -u -b 6001;
#X obj 848 305 list trim;
#X obj 848 353 else/rescale -1 1 0 1;
#X obj 848 377 s \$0-ritmo-cardiaco-r;
#X obj 85 560 declare -path ./abs;
#X obj 246 874 adc~ 1;
#X obj 246 898 env~;
#X obj 246 922 - 100;
#X obj 246 946 s \$0-vu;
#X obj 333 901 *~ 0.2;
#X obj 333 925 lop~ 500;
#X obj 333 949 throw~ \$0-reverb;
#X obj 464 67 cnv 15 340 240 empty empty Microphone 12 20 0 18 #ffe3c6 #404040 0;
#X obj 483 119 vu 19 120 \$0-vu empty -1 -10 0 12 #000000 #000000 1 0;
#X text 544 114 Presionar el boton "Direct Monitor" \; para escuchar el microfono.;
#N canvas 68 96 839 701 pressure-y-electricity 0;
#X obj 308 264 *~ 0.2;
#X obj 308 182 else/resonant~ 61.73 500;
#X obj 333 211 else/resonant~ 184.9 37;
#X obj 333 235 *~ 0.3;
#X obj 253 413 else/drive~;
#X obj 386 274 r \$0-pressure-s;
#X obj 386 298 / 127;
#X obj 386 346 + 100;
#X obj 386 370 dbtorms;
#X obj 386 394 else/f2s~ 20;
#X obj 308 124 else/pink~;
#X obj 35 218 noise~;
#X obj 102 50 r \$0-electricity-s;
#X obj 102 74 / 127;
#X msg 102 98 1 \$1;
#X obj 102 122 -;
#X msg 102 194 10 \$1;
#X obj 102 218 pow;
#X obj 102 170 + 2;
#X obj 102 146 * 2;
#X obj 65 305 *~ 0.02;
#X obj 35 276 else/highpass~ 3000 0.7;
#X obj 253 384 +~;
#X text 440 333 <- de 0 a +24 dB de distorsion;
#X text 145 202 <- de 10k a 100;
#X text 102 30 GUI: electricity;
#X obj 35 513 throw~ \$0-reverb;
#X obj 35 489 *~ 0.15;
#X obj 308 153 else/power~ 3;
#X obj 35 247 else/power~ 100;
#X text 386 255 GUI: blood pressure;
#X obj 667 304 / 127;
#X text 667 260 GUI:engagement;
#X obj 667 280 r \$0-engagement-s;
#X msg 667 328 1 \$1;
#X obj 667 352 -;
#X msg 667 424 \$1 20;
#X obj 667 448 line~;
#X obj 277 485 *~;
#X obj 277 533 throw~ \$0-mono;
#X obj 667 401 + 0.5;
#X obj 667 376 * 0.2;
#X obj 278 510 *~ 0.4;
#X obj 386 322 * 12;
#X connect 0 0 22 1;
#X connect 1 0 0 0;
#X connect 2 0 3 0;
#X connect 3 0 0 0;
#X connect 4 0 38 0;
#X connect 5 0 6 0;
#X connect 6 0 43 0;
#X connect 7 0 8 0;
#X connect 8 0 9 0;
#X connect 9 0 4 1;
#X connect 10 0 28 0;
#X connect 11 0 29 0;
#X connect 12 0 13 0;
#X connect 13 0 14 0;
#X connect 14 0 15 0;
#X connect 15 0 19 0;
#X connect 16 0 17 0;
#X connect 17 0 29 1;
#X connect 18 0 16 0;
#X connect 19 0 18 0;
#X connect 20 0 22 0;
#X connect 21 0 20 0;
#X connect 22 0 4 0;
#X connect 27 0 26 0;
#X connect 28 0 1 0;
#X connect 28 0 2 0;
#X connect 29 0 21 0;
#X connect 31 0 34 0;
#X connect 33 0 31 0;
#X connect 34 0 35 0;
#X connect 35 0 41 0;
#X connect 36 0 37 0;
#X connect 37 0 38 1;
#X connect 38 0 42 0;
#X connect 40 0 36 0;
#X connect 41 0 40 0;
#X connect 42 0 39 0;
#X connect 43 0 7 0;
#X restore 788 684 pd pressure-y-electricity;
#X connect 0 0 1 0;
#X connect 1 0 2 0;
#X connect 4 0 18 0;
#X connect 4 1 19 0;
#X connect 5 0 20 0;
#X connect 6 0 7 0;
#X connect 6 0 10 0;
#X connect 7 0 8 0;
#X connect 8 0 63 0;
#X connect 10 0 11 0;
#X connect 11 0 64 0;
#X connect 15 0 7 0;
#X connect 16 0 10 0;
#X connect 17 0 4 0;
#X connect 18 0 13 0;
#X connect 19 0 14 0;
#X connect 20 0 4 0;
#X connect 23 0 17 0;
#X connect 27 0 67 0;
#X connect 28 0 69 0;
#X connect 29 0 82 0;
#X connect 32 0 37 0;
#X connect 32 0 34 0;
#X connect 33 0 32 0;
#X connect 35 0 36 0;
#X connect 37 0 35 0;
#X connect 39 0 40 0;
#X connect 40 0 41 0;
#X connect 41 0 42 0;
#X connect 42 0 43 1;
#X connect 42 0 44 1;
#X connect 43 0 12 0;
#X connect 44 0 9 0;
#X connect 47 0 2 0;
#X connect 59 0 60 0;
#X connect 63 0 44 0;
#X connect 63 0 47 0;
#X connect 64 0 43 0;
#X connect 64 0 47 0;
#X connect 67 0 68 0;
#X connect 67 1 29 0;
#X connect 68 0 31 0;
#X connect 69 0 31 0;
#X connect 82 0 28 0;
#X connect 83 0 84 0;
#X connect 84 0 85 0;
#X connect 87 0 90 0;
#X connect 88 0 91 0;
#X connect 89 0 87 0;
#X connect 90 0 88 0;
#X connect 91 0 92 0;
#X connect 94 0 95 0;
#X connect 95 0 96 0;
#X connect 96 0 97 0;
#X connect 98 0 99 0;
#X connect 99 0 100 0;
